<svg version="1.1" viewBox="0.0 0.0 500.0 500.0" fill="none" stroke="none" stroke-linecap="square" stroke-miterlimit="10" xmlns:xlink="http://www.w3.org/1999/xlink" xmlns="http://www.w3.org/2000/svg"><clipPath id="p.0"><path d="m0 0l500.0 0l0 500.0l-500.0 0l0 -500.0z" clip-rule="nonzero"/></clipPath><g clip-path="url(#p.0)"><path fill="#000000" fill-opacity="0.0" d="m0 0l500.0 0l0 500.0l-500.0 0z" fill-rule="evenodd"/><path fill="#3d85c6" d="m326.73193 139.29465l0 77.17976l-77.17976 0l0 -77.17976z" fill-rule="evenodd"/><path stroke="#0b5394" stroke-width="8.0" stroke-linejoin="round" stroke-linecap="butt" d="m326.73193 139.29465l0 77.17976l-77.17976 0l0 -77.17976z" fill-rule="evenodd"/><path fill="#3d85c6" d="m403.91165 139.29121l0 77.17976l-77.17975 0l0 -77.17976z" fill-rule="evenodd"/><path stroke="#0b5394" stroke-width="8.0" stroke-linejoin="round" stroke-linecap="butt" d="m403.91165 139.29121l0 77.17976l-77.17975 0l0 -77.17976z" fill-rule="evenodd"/><path fill="#3d85c6" d="m481.08972 139.29155l0 77.17976l-77.17978 0l0 -77.17976z" fill-rule="evenodd"/><path stroke="#0b5394" stroke-width="8.0" stroke-linejoin="round" stroke-linecap="butt" d="m481.08972 139.29155l0 77.17976l-77.17978 0l0 -77.17976z" fill-rule="evenodd"/><path fill="#3d85c6" d="m481.08966 62.11575l0 77.17976l-77.17975 0l0 -77.17976z" fill-rule="evenodd"/><path stroke="#0b5394" stroke-width="8.0" stroke-linejoin="round" stroke-linecap="butt" d="m481.08966 62.11575l0 77.17976l-77.17975 0l0 -77.17976z" fill-rule="evenodd"/><path fill="#3d85c6" d="m96.23748 325.02335l76.88189 0l0 76.8819l-76.88189 0z" fill-rule="evenodd"/><path stroke="#0b5394" stroke-width="8.0" stroke-linejoin="round" stroke-linecap="butt" d="m96.23748 325.02335l76.88189 0l0 76.8819l-76.88189 0z" fill-rule="evenodd"/><path fill="#3d85c6" d="m96.24089 401.9015l76.8819 0l0 76.8819l-76.8819 0z" fill-rule="evenodd"/><path stroke="#0b5394" stroke-width="8.0" stroke-linejoin="round" stroke-linecap="butt" d="m96.24089 401.9015l76.8819 0l0 76.8819l-76.8819 0z" fill-rule="evenodd"/><path fill="#3d85c6" d="m19.36238 325.0216l76.88189 0l0 76.8819l-76.88189 0z" fill-rule="evenodd"/><path stroke="#0b5394" stroke-width="8.0" stroke-linejoin="round" stroke-linecap="butt" d="m19.36238 325.0216l76.88189 0l0 76.8819l-76.88189 0z" fill-rule="evenodd"/><path fill="#3d85c6" d="m19.362116 401.89975l76.88189 0l0 76.88187l-76.88189 0z" fill-rule="evenodd"/><path stroke="#0b5394" stroke-width="8.0" stroke-linejoin="round" stroke-linecap="butt" d="m19.362116 401.89975l76.88189 0l0 76.88187l-76.88189 0z" fill-rule="evenodd"/><path fill="#3d85c6" d="m173.2698 21.219124l77.17976 0l0 77.17976l-77.17976 0z" fill-rule="evenodd"/><path stroke="#0b5394" stroke-width="8.0" stroke-linejoin="round" stroke-linecap="butt" d="m173.2698 21.219124l77.17976 0l0 77.17976l-77.17976 0z" fill-rule="evenodd"/><path fill="#3d85c6" d="m96.09175 21.21878l77.17976 0l0 77.17976l-77.17976 0z" fill-rule="evenodd"/><path stroke="#0b5394" stroke-width="8.0" stroke-linejoin="round" stroke-linecap="butt" d="m96.09175 21.21878l77.17976 0l0 77.17976l-77.17976 0z" fill-rule="evenodd"/><path fill="#3d85c6" d="m18.912031 21.218517l77.17976 0l0 77.17976l-77.17976 0z" fill-rule="evenodd"/><path stroke="#0b5394" stroke-width="8.0" stroke-linejoin="round" stroke-linecap="butt" d="m18.912031 21.218517l77.17976 0l0 77.17976l-77.17976 0z" fill-rule="evenodd"/><path fill="#3d85c6" d="m96.09 98.395454l77.17976 0l0 77.17977l-77.17976 0z" fill-rule="evenodd"/><path stroke="#0b5394" stroke-width="8.0" stroke-linejoin="round" stroke-linecap="butt" d="m96.09 98.395454l77.17976 0l0 77.17977l-77.17976 0z" fill-rule="evenodd"/><path fill="#3d85c6" d="m249.99747 325.02335l76.8819 0l0 76.8819l-76.8819 0z" fill-rule="evenodd"/><path stroke="#0b5394" stroke-width="8.0" stroke-linejoin="round" stroke-linecap="butt" d="m249.99747 325.02335l76.8819 0l0 76.8819l-76.8819 0z" fill-rule="evenodd"/><path fill="#3d85c6" d="m250.00087 401.9015l76.88188 0l0 76.8819l-76.88188 0z" fill-rule="evenodd"/><path stroke="#0b5394" stroke-width="8.0" stroke-linejoin="round" stroke-linecap="butt" d="m250.00087 401.9015l76.88188 0l0 76.8819l-76.88188 0z" fill-rule="evenodd"/><path fill="#f3f3f3" d="m279.69183 463.53244q-2.75 0.375 -5.0 -0.25q-2.25 -0.625 -4.03125 -1.9375q-1.78125 -1.3125 -3.0625 -3.125q-1.28125 -1.8125 -2.09375 -3.875q-0.5625 -4.25 0.3125 -7.71875q0.875 -3.46875 2.5625 -6.40625q1.6875 -2.9375 3.84375 -5.5q2.15625 -2.5625 4.15625 -4.9375q0.4375 0.1875 0.71875 0q0.28125 -0.1875 0.5 -0.5q0.21875 -0.3125 0.5 -0.625q0.28125 -0.3125 0.65625 -0.4375q0.25 -0.5625 0.65625 -0.9375q0.40625 -0.375 0.875 -0.71875q0.46875 -0.34375 0.875 -0.71875q0.40625 -0.375 0.71875 -0.9375q0.625 -0.125 1.09375 -0.4375q0.46875 -0.3125 0.875 -0.6875q0.40625 -0.375 0.84375 -0.6875q0.4375 -0.3125 1.0625 -0.5l0 -0.8125q1.375 -0.625 2.0 -1.375q0.625 -0.75 1.5 -1.9375q0.6875 -0.0625 1.09375 -0.0625q0.40625 0 1.28125 -0.125q0.5625 -1.0625 1.0625 -1.5625q0.5 -0.5 1.4375 -1.125q0.9375 0.5 2.0 0.59375q1.0625 0.09375 1.9375 0.96875q0.0625 0.75 0.4375 1.15625q0.375 0.40625 0.8125 0.75q0.4375 0.34375 0.875 0.71875q0.4375 0.375 0.5625 1.0625q0.3125 0 0.40625 -0.125q0.09375 -0.125 0.40625 -0.0625q0.125 0.5 0.25 0.8125q0.125 0.3125 0.28125 0.5625q0.15625 0.25 0.3125 0.5625q0.15625 0.3125 0.28125 0.75q-0.3125 0.75 -0.5625 1.59375q-0.25 0.84375 -1.0 1.15625q0 0.5 0.375 0.53125q0.375 0.03125 0.4375 0.46875q0.0625 0.5625 -0.1875 0.9375q1.75 2.9375 3.1875 6.15625q1.4375 3.21875 3.25 6.15625q-0.125 0.875 0.09375 1.71875q0.21875 0.84375 0.5625 1.65625q0.34375 0.8125 0.65625 1.625q0.3125 0.8125 0.4375 1.625q0.125 1.0625 0 2.28125q-0.125 1.21875 -0.5 2.34375q-0.375 1.125 -1.0 2.09375q-0.625 0.96875 -1.4375 1.46875q-1.0 1.25 -2.5 2.03125q-1.5 0.78125 -2.75 1.84375q-0.875 0.5 -1.875 0.71875q-1.0 0.21875 -2.0625 0.46875q-0.8125 0.5 -1.9375 0.96875q-1.125 0.46875 -2.3125 0.84375q-1.1875 0.375 -2.375 0.59375q-1.1875 0.21875 -2.125 0.09375q-2.25 0.8125 -4.375 1.125q-2.125 0.3125 -5.0 -0.3125zm0.8125 -22.75q-0.625 1.4375 -1.46875 2.59375q-0.84375 1.15625 -1.65625 2.34375q-0.8125 1.1875 -1.40625 2.53125q-0.59375 1.34375 -0.65625 3.15625q1.25 1.0625 2.96875 1.28125q1.71875 0.21875 3.53125 0.0625q1.8125 -0.15625 3.625 -0.46875q1.8125 -0.3125 3.25 -0.3125q0 -0.5625 0.5 -0.5625q2.625 -0.25 4.875 -1.46875q2.25 -1.21875 4.6875 -2.46875q0.3125 -0.75 0.8125 -1.3125q0.5 -0.5625 0.5625 -1.625q-0.3125 -0.5625 -0.40625 -0.9375q-0.09375 -0.375 -0.09375 -1.125q-1.625 -2.25 -2.8125 -4.90625q-1.1875 -2.65625 -2.75 -5.03125q-0.125 0.3125 -0.5 0.625q-0.375 0.3125 -0.8125 -0.125q-0.1875 0.625 -0.5625 0.84375q-0.375 0.21875 -0.84375 0.21875q-0.46875 0 -0.9375 -0.1875q-0.46875 -0.1875 -0.84375 -0.5q-2.1875 1.75 -4.34375 3.375q-2.15625 1.625 -3.90625 3.8125q-0.3125 0.1875 -0.375 0.125q-0.0625 -0.0625 -0.4375 0.0625z" fill-rule="nonzero"/><path fill="#3d85c6" d="m173.12236 325.0216l76.8819 0l0 76.8819l-76.8819 0z" fill-rule="evenodd"/><path stroke="#0b5394" stroke-width="8.0" stroke-linejoin="round" stroke-linecap="butt" d="m173.12236 325.0216l76.8819 0l0 76.8819l-76.8819 0z" fill-rule="evenodd"/><path fill="#3d85c6" d="m173.1221 401.89975l76.88188 0l0 76.88187l-76.88188 0z" fill-rule="evenodd"/><path stroke="#0b5394" stroke-width="8.0" stroke-linejoin="round" stroke-linecap="butt" d="m173.1221 401.89975l76.88188 0l0 76.88187l-76.88188 0z" fill-rule="evenodd"/><path fill="#3d85c6" d="m403.75745 325.02335l76.8819 0l0 76.8819l-76.8819 0z" fill-rule="evenodd"/><path stroke="#0b5394" stroke-width="8.0" stroke-linejoin="round" stroke-linecap="butt" d="m403.75745 325.02335l76.8819 0l0 76.8819l-76.8819 0z" fill-rule="evenodd"/><path fill="#3d85c6" d="m403.76086 401.9015l76.8819 0l0 76.8819l-76.8819 0z" fill-rule="evenodd"/><path stroke="#0b5394" stroke-width="8.0" stroke-linejoin="round" stroke-linecap="butt" d="m403.76086 401.9015l76.8819 0l0 76.8819l-76.8819 0z" fill-rule="evenodd"/><path fill="#f3f3f3" d="m424.1393 428.03244q-0.0625 -0.5 -0.21875 -0.90625q-0.15625 -0.40625 -0.34375 -0.90625q-0.3125 -0.75 -0.5625 -1.625q-0.25 -0.875 -0.25 -2.0625q0.125 -0.625 0.3125 -0.90625q0.1875 -0.28125 0.375 -0.46875l0.25 -1.125l0.9375 0q0.5 0.0625 1.03125 0.0625q0.53125 0 1.03125 0q2.375 0 4.875 -0.1875q2.5 -0.1875 5.125 -0.4375q2.875 -0.375 6.1875 -0.5625q0.3125 -0.6875 0.40625 -0.875q0.09375 -0.1875 0.21875 -0.4375l0.6875 -0.375q1.4375 -0.0625 2.0 0.34375q0.5625 0.40625 0.875 0.78125q1.625 -0.125 3.3125 -0.34375q1.6875 -0.21875 3.5 -0.46875q2.5 -0.3125 5.0625 -0.625q2.5625 -0.3125 5.0 -0.3125q1.0625 0 2.0 0.0625q0.9375 0.0625 1.8125 0.1875l0.75 0.5625q0.25 0.4375 0.625 0.8125q0.375 0.375 0.875 0.75q0.9375 0.75 1.84375 1.875q0.90625 1.125 0.65625 3.3125l-0.3125 0.625q-0.25 0.25 -0.625 0.5l-0.625 0.8125l-0.6875 0q-0.625 0 -0.9375 0.09375q-0.3125 0.09375 -0.75 0.28125q-0.25 0.125 -0.5625 0.21875q-0.3125 0.09375 -0.6875 0.21875q-0.6875 -0.0625 -1.0625 -0.0625q-0.375 0 -0.875 0q-1.875 0 -4.0625 0.25q-2.1875 0.25 -4.25 0.5625q-1.5 0.1875 -2.875 0.34375q-1.375 0.15625 -2.5 0.28125q-0.625 1.625 -1.125 2.875q-0.5 1.25 -1.0625 2.5q-0.5625 1.25 -1.0625 2.53125q-0.5 1.28125 -0.9375 2.84375q-0.75 1.125 -1.25 2.15625q-0.5 1.03125 -0.8125 2.34375q-0.9375 1.0625 -1.34375 2.3125q-0.40625 1.25 -0.71875 2.125l-0.25 0.9375q-0.4375 0.4375 -0.53125 0.6875q-0.09375 0.25 -0.34375 0.5625q-0.1875 0.8125 -0.5 1.5625q-0.125 0.3125 -0.25 0.65625q-0.125 0.34375 -0.0625 0.53125q-0.125 0.6875 -0.375 1.0625q0 0.375 -0.0625 0.75q-0.0625 0.375 -0.125 0.75q-0.125 0.4375 -0.1875 0.78125q-0.0625 0.34375 0.0625 0.65625q0.1875 0.25 0.375 0.5q0.1875 0.25 0.3125 0.625q0.125 0.125 0.3125 0.1875q0.1875 0.0625 0.3125 0.1875q0.5 0.4375 0.9375 0.5l0.625 0.75q0.375 2.25 -0.6875 3.5q-1.125 1.4375 -3.75 1.4375l-0.875 -0.0625q-0.4375 -0.4375 -0.5 -0.5625q-0.5625 -0.25 -0.9375 -0.40625q-0.375 -0.15625 -0.6875 -0.59375q-0.125 -0.125 -0.3125 -0.15625q-0.1875 -0.03125 -0.3125 -0.15625q-0.625 -0.1875 -1.0 -0.4375l-0.6875 -0.375q0.0625 -0.625 0.0625 -0.875q-0.5 -0.6875 -0.78125 -1.5q-0.28125 -0.8125 -0.46875 -1.6875q-0.1875 -0.6875 -0.34375 -1.25q-0.15625 -0.5625 -0.46875 -1.0q-0.125 -4.375 0.8125 -7.34375q0.9375 -2.96875 2.0625 -5.78125q0.625 -1.5 1.1875 -3.0625q0.5625 -1.5625 1.0 -3.1875l0.6875 -0.6875q0.4375 -0.375 0.5625 -0.4375q0 -0.8125 0.3125 -1.59375q0.3125 -0.78125 0.6875 -1.59375q0.25 -0.5 0.46875 -1.0q0.21875 -0.5 0.28125 -0.875q-0.4375 0 -0.78125 0.03125q-0.34375 0.03125 -0.71875 0.09375q-0.8125 0.1875 -1.5625 0.1875q-0.5625 0 -0.8125 -0.0625q-0.5 0.25 -0.9375 0.28125q-0.4375 0.03125 -0.875 0.03125l-0.75 0l-0.75 0q-0.75 0 -1.1875 0.1875q-0.875 0 -1.125 0q-0.25 0 -0.5625 0l-0.75 0l-0.75 0q-0.5 0 -1.125 -0.09375q-0.625 -0.09375 -1.3125 -0.46875l-0.4375 -0.5q-0.375 -0.6875 -0.6875 -0.75l-0.6875 -0.1875l0 -0.6875z" fill-rule="nonzero"/><path fill="#3d85c6" d="m326.88235 325.0216l76.88187 0l0 76.8819l-76.88187 0z" fill-rule="evenodd"/><path stroke="#0b5394" stroke-width="8.0" stroke-linejoin="round" stroke-linecap="butt" d="m326.88235 325.0216l76.88187 0l0 76.8819l-76.88187 0z" fill-rule="evenodd"/><path fill="#3d85c6" d="m326.88208 401.89975l76.8819 0l0 76.88187l-76.8819 0z" fill-rule="evenodd"/><path stroke="#0b5394" stroke-width="8.0" stroke-linejoin="round" stroke-linecap="butt" d="m326.88208 401.89975l76.8819 0l0 76.88187l-76.8819 0z" fill-rule="evenodd"/><path fill="#f3f3f3" d="m347.57303 432.34317q-0.125 -0.8125 -0.3125 -1.0q0.4375 -1.125 0.65625 -2.21875q0.21875 -1.09375 0.34375 -2.09375q0.125 -0.875 0.28125 -1.625q0.15625 -0.75 0.40625 -1.4375q1.0625 -0.25 1.59375 -0.90625q0.53125 -0.65625 0.84375 -1.15625q1.125 -0.0625 1.46875 0.3125q0.34375 0.375 0.78125 1.25q0.3125 0.6875 0.875 1.46875q0.5625 0.78125 1.6875 1.21875q0.1875 0.6875 0.4375 1.3125q0.25 0.625 0.5625 1.3125q0.5625 1.3125 1.0625 2.71875q0.5 1.40625 0.5625 2.65625q-0.75 1.4375 -1.15625 3.3125q-0.40625 1.875 -0.5 3.78125q-0.09375 1.90625 0.09375 3.65625q0.1875 1.75 0.625 2.9375l0.375 1.0l1.375 -0.125q2.25 -0.5625 4.0625 -1.28125q1.8125 -0.71875 3.375 -1.71875q1.5625 -1.0 3.0 -2.28125q1.4375 -1.28125 3.0 -3.03125q1.5 -1.75 2.6875 -3.96875q1.1875 -2.21875 1.96875 -4.59375q0.78125 -2.375 1.21875 -4.75q0.4375 -2.375 0.5625 -4.4375q1.1875 -0.5625 1.3125 -1.8125l-0.1875 -0.8125q-0.1875 -0.3125 -0.15625 -0.59375q0.03125 -0.28125 0.15625 -0.53125q0.5 -1.4375 2.125 -2.125q1.125 0.75 2.09375 1.625q0.96875 0.875 1.78125 1.75q0.125 1.6875 0.5 2.90625q0.375 1.21875 0.8125 2.34375q0.4375 1.0625 0.78125 2.0625q0.34375 1.0 0.46875 2.4375q-0.625 1.875 -0.90625 3.53125q-0.28125 1.65625 -0.53125 3.46875l-0.125 0.6875q-1.125 1.9375 -2.21875 3.96875q-1.09375 2.03125 -1.78125 3.53125q-0.375 0.375 -0.65625 0.875q-0.28125 0.5 -0.53125 1.0q-0.125 0.1875 -0.34375 0.625q-0.21875 0.4375 -0.40625 0.625l-1.5 -0.5625l-0.375 1.9375l-1.0 0.25l-0.75 0.875q-1.4375 2.5 -3.03125 4.1875q-1.59375 1.6875 -3.5625 3.0q-1.96875 1.3125 -4.4375 2.46875q-2.46875 1.15625 -5.65625 2.46875q-1.25 -0.1875 -2.15625 -0.21875q-0.90625 -0.03125 -1.78125 -0.09375q-0.875 0 -1.6875 -0.0625q-0.8125 -0.0625 -1.875 -0.1875q-0.25 -0.5625 -0.6875 -0.8125q-0.4375 -0.25 -0.8125 -0.25q-1.25 -0.625 -1.875 -1.75q-0.625 -1.125 -1.3125 -2.5q-0.3125 -0.75 -0.65625 -1.5q-0.34375 -0.75 -0.84375 -1.4375l1.25 -0.375l-1.625 -1.875q-0.1875 -0.1875 -0.40625 -0.375q-0.21875 -0.1875 -0.40625 -0.4375l0 -1.1875q-0.25 -5.125 -0.21875 -9.46875q0.03125 -4.34375 1.15625 -7.65625l0.125 -0.3125z" fill-rule="nonzero"/><path fill="#3d85c6" d="m96.23617 247.23596l76.88189 0l0 76.8819l-76.88189 0z" fill-rule="evenodd"/><path stroke="#0b5394" stroke-width="8.0" stroke-linejoin="round" stroke-linecap="butt" d="m96.23617 247.23596l76.88189 0l0 76.8819l-76.88189 0z" fill-rule="evenodd"/><path fill="#f3f3f3" d="m110.58336 302.6794l0.8125 -0.625l0.0625 -1.3125q1.5625 -3.8125 3.21875 -7.3125q1.65625 -3.5 3.46875 -7.1875q0.5625 -1.1875 1.15625 -2.375q0.59375 -1.1875 1.15625 -2.4375q-0.0625 -0.25 -0.0625 -0.53125q0 -0.28125 0.125 -0.65625q0.875 -1.25 1.40625 -2.25q0.53125 -1.0 1.03125 -2.0625q0.5625 -1.25 1.21875 -2.5q0.65625 -1.25 1.65625 -2.4375l0.4375 -0.625l0.6875 0.0625q0.25 -0.125 0.53125 -0.21875q0.28125 -0.09375 0.71875 -0.09375l1.125 0.1875q2.0625 -0.9375 3.65625 -2.71875q1.59375 -1.78125 3.21875 -4.28125l0.75 -1.0625l1.0 0.625q0.3125 0.1875 1.0 0.375q0.6875 0.1875 1.4375 0.4375q1.3125 0.3125 2.5625 0.71875q1.25 0.40625 1.9375 1.09375l0.3125 0.5625q0.125 0.6875 0.21875 1.25q0.09375 0.5625 0.21875 1.125q0.25 1.3125 0.4375 2.59375q0.1875 1.28125 0.25 2.84375q0.3125 1.25 0.59375 2.53125q0.28125 1.28125 0.53125 2.53125q0.3125 1.8125 0.6875 3.46875q0.375 1.65625 1.0 3.15625q0.625 0 0.75 0.0625q0.75 -0.3125 1.75 -0.375l0.8125 -0.0625l0.25 0.75q0.125 0.1875 0.3125 0.375q0.1875 0.1875 0.4375 0.375q1.0 0.0625 1.46875 0.40625q0.46875 0.34375 0.78125 0.65625q0.125 0.125 0.3125 0.28125q0.1875 0.15625 0.3125 0.21875l1.125 0.4375l-0.625 1.1875q-0.6875 1.3125 -2.09375 2.5625q-1.40625 1.25 -3.15625 2.0625q0.125 0.4375 0.15625 0.8125q0.03125 0.375 0.15625 0.875q0.25 1.25 0.40625 2.59375q0.15625 1.34375 -0.03125 2.78125q-0.625 1.625 -1.46875 2.90625q-0.84375 1.28125 -2.0 2.3125q-1.15625 1.03125 -2.59375 1.6875q-1.4375 0.65625 -3.0 0.71875q-0.875 -0.1875 -1.28125 -0.4375q-0.40625 -0.25 -0.71875 -0.5q-0.5 -0.375 -0.8125 -0.5l-0.8125 -0.375l0.25 -0.9375q0.1875 -0.5 -0.03125 -0.875q-0.21875 -0.375 -0.90625 -1.0q-0.25 -0.1875 -0.4375 -0.40625q-0.1875 -0.21875 -0.4375 -0.46875l-1.25 -1.4375l2.0625 -0.5625q1.875 -0.5 2.5 -1.28125q0.625 -0.78125 0.5 -2.78125q-1.5625 -0.3125 -2.5625 -0.09375q-1.0 0.21875 -2.0 0.46875q-1.4375 0.375 -2.8125 0.65625q-1.375 0.28125 -3.0 0.28125q-1.0625 0 -2.25 -0.1875l-0.6875 -0.0625l-0.1875 -0.6875q0 -0.125 -0.15625 -0.28125q-0.15625 -0.15625 -0.28125 -0.28125q-0.3125 -0.375 -0.75 -1.0q-0.4375 -0.625 -0.1875 -1.5625q-0.4375 -0.6875 -0.5 -1.4375q-0.25 0.5 -0.40625 0.96875q-0.15625 0.46875 -0.28125 0.90625l-0.25 0.8125l-0.8125 0.125q-0.125 0.125 -0.21875 0.375q-0.09375 0.25 -0.03125 0.375l0.25 0.6875l-0.625 0.5625q-0.125 0.1875 -0.3125 0.3125q-0.1875 0.125 -0.3125 0.25q-0.125 0.6875 -0.34375 1.3125q-0.21875 0.625 -0.46875 1.25q-0.3125 1.0 -0.59375 1.9375q-0.28125 0.9375 -0.28125 1.875l-0.25 0.8125q-0.3125 0.5 -0.78125 0.75q-0.46875 0.25 -0.90625 0.4375q-0.625 0.25 -0.875 0.5l-0.1875 0.8125l-0.9375 0.125q-0.8125 0.1875 -1.15625 0.25q-0.34375 0.0625 -0.78125 0.0625l-0.8125 -0.0625q-0.75 -0.75 -1.21875 -1.15625q-0.46875 -0.40625 -1.09375 -0.71875l-0.375 -0.5q-0.25 -0.5 -0.3125 -0.90625q-0.0625 -0.40625 -0.1875 -0.84375q-0.125 -0.8125 -0.375 -1.125l-0.9375 -0.9375zm19.9375 -16.25q-0.875 1.25 -1.6875 2.625q0.4375 -0.0625 0.84375 -0.0625q0.40625 0 0.84375 -0.0625q2.1875 -0.125 4.0625 -0.3125q1.875 -0.1875 4.0625 -0.625q-0.5 -2.3125 -1.09375 -4.71875q-0.59375 -2.40625 -1.28125 -4.84375l-0.3125 0.625q-1.5625 1.6875 -3.0 3.625q-1.4375 1.9375 -2.375 3.6875l-0.0625 0.0625z" fill-rule="nonzero"/><path fill="#3d85c6" d="m19.361067 247.2342l76.88189 0l0 76.88188l-76.88189 0z" fill-rule="evenodd"/><path stroke="#0b5394" stroke-width="8.0" stroke-linejoin="round" stroke-linecap="butt" d="m19.361067 247.2342l76.88189 0l0 76.88188l-76.88189 0z" fill-rule="evenodd"/><path fill="#f3f3f3" d="m41.02076 278.42764q-2.625 -1.0625 -4.34375 -3.0q-1.71875 -1.9375 -2.78125 -4.5625q0.625 -1.6875 2.0 -2.84375q1.375 -1.15625 3.09375 -1.96875q1.71875 -0.8125 3.65625 -1.3125q1.9375 -0.5 3.75 -0.875q0.375 0.125 0.375 0q0 -0.125 0.3125 0.125q2.25 -0.6875 5.1875 -1.34375q2.9375 -0.65625 6.25 -0.46875q0.4375 -0.25 1.0625 -0.28125q0.625 -0.03125 1.3125 -0.03125q0.6875 0 1.3125 -0.03125q0.625 -0.03125 1.0625 -0.21875q0.375 0.4375 1.125 0.53125q0.75 0.09375 1.5625 0.65625q0.25 0.0625 0 -0.21875q-0.25 -0.28125 0.0625 -0.40625q0.8125 0 1.4375 0.375q0.625 0.375 1.15625 0.84375q0.53125 0.46875 1.0 0.84375q0.46875 0.375 1.03125 0.375q0.5625 0.6875 1.34375 1.28125q0.78125 0.59375 1.5 1.21875q0.71875 0.625 1.1875 1.375q0.46875 0.75 0.46875 1.6875q-0.0625 0.375 0.25 0.4375q0.3125 0.0625 0.4375 0.375q0.0625 2.3125 -0.71875 4.0q-0.78125 1.6875 -1.96875 3.09375q-1.1875 1.40625 -2.53125 2.65625q-1.34375 1.25 -2.46875 2.6875q0.75 0.9375 1.71875 1.71875q0.96875 0.78125 1.96875 1.53125q1.0 0.75 1.90625 1.59375q0.90625 0.84375 1.53125 1.90625q0.1875 0.375 0.8125 0.5q0.1875 0.75 0.53125 1.53125q0.34375 0.78125 0.65625 1.5q0.3125 0.71875 0.375 1.28125q0.0625 0.5625 -0.3125 0.9375q0.4375 0.25 0.5 0.78125q0.0625 0.53125 0 0.84375q-1.375 1.6875 -1.875 2.375q-0.5 0.6875 -0.75 1.0q-0.25 0.3125 -0.5 0.5625q-0.25 0.25 -1.125 1.0q-3.3125 2.0 -6.90625 3.59375q-3.59375 1.59375 -7.46875 2.15625q-0.3125 0.4375 -0.90625 0.71875q-0.59375 0.28125 -1.34375 0.46875q-0.75 0.1875 -1.59375 0.3125q-0.84375 0.125 -1.53125 0.25q-0.3125 -0.125 -0.34375 -0.40625q-0.03125 -0.28125 -0.34375 -0.40625q-0.0625 0.75 -0.65625 0.78125q-0.59375 0.03125 -1.46875 -0.28125q-0.875 -0.3125 -1.8125 -0.875q-0.9375 -0.5625 -1.625 -1.0625q-0.3125 0.5625 -0.78125 1.1875q-0.46875 0.625 -0.96875 0.875q-0.875 -0.125 -1.28125 -0.1875q-0.40625 -0.0625 -0.78125 0.3125q-0.5 -0.25 -0.75 -0.53125q-0.25 -0.28125 -0.5 -0.5625q-0.25 -0.28125 -0.5625 -0.5q-0.3125 -0.21875 -0.9375 -0.40625q0.125 -0.3125 -0.1875 -0.96875q-0.3125 -0.65625 -0.875 -0.78125q0.3125 -0.5 -0.25 -1.28125q-0.5625 -0.78125 -0.875 -1.78125q0.0625 -0.4375 0.09375 -0.90625q0.03125 -0.46875 0.125 -0.875q0.09375 -0.40625 0.28125 -0.71875q0.1875 -0.3125 0.625 -0.4375q-0.0625 -0.8125 -0.5 -1.5625q0.5625 -0.4375 0.75 -1.09375q0.1875 -0.65625 0.34375 -1.34375q0.15625 -0.6875 0.40625 -1.34375q0.25 -0.65625 0.8125 -1.09375q-0.125 -0.1875 -0.25 -0.3125q-0.125 -0.125 -0.125 -0.4375q0.9375 -1.5625 1.3125 -2.65625q0.375 -1.09375 0.59375 -2.125q0.21875 -1.03125 0.46875 -2.21875q0.25 -1.1875 1.0 -3.0q-0.0625 -1.125 0.25 -2.0q0.3125 -0.875 0.65625 -1.71875q0.34375 -0.84375 0.53125 -1.78125q0.1875 -0.9375 -0.0625 -2.1875q-1.0625 0.125 -1.53125 0.75q-0.46875 0.625 -0.59375 1.6875q-0.5625 0.5 -1.4375 0.46875q-0.875 -0.03125 -1.5625 0.21875zm27.5 12.0625q-2.375 -1.3125 -4.34375 -1.5625q-1.96875 -0.25 -3.75 0.03125q-1.78125 0.28125 -3.40625 0.78125q-1.625 0.5 -3.25 0.75q-0.8125 2.125 -1.6875 4.6875q-0.875 2.5625 -1.6875 5.0q2.25 -0.3125 4.125 -0.9375q1.875 -0.625 3.625 -1.40625q1.75 -0.78125 3.4375 -1.5625q1.6875 -0.78125 3.5 -1.46875q0.1875 -0.75 0.8125 -1.1875q0.625 -0.4375 1.25 -0.84375q0.625 -0.40625 1.0625 -0.90625q0.4375 -0.5 0.3125 -1.375zm-4.375 -19.5625q-3.875 -0.125 -7.625 0.6875q-3.75 0.8125 -6.3125 2.375q1.25 1.0625 2.59375 1.875q1.34375 0.8125 2.03125 2.1875q3.0 -1.1875 5.25 -3.03125q2.25 -1.84375 4.0625 -4.09375z" fill-rule="nonzero"/><path fill="#3d85c6" d="m249.99615 247.23596l76.8819 0l0 76.8819l-76.8819 0z" fill-rule="evenodd"/><path stroke="#0b5394" stroke-width="8.0" stroke-linejoin="round" stroke-linecap="butt" d="m249.99615 247.23596l76.8819 0l0 76.8819l-76.8819 0z" fill-rule="evenodd"/><path fill="#f3f3f3" d="m271.7496 306.3044q-0.25 -0.25 -0.4375 -0.59375q-0.1875 -0.34375 -0.3125 -0.90625q-0.875 -1.0625 -1.375 -2.4375q-0.5 -1.375 -0.6875 -2.84375q-0.1875 -1.46875 -0.0625 -2.96875q0.125 -1.5 0.4375 -2.8125q0.1875 -0.625 0.3125 -1.3125q0.3125 -1.1875 0.625 -2.34375q0.3125 -1.15625 0.9375 -1.90625q-0.25 -0.6875 0.0625 -1.5q0.3125 -0.8125 0.625 -1.5q0.125 -0.1875 0.1875 -0.34375q0.0625 -0.15625 0.125 -0.28125q0.75 -2.1875 1.46875 -4.21875q0.71875 -2.03125 1.40625 -3.90625q1.25 -3.4375 2.40625 -6.75q1.15625 -3.3125 2.09375 -7.0625q0.5 -0.375 0.875 -0.5q0.125 -0.0625 0.3125 -0.125q0.1875 -0.0625 0.4375 -0.0625q1.3125 0.6875 3.09375 1.28125q1.78125 0.59375 3.03125 0.59375l1.0625 0.9375q0.8125 0.9375 1.40625 1.96875q0.59375 1.03125 0.34375 2.65625q-0.375 0.5625 -0.625 0.6875q-0.375 1.4375 -0.8125 2.53125q-0.4375 1.09375 -0.875 2.09375q-0.5 1.125 -0.9375 2.25q-0.4375 1.125 -0.75 2.75q-0.375 0.4375 -0.46875 0.75q-0.09375 0.3125 -0.21875 0.625q-0.125 0.375 -0.3125 0.78125q-0.1875 0.40625 -0.5625 0.71875q-0.25 1.9375 -0.75 3.15625q-0.5 1.21875 -1.0 2.40625q-0.875 2.1875 -1.625 4.34375q-0.75 2.15625 -0.875 4.90625q0.75 -0.1875 1.375 -0.1875q0.8125 0 1.5625 0.25q2.25 -1.125 4.90625 -1.375q2.65625 -0.25 5.28125 -0.3125q2.1875 0 4.0625 -0.1875q0.625 0.4375 0.8125 0.46875q0.1875 0.03125 0.625 0.03125q0.1875 0 0.375 0q0.1875 0 0.5 0.0625q0.875 0.875 1.6875 1.21875q0.8125 0.34375 1.75 0.65625q0.8125 0.3125 1.59375 0.65625q0.78125 0.34375 1.53125 0.90625l0.5625 3.1875q0.5 0.6875 0.4375 0.9375q0 0.5 -0.25 0.875l0.125 0.8125q-1.1875 0.25 -1.5625 0.53125q-0.375 0.28125 -0.8125 0.71875q-0.6875 0.0625 -1.3125 0.0625q-1.25 0 -2.5625 0.375q-1.875 -0.6875 -4.125 -0.6875q-0.875 0 -1.78125 0.0625q-0.90625 0.0625 -1.78125 0.1875q-0.9375 0.125 -1.875 0.21875q-0.9375 0.09375 -1.875 0.09375q-0.75 0.125 -1.0625 0.1875q-0.3125 0.0625 -0.625 0.1875q-2.125 0.6875 -4.59375 1.375q-2.46875 0.6875 -4.96875 0.6875q-3.6875 0 -5.9375 -1.875q-0.25 -0.5625 -0.375 -0.75q-0.125 -0.1875 -0.25 -0.4375z" fill-rule="nonzero"/><path fill="#3d85c6" d="m173.12105 247.2342l76.8819 0l0 76.88188l-76.8819 0z" fill-rule="evenodd"/><path stroke="#0b5394" stroke-width="8.0" stroke-linejoin="round" stroke-linecap="butt" d="m173.12105 247.2342l76.8819 0l0 76.88188l-76.8819 0z" fill-rule="evenodd"/><path fill="#f3f3f3" d="m196.1245 309.36514q-0.875 -0.5625 -1.40625 -1.4375q-0.53125 -0.875 -0.875 -1.875q-0.34375 -1.0 -0.5625 -2.09375q-0.21875 -1.09375 -0.46875 -2.09375q0 -0.875 0.375 -1.28125q0.375 -0.40625 0.8125 -0.78125q1.5 -0.0625 2.6875 -0.25q1.1875 -0.1875 2.3125 -0.375q1.125 -0.1875 2.25 -0.34375q1.125 -0.15625 2.4375 -0.15625q0.9375 -1.9375 1.75 -3.71875q0.8125 -1.78125 1.5625 -3.40625q0.375 -1.5625 0.96875 -2.90625q0.59375 -1.34375 1.15625 -2.5625q0.5625 -1.21875 1.0 -2.4375q0.4375 -1.21875 0.5625 -2.59375q0.75 -2.1875 1.34375 -4.03125q0.59375 -1.84375 0.90625 -4.40625q-2.375 0.375 -3.8125 0.71875q-1.4375 0.34375 -2.0625 0.65625q-1.25 -0.0625 -1.96875 -0.5q-0.71875 -0.4375 -1.15625 -1.0625q-0.4375 -0.625 -0.75 -1.4375q-0.3125 -0.8125 -0.75 -1.6875q0.25 -0.5625 0.125 -1.65625q-0.125 -1.09375 -0.75 -1.59375q0.5 -0.125 0.75 -0.84375q0.25 -0.71875 0.0625 -1.09375q1.0625 -0.3125 2.25 -0.40625q1.1875 -0.09375 2.34375 -0.1875q1.15625 -0.09375 2.21875 -0.25q1.0625 -0.15625 1.8125 -0.65625q3.25 -0.125 6.78125 -0.25q3.53125 -0.125 6.53125 -0.3125q1.125 0.375 2.59375 0.375q1.46875 0 2.9375 0.1875q1.46875 0.1875 2.625 0.8125q1.15625 0.625 1.59375 2.1875q0.9375 0.125 1.40625 0.5q0.46875 0.375 0.59375 0.90625q0.125 0.53125 0.09375 1.1875q-0.03125 0.65625 -0.03125 1.28125q-1.0 0.75 -2.53125 1.21875q-1.53125 0.46875 -3.34375 0.75q-1.8125 0.28125 -3.78125 0.375q-1.96875 0.09375 -3.84375 0.15625q-0.3125 2.0625 -1.09375 4.84375q-0.78125 2.78125 -1.59375 5.4375q-0.8125 2.65625 -1.40625 4.75q-0.59375 2.09375 -0.53125 2.71875q-0.625 1.4375 -1.03125 2.4375q-0.40625 1.0 -0.75 1.875q-0.34375 0.875 -0.6875 1.71875q-0.34375 0.84375 -0.84375 1.90625l4.25 0q0.125 0.6875 0.5625 0.9375q0.4375 0.25 0.9375 0.4375q0.5 0.1875 0.90625 0.46875q0.40625 0.28125 0.40625 0.90625q1.1875 0.3125 1.5 0.9375q0.3125 0.625 0.15625 1.34375q-0.15625 0.71875 -0.625 1.46875q-0.46875 0.75 -0.90625 1.3125q-0.5625 -0.125 -1.0625 0.28125q-0.5 0.40625 -0.9375 0.90625q-1.8125 -0.25 -3.5625 -0.0625q-1.75 0.1875 -3.25 0.3125q-0.3125 0.0625 -0.25 0.34375q0.0625 0.28125 -0.125 0.40625q-1.9375 -0.625 -3.96875 -0.5q-2.03125 0.125 -4.125 0.59375q-2.09375 0.46875 -4.28125 1.0q-2.1875 0.53125 -4.4375 0.59375z" fill-rule="nonzero"/><path fill="#3d85c6" d="m403.75613 247.23596l76.8819 0l0 76.8819l-76.8819 0z" fill-rule="evenodd"/><path stroke="#0b5394" stroke-width="8.0" stroke-linejoin="round" stroke-linecap="butt" d="m403.75613 247.23596l76.8819 0l0 76.8819l-76.8819 0z" fill-rule="evenodd"/><path fill="#3d85c6" d="m326.88104 247.2342l76.88187 0l0 76.88188l-76.88187 0z" fill-rule="evenodd"/><path stroke="#0b5394" stroke-width="8.0" stroke-linejoin="round" stroke-linecap="butt" d="m326.88104 247.2342l76.88187 0l0 76.88188l-76.88187 0z" fill-rule="evenodd"/></g></svg>