<svg version="1.1" viewBox="0.0 0.0 500.0 500.0" fill="none" stroke="none" stroke-linecap="square" stroke-miterlimit="10" xmlns:xlink="http://www.w3.org/1999/xlink" xmlns="http://www.w3.org/2000/svg"><clipPath id="p.0"><path d="m0 0l500.0 0l0 500.0l-500.0 0l0 -500.0z" clip-rule="nonzero"/></clipPath><g clip-path="url(#p.0)"><path fill="#000000" fill-opacity="0.0" d="m0 0l500.0 0l0 500.0l-500.0 0z" fill-rule="evenodd"/><path fill="#b7b7b7" d="m73.32684 44.026207l117.79527 0l0 117.79528l-117.79527 0z" fill-rule="evenodd"/><path stroke="#999999" stroke-width="12.0" stroke-linejoin="round" stroke-linecap="butt" d="m73.32684 44.026207l117.79527 0l0 117.79528l-117.79527 0z" fill-rule="evenodd"/><path fill="#b7b7b7" d="m191.10304 44.026207l117.79527 0l0 117.79528l-117.79527 0z" fill-rule="evenodd"/><path stroke="#999999" stroke-width="12.0" stroke-linejoin="round" stroke-linecap="butt" d="m191.10304 44.026207l117.79527 0l0 117.79528l-117.79527 0z" fill-rule="evenodd"/><path fill="#b7b7b7" d="m308.87924 44.026207l117.79526 0l0 117.79528l-117.79526 0z" fill-rule="evenodd"/><path stroke="#999999" stroke-width="12.0" stroke-linejoin="round" stroke-linecap="butt" d="m308.87924 44.026207l117.79526 0l0 117.79528l-117.79526 0z" fill-rule="evenodd"/><path fill="#b7b7b7" d="m73.32684 161.8024l117.79527 0l0 117.79529l-117.79527 0z" fill-rule="evenodd"/><path stroke="#999999" stroke-width="12.0" stroke-linejoin="round" stroke-linecap="butt" d="m73.32684 161.8024l117.79527 0l0 117.79529l-117.79527 0z" fill-rule="evenodd"/><path fill="#b7b7b7" d="m191.10304 161.8024l117.79527 0l0 117.79529l-117.79527 0z" fill-rule="evenodd"/><path stroke="#999999" stroke-width="12.0" stroke-linejoin="round" stroke-linecap="butt" d="m191.10304 161.8024l117.79527 0l0 117.79529l-117.79527 0z" fill-rule="evenodd"/><path fill="#b7b7b7" d="m308.87924 161.8024l117.79526 0l0 117.79529l-117.79526 0z" fill-rule="evenodd"/><path stroke="#999999" stroke-width="12.0" stroke-linejoin="round" stroke-linecap="butt" d="m308.87924 161.8024l117.79526 0l0 117.79529l-117.79526 0z" fill-rule="evenodd"/><path fill="#b7b7b7" d="m73.32684 279.5786l117.79527 0l0 117.79526l-117.79527 0z" fill-rule="evenodd"/><path stroke="#999999" stroke-width="12.0" stroke-linejoin="round" stroke-linecap="butt" d="m73.32684 279.5786l117.79527 0l0 117.79526l-117.79527 0z" fill-rule="evenodd"/><path fill="#b7b7b7" d="m191.10304 279.5786l117.79527 0l0 117.79526l-117.79527 0z" fill-rule="evenodd"/><path stroke="#999999" stroke-width="12.0" stroke-linejoin="round" stroke-linecap="butt" d="m191.10304 279.5786l117.79527 0l0 117.79526l-117.79527 0z" fill-rule="evenodd"/><path fill="#b7b7b7" d="m308.87924 279.5786l117.79526 0l0 117.79526l-117.79526 0z" fill-rule="evenodd"/><path stroke="#999999" stroke-width="12.0" stroke-linejoin="round" stroke-linecap="butt" d="m308.87924 279.5786l117.79526 0l0 117.79526l-117.79526 0z" fill-rule="evenodd"/><path fill="#000000" d="m46.96379 373.2026l-12.486038 49.192963l19.570312 0l12.486038 -49.192963zm22.669685 0l-2.494255 9.8237915l14.522766 0l-2.656601 10.491028l-14.522774 0l-2.1843147 8.5633545l14.52277 0l-2.6566086 10.491028l-14.522766 0l-2.494255 9.823761l22.713959 0l14.271866 -9.823761l2.4499817 -9.675476l-4.6343 -4.93042l7.143318 -4.93042l2.5385284 -10.009094l-9.283356 -9.8237915zm51.789017 9.8237915l-14.227592 9.823761l-5.003273 19.72165l9.239082 9.823761l13.150185 0l2.3319092 -9.1935425l-5.09182 0l5.165619 -20.351868l5.0918274 0l2.4942474 -9.823761zm16.24955 0l-2.4942474 9.823761l4.8704376 0l-5.165619 20.351868l-4.8704376 0l-2.3319092 9.1935425l13.105911 0l14.227585 -9.823761l5.0032806 -19.72165l-9.239075 -9.823761zm33.517487 0l-9.9917755 39.36917l19.614594 0l9.9917755 -39.36917zm28.868439 0l-7.4680176 5.189911l-1.1807098 4.63385l7.969818 0l-7.497528 29.54541l19.614594 0l8.663467 -34.105133l-4.9589844 -5.264038zm30.550934 0l-7.34993 5.264038l-1.1659546 4.559723l7.969803 0l-7.497513 29.54541l19.570312 0l7.9402924 -31.28775l-7.5122833 -8.081421zm34.40303 -15.013702l-13.799591 54.382874l19.570312 0l13.799591 -54.382874zm24.617859 15.013702l-6.980957 4.856262l-1.2692871 4.967499l8.766815 0l-5.165619 20.351868l-8.766815 0l-2.3319092 9.1935425l16.470947 0l14.271881 -9.823761l5.0032654 -19.72165l-9.283356 -9.823761z" fill-rule="evenodd"/><path fill="#000000" d="m249.63914 432.8262l-2.7156372 10.71347l51.00679 0l2.7156372 -10.71347zm69.278336 9.823761l-2.4942627 9.823761l10.316467 0l-1.7415466 6.895172l-10.316467 0l-1.7415771 6.8580933l28.337128 0l3.4830933 -13.753265l-9.239075 -9.823761zm-57.32361 3.4475708l-9.121017 35.92163l20.367294 0l9.121002 -35.92163zm46.387238 -3.4475708l-14.22757 9.823761l-5.003296 19.72168l9.239075 9.823761l7.8370056 0l9.99176 -39.3692zm3.2764893 30.175629l-2.3319092 9.193573l20.455841 0l7.0990295 -4.93042l1.0774231 -4.263153z" fill-rule="evenodd"/><path fill="#000000" d="m377.76123 442.64996l-2.4942322 9.823761l8.678223 0l-1.4906311 5.8942566l19.570312 0l1.4906311 -5.8942566l-9.239075 -9.823761zm-10.93634 0l-14.2276 9.823761l-5.0032654 19.72168l9.239075 9.823761l7.836975 0l9.991791 -39.3692zm13.2092285 25.245209l-1.2545166 4.93042l-8.678223 0l-2.3319092 9.193573l16.515198 0l14.2276 -9.823761l1.0921631 -4.300232zm37.354797 -40.25888l-13.799591 54.382874l19.570312 0l13.799591 -54.382874zm24.617859 15.013672l-6.980957 4.856262l-1.2692566 4.967499l8.633942 0l-7.497528 29.54544l19.614594 0l7.497528 -29.54544l-9.283356 -9.823761z" fill-rule="evenodd"/><path fill="#cc0000" d="m95.5958 102.92388l0 0c0 -20.23014 16.399773 -36.62992 36.62992 -36.62992l0 0c9.714859 0 19.031815 3.8592148 25.90126 10.728661c6.869446 6.869438 10.728653 16.186401 10.728653 25.90126l0 0c0 20.230148 -16.399765 36.62992 -36.629913 36.62992l0 0c-20.230148 0 -36.62992 -16.399773 -36.62992 -36.62992z" fill-rule="evenodd"/><path fill="#cc0000" d="m331.14697 220.69948l0 0c0 -20.230148 16.39978 -36.62993 36.629944 -36.62993l0 0c9.714844 0 19.0318 3.8592224 25.901245 10.728653c6.869446 6.869446 10.728668 16.186417 10.728668 25.901276l0 0c0 20.230148 -16.39978 36.62993 -36.629913 36.62993l0 0c-20.230164 0 -36.629944 -16.39978 -36.629944 -36.62993z" fill-rule="evenodd"/><path fill="#cc0000" d="m353.91864 139.5538l27.716522 0l0 86.14174l-27.716522 0z" fill-rule="evenodd"/><path fill="#cc0000" d="m376.4357 89.06562l0 27.71653l-247.46457 0l0 -27.71653z" fill-rule="evenodd"/><path fill="#cc0000" d="m353.91864 89.06562l27.716522 0l0 86.14173l-27.716522 0z" fill-rule="evenodd"/><path fill="#674ea7" d="m404.40552 338.47375l0 0c0 20.230133 -16.39978 36.629913 -36.629913 36.629913l0 0c-9.714874 0 -19.03183 -3.859192 -25.901276 -10.728638c-6.869446 -6.869446 -10.728668 -16.186432 -10.728668 -25.901276l0 0c0 -20.230164 16.39978 -36.629913 36.629944 -36.629913l0 0c20.230133 0 36.629913 16.39975 36.629913 36.629913z" fill-rule="evenodd"/><path fill="#674ea7" d="m168.85432 220.69817l0 0c0 20.230148 -16.399765 36.62993 -36.629913 36.62993l0 0c-9.714859 0 -19.031822 -3.8592224 -25.901268 -10.728668c-6.869446 -6.869446 -10.728653 -16.186401 -10.728653 -25.90126l0 0c0 -20.230148 16.399773 -36.62993 36.62992 -36.62993l0 0c20.230148 0 36.629913 16.39978 36.629913 36.62993z" fill-rule="evenodd"/><path fill="#674ea7" d="m146.08267 301.84384l-27.71653 0l0 -86.14174l27.71653 0z" fill-rule="evenodd"/><path fill="#674ea7" d="m123.56562 352.33203l0 -27.716553l247.46457 0l0 27.716553z" fill-rule="evenodd"/><path fill="#674ea7" d="m146.08267 352.33203l-27.71653 0l0 -86.141754l27.71653 0z" fill-rule="evenodd"/><path fill="#000000" d="m193.03758 194.01578l0 0c0 -16.697144 13.535706 -30.23285 30.232834 -30.23285l53.444275 0l0 0c8.0182495 0 15.708099 3.1852417 21.377869 8.854996c5.669739 5.6697693 8.85498 13.359604 8.85498 21.377853l0 53.44969c0 16.697128 -13.535706 30.232834 -30.23285 30.232834l-53.444275 0l0 0c-16.697128 0 -30.232834 -13.535706 -30.232834 -30.232834z" fill-rule="evenodd"/><path fill="#000000" d="m205.47897 177.89189l0 0c0 -13.058014 10.585617 -23.643631 23.643631 -23.643631l41.796158 0l0 0c6.270691 0 12.284546 2.4910278 16.718597 6.925064c4.434021 4.4340363 6.925049 10.447891 6.925049 16.718567l0 85.614c0 13.058014 -10.585602 23.643646 -23.643646 23.643646l-41.796158 0l0 0c-13.058014 0 -23.643631 -10.585632 -23.643631 -23.643646z" fill-rule="evenodd"/><path fill="#000000" d="m292.77884 176.22409l0 0c13.058624 0 23.644745 10.586121 23.644745 23.644745l0 41.798157l0 0c0 6.270981 -2.49115 12.285126 -6.9253845 16.71936c-4.434265 4.434265 -10.448395 6.9253845 -16.71936 6.9253845l-85.60547 0c-13.05864 0 -23.64476 -10.586105 -23.64476 -23.644745l0 -41.798157l0 0c0 -13.058624 10.586121 -23.644745 23.64476 -23.644745z" fill-rule="evenodd"/><path fill="#000000" d="m178.01329 156.80934l0 0c0 -4.4467316 3.604782 -8.051514 8.051514 -8.051514l14.233124 0l0 0c2.1353912 0 4.1833344 0.84828186 5.693283 2.3582306c1.509964 1.5099487 2.3582458 3.5578918 2.3582458 5.693283l0 14.234573c0 4.4467316 -3.6047974 8.051514 -8.051529 8.051514l-14.233124 0l0 0c-4.4467316 0 -8.051514 -3.604782 -8.051514 -8.051514z" fill-rule="evenodd"/><path fill="#000000" d="m291.47992 156.80934l0 0c0 -4.4467316 3.6047974 -8.051514 8.051514 -8.051514l14.233124 0l0 0c2.1354065 0 4.1833496 0.84828186 5.6932983 2.3582306c1.5099487 1.5099487 2.3582458 3.5578918 2.3582458 5.693283l0 14.234573c0 4.4467316 -3.6047974 8.051514 -8.051544 8.051514l-14.233124 0l0 0c-4.4467163 0 -8.051514 -3.604782 -8.051514 -8.051514z" fill-rule="evenodd"/><path fill="#000000" d="m178.01329 270.27377l0 0c0 -4.4467163 3.604782 -8.051514 8.051514 -8.051514l14.233124 0l0 0c2.1353912 0 4.1833344 0.8482971 5.693283 2.3582458c1.509964 1.5099487 2.3582458 3.5578918 2.3582458 5.693268l0 14.234558c0 4.446747 -3.6047974 8.051544 -8.051529 8.051544l-14.233124 0l0 0c-4.4467316 0 -8.051514 -3.6047974 -8.051514 -8.051544z" fill-rule="evenodd"/><path fill="#000000" d="m291.47992 270.27377l0 0c0 -4.4467163 3.6047974 -8.051514 8.051514 -8.051514l14.233124 0l0 0c2.1354065 0 4.1833496 0.8482971 5.6932983 2.3582458c1.5099487 1.5099487 2.3582458 3.5578918 2.3582458 5.693268l0 14.234558c0 4.446747 -3.6047974 8.051544 -8.051544 8.051544l-14.233124 0l0 0c-4.4467163 0 -8.051514 -3.6047974 -8.051514 -8.051544z" fill-rule="evenodd"/><path fill="#000000" d="m234.74478 128.0471l0 0c0 -4.446739 3.604782 -8.051529 8.051514 -8.051529l14.233124 0l0 0c2.1354065 0 4.183319 0.8482895 5.6932983 2.3582382c1.5099487 1.5099564 2.3582153 3.5578918 2.3582153 5.6932907l0 25.652649c0 4.4467316 -3.6047668 8.051514 -8.051514 8.051514l-14.233124 0l0 0c-4.4467316 0 -8.051514 -3.604782 -8.051514 -8.051514z" fill-rule="evenodd"/><path fill="#000000" d="m234.7477 287.70035l0 0c0 -4.446747 3.6047974 -8.051514 8.051529 -8.051514l14.233124 0l0 0c2.1354065 0 4.183319 0.8482666 5.693268 2.3582153c1.5099792 1.5099487 2.3582458 3.5578918 2.3582458 5.6932983l0 25.652649c0 4.4467163 -3.6047974 8.051514 -8.051514 8.051514l-14.233124 0l0 0c-4.4467316 0 -8.051529 -3.6047974 -8.051529 -8.051514z" fill-rule="evenodd"/><path fill="#000000" d="m342.6265 205.51016l0 0c4.44693 0 8.05191 3.6049652 8.05191 8.05191l0 14.233795l0 0c0 2.135498 -0.84832764 4.1835327 -2.358368 5.6935577c-1.5100098 1.510025 -3.5580444 2.3583374 -5.6935425 2.3583374l-25.649902 0c-4.4469604 0 -8.05191 -3.60495 -8.05191 -8.051895l0 -14.233795l0 0c0 -4.446945 3.60495 -8.05191 8.05191 -8.05191z" fill-rule="evenodd"/><path fill="#000000" d="m182.97015 205.51309l0 0c4.446945 0 8.05191 3.6049652 8.05191 8.05191l0 14.233795l0 0c0 2.135498 -0.84832764 4.1835175 -2.3583527 5.6935425c-1.510025 1.510025 -3.5580597 2.3583527 -5.6935577 2.3583527l-25.649902 0c-4.446945 0 -8.05191 -3.6049652 -8.05191 -8.051895l0 -14.233795l0 0c0 -4.446945 3.6049652 -8.05191 8.05191 -8.05191z" fill-rule="evenodd"/><path fill="#efefef" d="m209.7562 188.3331l0 0c0 -4.3260345 3.5069427 -7.8329773 7.8329773 -7.8329773l9.29335 0l0 0c2.0774384 0 4.0697784 0.82525635 5.538742 2.29422c1.4689789 1.4689789 2.2942352 3.461319 2.2942352 5.5387573l0 9.294525c0 4.3260345 -3.5069427 7.8329773 -7.8329773 7.8329773l-9.29335 0l0 0c-4.3260345 0 -7.8329773 -3.5069427 -7.8329773 -7.8329773z" fill-rule="evenodd"/></g></svg>