<svg version="1.1" viewBox="0.0 0.0 500.0 500.0" fill="none" stroke="none" stroke-linecap="square" stroke-miterlimit="10" xmlns:xlink="http://www.w3.org/1999/xlink" xmlns="http://www.w3.org/2000/svg"><clipPath id="p.0"><path d="m0 0l500.0 0l0 500.0l-500.0 0l0 -500.0z" clip-rule="nonzero"/></clipPath><g clip-path="url(#p.0)"><path fill="#000000" fill-opacity="0.0" d="m0 0l500.0 0l0 500.0l-500.0 0z" fill-rule="evenodd"/><path fill="#ac5643" d="m18.24016 227.91023l92.72441 0l0 85.41731l-92.72441 0z" fill-rule="evenodd"/><path stroke="#cccccc" stroke-width="12.0" stroke-linejoin="round" stroke-linecap="butt" d="m18.24016 227.91023l92.72441 0l0 85.41731l-92.72441 0z" fill-rule="evenodd"/><path fill="#ac5643" d="m116.140396 112.712524l82.29921 0l0 75.81102l-82.29921 0z" fill-rule="evenodd"/><path fill="#ac5643" d="m203.6151 227.91023l92.72441 0l0 85.41731l-92.72441 0z" fill-rule="evenodd"/><path stroke="#cccccc" stroke-width="12.0" stroke-linejoin="round" stroke-linecap="butt" d="m203.6151 227.91023l92.72441 0l0 85.41731l-92.72441 0z" fill-rule="evenodd"/><path fill="#ac5643" d="m18.24016 313.30475l92.72441 0l0 85.41733l-92.72441 0z" fill-rule="evenodd"/><path stroke="#cccccc" stroke-width="12.0" stroke-linejoin="round" stroke-linecap="butt" d="m18.24016 313.30475l92.72441 0l0 85.41733l-92.72441 0z" fill-rule="evenodd"/><path fill="#ac5643" d="m110.92763 313.30475l92.72441 0l0 85.41733l-92.72441 0z" fill-rule="evenodd"/><path stroke="#cccccc" stroke-width="12.0" stroke-linejoin="round" stroke-linecap="butt" d="m110.92763 313.30475l92.72441 0l0 85.41733l-92.72441 0z" fill-rule="evenodd"/><path fill="#ac5643" d="m203.6151 313.30475l92.72441 0l0 85.41733l-92.72441 0z" fill-rule="evenodd"/><path stroke="#cccccc" stroke-width="12.0" stroke-linejoin="round" stroke-linecap="butt" d="m203.6151 313.30475l92.72441 0l0 85.41733l-92.72441 0z" fill-rule="evenodd"/><path fill="#ac5643" d="m18.24016 398.69574l92.72441 0l0 85.41733l-92.72441 0z" fill-rule="evenodd"/><path stroke="#cccccc" stroke-width="12.0" stroke-linejoin="round" stroke-linecap="butt" d="m18.24016 398.69574l92.72441 0l0 85.41733l-92.72441 0z" fill-rule="evenodd"/><path fill="#ac5643" d="m110.92763 398.69574l92.72441 0l0 85.41733l-92.72441 0z" fill-rule="evenodd"/><path stroke="#cccccc" stroke-width="12.0" stroke-linejoin="round" stroke-linecap="butt" d="m110.92763 398.69574l92.72441 0l0 85.41733l-92.72441 0z" fill-rule="evenodd"/><path fill="#ac5643" d="m203.6151 398.69574l92.72441 0l0 85.41733l-92.72441 0z" fill-rule="evenodd"/><path stroke="#cccccc" stroke-width="12.0" stroke-linejoin="round" stroke-linecap="butt" d="m203.6151 398.69574l92.72441 0l0 85.41733l-92.72441 0z" fill-rule="evenodd"/><path fill="#ac5643" d="m23.448818 27.304462l82.29921 0l0 75.81102l-82.29921 0z" fill-rule="evenodd"/><path fill="#ac5643" d="m116.14039 27.308384l82.29922 0l0 75.81102l-82.29922 0z" fill-rule="evenodd"/><path fill="#ac5643" d="m208.82803 27.308384l82.299225 0l0 75.81102l-82.299225 0z" fill-rule="evenodd"/><path fill="#ac5643" d="m296.31937 227.91727l92.724396 0l0 85.41733l-92.724396 0z" fill-rule="evenodd"/><path stroke="#cccccc" stroke-width="12.0" stroke-linejoin="round" stroke-linecap="butt" d="m296.31937 227.91727l92.724396 0l0 85.41733l-92.724396 0z" fill-rule="evenodd"/><path fill="#ac5643" d="m296.31937 313.30475l92.724396 0l0 85.41733l-92.724396 0z" fill-rule="evenodd"/><path stroke="#cccccc" stroke-width="12.0" stroke-linejoin="round" stroke-linecap="butt" d="m296.31937 313.30475l92.724396 0l0 85.41733l-92.724396 0z" fill-rule="evenodd"/><path fill="#ac5643" d="m296.31937 398.69574l92.724396 0l0 85.41733l-92.724396 0z" fill-rule="evenodd"/><path stroke="#cccccc" stroke-width="12.0" stroke-linejoin="round" stroke-linecap="butt" d="m296.31937 398.69574l92.724396 0l0 85.41733l-92.724396 0z" fill-rule="evenodd"/><path fill="#ac5643" d="m296.31937 142.5136l92.724396 0l0 85.41733l-92.724396 0z" fill-rule="evenodd"/><path stroke="#cccccc" stroke-width="12.0" stroke-linejoin="round" stroke-linecap="butt" d="m296.31937 142.5136l92.724396 0l0 85.41733l-92.724396 0z" fill-rule="evenodd"/><path fill="#ac5643" d="m388.99008 227.9107l92.724396 0l0 85.41733l-92.724396 0z" fill-rule="evenodd"/><path stroke="#cccccc" stroke-width="12.0" stroke-linejoin="round" stroke-linecap="butt" d="m388.99008 227.9107l92.724396 0l0 85.41733l-92.724396 0z" fill-rule="evenodd"/><path fill="#ac5643" d="m388.99008 313.2982l92.724396 0l0 85.41733l-92.724396 0z" fill-rule="evenodd"/><path stroke="#cccccc" stroke-width="12.0" stroke-linejoin="round" stroke-linecap="butt" d="m388.99008 313.2982l92.724396 0l0 85.41733l-92.724396 0z" fill-rule="evenodd"/><path fill="#ac5643" d="m388.99008 398.68918l92.724396 0l0 85.41733l-92.724396 0z" fill-rule="evenodd"/><path stroke="#cccccc" stroke-width="12.0" stroke-linejoin="round" stroke-linecap="butt" d="m388.99008 398.68918l92.724396 0l0 85.41733l-92.724396 0z" fill-rule="evenodd"/><path fill="#ac5643" d="m389.03568 142.51491l92.724396 0l0 85.41733l-92.724396 0z" fill-rule="evenodd"/><path stroke="#cccccc" stroke-width="12.0" stroke-linejoin="round" stroke-linecap="butt" d="m389.03568 142.51491l92.724396 0l0 85.41733l-92.724396 0z" fill-rule="evenodd"/><path fill="#000000" d="m51.78531 46.085392c2.207096 0.023937225 3.6898155 0.13165665 4.448147 0.32315445c0.76965714 0.1914978 1.39217 0.65428543 1.8675423 1.3883667c0.47537613 0.7260971 0.7130623 1.998764 0.7130623 3.8180008c0 3.446972 -0.28862 5.5374985 -0.86586 6.271576c-0.57724 0.7261009 -1.9184761 1.0891495 -4.0237045 1.0891495c-0.50933075 0 -1.222393 0.011966705 -2.1391869 0.03590393l0 -12.926151zm0 21.97446c3.1917992 0.07180786 5.161209 0.3710251 5.908226 0.89764404c0.7470169 0.5266266 1.1205254 2.0346756 1.1205254 4.5241547l0 5.4217987c0 2.3458633 -0.41877747 3.8180084 -1.2563477 4.4164352c-0.82624054 0.59843445 -2.7503815 0.9335556 -5.7724037 1.0053711l0 -16.265404zm-21.44279 -31.920414l0 58.13177l24.804365 0c8.624653 0 14.329151 -0.34709167 17.113483 -1.041275c2.78434 -0.6941757 4.810341 -1.9867935 6.078003 -3.8778458c1.2789917 -1.8910446 1.9184799 -4.799431 1.9184799 -8.725151l0 -5.385895c0 -3.7820969 -0.882843 -6.586746 -2.6485138 -8.413963c-1.7656784 -1.8351974 -5.1272583 -3.1477585 -10.084732 -3.9376907c4.448143 -0.7181206 7.4248962 -1.7474251 8.930252 -3.0879135c1.5166702 -1.3404884 2.2750015 -3.7102852 2.2750015 -7.1093826c0 -5.0268364 -1.0695877 -8.6693 -3.2087784 -10.927383c-2.139183 -2.2660675 -4.9518127 -3.7701302 -8.437897 -4.512184c-3.4747581 -0.7420578 -8.590698 -1.1130867 -15.347809 -1.1130867z" fill-rule="evenodd"/><path fill="#000000" d="m109.39052 46.085392c2.4787445 0 4.182167 0.28725052 5.110283 0.8617439c0.9394226 0.5744972 1.4091415 1.783329 1.4091415 3.626503l0 3.195633c0 2.5612907 -0.48669434 4.077324 -1.4600754 4.548088c-0.9620743 0.46279144 -2.6485214 0.69418335 -5.059349 0.69418335l0 -12.926151zm-21.442787 -9.945953l0 58.13177l21.442787 0l0 -26.211357c2.9541168 0 4.7763824 0.3710251 5.466812 1.1130829c0.70173645 0.7420578 1.0526123 2.6690063 1.0526123 5.780861l0 19.317413l19.914795 0l0 -15.331848c0 -4.691719 -0.18109131 -7.5562134 -0.5432739 -8.593498c-0.35087585 -1.0452652 -1.2563477 -2.1902618 -2.7164307 -3.4350052c-1.460083 -1.2447433 -4.312332 -2.2381363 -8.556747 -2.980194c4.685837 -0.31118774 7.826706 -1.2447433 9.422607 -2.8006668c1.5959015 -1.5559273 2.3938446 -4.5959663 2.3938446 -9.120117c0 -4.9550247 -1.1318359 -8.561581 -3.395523 -10.819668c-2.2523804 -2.2660675 -5.172531 -3.6743774 -8.760475 -4.2249374c-3.5766296 -0.5505562 -10.424286 -0.8258362 -20.542976 -0.8258362z" fill-rule="evenodd"/><path fill="#000000" d="m144.12682 36.13944l0 58.13177l21.442795 0l0 -58.13177z" fill-rule="evenodd"/><path fill="#000000" d="m198.57419 34.918636c-4.651886 0 -8.77179 0.5585365 -12.359741 1.6756096c-3.5766296 1.1090965 -6.377945 2.6331062 -8.403946 4.572029c-2.014679 1.9389229 -3.2257538 3.957634 -3.6332092 6.056141c-0.4074707 2.0905266 -0.61120605 5.2303047 -0.61120605 9.419334l0 16.983524c0 5.6970825 0.66212463 9.965904 1.9863892 12.806465c1.3242645 2.8325806 4.023712 5.0507736 8.098343 6.6545715c4.074646 1.6038055 9.252823 2.4057007 15.534561 2.4057007c6.044052 0 11.126038 -0.9455185 15.245941 -2.8365707c4.131241 -1.8910446 6.7967224 -4.093277 7.9964905 -6.606697c1.2110596 -2.51342 1.8166046 -6.7742615 1.8166046 -12.782532l0 -2.2620697l-21.442795 0l0 7.28891c0 3.1836624 -0.24900818 5.2063675 -0.7470093 6.0681076c-0.48669434 0.86174774 -1.5279999 1.2926178 -3.123886 1.2926178c-1.6638184 0 -2.7334137 -0.43087006 -3.208786 -1.2926178c-0.4753723 -0.8617401 -0.7130585 -2.704918 -0.7130585 -5.529518l0 -27.001293c0 -2.9442902 0.23768616 -4.859276 0.7130585 -5.744957c0.4753723 -0.88568115 1.5959015 -1.3285217 3.3615723 -1.3285217c1.5619507 0 2.5692902 0.36703873 3.0220337 1.10112c0.4640503 0.7260971 0.69607544 2.5612907 0.69607544 5.505581l0 10.125484l21.442795 0l0 -5.529518c0 -5.433773 -0.64515686 -9.435295 -1.9354553 -12.004566c-1.2902985 -2.5772514 -3.989746 -4.727619 -8.098343 -6.451107c-4.108597 -1.723484 -9.32074 -2.585228 -15.636429 -2.585228z" fill-rule="evenodd"/><path fill="#000000" d="m231.9353 36.13944l0 58.13177l21.44278 0l0 -24.918747l8.6586 24.918747l22.155853 0l-13.446289 -31.884502l12.274841 -26.247269l-20.11853 0l-9.524475 22.584858l0 -22.584858z" fill-rule="evenodd"/><path fill="#000000" d="m124.52231 388.46457l0 85.366394l51.847992 0l0 -17.083832l-19.605743 0l0 -68.28256z" fill-rule="evenodd"/><path fill="#000000" d="m221.78517 407.55206c1.6338043 14.201355 3.267624 26.135437 4.901428 35.802216l-11.028229 0c0.8169098 -7.557678 2.8591766 -19.49173 6.1268005 -35.802216zm-24.660355 -19.087494l-16.389175 85.366394l33.391037 0l1.9146271 -15.343811l11.564316 0l1.6082916 15.343811l33.008102 0l-18.45697 -85.366394zm53.83922 0l22.669144 54.467865l0 30.89853l29.868103 0l0 -30.89853l23.511597 -54.467865l-29.638397 0c-4.186615 13.287415 -7.1734314 24.483307 -8.960419 33.587646c-0.561615 -5.764923 -3.1655273 -16.960785 -7.811676 -33.587646z" fill-rule="evenodd"/><path fill="#000000" d="m332.52698 388.46457l0 85.366394l55.907013 0l0 -17.083832l-23.664764 0l0 -18.771118l20.141846 0l0 -16.240173l-20.141846 0l0 -16.187439l21.520386 0l0 -17.083832z" fill-rule="evenodd"/><path fill="#000000" d="m429.94302 403.0702c3.7271118 0 6.288452 0.42181396 7.684021 1.2654724c1.4125671 0.84365845 2.1188354 2.618805 2.1188354 5.3255005l0 4.6927795c0 3.761261 -0.7318115 5.987549 -2.1954346 6.6788635c-1.4465942 0.67959595 -3.9824219 1.0194092 -7.607422 1.0194092l0 -18.982025zm-32.24228 -14.605621l0 85.366394l32.24228 0l0 -38.491333c4.441925 0 7.181946 0.54486084 8.220093 1.634552c1.0551758 1.0897217 1.5827637 3.9194336 1.5827637 8.489197l0 28.367584l29.944702 0l0 -22.514801c0 -6.8897705 -0.27227783 -11.096283 -0.81689453 -12.619537c-0.5275879 -1.5349426 -1.8890991 -3.2164001 -4.0845337 -5.044281c-2.1954346 -1.8279114 -6.484192 -3.2867126 -12.866272 -4.376404c7.045807 -0.4569702 11.768555 -1.8279114 14.168213 -4.112793c2.3996582 -2.284851 3.5994873 -6.7491455 3.5994873 -13.392853c0 -7.2764587 -1.7018738 -12.572662 -5.105652 -15.888672c-3.3867493 -3.3276978 -7.7776184 -5.395813 -13.172607 -6.204315c-5.37796 -0.8084717 -15.674377 -1.212738 -30.889252 -1.212738z" fill-rule="evenodd"/></g></svg>