<svg version="1.1" viewBox="0.0 0.0 500.0 500.0" fill="none" stroke="none" stroke-linecap="square" stroke-miterlimit="10" xmlns:xlink="http://www.w3.org/1999/xlink" xmlns="http://www.w3.org/2000/svg"><clipPath id="p.0"><path d="m0 0l500.0 0l0 500.0l-500.0 0l0 -500.0z" clip-rule="nonzero"/></clipPath><g clip-path="url(#p.0)"><path fill="#000000" fill-opacity="0.0" d="m0 0l500.0 0l0 500.0l-500.0 0z" fill-rule="evenodd"/><path fill="#000000" d="m273.37527 121.00606l0 0c8.356995 -17.997826 29.721802 -25.813255 47.719635 -17.45626l57.607513 26.749107l0 0c8.642853 4.0131683 15.337494 11.295334 18.611176 20.244507c3.2736816 8.949158 2.8582458 18.83226 -1.1549377 27.475113l-26.749115 57.607513c-8.356995 17.997818 -29.721802 25.813263 -47.719604 17.456253l-57.607513 -26.749115l0 0c-17.997818 -8.356995 -25.813248 -29.721786 -17.456253 -47.71962z" fill-rule="evenodd"/><path fill="#000000" d="m294.86154 109.849625l0 0c6.534851 -14.073624 23.241333 -20.184998 37.31494 -13.650139l45.046906 20.916801l0 0c6.7583923 3.1381454 11.993347 8.832527 14.553253 15.830429c2.5598755 6.9979095 2.2350159 14.72612 -0.9031067 21.484512l-42.85446 92.29234c-6.534851 14.073608 -23.241333 20.184998 -37.31494 13.6501465l-45.046906 -20.91681l0 0c-14.073624 -6.534851 -20.184998 -23.241333 -13.650131 -37.31494z" fill-rule="evenodd"/><path fill="#000000" d="m389.82645 151.76918l0 0c14.073608 6.5348663 20.184998 23.241333 13.6501465 37.31494l-20.91681 45.046906l0 0c-3.138153 6.7583923 -8.83252 11.993347 -15.830444 14.553253c-6.9978943 2.5598907 -14.726105 2.2350311 -21.484497 -0.90312195l-92.29234 -42.854446c-14.073624 -6.534851 -20.184998 -23.241318 -13.650131 -37.31494l20.916779 -45.046906l0 0c6.5348816 -14.073616 23.241333 -20.18499 37.31494 -13.650131z" fill-rule="evenodd"/><path fill="#000000" d="m275.79593 73.38562l0 0c2.2279663 -4.798233 7.923828 -6.8818283 12.722076 -4.6538467l15.358185 7.131325l0 0c2.3041992 1.0699158 4.0889893 3.011345 4.9617615 5.397194c0.8727722 2.3858566 0.7619934 5.020691 -0.30792236 7.3248825l-7.131317 15.3582c-2.2279663 4.7982254 -7.9238586 6.8818283 -12.722076 4.6538467l-15.358185 -7.131325l0 0c-4.7982483 -2.2279816 -6.881836 -7.923851 -4.6538696 -12.722084z" fill-rule="evenodd"/><path fill="#000000" d="m398.13138 130.19011l0 0c2.2279968 -4.7982254 7.9238586 -6.8818283 12.722076 -4.6538467l15.358215 7.131325l0 0c2.3041992 1.0699158 4.0889893 3.0113525 4.9617615 5.3972015c0.8727417 2.385849 0.7619934 5.020691 -0.30792236 7.324875l-7.131317 15.3582c-2.2279968 4.798233 -7.9238586 6.881836 -12.722076 4.6538544l-15.358215 -7.1313324l0 0c-4.798218 -2.2279816 -6.8818054 -7.9238434 -4.653839 -12.722076z" fill-rule="evenodd"/><path fill="#000000" d="m218.99469 195.71407l0 0c2.2279816 -4.798218 7.9238434 -6.8818207 12.722076 -4.653839l15.3582 7.1313324l0 0c2.304184 1.0699158 4.088974 3.0113373 4.961746 5.3971863c0.8727722 2.385849 0.76200867 5.020691 -0.3079071 7.32489l-7.1313324 15.3582c-2.2279816 4.798218 -7.9238434 6.8818207 -12.722076 4.653839l-15.3582 -7.1313324l0 0c-4.798218 -2.2279816 -6.8818207 -7.9238434 -4.653839 -12.722076z" fill-rule="evenodd"/><path fill="#000000" d="m341.33017 252.51857l0 0c2.2279663 -4.798233 7.923828 -6.881836 12.722076 -4.6538544l15.358185 7.1313324l0 0c2.3041992 1.0699005 4.0889893 3.0113373 4.9617615 5.3972015c0.8727417 2.3858337 0.7619934 5.020691 -0.30792236 7.3248596l-7.131317 15.358215c-2.2279968 4.798218 -7.9238586 6.881836 -12.722076 4.653839l-15.358215 -7.131317l0 0c-4.798218 -2.2279968 -6.8818054 -7.9238586 -4.653839 -12.722076z" fill-rule="evenodd"/><path fill="#000000" d="m351.3603 70.77775l0 0c2.2279968 -4.7982254 7.9238586 -6.8818245 12.722076 -4.6538467l15.358215 7.1313324l0 0c2.3041687 1.0699158 4.0889893 3.011345 4.961731 5.397194c0.8727722 2.385849 0.7620239 5.020691 -0.30789185 7.3248825l-12.838226 27.648705c-2.2279663 4.7982254 -7.9238586 6.8818283 -12.722076 4.6538467l-15.358185 -7.131325l0 0c-4.7982483 -2.2279816 -6.881836 -7.923851 -4.6538696 -12.722084z" fill-rule="evenodd"/><path fill="#000000" d="m271.43973 242.90482l0 0c2.2279663 -4.798233 7.9238586 -6.881836 12.722076 -4.6538544l15.358185 7.1313324l0 0c2.3041992 1.0699158 4.0889893 3.0113373 4.9617615 5.3972015c0.8727722 2.385849 0.7620239 5.020691 -0.30789185 7.324875l-12.838226 27.648712c-2.2279968 4.798218 -7.9238586 6.881836 -12.722076 4.653839l-15.358215 -7.131317l0 0c-4.798218 -2.2279968 -6.881836 -7.9238586 -4.653839 -12.722076z" fill-rule="evenodd"/><path fill="#000000" d="m428.89243 208.29031l0 0c4.798218 2.2279816 6.8818054 7.9238586 4.653839 12.722076l-7.131317 15.3582l0 0c-1.0699158 2.3041992 -3.0113525 4.0889893 -5.397217 4.9617615c-2.3858337 0.87275696 -5.020691 0.76200867 -7.3248596 -0.3079071l-27.648712 -12.838226c-4.7982483 -2.2279816 -6.881836 -7.9238586 -4.653839 -12.722076l7.131317 -15.3582l0 0c2.2279663 -4.798233 7.9238586 -6.881836 12.722076 -4.6538544z" fill-rule="evenodd"/><path fill="#000000" d="m256.7555 128.36516l0 0c4.798218 2.2279816 6.8818054 7.9238434 4.653839 12.722076l-7.1313324 15.3582l0 0c-1.0699158 2.304184 -3.0113373 4.0889893 -5.3971863 4.961746c-2.3858643 0.8727722 -5.020706 0.76200867 -7.32489 -0.30789185l-27.648697 -12.838226c-4.798233 -2.2279816 -6.881836 -7.9238586 -4.6538544 -12.722092l7.1313324 -15.358192l0 0c2.2279816 -4.7982254 7.9238434 -6.8818283 12.722076 -4.6538467z" fill-rule="evenodd"/><path fill="#efefef" d="m294.24026 123.26048l0 0c2.1667786 -4.666481 7.7062683 -6.6928635 12.372742 -4.526062l10.024689 4.654808l0 0c2.2409363 1.040535 3.976715 2.9286575 4.825531 5.2490005c0.8487854 2.320343 0.74105835 4.8828278 -0.299469 7.123749l-4.6548157 10.024704c-2.1667786 4.6664734 -7.7062683 6.692856 -12.372742 4.526062l-10.024689 -4.6548157c-4.6664734 -2.1667938 -6.692871 -7.7062683 -4.526062 -12.372742z" fill-rule="evenodd"/><path fill="#000000" d="m28.889051 419.62628l270.25195 0l0 25.919098l-270.25195 0z" fill-rule="evenodd"/><path fill="#000000" d="m154.64468 13.278439l0 421.7218l-25.919098 0l0 -421.7218z" fill-rule="evenodd"/><path fill="#000000" d="m128.7078 13.278439l204.09222 0l0 25.919094l-204.09222 0z" fill-rule="evenodd"/><path fill="#000000" d="m333.45578 13.278471l0 86.63085l-17.128052 0l0 -86.63085z" fill-rule="evenodd"/><path fill="#000000" d="m148.16333 91.55944l59.381638 -59.38163l34.059174 0l-93.44081 93.4408z" fill-rule="evenodd"/><path fill="#e69138" d="m196.62227 413.1054l0 16.072205l24.136093 0l0 64.23285l16.016068 0l0 -64.23285l24.080093 0l0 -16.072205z" fill-rule="evenodd"/><path fill="#e69138" d="m301.51068 429.1776c2.2026672 0 4.2746887 0.4230957 6.216034 1.2693481c1.9413452 0.83377075 3.6400146 1.9786987 5.0960083 3.4346924c1.4560242 1.4560242 2.600891 3.1671753 3.4346924 5.133423c0.8462219 1.9537964 1.2693176 4.0320435 1.2693176 6.234741c0 2.2026978 -0.4230957 4.2871704 -1.2693176 6.253418c-0.83380127 1.9537964 -1.9786682 3.658722 -3.4346924 5.1147156c-1.4559937 1.4560242 -3.154663 2.6071472 -5.0960083 3.4533997c-1.9413452 0.83377075 -4.0133667 1.2506714 -6.216034 1.2506714l-16.072052 0l0 -32.14441zm-32.144135 -16.072205l0 80.30505l16.072083 0l0 -16.072235l17.976074 -0.11199951l7.0000305 16.184235l17.080048 0l-8.904022 -21.000275c2.3146667 -1.4560242 4.4053345 -3.1734009 6.272003 -5.152069c1.8666992 -1.9786987 3.440918 -4.1440735 4.722687 -6.4960938c1.2942505 -2.3520508 2.2835693 -4.8347473 2.9680176 -7.4480896c0.6968994 -2.6133728 1.0453491 -5.301422 1.0453491 -8.064117c0 -2.9493713 -0.3857727 -5.786743 -1.1573486 -8.5121155c-0.75909424 -2.7253723 -1.8417664 -5.2827454 -3.2480164 -7.6720886c-1.3937683 -2.3893738 -3.0737915 -4.5609436 -5.0400085 -6.5147705c-1.9537964 -1.9662476 -4.1191406 -3.6462708 -6.4960327 -5.0400696c-2.364441 -1.4062195 -4.9093323 -2.488922 -7.6347046 -3.2480164c-2.7253418 -0.7715759 -5.562683 -1.1573486 -8.512024 -1.1573486z" fill-rule="evenodd"/><path fill="#e69138" d="m375.31897 429.1776c2.2026978 0 4.2809143 0.4230957 6.2347107 1.2693481c1.966217 0.83377075 3.6773376 1.9786987 5.1333313 3.4346924c1.4560242 1.4560242 2.6009216 3.1671753 3.4346924 5.133423c0.8462219 1.9537964 1.2693481 4.0320435 1.2693481 6.234741l0 16.072205l-32.144135 0l0 -16.072205c0 -2.2026978 0.41690063 -4.280945 1.2506714 -6.234741c0.8462219 -1.9662476 1.997345 -3.6773987 3.4533386 -5.133423c1.4560242 -1.4559937 3.1609192 -2.6009216 5.114685 -3.4346924c1.9662476 -0.84625244 4.0506897 -1.2693481 6.253357 -1.2693481zm0 -16.072205c-4.442688 0 -8.617798 0.83999634 -12.525391 2.5200195c-3.895111 1.6800232 -7.29245 3.9760437 -10.192017 6.888092c-2.887146 2.9120483 -5.170685 6.321869 -6.850708 10.229462c-1.6799927 3.895172 -2.5200195 8.064117 -2.5200195 12.506836l0 48.160645l16.016083 0l0 -16.072235l32.144135 0l0 16.072235l16.072052 0l0 -48.160645c0 -4.4427185 -0.83999634 -8.611664 -2.5200195 -12.506836c-1.6799927 -3.9075928 -3.9760132 -7.3174133 -6.888031 -10.229462c-2.9119873 -2.9120483 -6.3217773 -5.208069 -10.22937 -6.888092c-3.895111 -1.6800232 -8.064026 -2.5200195 -12.506714 -2.5200195z" fill-rule="evenodd"/><path fill="#e69138" d="m453.5513 429.1776c2.2026672 0 4.274658 0.4230957 6.2160034 1.2693481c1.9413452 0.83377075 3.6400146 1.9786987 5.096039 3.4346924c1.4559937 1.4560242 2.600891 3.1671753 3.4346619 5.133423c0.8462219 1.9537964 1.2693481 4.0320435 1.2693481 6.234741c0 2.2026978 -0.42312622 4.2871704 -1.2693481 6.253418c-0.83377075 1.9537964 -1.9786682 3.658722 -3.4346619 5.1147156c-1.4560242 1.4560242 -3.1546936 2.6071472 -5.096039 3.4533997c-1.9413452 0.83377075 -4.013336 1.2506714 -6.2160034 1.2506714l-16.072083 0l0 -32.14441zm-32.144135 -16.072205l0 80.30505l16.072052 0l0 -16.072235l16.072083 0c4.4053345 0 8.5555725 -0.83999634 12.450714 -2.5200195c3.9075623 -1.6800232 7.3173523 -3.9760437 10.22937 -6.888092c2.9120178 -2.9120483 5.208008 -6.3156433 6.888031 -10.210815c1.6799927 -3.9075928 2.519989 -8.064087 2.519989 -12.469482c0 -2.9493713 -0.3857727 -5.786743 -1.1573181 -8.5121155c-0.75912476 -2.7253723 -1.8417969 -5.2827454 -3.2480164 -7.6720886c-1.3937988 -2.3893738 -3.0737915 -4.5609436 -5.040039 -6.5147705c-1.9537659 -1.9662476 -4.11911 -3.6462708 -6.496002 -5.0400696c-2.3644714 -1.4062195 -4.909363 -2.488922 -7.6347046 -3.2480164c-2.7253418 -0.7715759 -5.562683 -1.1573486 -8.512024 -1.1573486z" fill-rule="evenodd"/><path fill="#cc0000" d="m48.898354 344.1645c3.3226814 0 6.446251 0.6346741 9.370705 1.9040222c2.936901 1.2693481 5.4942474 2.9991455 7.6720276 5.189392c2.190239 2.177826 3.9075775 4.7227173 5.1520233 7.6347656c1.256897 2.9120483 1.8853378 6.029419 1.8853378 9.352142c0 3.3226929 -0.62844086 6.4525146 -1.8853378 9.389435c-1.2444458 2.9244995 -2.9617844 5.481842 -5.1520233 7.672119c-2.1777802 2.1777954 -4.7351265 3.8951416 -7.6720276 5.152069c-2.9244537 1.2444458 -6.048023 1.8666687 -9.370705 1.8666687l-8.00803 0l0 -48.160614zm-24.192097 -16.072205l0 80.30505l24.192097 0c3.6960144 0 7.2489204 -0.4729004 10.6587105 -1.4187012c3.4222374 -0.95825195 6.62669 -2.3146973 9.613369 -4.069397c2.986679 -1.7546692 5.6933594 -3.851593 8.120033 -6.290741c2.426674 -2.4515991 4.5173492 -5.1582947 6.272026 -8.120117c1.7546692 -2.9742432 3.1049042 -6.1662903 4.050682 -9.576111c0.95822906 -3.4222717 1.4373398 -6.9814453 1.4373398 -10.67746c0 -3.6960754 -0.47911072 -7.248993 -1.4373398 -10.658813c-0.9457779 -3.4222717 -2.2960129 -6.614319 -4.050682 -9.576141c-1.7546768 -2.9742432 -3.8453522 -5.680969 -6.272026 -8.120087c-2.426674 -2.4515991 -5.133354 -4.5547485 -8.120033 -6.3094177c-2.986679 -1.7546997 -6.1911316 -3.10495 -9.613369 -4.05072c-3.40979 -0.95825195 -6.962696 -1.4373474 -10.6587105 -1.4373474z" fill-rule="evenodd"/><path fill="#cc0000" d="m99.69055 328.0923l0 80.30505l55.048218 0l0 -16.072235l-38.97615 0l0 -16.016205l26.376099 0l0 -16.072205l-26.376099 0l0 -16.072205l38.97615 0l0 -16.072205z" fill-rule="evenodd"/><path fill="#cc0000" d="m197.18694 344.1645c2.2026825 0 4.2809143 0.4230957 6.2346954 1.2693481c1.9662323 0.83377075 3.677353 1.9786987 5.133362 3.4346924c1.4559937 1.4560242 2.600891 3.1671753 3.4346771 5.133423c0.8462219 1.9537964 1.2693329 4.0320435 1.2693329 6.234741l0 16.072205l-32.14412 0l0 -16.072205c0 -2.2026978 0.41688538 -4.280945 1.2506714 -6.234741c0.8462219 -1.9662476 1.9973297 -3.6773987 3.4533386 -5.133423c1.4560089 -1.4559937 3.160904 -2.6009216 5.114685 -3.4346924c1.9662323 -0.84625244 4.0506897 -1.2693481 6.253357 -1.2693481zm0 -16.072205c-4.4426727 0 -8.617813 0.83999634 -12.525375 2.5200195c-3.8951263 1.6800232 -7.2924805 3.9760437 -10.192047 6.888092c-2.8871155 2.9120483 -5.170685 6.321869 -6.8506927 10.229462c-1.6800079 3.895172 -2.5200043 8.064117 -2.5200043 12.506836l0 48.160645l16.016068 0l0 -16.072235l32.14412 0l0 16.072235l16.072067 0l0 -48.160645c0 -4.4427185 -0.83999634 -8.611664 -2.5200043 -12.506836c-1.6800079 -3.9075928 -3.9760284 -7.3174133 -6.888031 -10.229462c-2.9120178 -2.9120483 -6.321808 -5.208069 -10.22937 -6.888092c-3.8951263 -1.6800232 -8.064041 -2.5200195 -12.506729 -2.5200195z" fill-rule="evenodd"/><path fill="#cc0000" d="m234.4271 328.0923l0 16.072205l24.136078 0l0 64.23285l16.016083 0l0 -64.23285l24.080078 0l0 -16.072205z" fill-rule="evenodd"/><path fill="#cc0000" d="m307.1714 328.0923l0 80.30505l16.072052 0l0 -32.08844l32.088135 0l0 32.08844l16.072052 0l0 -80.30505l-16.072052 0l0 32.14441l-32.088135 0l0 -32.14441z" fill-rule="evenodd"/></g></svg>