<svg version="1.1" viewBox="0.0 0.0 500.0 500.0" fill="none" stroke="none" stroke-linecap="square" stroke-miterlimit="10" xmlns:xlink="http://www.w3.org/1999/xlink" xmlns="http://www.w3.org/2000/svg"><clipPath id="p.0"><path d="m0 0l500.0 0l0 500.0l-500.0 0l0 -500.0z" clip-rule="nonzero"/></clipPath><g clip-path="url(#p.0)"><path fill="#000000" fill-opacity="0.0" d="m0 0l500.0 0l0 500.0l-500.0 0z" fill-rule="evenodd"/><path fill="#d9d9d9" d="m23.61155 250.00525l0 0c0 -125.03379 101.35991 -226.3937 226.3937 -226.3937l0 0c60.043335 0 117.62747 23.852123 160.08453 66.30918c42.45703 42.457047 66.30917 100.04118 66.30917 160.08452l0 0c0 125.03378 -101.359924 226.3937 -226.3937 226.3937l0 0c-125.03379 0 -226.3937 -101.359924 -226.3937 -226.3937z" fill-rule="evenodd"/><path fill="#99b6e3" d="m276.46652 63.64065c-34.27533 0 -63.38475 9.265858 -87.32826 27.797558c-23.943527 18.531708 -40.0972 43.787315 -48.46103 75.76681l64.6967 11.315811c4.9199066 -21.975647 13.201736 -37.965393 24.845505 -47.96924c11.643768 -10.003838 26.64946 -15.00576 45.017105 -15.00576c16.56366 0 28.863403 3.4166183 36.89926 10.24984c8.035828 6.7785645 12.053741 15.251755 12.053741 25.419601c0 6.8878784 -2.3506165 14.021774 -7.0518494 21.401657c-4.646576 7.379883 -20.1716 22.631638 -46.575073 45.75528c-31.323364 27.05957 -52.205612 48.679886 -62.646744 64.86098c-10.386459 16.126373 -17.21965 35.17743 -20.499588 57.153076l63.466736 0c2.4599457 -13.611786 6.4778748 -24.353607 12.053741 -32.225494c5.575897 -7.8718567 20.335602 -21.811646 44.279114 -41.819336c38.211243 -31.65149 61.58078 -54.63846 70.10861 -68.96089c8.527832 -14.377106 12.791748 -28.781555 12.791748 -43.213318c0 -24.76361 -10.003815 -46.02861 -30.011414 -63.79499c-20.007599 -17.821053 -47.887024 -26.731579 -83.638306 -26.731579zm-96.430084 298.63925l-14.267715 68.14093l69.86261 0l14.267715 -68.14093z" fill-rule="evenodd"/><path fill="#0b5394" d="m16.677166 250.0l0 0c0 -128.86064 104.46219 -233.32283 233.32283 -233.32283l0 0c61.881073 0 121.22763 24.582157 164.98416 68.33867c43.75653 43.756516 68.338684 103.1031 68.338684 164.98416l0 0c0 128.86066 -104.46219 233.32285 -233.32285 233.32285l0 0c-128.86064 0 -233.32283 -104.46219 -233.32283 -233.32285zm31.139263 0l0 0c0 111.6629 90.52067 202.18356 202.18356 202.18356c111.6629 0 202.18356 -90.52066 202.18356 -202.18356l0 0c0 -111.6629 -90.52066 -202.18356 -202.18356 -202.18356l0 0c-111.6629 0 -202.18356 90.52067 -202.18356 202.18356z" fill-rule="evenodd"/><path fill="#0b5394" d="m108.08355 191.99162c-3.0614243 0 -6.012474 0.35949707 -8.853157 1.0785065c-2.8406754 0.71899414 -5.4990234 1.7368622 -7.975029 3.0535736c-2.4760056 1.3080597 -4.7360764 2.8846588 -6.78022 4.7298126c-2.0441437 1.8451385 -3.7955856 3.8851929 -5.2543106 6.1201477c-1.4491348 2.23497 -2.5719757 4.643173 -3.368515 7.22464c-0.7965393 2.572815 -1.1948166 5.240906 -1.1948166 8.004288c0 2.763382 0.39827728 5.4271393 1.1948166 7.991287c0.7965393 2.564148 1.9193802 4.9636993 3.368515 7.198654c1.458725 2.23497 3.210167 4.275009 5.2543106 6.120163c2.0441437 1.8451385 4.3042145 3.4260712 6.78022 4.742798c2.4760056 1.3080444 5.1343536 2.321579 7.975029 3.0405884c2.840683 0.71899414 5.791733 1.0784912 8.853157 1.0784912c3.9923096 0 7.8502655 -0.623703 11.573875 -1.8711243c3.7331924 -1.2474213 7.394409 -3.2658234 10.983673 -6.055191l-8.118996 -12.071396c-2.5047913 2.4515228 -4.908821 4.119095 -7.212082 5.0026855c-2.3032532 0.8749237 -4.7120743 1.3123779 -7.226471 1.3123779c-2.54319 0 -4.9280243 -0.433136 -7.154503 -1.2993927c-2.2168808 -0.8749237 -4.155464 -2.0617065 -5.815727 -3.5603485c-1.6602631 -1.498642 -2.975029 -3.244156 -3.9443283 -5.236557c-0.9596939 -1.9924164 -1.439537 -4.1234283 -1.439537 -6.393036c0 -2.2696075 0.47984314 -4.41362 1.439537 -6.432007c0.96928406 -2.018402 2.2840576 -3.7682495 3.9443283 -5.2495728c1.6602631 -1.489975 3.5988464 -2.6680908 5.815727 -3.5343475c2.2264938 -0.8749237 4.611328 -1.3123932 7.154503 -1.3123932c2.5143967 0 4.923218 0.44178772 7.226471 1.3253784c2.3032608 0.8749237 4.7072906 2.5381622 7.212082 4.989685l8.118996 -12.058395c-3.5892487 -2.8240204 -7.2504654 -4.851074 -10.983673 -6.0811768c-3.72361 -1.2387543 -7.581566 -1.858139 -11.573875 -1.858139z" fill-rule="evenodd"/><path fill="#0b5394" d="m165.69382 205.67427c2.514389 0 4.889618 0.43746948 7.125702 1.3123932c2.236084 0.8662567 4.1746674 2.0443878 5.815735 3.5343475c1.6506653 1.4813232 2.955841 3.2311707 3.9155426 5.2495728c0.96928406 2.0183868 1.4539337 4.1623993 1.4539337 6.432007c0 2.2696075 -0.48464966 4.4006195 -1.4539337 6.393036c-0.9596863 1.9924011 -2.2648773 3.7379303 -3.9155426 5.236557c-1.6410675 1.498642 -3.5796509 2.6854248 -5.815735 3.5603485c-2.236084 0.8662567 -4.611313 1.2993927 -7.125702 1.2993927c-2.5431824 0 -4.928009 -0.433136 -7.1544952 -1.2993927c-2.2168884 -0.8749237 -4.155472 -2.0617065 -5.815735 -3.5603485c-1.6602631 -1.498642 -2.9750519 -3.244156 -3.944336 -5.236557c-0.9596863 -1.9924164 -1.4395294 -4.1234283 -1.4395294 -6.393036c0 -2.2696075 0.47984314 -4.41362 1.4395294 -6.432007c0.9692993 -2.018402 2.2840729 -3.7682495 3.944336 -5.2495728c1.6602631 -1.489975 3.5988464 -2.6680908 5.815735 -3.5343475c2.226471 -0.8749237 4.611313 -1.3123932 7.1544952 -1.3123932zm0 -13.604675c-3.0614166 0 -6.0124664 0.35949707 -8.853149 1.0784912c-2.8406982 0.7190094 -5.4990387 1.7281952 -7.9750366 3.0276031c-2.4760132 1.2993927 -4.736084 2.8716583 -6.7802277 4.716797c-2.034546 1.8451538 -3.781189 3.8808746 -5.239914 6.1071625c-1.458725 2.217636 -2.5863647 4.6172028 -3.382904 7.198654c-0.79655457 2.572815 -1.1948242 5.240906 -1.1948242 8.004288c0 2.763382 0.39826965 5.4271393 1.1948242 7.991287c0.7965393 2.564148 1.9193878 4.9636993 3.368515 7.198654c1.458725 2.23497 3.2101593 4.275009 5.254303 6.120163c2.0441437 1.8451385 4.3042145 3.4260712 6.7802277 4.742798c2.475998 1.3080444 5.1343384 2.321579 7.9750366 3.0405884c2.840683 0.71899414 5.791733 1.0784912 8.853149 1.0784912c3.0614166 0 6.0172577 -0.35949707 8.867538 -1.0784912c2.8598785 -0.7190094 5.518219 -1.7368774 7.9750366 -3.0535889c2.4664154 -1.3167267 4.7216797 -2.8933258 6.7658234 -4.7297974c2.0441437 -1.8451538 3.7859802 -3.8851929 5.225525 -6.120163c1.4395294 -2.2349548 2.5575714 -4.634506 3.354126 -7.198654c0.7965393 -2.564148 1.194809 -5.2279053 1.194809 -7.991287c0 -2.763382 -0.39826965 -5.431473 -1.194809 -8.004288c-0.79655457 -2.5814667 -1.9145966 -4.981018 -3.354126 -7.198654c-1.4395447 -2.2262878 -3.1813812 -4.2620087 -5.225525 -6.1071625c-2.0441437 -1.8451385 -4.299408 -3.4174042 -6.7658234 -4.716797c-2.4568024 -1.299408 -5.115143 -2.3085938 -7.9750366 -3.0276031c-2.8502808 -0.71899414 -5.806122 -1.0784912 -8.867538 -1.0784912z" fill-rule="evenodd"/><path fill="#0b5394" d="m226.71579 191.99162c-2.7543182 0 -5.3454895 0.4677887 -7.7734985 1.4033508c-2.4280243 0.93556213 -4.54895 2.2219696 -6.3627625 3.8592072c-1.8042145 1.6285706 -3.2245636 3.5386963 -4.261032 5.7303314c-1.0364685 2.1916504 -1.5546875 4.5305634 -1.5546875 7.016754l0 41.16487l15.15831 0l0 -41.16487c0 -0.61505127 0.1199646 -1.1824646 0.3598938 -1.7022095c0.24951172 -0.51976013 0.59020996 -0.97454834 1.0220642 -1.3643799c0.4414673 -0.39848328 0.95010376 -0.70599365 1.5259094 -0.92256165c0.5758209 -0.22523499 1.204422 -0.33784485 1.8858032 -0.33784485c0.6813812 0 1.309967 0.11260986 1.885788 0.33784485c0.5758209 0.216568 1.0796509 0.5240936 1.5115204 0.92256165c0.44145203 0.38983154 0.782135 0.84461975 1.0220642 1.3643799c0.24952698 0.5197449 0.37428284 1.0871582 0.37428284 1.7022095l0 41.16487l15.158325 0l0 -41.16487c0 -0.61505127 0.11994934 -1.1824646 0.35987854 -1.7022095c0.24952698 -0.51976013 0.59020996 -0.97454834 1.0220642 -1.3643799c0.4414673 -0.39848328 0.95010376 -0.70599365 1.5259094 -0.92256165c0.5758209 -0.22523499 1.204422 -0.33784485 1.8858032 -0.33784485c0.6813812 0 1.3099823 0.11260986 1.885788 0.33784485c0.5758209 0.216568 1.0796509 0.5240936 1.5115204 0.92256165c0.44145203 0.38983154 0.79174805 0.848938 1.0508575 1.3773651c0.2591095 0.51976013 0.38868713 1.0828247 0.38868713 1.6892242l0 41.16487l15.115112 0l0 -41.16487c0 -2.4861908 -0.518219 -4.8251038 -1.5546875 -7.016754c-1.0364685 -2.1916351 -2.461609 -4.101761 -4.275421 -5.7303314c-1.8042297 -1.6372375 -3.9203491 -2.923645 -6.348358 -3.8592072c-2.428009 -0.93556213 -5.0191803 -1.4033508 -7.7734985 -1.4033508c-2.4760132 0 -4.8560333 0.39848328 -7.140106 1.1954498c-2.274475 0.79696655 -4.011505 1.6935425 -5.2111206 2.689743c-1.2092133 -0.99620056 -2.9606476 -1.8927765 -5.254318 -2.689743c-2.2840576 -0.79696655 -4.664093 -1.1954498 -7.140091 -1.1954498z" fill-rule="evenodd"/><path fill="#0b5394" d="m282.46906 192.77127l0 58.394867l15.158325 0l0 -58.394867z" fill-rule="evenodd"/><path fill="#0b5394" d="m309.11487 192.77127l0 58.394867l15.158325 0l0 -33.446457l21.708221 33.446457l15.431824 0l0 -58.394867l-15.158325 0l0 33.485443l-21.70819 -33.485443z" fill-rule="evenodd"/><path fill="#0b5394" d="m402.87192 192.14755c-3.061432 0 -6.0124817 0.35949707 -8.853149 1.0785065c-2.8406982 0.71899414 -5.494232 1.7281952 -7.9606323 3.027588c-2.4568176 1.2993927 -4.707306 2.86734 -6.7514343 4.7038116c-2.044159 1.8278198 -3.7859802 3.8592072 -5.225525 6.0941772c-1.4395447 2.2349548 -2.5575867 4.6301727 -3.354126 7.1856537c-0.7965393 2.546814 -1.1948242 5.2019196 -1.1948242 7.9653015c0 2.763382 0.3982849 5.4358063 1.1948242 8.017273c0.7965393 2.5727997 1.9145813 4.9766846 3.354126 7.2116547c1.4395447 2.2349548 3.181366 4.2706757 5.225525 6.1071625c2.0441284 1.8278198 4.2946167 3.4000854 6.7514343 4.716812c2.4664001 1.3080444 5.119934 2.321579 7.9606323 3.0405884c2.8406677 0.71899414 5.7917175 1.0784912 8.853149 1.0784912c3.9923096 0 7.8358765 -0.61505127 11.530701 -1.8451385c3.6947937 -1.2387695 7.2072754 -3.1358795 10.537384 -5.6913605l0 -23.882904l-14.72644 0l0 16.385391c-0.7293701 0.32917786 -1.7754517 0.6496887 -3.138214 0.96154785c-1.3627625 0.31185913 -2.7638855 0.4677887 -4.20343 0.4677887c-2.5144043 0 -4.875244 -0.433136 -7.0825195 -1.2993927c-2.207306 -0.87493896 -4.1410522 -2.0617218 -5.8013306 -3.5603485c-1.6602783 -1.498642 -2.9750366 -3.2484894 -3.944336 -5.2495728c-0.9596863 -2.0097198 -1.4395447 -4.1623993 -1.4395447 -6.4579926c0 -2.2696075 0.4798584 -4.4006195 1.4395447 -6.393036c0.9692688 -1.9924011 2.2840576 -3.7292633 3.944336 -5.2105713c1.6602478 -1.489975 3.5940247 -2.6680908 5.8013306 -3.5343628c2.2072754 -0.8749237 4.568115 -1.3123932 7.0825195 -1.3123932c2.5144043 0 4.9088135 0.4547882 7.1832886 1.3643646c2.274475 0.9009247 4.7072754 2.5381622 7.298462 4.911728l7.9894104 -12.03241c-3.5988464 -2.763382 -7.2456665 -4.7601166 -10.94046 -5.990219c-3.6948242 -1.2387543 -7.538391 -1.858139 -11.530701 -1.858139z" fill-rule="evenodd"/><path fill="#0b5394" d="m140.73224 288.40683c-2.754303 0 -5.340683 0.47647095 -7.759094 1.4293518c-2.4088287 0.94421387 -4.520157 2.2349548 -6.333969 3.8721924c-1.8042145 1.6285706 -3.234146 3.5343628 -4.289818 5.717346c-1.0460663 2.1743164 -1.5690918 4.5045776 -1.5690918 6.990753c0 2.4861755 0.5230255 4.8250732 1.5690918 7.016754c1.0556564 2.1916504 2.4855957 4.106079 4.289818 5.7433167c1.8138123 1.6285706 3.9251404 2.9193115 6.333969 3.8721924c2.4184113 0.9442444 5.0047913 1.4163513 7.759094 1.4163513l12.394424 0c0.6813812 0 1.309967 0.11260986 1.885788 0.3378296c0.5758209 0.21658325 1.0796509 0.5241089 1.5115204 0.9225769c0.44145203 0.38983154 0.782135 0.8446045 1.0220642 1.3643799c0.24952698 0.5197449 0.37428284 1.0871582 0.37428284 1.7022095c0 0.61505127 -0.12475586 1.1824341 -0.37428284 1.7022095c-0.23991394 0.5197449 -0.5806122 0.97888184 -1.0220642 1.3773499c-0.4318695 0.38983154 -0.93569946 0.6973572 -1.5115204 0.9225769c-0.5758209 0.21658325 -1.2044067 0.32485962 -1.885788 0.32485962l-28.89151 0l0 13.682617l28.89151 0c2.7543182 0 5.3454742 -0.47210693 7.7734985 -1.4163208c2.428009 -0.95288086 4.5441284 -2.2436218 6.348358 -3.8721924c1.8138123 -1.6372681 3.2389526 -3.5430298 4.275421 -5.717346c1.0364685 -2.183014 1.5547028 -4.517578 1.5547028 -7.0037537c0 -2.4861755 -0.51823425 -4.8251038 -1.5547028 -7.016754c-1.0364685 -2.1916504 -2.461609 -4.1017456 -4.275421 -5.730316c-1.8042297 -1.6372375 -3.9203491 -2.923645 -6.348358 -3.8592224c-2.4280243 -0.9355774 -5.0191803 -1.4033508 -7.7734985 -1.4033508l-12.394424 0c-0.6813812 0 -1.309967 -0.10827637 -1.885788 -0.3248291c-0.5758209 -0.22525024 -1.0844574 -0.5327759 -1.5259094 -0.9225769c-0.43185425 -0.38983154 -0.7725525 -0.8532715 -1.0220642 -1.3903503c-0.2399292 -0.53707886 -0.3598938 -1.1131592 -0.3598938 -1.7282104c0 -0.61505127 0.1199646 -1.1824646 0.3598938 -1.7022095c0.24951172 -0.5197449 0.59020996 -0.97454834 1.0220642 -1.3643799c0.44145203 -0.39846802 0.9500885 -0.70599365 1.5259094 -0.9225464c0.5758209 -0.22525024 1.2044067 -0.3378601 1.885788 -0.3378601l29.798416 0l0 -13.682648z" fill-rule="evenodd"/><path fill="#0b5394" d="m211.25516 301.30984c2.514389 0 4.889633 0.43746948 7.125702 1.3123779c2.236084 0.866272 4.1746674 2.044403 5.815735 3.5343628c1.6506653 1.4813232 2.955841 3.2311707 3.9155426 5.2495728c0.96928406 2.018402 1.4539337 4.162384 1.4539337 6.432007c0 2.2696228 -0.48464966 4.400635 -1.4539337 6.393036c-0.9596863 1.9924011 -2.2648773 3.737915 -3.9155426 5.2365723c-1.6410675 1.4986267 -3.5796509 2.6853943 -5.815735 3.5603333c-2.2360687 0.866272 -4.611313 1.299408 -7.125702 1.299408c-2.5431824 0 -4.9280243 -0.433136 -7.1544952 -1.299408c-2.2168884 -0.87490845 -4.155472 -2.0617065 -5.815735 -3.5603333c-1.6602631 -1.4986267 -2.9750366 -3.2441711 -3.9443207 -5.2365723c-0.95970154 -1.9924011 -1.4395447 -4.123413 -1.4395447 -6.393036c0 -2.2696228 0.47984314 -4.4136047 1.4395447 -6.432007c0.96928406 -2.018402 2.2840576 -3.7682495 3.9443207 -5.2495728c1.6602631 -1.4899597 3.5988464 -2.6680908 5.815735 -3.5343628c2.2264862 -0.87490845 4.611313 -1.3123779 7.1544952 -1.3123779zm0 -13.604675c-3.0614166 0 -6.0124664 0.35949707 -8.853149 1.0784912c-2.840683 0.71899414 -5.4990387 1.7282104 -7.9750366 3.027588c-2.475998 1.299408 -4.736084 2.8716736 -6.7802124 4.7168274c-2.0345612 1.8451233 -3.781189 3.8808594 -5.239914 6.107147c-1.4587402 2.2176514 -2.58638 4.617218 -3.3829193 7.1986694c-0.7965393 2.5727844 -1.194809 5.2408752 -1.194809 8.004272c0 2.7633972 0.39826965 5.4271545 1.194809 7.9913025c0.7965393 2.5641174 1.9193878 4.963684 3.368515 7.198639c1.4587402 2.2349548 3.2101746 4.2750244 5.254318 6.1201477c2.0441284 1.8451538 4.3042145 3.4260864 6.7802124 4.742798c2.475998 1.308075 5.1343536 2.3215942 7.9750366 3.0405884c2.840683 0.71899414 5.791733 1.0785217 8.853149 1.0785217c3.0614166 0 6.0172577 -0.3595276 8.867554 -1.0785217c2.8598785 -0.71899414 5.518219 -1.7368469 7.9750214 -3.0535583c2.4664154 -1.316742 4.721695 -2.893341 6.7658234 -4.729828c2.0441437 -1.8451233 3.7859955 -3.8851929 5.225525 -6.1201477c1.4395447 -2.2349548 2.5575714 -4.6345215 3.354126 -7.198639c0.7965393 -2.564148 1.194809 -5.2279053 1.194809 -7.9913025c0 -2.7633972 -0.39826965 -5.431488 -1.194809 -8.004272c-0.79655457 -2.581482 -1.9145813 -4.9810486 -3.354126 -7.1986694c-1.4395294 -2.2262878 -3.1813812 -4.262024 -5.225525 -6.107147c-2.0441284 -1.8451538 -4.299408 -3.4174194 -6.7658234 -4.7168274c-2.4568024 -1.2993774 -5.115143 -2.3085938 -7.9750214 -3.027588c-2.850296 -0.71899414 -5.806137 -1.0784912 -8.867554 -1.0784912z" fill-rule="evenodd"/><path fill="#0b5394" d="m282.81454 301.30984c2.5143738 0 4.889618 0.43746948 7.125702 1.3123779c2.236084 0.866272 4.174652 2.044403 5.815735 3.5343628c1.6506653 1.4813232 2.955841 3.2311707 3.9155273 5.2495728c0.9692993 2.018402 1.453949 4.162384 1.453949 6.432007c0 2.2696228 -0.48464966 4.400635 -1.453949 6.393036c-0.9596863 1.9924011 -2.264862 3.737915 -3.9155273 5.2365723c-1.6410828 1.4986267 -3.5796509 2.6853943 -5.815735 3.5603333c-2.236084 0.866272 -4.611328 1.299408 -7.125702 1.299408c-2.5431824 0 -4.928009 -0.433136 -7.1545105 -1.299408c-2.2168884 -0.87490845 -4.1554565 -2.0617065 -5.815735 -3.5603333c-1.6602478 -1.4986267 -2.9750366 -3.2441711 -3.944336 -5.2365723c-0.9596863 -1.9924011 -1.4395142 -4.123413 -1.4395142 -6.393036c0 -2.2696228 0.47982788 -4.4136047 1.4395142 -6.432007c0.9692993 -2.018402 2.2840881 -3.7682495 3.944336 -5.2495728c1.6602783 -1.4899597 3.5988464 -2.6680908 5.815735 -3.5343628c2.2265015 -0.87490845 4.611328 -1.3123779 7.1545105 -1.3123779zm0 -13.604675c-3.061432 0 -6.0124817 0.35949707 -8.853149 1.0784912c-2.8406982 0.71899414 -5.499054 1.7282104 -7.9750366 3.027588c-2.4760132 1.299408 -4.736084 2.8716736 -6.7802124 4.7168274c-2.034546 1.8451233 -3.7812042 3.8808594 -5.239929 6.107147c-1.458725 2.2176514 -2.5863647 4.617218 -3.382904 7.1986694c-0.79655457 2.5727844 -1.1948242 5.2408752 -1.1948242 8.004272c0 2.7633972 0.39826965 5.4271545 1.1948242 7.9913025c0.7965393 2.5641174 1.9193726 4.963684 3.368515 7.198639c1.458725 2.2349548 3.2101593 4.2750244 5.254318 6.1201477c2.0441284 1.8451538 4.304199 3.4260864 6.7802124 4.742798c2.4759827 1.308075 5.1343384 2.3215942 7.9750366 3.0405884c2.8406677 0.71899414 5.7917175 1.0785217 8.853149 1.0785217c3.0614014 0 6.0172424 -0.3595276 8.867554 -1.0785217c2.8598633 -0.71899414 5.518219 -1.7368469 7.975006 -3.0535583c2.4664307 -1.316742 4.72171 -2.893341 6.7658386 -4.729828c2.0441284 -1.8451233 3.7859802 -3.8851929 5.225525 -6.1201477c1.4395447 -2.2349548 2.5575562 -4.6345215 3.354126 -7.198639c0.7965393 -2.564148 1.1947937 -5.2279053 1.1947937 -7.9913025c0 -2.7633972 -0.3982544 -5.431488 -1.1947937 -8.004272c-0.7965698 -2.581482 -1.9145813 -4.9810486 -3.354126 -7.1986694c-1.4395447 -2.2262878 -3.1813965 -4.262024 -5.225525 -6.107147c-2.0441284 -1.8451538 -4.299408 -3.4174194 -6.7658386 -4.7168274c-2.456787 -1.2993774 -5.115143 -2.3085938 -7.975006 -3.027588c-2.8503113 -0.71899414 -5.8061523 -1.0784912 -8.867554 -1.0784912z" fill-rule="evenodd"/><path fill="#0b5394" d="m324.31638 288.40683l0 58.394867l15.158325 0l0 -33.44644l21.708221 33.44644l15.431824 0l0 -58.394867l-15.158295 0l0 33.485443l-21.708221 -33.485443z" fill-rule="evenodd"/></g></svg>