<svg version="1.1" viewBox="0.0 0.0 500.0 500.0" fill="none" stroke="none" stroke-linecap="square" stroke-miterlimit="10" xmlns:xlink="http://www.w3.org/1999/xlink" xmlns="http://www.w3.org/2000/svg"><clipPath id="p.0"><path d="m0 0l500.0 0l0 500.0l-500.0 0l0 -500.0z" clip-rule="nonzero"/></clipPath><g clip-path="url(#p.0)"><path fill="#000000" fill-opacity="0.0" d="m0 0l500.0 0l0 500.0l-500.0 0z" fill-rule="evenodd"/><path fill="#000000" d="m112.01822 329.9344l206.24997 0l0 19.79181l-206.24997 0z" fill-rule="evenodd"/><path fill="#000000" d="m207.98558 19.83987l0 321.832l-19.793106 0l0 -321.832z" fill-rule="evenodd"/><path fill="#000000" d="m188.19247 19.83987l155.76318 0l0 19.79181l-155.76318 0z" fill-rule="evenodd"/><path fill="#000000" d="m287.37906 100.794754l0 0c0 -26.059456 21.12677 -47.184814 47.187927 -47.184814l0 0c12.515015 0 24.517456 4.971241 33.366913 13.820114c8.849457 8.848869 13.821014 20.85051 13.821014 33.3647l0 0c0 26.059456 -21.12674 47.184814 -47.187927 47.184814l0 0c-26.061157 0 -47.187927 -21.125359 -47.187927 -47.184814zm18.5578 0l0 0c0 15.810272 12.818146 28.62703 28.630127 28.62703c15.812012 0 28.630157 -12.816757 28.630157 -28.62703c0 -15.810272 -12.818146 -28.62703 -28.630157 -28.62703l0 0c-15.811981 0 -28.630127 12.816757 -28.630127 28.62703z" fill-rule="evenodd"/><path fill="#000000" d="m324.72968 141.36348l19.79309 0l0 107.56418l-19.79309 0z" fill-rule="evenodd"/><path fill="#000000" d="m385.61636 167.03334l0 19.79181l-102.12097 0l0 -19.79181z" fill-rule="evenodd"/><path fill="#000000" d="m329.27573 236.2874l12.98703 14.999786l-48.160248 55.62419l-12.98703 -14.999786z" fill-rule="evenodd"/><path fill="#000000" d="m339.82224 236.32884l-12.806671 14.791443l48.16028 55.62419l12.806641 -14.791443z" fill-rule="evenodd"/><path fill="#000000" d="m344.4405 19.83987l0 37.288914l-19.793121 0l0 -37.288914z" fill-rule="evenodd"/><path fill="#000000" d="m203.03949 79.57812l45.31566 -45.31565l25.99144 0l-71.3071 71.30709z" fill-rule="evenodd"/><path fill="#000000" d="m93.32724 354.45145c-1.267662 0 -2.416481 0.4647522 -3.446457 1.3942566c-1.0299835 0.9295044 -1.4657364 2.0139465 -1.3072815 3.253296c0.39614105 3.7180176 0.7526779 7.397339 1.0695953 11.037903c0.3169098 3.6405945 0.39614105 7.3198853 0.23768616 11.037933c-0.07923126 3.4856567 -0.31691742 6.913208 -0.7130661 10.282684c-0.39614105 3.3694763 -0.7130585 6.7970276 -0.9507446 10.282715c-0.2852173 -0.0619812 -0.5641022 -0.09295654 -0.8366623 -0.09295654c-0.4088211 0 -0.80337524 0.06970215 -1.1836777 0.20913696c-2.3768768 0.6196594 -4.773552 0.98760986 -7.1900406 1.1037903c-1.2082367 0.05810547 -2.4214325 0.087127686 -3.6395798 0.087127686c-1.2181473 0 -2.441246 -0.029022217 -3.6692963 -0.087127686c-2.4561005 -0.11618042 -4.912201 -0.30984497 -7.3683014 -0.5809326c-2.4561005 -0.27111816 -4.912201 -0.52285767 -7.3683014 -0.755249c0.07923126 -6.8164062 0.03961563 -13.574707 -0.11884308 -20.274902c-0.15845871 -6.700226 -1.0695915 -13.342346 -2.7334023 -19.926361c-0.39614487 -1.4717102 -1.148819 -2.439972 -2.2580261 -2.9047241c-0.665535 -0.2788391 -1.3381882 -0.41827393 -2.0179596 -0.41827393c-0.45318985 0 -0.9095497 0.0619812 -1.3690834 0.18591309c-1.148819 0.30984497 -2.1193733 0.94885254 -2.9116669 1.9171143c-0.79228973 0.9682312 -0.99036026 2.188202 -0.5942154 3.6599426c1.5845795 6.4291077 2.4759064 12.877563 2.6739807 19.345398c0.19807053 6.4678345 0.25749207 12.993774 0.17826462 19.57779c-0.63383484 0.8520508 -0.95074844 1.8590088 -0.95074844 3.0209045c0 1.1618958 0.3169136 2.1688538 0.95074844 3.0209045c0.07922745 5.1123047 0.2773018 10.166504 0.5942154 15.162628c0.31691742 4.9960938 1.1488228 9.972839 2.495716 14.930237c0.31691742 1.4717102 1.0497856 2.4399414 2.1986046 2.9046936c0.6892891 0.27886963 1.3785782 0.41830444 2.0678864 0.41830444c0.4595337 0 0.91906357 -0.0619812 1.3785782 -0.18591309c1.1488228 -0.30984497 2.0995712 -0.94888306 2.8522453 -1.9171143c0.7526741 -0.9682312 0.93094254 -2.188202 0.53479767 -3.6599426c-1.1092072 -4.260254 -1.8420753 -8.520508 -2.1986084 -12.780762c-0.35652924 -4.2602234 -0.5744095 -8.559204 -0.65363693 -12.896912l0 0c2.535328 0.23236084 5.0904655 0.48410034 7.665409 0.7552185c2.5749435 0.27108765 5.130081 0.4647522 7.6654053 0.5809326c1.2676697 0.05810547 2.5353317 0.0871582 3.8029938 0.0871582c1.2676697 0 2.5353317 -0.029052734 3.8029938 -0.0871582c2.5353317 -0.11618042 5.0706635 -0.48410034 7.6059875 -1.1037903l0 0c-0.23768616 4.725006 -0.37633514 9.450012 -0.41594696 14.175018c-0.039619446 4.725006 0.09903717 9.411285 0.41594696 14.058838c0.07923126 1.5491638 0.63383484 2.691681 1.6638107 3.4275513c1.0299835 0.73587036 2.139183 1.1037903 3.3276215 1.1037903c1.1884384 0 2.2580261 -0.36791992 3.2087784 -1.1037903c0.9507446 -0.73587036 1.3865051 -1.8783875 1.3072739 -3.4275513c-0.39614105 -6.041809 -0.51498413 -12.102997 -0.35652924 -18.183533c0.15846252 -6.080536 0.4357605 -12.141724 0.8319092 -18.183533c0.1584549 -3.7180176 0.4555664 -7.3392334 0.8913269 -10.863617c0.4357605 -3.524414 0.7328644 -7.14563 0.8913269 -10.863647c0.1584549 -3.718048 0.059417725 -7.397339 -0.2971115 -11.037933c-0.35652924 -3.640564 -0.732872 -7.3198853 -1.1290131 -11.037903c-0.1584549 -1.2393494 -0.63383484 -2.3237915 -1.4261246 -3.253296c-0.79228973 -0.9295044 -1.8618774 -1.3942566 -3.2087784 -1.3942566z" fill-rule="evenodd"/><path fill="#000000" d="m132.73965 402.07217c0.7761078 0 1.5631561 0.024902344 2.3610992 0.07470703c1.8618774 0.11618042 3.6247253 0.2904663 5.2885437 0.52285767c1.6638031 0.23236084 3.1889648 0.6777649 4.57547 1.3361511c1.3865051 0.65841675 2.7532043 1.4136353 4.1000977 2.265686c0.07923889 3.6405945 0.019821167 7.2424316 -0.17825317 10.805542c-0.19807434 3.5631104 -0.4555664 7.2424316 -0.77249146 11.037933c-3.5653076 2.2463074 -7.3881073 3.640564 -11.468399 4.18277c-1.2418365 0.16503906 -2.4818268 0.2475586 -3.719986 0.2475586c-2.8300781 0 -5.6505737 -0.4310913 -8.461479 -1.2932434c-1.9807281 -0.5422058 -3.4068527 -1.4910889 -4.278366 -2.8466187c-0.871521 -1.3555298 -1.3865128 -2.8466187 -1.5449677 -4.4732666c-0.15846252 -1.626648 -0.039611816 -3.3307495 0.35652924 -5.1123047c0.39614868 -1.7815552 0.8319092 -3.3694763 1.3072815 -4.763733c0.6338272 -1.626648 1.3468933 -3.2339172 2.139183 -4.8218384c0.79228973 -1.5878906 1.7034225 -3.0789795 2.7333984 -4.473236c0.63383484 -0.8520508 1.3468933 -1.4717407 2.139183 -1.8590393c0.07923126 -0.07745361 0.45557404 -0.2130127 1.1290131 -0.40664673c0.67344666 -0.19366455 1.0894012 -0.2904663 1.2478638 -0.2904663c0.99601746 -0.088531494 2.011444 -0.1328125 3.04628 -0.1328125zm20.603592 -10.6727295c-1.1092072 0 -2.1589966 0.38726807 -3.149353 1.1618652c-0.9903717 0.77459717 -1.5251617 1.7428284 -1.6044006 2.9047241c-1.0299683 -0.38729858 -2.0599518 -0.7552185 -3.08992 -1.1037903c-1.0299835 -0.34857178 -2.0995789 -0.6003113 -3.208786 -0.7552185c-2.4561005 -0.38729858 -4.932007 -0.6390381 -7.427719 -0.755249c-0.57592773 -0.026794434 -1.1508026 -0.04019165 -1.7246399 -0.04019165c-1.912735 0 -3.8137665 0.1489563 -5.703079 0.4468689c-2.3768768 0.38729858 -4.4368286 1.2199707 -6.1798706 2.4980469c-1.7430344 1.2780762 -3.2483902 2.8078918 -4.5160522 4.589447c-1.267662 1.7815552 -2.3570633 3.718048 -3.268196 5.8094482c-0.91114044 2.0914001 -1.7232361 4.105316 -2.4362946 6.041809c-0.871521 2.4786987 -1.4261246 5.054199 -1.6638107 7.726532c-0.23768616 2.6723328 -0.059425354 5.247864 0.53479767 7.7265625c0.5942154 2.4786682 1.6638107 4.7443542 3.2087708 6.7970276c1.5449677 2.0526733 3.6643448 3.6599426 6.3581314 4.8218384c4.050087 1.7749939 8.284798 2.6624756 12.704147 2.6624756c0.59490967 0 1.1931763 -0.016082764 1.7947693 -0.04824829c5.0706635 -0.27108765 9.864014 -1.3361511 14.380066 -3.1951904c0.07923889 1.4717407 0.61402893 2.575531 1.6043854 3.3113708c0.9903717 0.73587036 2.079773 1.1037903 3.2682037 1.1037903c1.1884308 0 2.277832 -0.36791992 3.2682037 -1.1037903c0.99035645 -0.73583984 1.4459229 -1.8396301 1.3666992 -3.3113708c-0.15846252 -3.5631104 -0.17826843 -7.1262207 -0.059417725 -10.689362c0.11883545 -3.5631104 0.27729797 -7.1262207 0.4753723 -10.689331c0.19807434 -3.5631409 0.3169098 -7.126251 0.3565216 -10.689362c0.039611816 -3.5631104 -0.13864136 -7.126251 -0.53479004 -10.689362c-0.15846252 -1.2393494 -0.65364075 -2.3044128 -1.4855499 -3.1951904c-0.8318939 -0.8907776 -1.9212952 -1.3361511 -3.2681885 -1.3361511z" fill-rule="evenodd"/><path fill="#000000" d="m178.53807 391.98038c-1.1884308 0 -2.2580261 0.38729858 -3.2087708 1.1618958c-0.9507446 0.77456665 -1.426117 1.8977356 -1.426117 3.3694458c0.07922363 4.1828003 -0.15846252 8.307495 -0.71307373 12.374115c-0.55459595 4.0665894 -1.1092072 8.152557 -1.6638031 12.257904c-0.4753723 3.4081726 -0.7130585 6.777649 -0.7130585 10.108398c-0.07923889 1.5491943 -0.15846252 3.137085 -0.23768616 4.763733c-0.07923889 1.626648 -0.4753723 3.137085 -1.188446 4.531372c-0.6338196 1.316803 -0.69325256 2.5561218 -0.17825317 3.7180176c0.51498413 1.1618958 1.2676544 2.0332947 2.2580261 2.6142578c0.74276733 0.43569946 1.5412445 0.65356445 2.3954315 0.65356445c0.284729 0 0.5756531 -0.024230957 0.87275696 -0.072631836c1.188446 -0.19363403 2.1391907 -0.94888306 2.8522491 -2.265686c0.871521 -1.7041016 1.4855499 -3.4856567 1.8420715 -5.3446655c0.35653687 -1.8590088 0.594223 -3.718048 0.7130585 -5.577057c0.11885071 -1.8590088 0.19807434 -3.7373962 0.23770142 -5.6351624c0.039611816 -1.8977356 0.17825317 -3.776123 0.41593933 -5.635132c0.31692505 -2.5561523 0.65364075 -5.092926 1.0101776 -7.6103516c0.35653687 -2.5174255 0.9309387 -5.17041 1.7232361 -7.9589233c0.39613342 -0.23239136 0.8318939 -0.4260254 1.3072662 -0.58096313c0.47538757 -0.15490723 0.9507599 -0.30981445 1.4261322 -0.4647522c1.1092072 -0.30981445 2.1788025 -0.5422058 3.2087708 -0.69711304c1.0299835 -0.15493774 2.1391907 -0.23239136 3.3276215 -0.23239136c0.39614868 0 0.8517151 0.11618042 1.3666992 0.34857178c0.51498413 0.23239136 0.8517151 0.503479 1.0101776 0.813324c0.63383484 0.77459717 1.0695801 1.5685425 1.3072815 2.3818665c0.23768616 0.813324 0.4753723 1.7621765 0.7130585 2.8466187c0.39614868 1.7815552 0.57440186 3.7373962 0.53479004 5.867523c-0.039611816 2.130127 0.019805908 4.2021484 0.17826843 6.216095c0.15846252 3.718048 0.29710388 7.358612 0.4159546 10.921722c0.11883545 3.5631409 0.17826843 7.203705 0.17826843 10.921753c0 1.5491638 0.49517822 2.691681 1.4855347 3.4275513c0.9903717 0.73587036 2.0599518 1.1037903 3.208786 1.1037903c1.148819 0 2.218399 -0.36791992 3.2087708 -1.1037903c0.99035645 -0.73587036 1.4855499 -1.8783875 1.4855499 -3.4275513c0 -3.9504395 -0.07923889 -7.8814697 -0.23768616 -11.793152c-0.15846252 -3.9116821 -0.27731323 -7.842743 -0.35653687 -11.793152c-0.07922363 -2.7885132 -0.19807434 -5.577057 -0.35653687 -8.36557c-0.15844727 -2.7885437 -0.7130585 -5.4996033 -1.6638031 -8.133209c-1.1092072 -2.8659973 -2.7730255 -5.1510315 -4.9914246 -6.855133c-2.2184143 -1.7041016 -4.912201 -2.5948792 -8.081375 -2.6723328c-2.7730103 0 -5.704483 0.11618042 -8.794418 0.34854126c0 -1.4717102 -0.51498413 -2.5948792 -1.5449677 -3.3694458c-1.0299683 -0.77459717 -2.1391754 -1.1618958 -3.3276215 -1.1618958z" fill-rule="evenodd"/><path fill="#000000" d="m241.64401 397.906c0.7130585 2.0914001 1.406311 4.18277 2.0797577 6.27417c0.67344666 2.0914001 1.3270874 4.221527 1.9609222 6.390381c1.1092072 3.718048 2.1193695 7.397339 3.0305023 11.037933c0.9111328 3.640564 1.6043854 7.4360657 2.0797577 11.386475c-1.9290466 0.4310608 -3.9060364 0.64660645 -5.9309387 0.64660645c-0.8858948 0 -1.7809753 -0.041259766 -2.6852112 -0.12374878c-2.9710846 -0.27111816 -5.8431396 -0.755249 -8.616165 -1.4523621c-0.6338196 -0.15490723 -1.2478485 -0.34857178 -1.8420715 -0.5809326c-0.594223 -0.23239136 -1.2082367 -0.4647827 -1.8420715 -0.69714355c-0.07922363 -0.07745361 -0.31692505 -0.23239136 -0.7130585 -0.4647522c-0.39614868 -0.23239136 -0.8319092 -0.5422058 -1.3072815 -0.9295044c-0.39614868 -0.61968994 -0.61402893 -1.0069885 -0.65364075 -1.1618958c-0.039611816 -0.15490723 -0.13865662 -0.5809326 -0.29710388 -1.2780762c-0.07923889 -0.30984497 -0.15846252 -0.73587036 -0.23768616 -1.2780762l0 -2.0914001c0.15844727 -2.4786987 0.6536255 -5.0154724 1.4855347 -7.6103516c0.8319092 -2.5948792 1.8420715 -5.2865906 3.0305176 -8.075104c0.15844727 -0.38729858 0.3169098 -0.7552185 0.4753723 -1.1037903c0.15846252 -0.34857178 0.3169098 -0.7164917 0.4753723 -1.1037903c0.55459595 -1.4717407 1.2676697 -2.8659973 2.1391907 -4.1828003c1.2676544 -2.0914001 3.08992 -3.137085 5.466797 -3.137085c0.39614868 -0.07745361 0.7526703 -0.13555908 1.0695953 -0.17428589c0.3169098 -0.038726807 0.59420776 -0.13555908 0.8319092 -0.2904663zm1.2280426 -14.794708c-0.84510803 0 -1.6109924 0.20657349 -2.297638 0.61968994c-1.0299835 0.6196594 -1.7034302 1.4136353 -2.02034 2.3818665c-0.31692505 0.9682312 -0.31692505 1.9945679 0 3.0789795c-1.9807281 0.15493774 -3.8426056 0.61968994 -5.5856476 1.3942871c-1.743042 0.77456665 -3.2880096 1.8977356 -4.634903 3.3694763c-1.3468933 1.3942566 -2.4362946 2.962799 -3.2682037 4.7056274c-0.8318939 1.7428284 -1.6043854 3.3888245 -2.3174438 4.938019c-1.3468933 3.2532654 -2.55513 6.5259094 -3.6247253 9.817932c-1.0695953 3.2920227 -1.6836243 6.680847 -1.8420715 10.166504c-0.23770142 3.6405945 0.4753723 6.9713135 2.1391754 9.992218c0.9507446 1.7815857 2.2382202 3.1564636 3.8624115 4.124695c1.6242065 0.9682617 3.3474274 1.8009338 5.1697083 2.4980774c3.5652924 1.316803 7.34848 2.149475 11.349548 2.4980469c1.4403839 0.12548828 2.8679352 0.18823242 4.282654 0.18823242c2.5150452 0 4.989517 -0.19830322 7.4234467 -0.59487915l0 0c0.15844727 4.8024597 -0.17826843 9.585541 -1.0101776 14.349274c-0.8319092 4.763733 -2.6739807 9.120819 -5.52623 13.071228c-1.3468933 1.9364929 -3.0503082 3.44693 -5.11026 4.531372c-2.059967 1.0844116 -4.2387543 1.7428284 -6.5364075 1.9751892c-0.5993805 0.060638428 -1.198761 0.09094238 -1.7981567 0.09094238c-1.6982574 0 -3.396515 -0.24331665 -5.0947723 -0.72998047c-2.297638 -0.65838623 -4.317978 -1.8009033 -6.06102 -3.4275513c-0.9613037 -0.8727112 -1.9672546 -1.3090515 -3.0178223 -1.3090515c-0.16163635 0 -0.32432556 0.010314941 -0.48805237 0.030975342c-1.2280579 0.15490723 -2.2580261 0.6390381 -3.0899353 1.4523621c-0.8319092 0.813324 -1.3270874 1.820282 -1.4855499 3.0209045c-0.15844727 1.2006226 0.31692505 2.3044128 1.4261322 3.3113708c2.2184143 2.0914001 4.7735443 3.718048 7.6654053 4.8799133c2.891861 1.1618958 5.8629456 1.820282 8.913269 1.9752197c0.48805237 0.024780273 0.9750824 0.03717041 1.4611053 0.03717041c2.5516205 0 5.075287 -0.34158325 7.570999 -1.0247803c2.9710846 -0.813324 5.6846924 -2.149475 8.140793 -4.0085144c2.6145477 -1.9364624 4.7537384 -4.2408752 6.4175415 -6.913208c1.6638184 -2.6723633 3.0107117 -5.480255 4.04068 -8.423676c1.0299683 -2.943451 1.7628479 -6.0030823 2.1986084 -9.178925c0.4357605 -3.1758118 0.6932678 -6.27417 0.77249146 -9.295074c0.15844727 -5.4221497 -0.11883545 -10.766815 -0.8319092 -16.034027c-0.71307373 -5.2672424 -1.7826538 -10.457001 -3.2087708 -15.569275c-1.188446 -4.337738 -2.4362946 -8.636688 -3.743576 -12.896942c-1.3072815 -4.260254 -2.7532196 -8.481781 -4.337799 -12.664581c-0.23768616 -0.69711304 -0.49517822 -1.3942566 -0.7724762 -2.0914001c-0.27729797 -0.69711304 -0.5744171 -1.3942566 -0.8913269 -2.0913696c-0.5546112 -1.0844421 -1.5251617 -1.7815857 -2.9116669 -2.0914001c-0.46217346 -0.103271484 -0.90452576 -0.15493774 -1.3270874 -0.15493774z" fill-rule="evenodd"/><path fill="#000000" d="m293.97137 390.9129c-0.7817688 0 -1.5663147 0.065338135 -2.3536682 0.19604492c-2.0995483 0.34857178 -4.1793213 1.0650635 -6.239258 2.1495056c-2.059967 1.0844116 -4.001068 2.3624878 -5.8233337 3.8342285c-0.6338501 -0.61968994 -1.4261475 -1.0069885 -2.376892 -1.1618958c-0.38027954 -0.061950684 -0.75424194 -0.09295654 -1.1218872 -0.09295654c-0.5514221 0 -1.0885925 0.069732666 -1.6115112 0.20913696c-0.871521 0.23239136 -1.6242065 0.69714355 -2.2580261 1.3942871c-0.6338196 0.69711304 -0.9507446 1.6266174 -0.9507446 2.7885132c0 6.8164062 0.13864136 13.574707 0.4159546 20.274933c0.2772827 6.7001953 0.97055054 13.458496 2.079773 20.274902c0.15844727 1.2393494 0.8912964 2.1688538 2.198578 2.7885437c0.8045044 0.38131714 1.5714722 0.57199097 2.3009338 0.57199097c0.45593262 0 0.8971863 -0.07446289 1.323822 -0.2234497c1.3468933 -0.38729858 2.277832 -1.1037903 2.7928162 -2.149475c0.51498413 -1.0457153 0.6932373 -2.2269592 0.53479004 -3.5437622c-0.79229736 -4.8799133 -1.3270874 -9.779205 -1.6044006 -14.697845c-0.2772827 -4.9186707 -0.4555664 -9.856689 -0.53479004 -14.814056c1.3468933 -1.626648 2.8918762 -3.0983582 4.634918 -4.4151917c1.7430115 -1.316803 3.5256653 -2.4399414 5.3479614 -3.3694458c1.0765686 -0.55133057 2.0453491 -0.82699585 2.906311 -0.82699585c0.4696045 0 0.9071655 0.08200073 1.3126221 0.24603271c1.1488342 0.4647522 2.277832 1.3942871 3.3870544 2.7885437c1.5845642 2.0914001 2.8720398 4.3570557 3.8623962 6.7970276c0.99035645 2.439972 1.8024597 4.9573975 2.4363098 7.5522766c0.6338196 2.5948792 1.1488037 5.2091064 1.5449524 7.8427124c0.39614868 2.633606 0.75268555 5.1897583 1.0695801 7.668457c0.15847778 1.0844421 0.49520874 2.0332947 1.0101929 2.8466187c0.51498413 0.813324 1.3270874 1.3749084 2.4362793 1.6847534c0.39614868 0.103271484 0.7944946 0.15490723 1.1950378 0.15490723c0.8010864 0 1.6109924 -0.20654297 2.4296875 -0.61968994c1.2280579 -0.6196594 1.9609375 -1.5491638 2.1986084 -2.7885132c0.39614868 -2.0139465 0.49517822 -3.950409 0.29711914 -5.8094177c-0.1980896 -1.8590393 -0.21789551 -3.7955017 -0.059417725 -5.8094482c0.2376709 -2.7110596 0.59420776 -5.3059387 1.0695801 -7.7846375c0.23770142 -1.316803 0.53479004 -2.6142578 0.8913269 -3.892334c0.35653687 -1.2780457 0.8121033 -2.4980469 1.3666992 -3.6599426c0.6338501 -1.316803 1.3072815 -2.3624878 2.0203552 -3.137085c0.7130432 -0.77459717 1.8618774 -1.5878906 3.4464417 -2.4399414c0.15847778 0.23236084 0.31692505 0.4647522 0.4753723 0.69711304c0.15847778 0.23239136 0.31692505 0.4647522 0.4753723 0.69714355c1.1092224 1.7041016 2.1589966 3.44693 3.1493835 5.228485c0.99035645 1.7815552 1.9212952 3.5631104 2.7928162 5.3446655c0.871521 1.7815552 1.7232361 3.6018677 2.5551147 5.4608765c0.8319092 1.8590088 1.6836243 3.6792908 2.5551453 5.4608765c0.79229736 1.7041016 1.6044006 3.4275513 2.4363098 5.1703796c0.8319092 1.7428284 1.3270874 3.5437622 1.4855347 5.402771c0.15844727 1.316803 0.6536255 2.4205933 1.4855347 3.3113708c0.8319092 0.8907776 1.9213257 1.3361816 3.268219 1.3361816c1.1884155 0 2.3174438 -0.44540405 3.387024 -1.3361816c1.0696106 -0.8907776 1.525177 -1.9945679 1.3666992 -3.3113708c-0.2376709 -2.4786987 -0.77246094 -4.8218384 -1.6043701 -7.029419c-0.8319092 -2.2075806 -1.8024597 -4.4345093 -2.9116821 -6.680847c-0.9507446 -2.013916 -1.9014893 -4.0665894 -2.852234 -6.1579895c-0.9507446 -2.0914001 -1.9411316 -4.1828003 -2.9710999 -6.27417c-1.0299683 -2.0914001 -2.1193848 -4.1440735 -3.2681885 -6.15802c-1.1488342 -2.013916 -2.396698 -3.9891357 -3.7435913 -5.925598c-1.2676392 -1.8590393 -2.6145325 -3.2339172 -4.04068 -4.1247253c-0.84103394 -0.5253296 -1.861206 -0.7879944 -3.0604553 -0.7879944c-0.83428955 0 -1.755249 0.12713623 -2.7628784 0.38134766c-3.3276062 0.8520508 -6.0610046 2.5174255 -8.200195 4.9961243c-2.1391907 2.4786682 -3.8029785 5.1897583 -4.9914246 8.133179c-0.871521 -1.9364624 -1.8618774 -3.776123 -2.9710999 -5.5189514c-1.1091919 -1.7428284 -2.4164734 -3.3888245 -3.9218445 -4.938019c-1.8222656 -1.8590088 -3.7633667 -3.0789795 -5.8233337 -3.6599426c-1.2874451 -0.36309814 -2.582672 -0.5446167 -3.88562 -0.5446167z" fill-rule="evenodd"/><path fill="#000000" d="m380.0531 402.07217c0.77612305 0 1.5631409 0.024902344 2.3611145 0.07470703c1.8618774 0.11618042 3.6247253 0.2904663 5.288513 0.52285767c1.6638184 0.23236084 3.1889648 0.6777649 4.5755005 1.3361511c1.3865051 0.65841675 2.7532043 1.4136353 4.1000977 2.265686c0.07922363 3.6405945 0.019805908 7.2424316 -0.17828369 10.805542c-0.19805908 3.5631104 -0.4555664 7.2424316 -0.77246094 11.037933c-3.5653076 2.2463074 -7.3881226 3.640564 -11.468414 4.18277c-1.2418213 0.16503906 -2.481842 0.2475586 -3.7199707 0.2475586c-2.8300781 0 -5.6505737 -0.4310913 -8.461487 -1.2932434c-1.9807434 -0.5422058 -3.4068604 -1.4910889 -4.2783813 -2.8466187c-0.871521 -1.3555298 -1.3865051 -2.8466187 -1.5449524 -4.4732666c-0.15847778 -1.626648 -0.039611816 -3.3307495 0.35653687 -5.1123047c0.39611816 -1.7815552 0.83187866 -3.3694763 1.307251 -4.763733c0.6338501 -1.626648 1.3468933 -3.2339172 2.1391907 -4.8218384c0.79229736 -1.5878906 1.7034302 -3.0789795 2.7333984 -4.473236c0.6338501 -0.8520508 1.3468933 -1.4717407 2.1391907 -1.8590393c0.07922363 -0.07745361 0.4555664 -0.2130127 1.1290283 -0.40664673c0.6734314 -0.19366455 1.089386 -0.2904663 1.2478333 -0.2904663c0.9960327 -0.088531494 2.011444 -0.1328125 3.0462952 -0.1328125zm20.603577 -10.6727295c-1.1091919 0 -2.1589966 0.38726807 -3.149353 1.1618652c-0.99035645 0.77459717 -1.5251465 1.7428284 -1.6043701 2.9047241c-1.0299988 -0.38729858 -2.059967 -0.7552185 -3.0899353 -1.1037903c-1.0299988 -0.34857178 -2.0995789 -0.6003113 -3.2087708 -0.7552185c-2.4561157 -0.38729858 -4.932007 -0.6390381 -7.4277344 -0.755249c-0.57592773 -0.026794434 -1.1508179 -0.04019165 -1.7246399 -0.04019165c-1.9127502 0 -3.8137817 0.1489563 -5.7030945 0.4468689c-2.3768616 0.38729858 -4.4368286 1.2199707 -6.17984 2.4980469c-1.743042 1.2780762 -3.248413 2.8078918 -4.516083 4.589447c-1.2676392 1.7815552 -2.3570557 3.718048 -3.2681885 5.8094482c-0.9111328 2.0914001 -1.7232361 4.105316 -2.4362793 6.041809c-0.871521 2.4786987 -1.426117 5.054199 -1.6638184 7.726532c-0.23770142 2.6723328 -0.059417725 5.247864 0.53479004 7.7265625c0.5942383 2.4786682 1.6638184 4.7443542 3.2087708 6.7970276c1.5449829 2.0526733 3.6643677 3.6599426 6.3581543 4.8218384c4.0500793 1.7749939 8.28479 2.6624756 12.704132 2.6624756c0.59490967 0 1.1931763 -0.016082764 1.7947693 -0.04824829c5.070648 -0.27108765 9.864014 -1.3361511 14.380066 -3.1951904c0.07922363 1.4717407 0.6140442 2.575531 1.6044006 3.3113708c0.99035645 0.73587036 2.0797424 1.1037903 3.2681885 1.1037903c1.188446 0 2.277832 -0.36791992 3.2681885 -1.1037903c0.99038696 -0.73583984 1.4459534 -1.8396301 1.3666992 -3.3113708c-0.15844727 -3.5631104 -0.17825317 -7.1262207 -0.059417725 -10.689362c0.11886597 -3.5631104 0.27731323 -7.1262207 0.4753723 -10.689331c0.1980896 -3.5631409 0.31692505 -7.126251 0.35653687 -10.689362c0.039611816 -3.5631104 -0.13864136 -7.126251 -0.53479004 -10.689362c-0.15844727 -1.2393494 -0.653656 -2.3044128 -1.4855347 -3.1951904c-0.8319092 -0.8907776 -1.9213257 -1.3361511 -3.268219 -1.3361511z" fill-rule="evenodd"/><path fill="#000000" d="m425.85153 391.98038c-1.188446 0 -2.2580261 0.38729858 -3.2088013 1.1618958c-0.9507446 0.77456665 -1.426117 1.8977356 -1.426117 3.3694458c0.07922363 4.1828003 -0.15844727 8.307495 -0.7130432 12.374115c-0.55462646 4.0665894 -1.1092224 8.152557 -1.6638184 12.257904c-0.4753723 3.4081726 -0.71307373 6.777649 -0.71307373 10.108398c-0.07922363 1.5491943 -0.15844727 3.137085 -0.2376709 4.763733c-0.07922363 1.626648 -0.4753723 3.137085 -1.188446 4.531372c-0.6338196 1.316803 -0.6932373 2.5561218 -0.17825317 3.7180176c0.51498413 1.1618958 1.2676697 2.0332947 2.2580261 2.6142578c0.74276733 0.43569946 1.5412598 0.65356445 2.3954468 0.65356445c0.284729 0 0.57562256 -0.024230957 0.8727417 -0.072631836c1.188446 -0.19363403 2.1391907 -0.94888306 2.8522644 -2.265686c0.8714905 -1.7041016 1.4855347 -3.4856567 1.8420715 -5.3446655c0.35650635 -1.8590088 0.59420776 -3.718048 0.7130432 -5.577057c0.11883545 -1.8590088 0.1980896 -3.7373962 0.23770142 -5.6351624c0.039611816 -1.8977356 0.17825317 -3.776123 0.4159546 -5.635132c0.31689453 -2.5561523 0.6536255 -5.092926 1.0101624 -7.6103516c0.35653687 -2.5174255 0.9309387 -5.17041 1.7232361 -7.9589233c0.39614868 -0.23239136 0.8319092 -0.4260254 1.3072815 -0.58096313c0.4753723 -0.15490723 0.9507446 -0.30981445 1.426117 -0.4647522c1.1091919 -0.30981445 2.1788025 -0.5422058 3.2087708 -0.69711304c1.0299683 -0.15493774 2.1391907 -0.23239136 3.3276367 -0.23239136c0.39611816 0 0.8516846 0.11618042 1.3666992 0.34857178c0.51498413 0.23239136 0.8516846 0.503479 1.0101624 0.813324c0.6338196 0.77459717 1.0695801 1.5685425 1.3072815 2.3818665c0.2376709 0.813324 0.4753723 1.7621765 0.7130432 2.8466187c0.39614868 1.7815552 0.5744324 3.7373962 0.53482056 5.867523c-0.039642334 2.130127 0.019805908 4.2021484 0.17825317 6.216095c0.15844727 3.718048 0.29711914 7.358612 0.4159546 10.921722c0.11883545 3.5631409 0.17825317 7.203705 0.17825317 10.921753c0 1.5491638 0.49517822 2.691681 1.4855652 3.4275513c0.99035645 0.73587036 2.0599365 1.1037903 3.2087708 1.1037903c1.1488037 0 2.2184143 -0.36791992 3.2087708 -1.1037903c0.99035645 -0.73587036 1.4855347 -1.8783875 1.4855347 -3.4275513c0 -3.9504395 -0.07922363 -7.8814697 -0.2376709 -11.793152c-0.15847778 -3.9116821 -0.27731323 -7.842743 -0.35653687 -11.793152c-0.07922363 -2.7885132 -0.19805908 -5.577057 -0.35653687 -8.36557c-0.15844727 -2.7885437 -0.7130432 -5.4996033 -1.6638184 -8.133209c-1.1091919 -2.8659973 -2.7730103 -5.1510315 -4.9914246 -6.855133c-2.2184143 -1.7041016 -4.912201 -2.5948792 -8.08136 -2.6723328c-2.7730103 0 -5.7044983 0.11618042 -8.794403 0.34854126c0 -1.4717102 -0.51501465 -2.5948792 -1.5449829 -3.3694458c-1.0299683 -0.77459717 -2.1391907 -1.1618958 -3.3276062 -1.1618958z" fill-rule="evenodd"/><path stroke="#000000" stroke-width="1.0" stroke-linejoin="round" stroke-linecap="butt" d="m93.32724 354.45145c-1.267662 0 -2.416481 0.4647522 -3.446457 1.3942566c-1.0299835 0.9295044 -1.4657364 2.0139465 -1.3072815 3.253296c0.39614105 3.7180176 0.7526779 7.397339 1.0695953 11.037903c0.3169098 3.6405945 0.39614105 7.3198853 0.23768616 11.037933c-0.07923126 3.4856567 -0.31691742 6.913208 -0.7130661 10.282684c-0.39614105 3.3694763 -0.7130585 6.7970276 -0.9507446 10.282715c-0.2852173 -0.0619812 -0.5641022 -0.09295654 -0.8366623 -0.09295654c-0.4088211 0 -0.80337524 0.06970215 -1.1836777 0.20913696c-2.3768768 0.6196594 -4.773552 0.98760986 -7.1900406 1.1037903c-1.2082367 0.05810547 -2.4214325 0.087127686 -3.6395798 0.087127686c-1.2181473 0 -2.441246 -0.029022217 -3.6692963 -0.087127686c-2.4561005 -0.11618042 -4.912201 -0.30984497 -7.3683014 -0.5809326c-2.4561005 -0.27111816 -4.912201 -0.52285767 -7.3683014 -0.755249c0.07923126 -6.8164062 0.03961563 -13.574707 -0.11884308 -20.274902c-0.15845871 -6.700226 -1.0695915 -13.342346 -2.7334023 -19.926361c-0.39614487 -1.4717102 -1.148819 -2.439972 -2.2580261 -2.9047241c-0.665535 -0.2788391 -1.3381882 -0.41827393 -2.0179596 -0.41827393c-0.45318985 0 -0.9095497 0.0619812 -1.3690834 0.18591309c-1.148819 0.30984497 -2.1193733 0.94885254 -2.9116669 1.9171143c-0.79228973 0.9682312 -0.99036026 2.188202 -0.5942154 3.6599426c1.5845795 6.4291077 2.4759064 12.877563 2.6739807 19.345398c0.19807053 6.4678345 0.25749207 12.993774 0.17826462 19.57779c-0.63383484 0.8520508 -0.95074844 1.8590088 -0.95074844 3.0209045c0 1.1618958 0.3169136 2.1688538 0.95074844 3.0209045c0.07922745 5.1123047 0.2773018 10.166504 0.5942154 15.162628c0.31691742 4.9960938 1.1488228 9.972839 2.495716 14.930237c0.31691742 1.4717102 1.0497856 2.4399414 2.1986046 2.9046936c0.6892891 0.27886963 1.3785782 0.41830444 2.0678864 0.41830444c0.4595337 0 0.91906357 -0.0619812 1.3785782 -0.18591309c1.1488228 -0.30984497 2.0995712 -0.94888306 2.8522453 -1.9171143c0.7526741 -0.9682312 0.93094254 -2.188202 0.53479767 -3.6599426c-1.1092072 -4.260254 -1.8420753 -8.520508 -2.1986084 -12.780762c-0.35652924 -4.2602234 -0.5744095 -8.559204 -0.65363693 -12.896912l0 0c2.535328 0.23236084 5.0904655 0.48410034 7.665409 0.7552185c2.5749435 0.27108765 5.130081 0.4647522 7.6654053 0.5809326c1.2676697 0.05810547 2.5353317 0.0871582 3.8029938 0.0871582c1.2676697 0 2.5353317 -0.029052734 3.8029938 -0.0871582c2.5353317 -0.11618042 5.0706635 -0.48410034 7.6059875 -1.1037903l0 0c-0.23768616 4.725006 -0.37633514 9.450012 -0.41594696 14.175018c-0.039619446 4.725006 0.09903717 9.411285 0.41594696 14.058838c0.07923126 1.5491638 0.63383484 2.691681 1.6638107 3.4275513c1.0299835 0.73587036 2.139183 1.1037903 3.3276215 1.1037903c1.1884384 0 2.2580261 -0.36791992 3.2087784 -1.1037903c0.9507446 -0.73587036 1.3865051 -1.8783875 1.3072739 -3.4275513c-0.39614105 -6.041809 -0.51498413 -12.102997 -0.35652924 -18.183533c0.15846252 -6.080536 0.4357605 -12.141724 0.8319092 -18.183533c0.1584549 -3.7180176 0.4555664 -7.3392334 0.8913269 -10.863617c0.4357605 -3.524414 0.7328644 -7.14563 0.8913269 -10.863647c0.1584549 -3.718048 0.059417725 -7.397339 -0.2971115 -11.037933c-0.35652924 -3.640564 -0.732872 -7.3198853 -1.1290131 -11.037903c-0.1584549 -1.2393494 -0.63383484 -2.3237915 -1.4261246 -3.253296c-0.79228973 -0.9295044 -1.8618774 -1.3942566 -3.2087784 -1.3942566z" fill-rule="evenodd"/><path stroke="#000000" stroke-width="1.0" stroke-linejoin="round" stroke-linecap="butt" d="m132.73965 402.07217c0.7761078 0 1.5631561 0.024902344 2.3610992 0.07470703c1.8618774 0.11618042 3.6247253 0.2904663 5.2885437 0.52285767c1.6638031 0.23236084 3.1889648 0.6777649 4.57547 1.3361511c1.3865051 0.65841675 2.7532043 1.4136353 4.1000977 2.265686c0.07923889 3.6405945 0.019821167 7.2424316 -0.17825317 10.805542c-0.19807434 3.5631104 -0.4555664 7.2424316 -0.77249146 11.037933c-3.5653076 2.2463074 -7.3881073 3.640564 -11.468399 4.18277c-1.2418365 0.16503906 -2.4818268 0.2475586 -3.719986 0.2475586c-2.8300781 0 -5.6505737 -0.4310913 -8.461479 -1.2932434c-1.9807281 -0.5422058 -3.4068527 -1.4910889 -4.278366 -2.8466187c-0.871521 -1.3555298 -1.3865128 -2.8466187 -1.5449677 -4.4732666c-0.15846252 -1.626648 -0.039611816 -3.3307495 0.35652924 -5.1123047c0.39614868 -1.7815552 0.8319092 -3.3694763 1.3072815 -4.763733c0.6338272 -1.626648 1.3468933 -3.2339172 2.139183 -4.8218384c0.79228973 -1.5878906 1.7034225 -3.0789795 2.7333984 -4.473236c0.63383484 -0.8520508 1.3468933 -1.4717407 2.139183 -1.8590393c0.07923126 -0.07745361 0.45557404 -0.2130127 1.1290131 -0.40664673c0.67344666 -0.19366455 1.0894012 -0.2904663 1.2478638 -0.2904663c0.99601746 -0.088531494 2.011444 -0.1328125 3.04628 -0.1328125zm20.603592 -10.6727295c-1.1092072 0 -2.1589966 0.38726807 -3.149353 1.1618652c-0.9903717 0.77459717 -1.5251617 1.7428284 -1.6044006 2.9047241c-1.0299683 -0.38729858 -2.0599518 -0.7552185 -3.08992 -1.1037903c-1.0299835 -0.34857178 -2.0995789 -0.6003113 -3.208786 -0.7552185c-2.4561005 -0.38729858 -4.932007 -0.6390381 -7.427719 -0.755249c-0.57592773 -0.026794434 -1.1508026 -0.04019165 -1.7246399 -0.04019165c-1.912735 0 -3.8137665 0.1489563 -5.703079 0.4468689c-2.3768768 0.38729858 -4.4368286 1.2199707 -6.1798706 2.4980469c-1.7430344 1.2780762 -3.2483902 2.8078918 -4.5160522 4.589447c-1.267662 1.7815552 -2.3570633 3.718048 -3.268196 5.8094482c-0.91114044 2.0914001 -1.7232361 4.105316 -2.4362946 6.041809c-0.871521 2.4786987 -1.4261246 5.054199 -1.6638107 7.726532c-0.23768616 2.6723328 -0.059425354 5.247864 0.53479767 7.7265625c0.5942154 2.4786682 1.6638107 4.7443542 3.2087708 6.7970276c1.5449677 2.0526733 3.6643448 3.6599426 6.3581314 4.8218384c4.050087 1.7749939 8.284798 2.6624756 12.704147 2.6624756c0.59490967 0 1.1931763 -0.016082764 1.7947693 -0.04824829c5.0706635 -0.27108765 9.864014 -1.3361511 14.380066 -3.1951904c0.07923889 1.4717407 0.61402893 2.575531 1.6043854 3.3113708c0.9903717 0.73587036 2.079773 1.1037903 3.2682037 1.1037903c1.1884308 0 2.277832 -0.36791992 3.2682037 -1.1037903c0.99035645 -0.73583984 1.4459229 -1.8396301 1.3666992 -3.3113708c-0.15846252 -3.5631104 -0.17826843 -7.1262207 -0.059417725 -10.689362c0.11883545 -3.5631104 0.27729797 -7.1262207 0.4753723 -10.689331c0.19807434 -3.5631409 0.3169098 -7.126251 0.3565216 -10.689362c0.039611816 -3.5631104 -0.13864136 -7.126251 -0.53479004 -10.689362c-0.15846252 -1.2393494 -0.65364075 -2.3044128 -1.4855499 -3.1951904c-0.8318939 -0.8907776 -1.9212952 -1.3361511 -3.2681885 -1.3361511z" fill-rule="evenodd"/><path stroke="#000000" stroke-width="1.0" stroke-linejoin="round" stroke-linecap="butt" d="m178.53807 391.98038c-1.1884308 0 -2.2580261 0.38729858 -3.2087708 1.1618958c-0.9507446 0.77456665 -1.426117 1.8977356 -1.426117 3.3694458c0.07922363 4.1828003 -0.15846252 8.307495 -0.71307373 12.374115c-0.55459595 4.0665894 -1.1092072 8.152557 -1.6638031 12.257904c-0.4753723 3.4081726 -0.7130585 6.777649 -0.7130585 10.108398c-0.07923889 1.5491943 -0.15846252 3.137085 -0.23768616 4.763733c-0.07923889 1.626648 -0.4753723 3.137085 -1.188446 4.531372c-0.6338196 1.316803 -0.69325256 2.5561218 -0.17825317 3.7180176c0.51498413 1.1618958 1.2676544 2.0332947 2.2580261 2.6142578c0.74276733 0.43569946 1.5412445 0.65356445 2.3954315 0.65356445c0.284729 0 0.5756531 -0.024230957 0.87275696 -0.072631836c1.188446 -0.19363403 2.1391907 -0.94888306 2.8522491 -2.265686c0.871521 -1.7041016 1.4855499 -3.4856567 1.8420715 -5.3446655c0.35653687 -1.8590088 0.594223 -3.718048 0.7130585 -5.577057c0.11885071 -1.8590088 0.19807434 -3.7373962 0.23770142 -5.6351624c0.039611816 -1.8977356 0.17825317 -3.776123 0.41593933 -5.635132c0.31692505 -2.5561523 0.65364075 -5.092926 1.0101776 -7.6103516c0.35653687 -2.5174255 0.9309387 -5.17041 1.7232361 -7.9589233c0.39613342 -0.23239136 0.8318939 -0.4260254 1.3072662 -0.58096313c0.47538757 -0.15490723 0.9507599 -0.30981445 1.4261322 -0.4647522c1.1092072 -0.30981445 2.1788025 -0.5422058 3.2087708 -0.69711304c1.0299835 -0.15493774 2.1391907 -0.23239136 3.3276215 -0.23239136c0.39614868 0 0.8517151 0.11618042 1.3666992 0.34857178c0.51498413 0.23239136 0.8517151 0.503479 1.0101776 0.813324c0.63383484 0.77459717 1.0695801 1.5685425 1.3072815 2.3818665c0.23768616 0.813324 0.4753723 1.7621765 0.7130585 2.8466187c0.39614868 1.7815552 0.57440186 3.7373962 0.53479004 5.867523c-0.039611816 2.130127 0.019805908 4.2021484 0.17826843 6.216095c0.15846252 3.718048 0.29710388 7.358612 0.4159546 10.921722c0.11883545 3.5631409 0.17826843 7.203705 0.17826843 10.921753c0 1.5491638 0.49517822 2.691681 1.4855347 3.4275513c0.9903717 0.73587036 2.0599518 1.1037903 3.208786 1.1037903c1.148819 0 2.218399 -0.36791992 3.2087708 -1.1037903c0.99035645 -0.73587036 1.4855499 -1.8783875 1.4855499 -3.4275513c0 -3.9504395 -0.07923889 -7.8814697 -0.23768616 -11.793152c-0.15846252 -3.9116821 -0.27731323 -7.842743 -0.35653687 -11.793152c-0.07922363 -2.7885132 -0.19807434 -5.577057 -0.35653687 -8.36557c-0.15844727 -2.7885437 -0.7130585 -5.4996033 -1.6638031 -8.133209c-1.1092072 -2.8659973 -2.7730255 -5.1510315 -4.9914246 -6.855133c-2.2184143 -1.7041016 -4.912201 -2.5948792 -8.081375 -2.6723328c-2.7730103 0 -5.704483 0.11618042 -8.794418 0.34854126c0 -1.4717102 -0.51498413 -2.5948792 -1.5449677 -3.3694458c-1.0299683 -0.77459717 -2.1391754 -1.1618958 -3.3276215 -1.1618958z" fill-rule="evenodd"/><path stroke="#000000" stroke-width="1.0" stroke-linejoin="round" stroke-linecap="butt" d="m241.64401 397.906c0.7130585 2.0914001 1.406311 4.18277 2.0797577 6.27417c0.67344666 2.0914001 1.3270874 4.221527 1.9609222 6.390381c1.1092072 3.718048 2.1193695 7.397339 3.0305023 11.037933c0.9111328 3.640564 1.6043854 7.4360657 2.0797577 11.386475c-1.9290466 0.4310608 -3.9060364 0.64660645 -5.9309387 0.64660645c-0.8858948 0 -1.7809753 -0.041259766 -2.6852112 -0.12374878c-2.9710846 -0.27111816 -5.8431396 -0.755249 -8.616165 -1.4523621c-0.6338196 -0.15490723 -1.2478485 -0.34857178 -1.8420715 -0.5809326c-0.594223 -0.23239136 -1.2082367 -0.4647827 -1.8420715 -0.69714355c-0.07922363 -0.07745361 -0.31692505 -0.23239136 -0.7130585 -0.4647522c-0.39614868 -0.23239136 -0.8319092 -0.5422058 -1.3072815 -0.9295044c-0.39614868 -0.61968994 -0.61402893 -1.0069885 -0.65364075 -1.1618958c-0.039611816 -0.15490723 -0.13865662 -0.5809326 -0.29710388 -1.2780762c-0.07923889 -0.30984497 -0.15846252 -0.73587036 -0.23768616 -1.2780762l0 -2.0914001c0.15844727 -2.4786987 0.6536255 -5.0154724 1.4855347 -7.6103516c0.8319092 -2.5948792 1.8420715 -5.2865906 3.0305176 -8.075104c0.15844727 -0.38729858 0.3169098 -0.7552185 0.4753723 -1.1037903c0.15846252 -0.34857178 0.3169098 -0.7164917 0.4753723 -1.1037903c0.55459595 -1.4717407 1.2676697 -2.8659973 2.1391907 -4.1828003c1.2676544 -2.0914001 3.08992 -3.137085 5.466797 -3.137085c0.39614868 -0.07745361 0.7526703 -0.13555908 1.0695953 -0.17428589c0.3169098 -0.038726807 0.59420776 -0.13555908 0.8319092 -0.2904663zm1.2280426 -14.794708c-0.84510803 0 -1.6109924 0.20657349 -2.297638 0.61968994c-1.0299835 0.6196594 -1.7034302 1.4136353 -2.02034 2.3818665c-0.31692505 0.9682312 -0.31692505 1.9945679 0 3.0789795c-1.9807281 0.15493774 -3.8426056 0.61968994 -5.5856476 1.3942871c-1.743042 0.77456665 -3.2880096 1.8977356 -4.634903 3.3694763c-1.3468933 1.3942566 -2.4362946 2.962799 -3.2682037 4.7056274c-0.8318939 1.7428284 -1.6043854 3.3888245 -2.3174438 4.938019c-1.3468933 3.2532654 -2.55513 6.5259094 -3.6247253 9.817932c-1.0695953 3.2920227 -1.6836243 6.680847 -1.8420715 10.166504c-0.23770142 3.6405945 0.4753723 6.9713135 2.1391754 9.992218c0.9507446 1.7815857 2.2382202 3.1564636 3.8624115 4.124695c1.6242065 0.9682617 3.3474274 1.8009338 5.1697083 2.4980774c3.5652924 1.316803 7.34848 2.149475 11.349548 2.4980469c1.4403839 0.12548828 2.8679352 0.18823242 4.282654 0.18823242c2.5150452 0 4.989517 -0.19830322 7.4234467 -0.59487915l0 0c0.15844727 4.8024597 -0.17826843 9.585541 -1.0101776 14.349274c-0.8319092 4.763733 -2.6739807 9.120819 -5.52623 13.071228c-1.3468933 1.9364929 -3.0503082 3.44693 -5.11026 4.531372c-2.059967 1.0844116 -4.2387543 1.7428284 -6.5364075 1.9751892c-0.5993805 0.060638428 -1.198761 0.09094238 -1.7981567 0.09094238c-1.6982574 0 -3.396515 -0.24331665 -5.0947723 -0.72998047c-2.297638 -0.65838623 -4.317978 -1.8009033 -6.06102 -3.4275513c-0.9613037 -0.8727112 -1.9672546 -1.3090515 -3.0178223 -1.3090515c-0.16163635 0 -0.32432556 0.010314941 -0.48805237 0.030975342c-1.2280579 0.15490723 -2.2580261 0.6390381 -3.0899353 1.4523621c-0.8319092 0.813324 -1.3270874 1.820282 -1.4855499 3.0209045c-0.15844727 1.2006226 0.31692505 2.3044128 1.4261322 3.3113708c2.2184143 2.0914001 4.7735443 3.718048 7.6654053 4.8799133c2.891861 1.1618958 5.8629456 1.820282 8.913269 1.9752197c0.48805237 0.024780273 0.9750824 0.03717041 1.4611053 0.03717041c2.5516205 0 5.075287 -0.34158325 7.570999 -1.0247803c2.9710846 -0.813324 5.6846924 -2.149475 8.140793 -4.0085144c2.6145477 -1.9364624 4.7537384 -4.2408752 6.4175415 -6.913208c1.6638184 -2.6723633 3.0107117 -5.480255 4.04068 -8.423676c1.0299683 -2.943451 1.7628479 -6.0030823 2.1986084 -9.178925c0.4357605 -3.1758118 0.6932678 -6.27417 0.77249146 -9.295074c0.15844727 -5.4221497 -0.11883545 -10.766815 -0.8319092 -16.034027c-0.71307373 -5.2672424 -1.7826538 -10.457001 -3.2087708 -15.569275c-1.188446 -4.337738 -2.4362946 -8.636688 -3.743576 -12.896942c-1.3072815 -4.260254 -2.7532196 -8.481781 -4.337799 -12.664581c-0.23768616 -0.69711304 -0.49517822 -1.3942566 -0.7724762 -2.0914001c-0.27729797 -0.69711304 -0.5744171 -1.3942566 -0.8913269 -2.0913696c-0.5546112 -1.0844421 -1.5251617 -1.7815857 -2.9116669 -2.0914001c-0.46217346 -0.103271484 -0.90452576 -0.15493774 -1.3270874 -0.15493774z" fill-rule="evenodd"/><path stroke="#000000" stroke-width="1.0" stroke-linejoin="round" stroke-linecap="butt" d="m293.97137 390.9129c-0.7817688 0 -1.5663147 0.065338135 -2.3536682 0.19604492c-2.0995483 0.34857178 -4.1793213 1.0650635 -6.239258 2.1495056c-2.059967 1.0844116 -4.001068 2.3624878 -5.8233337 3.8342285c-0.6338501 -0.61968994 -1.4261475 -1.0069885 -2.376892 -1.1618958c-0.38027954 -0.061950684 -0.75424194 -0.09295654 -1.1218872 -0.09295654c-0.5514221 0 -1.0885925 0.069732666 -1.6115112 0.20913696c-0.871521 0.23239136 -1.6242065 0.69714355 -2.2580261 1.3942871c-0.6338196 0.69711304 -0.9507446 1.6266174 -0.9507446 2.7885132c0 6.8164062 0.13864136 13.574707 0.4159546 20.274933c0.2772827 6.7001953 0.97055054 13.458496 2.079773 20.274902c0.15844727 1.2393494 0.8912964 2.1688538 2.198578 2.7885437c0.8045044 0.38131714 1.5714722 0.57199097 2.3009338 0.57199097c0.45593262 0 0.8971863 -0.07446289 1.323822 -0.2234497c1.3468933 -0.38729858 2.277832 -1.1037903 2.7928162 -2.149475c0.51498413 -1.0457153 0.6932373 -2.2269592 0.53479004 -3.5437622c-0.79229736 -4.8799133 -1.3270874 -9.779205 -1.6044006 -14.697845c-0.2772827 -4.9186707 -0.4555664 -9.856689 -0.53479004 -14.814056c1.3468933 -1.626648 2.8918762 -3.0983582 4.634918 -4.4151917c1.7430115 -1.316803 3.5256653 -2.4399414 5.3479614 -3.3694458c1.0765686 -0.55133057 2.0453491 -0.82699585 2.906311 -0.82699585c0.4696045 0 0.9071655 0.08200073 1.3126221 0.24603271c1.1488342 0.4647522 2.277832 1.3942871 3.3870544 2.7885437c1.5845642 2.0914001 2.8720398 4.3570557 3.8623962 6.7970276c0.99035645 2.439972 1.8024597 4.9573975 2.4363098 7.5522766c0.6338196 2.5948792 1.1488037 5.2091064 1.5449524 7.8427124c0.39614868 2.633606 0.75268555 5.1897583 1.0695801 7.668457c0.15847778 1.0844421 0.49520874 2.0332947 1.0101929 2.8466187c0.51498413 0.813324 1.3270874 1.3749084 2.4362793 1.6847534c0.39614868 0.103271484 0.7944946 0.15490723 1.1950378 0.15490723c0.8010864 0 1.6109924 -0.20654297 2.4296875 -0.61968994c1.2280579 -0.6196594 1.9609375 -1.5491638 2.1986084 -2.7885132c0.39614868 -2.0139465 0.49517822 -3.950409 0.29711914 -5.8094177c-0.1980896 -1.8590393 -0.21789551 -3.7955017 -0.059417725 -5.8094482c0.2376709 -2.7110596 0.59420776 -5.3059387 1.0695801 -7.7846375c0.23770142 -1.316803 0.53479004 -2.6142578 0.8913269 -3.892334c0.35653687 -1.2780457 0.8121033 -2.4980469 1.3666992 -3.6599426c0.6338501 -1.316803 1.3072815 -2.3624878 2.0203552 -3.137085c0.7130432 -0.77459717 1.8618774 -1.5878906 3.4464417 -2.4399414c0.15847778 0.23236084 0.31692505 0.4647522 0.4753723 0.69711304c0.15847778 0.23239136 0.31692505 0.4647522 0.4753723 0.69714355c1.1092224 1.7041016 2.1589966 3.44693 3.1493835 5.228485c0.99035645 1.7815552 1.9212952 3.5631104 2.7928162 5.3446655c0.871521 1.7815552 1.7232361 3.6018677 2.5551147 5.4608765c0.8319092 1.8590088 1.6836243 3.6792908 2.5551453 5.4608765c0.79229736 1.7041016 1.6044006 3.4275513 2.4363098 5.1703796c0.8319092 1.7428284 1.3270874 3.5437622 1.4855347 5.402771c0.15844727 1.316803 0.6536255 2.4205933 1.4855347 3.3113708c0.8319092 0.8907776 1.9213257 1.3361816 3.268219 1.3361816c1.1884155 0 2.3174438 -0.44540405 3.387024 -1.3361816c1.0696106 -0.8907776 1.525177 -1.9945679 1.3666992 -3.3113708c-0.2376709 -2.4786987 -0.77246094 -4.8218384 -1.6043701 -7.029419c-0.8319092 -2.2075806 -1.8024597 -4.4345093 -2.9116821 -6.680847c-0.9507446 -2.013916 -1.9014893 -4.0665894 -2.852234 -6.1579895c-0.9507446 -2.0914001 -1.9411316 -4.1828003 -2.9710999 -6.27417c-1.0299683 -2.0914001 -2.1193848 -4.1440735 -3.2681885 -6.15802c-1.1488342 -2.013916 -2.396698 -3.9891357 -3.7435913 -5.925598c-1.2676392 -1.8590393 -2.6145325 -3.2339172 -4.04068 -4.1247253c-0.84103394 -0.5253296 -1.861206 -0.7879944 -3.0604553 -0.7879944c-0.83428955 0 -1.755249 0.12713623 -2.7628784 0.38134766c-3.3276062 0.8520508 -6.0610046 2.5174255 -8.200195 4.9961243c-2.1391907 2.4786682 -3.8029785 5.1897583 -4.9914246 8.133179c-0.871521 -1.9364624 -1.8618774 -3.776123 -2.9710999 -5.5189514c-1.1091919 -1.7428284 -2.4164734 -3.3888245 -3.9218445 -4.938019c-1.8222656 -1.8590088 -3.7633667 -3.0789795 -5.8233337 -3.6599426c-1.2874451 -0.36309814 -2.582672 -0.5446167 -3.88562 -0.5446167z" fill-rule="evenodd"/><path stroke="#000000" stroke-width="1.0" stroke-linejoin="round" stroke-linecap="butt" d="m380.0531 402.07217c0.77612305 0 1.5631409 0.024902344 2.3611145 0.07470703c1.8618774 0.11618042 3.6247253 0.2904663 5.288513 0.52285767c1.6638184 0.23236084 3.1889648 0.6777649 4.5755005 1.3361511c1.3865051 0.65841675 2.7532043 1.4136353 4.1000977 2.265686c0.07922363 3.6405945 0.019805908 7.2424316 -0.17828369 10.805542c-0.19805908 3.5631104 -0.4555664 7.2424316 -0.77246094 11.037933c-3.5653076 2.2463074 -7.3881226 3.640564 -11.468414 4.18277c-1.2418213 0.16503906 -2.481842 0.2475586 -3.7199707 0.2475586c-2.8300781 0 -5.6505737 -0.4310913 -8.461487 -1.2932434c-1.9807434 -0.5422058 -3.4068604 -1.4910889 -4.2783813 -2.8466187c-0.871521 -1.3555298 -1.3865051 -2.8466187 -1.5449524 -4.4732666c-0.15847778 -1.626648 -0.039611816 -3.3307495 0.35653687 -5.1123047c0.39611816 -1.7815552 0.83187866 -3.3694763 1.307251 -4.763733c0.6338501 -1.626648 1.3468933 -3.2339172 2.1391907 -4.8218384c0.79229736 -1.5878906 1.7034302 -3.0789795 2.7333984 -4.473236c0.6338501 -0.8520508 1.3468933 -1.4717407 2.1391907 -1.8590393c0.07922363 -0.07745361 0.4555664 -0.2130127 1.1290283 -0.40664673c0.6734314 -0.19366455 1.089386 -0.2904663 1.2478333 -0.2904663c0.9960327 -0.088531494 2.011444 -0.1328125 3.0462952 -0.1328125zm20.603577 -10.6727295c-1.1091919 0 -2.1589966 0.38726807 -3.149353 1.1618652c-0.99035645 0.77459717 -1.5251465 1.7428284 -1.6043701 2.9047241c-1.0299988 -0.38729858 -2.059967 -0.7552185 -3.0899353 -1.1037903c-1.0299988 -0.34857178 -2.0995789 -0.6003113 -3.2087708 -0.7552185c-2.4561157 -0.38729858 -4.932007 -0.6390381 -7.4277344 -0.755249c-0.57592773 -0.026794434 -1.1508179 -0.04019165 -1.7246399 -0.04019165c-1.9127502 0 -3.8137817 0.1489563 -5.7030945 0.4468689c-2.3768616 0.38729858 -4.4368286 1.2199707 -6.17984 2.4980469c-1.743042 1.2780762 -3.248413 2.8078918 -4.516083 4.589447c-1.2676392 1.7815552 -2.3570557 3.718048 -3.2681885 5.8094482c-0.9111328 2.0914001 -1.7232361 4.105316 -2.4362793 6.041809c-0.871521 2.4786987 -1.426117 5.054199 -1.6638184 7.726532c-0.23770142 2.6723328 -0.059417725 5.247864 0.53479004 7.7265625c0.5942383 2.4786682 1.6638184 4.7443542 3.2087708 6.7970276c1.5449829 2.0526733 3.6643677 3.6599426 6.3581543 4.8218384c4.0500793 1.7749939 8.28479 2.6624756 12.704132 2.6624756c0.59490967 0 1.1931763 -0.016082764 1.7947693 -0.04824829c5.070648 -0.27108765 9.864014 -1.3361511 14.380066 -3.1951904c0.07922363 1.4717407 0.6140442 2.575531 1.6044006 3.3113708c0.99035645 0.73587036 2.0797424 1.1037903 3.2681885 1.1037903c1.188446 0 2.277832 -0.36791992 3.2681885 -1.1037903c0.99038696 -0.73583984 1.4459534 -1.8396301 1.3666992 -3.3113708c-0.15844727 -3.5631104 -0.17825317 -7.1262207 -0.059417725 -10.689362c0.11886597 -3.5631104 0.27731323 -7.1262207 0.4753723 -10.689331c0.1980896 -3.5631409 0.31692505 -7.126251 0.35653687 -10.689362c0.039611816 -3.5631104 -0.13864136 -7.126251 -0.53479004 -10.689362c-0.15844727 -1.2393494 -0.653656 -2.3044128 -1.4855347 -3.1951904c-0.8319092 -0.8907776 -1.9213257 -1.3361511 -3.268219 -1.3361511z" fill-rule="evenodd"/><path stroke="#000000" stroke-width="1.0" stroke-linejoin="round" stroke-linecap="butt" d="m425.85153 391.98038c-1.188446 0 -2.2580261 0.38729858 -3.2088013 1.1618958c-0.9507446 0.77456665 -1.426117 1.8977356 -1.426117 3.3694458c0.07922363 4.1828003 -0.15844727 8.307495 -0.7130432 12.374115c-0.55462646 4.0665894 -1.1092224 8.152557 -1.6638184 12.257904c-0.4753723 3.4081726 -0.71307373 6.777649 -0.71307373 10.108398c-0.07922363 1.5491943 -0.15844727 3.137085 -0.2376709 4.763733c-0.07922363 1.626648 -0.4753723 3.137085 -1.188446 4.531372c-0.6338196 1.316803 -0.6932373 2.5561218 -0.17825317 3.7180176c0.51498413 1.1618958 1.2676697 2.0332947 2.2580261 2.6142578c0.74276733 0.43569946 1.5412598 0.65356445 2.3954468 0.65356445c0.284729 0 0.57562256 -0.024230957 0.8727417 -0.072631836c1.188446 -0.19363403 2.1391907 -0.94888306 2.8522644 -2.265686c0.8714905 -1.7041016 1.4855347 -3.4856567 1.8420715 -5.3446655c0.35650635 -1.8590088 0.59420776 -3.718048 0.7130432 -5.577057c0.11883545 -1.8590088 0.1980896 -3.7373962 0.23770142 -5.6351624c0.039611816 -1.8977356 0.17825317 -3.776123 0.4159546 -5.635132c0.31689453 -2.5561523 0.6536255 -5.092926 1.0101624 -7.6103516c0.35653687 -2.5174255 0.9309387 -5.17041 1.7232361 -7.9589233c0.39614868 -0.23239136 0.8319092 -0.4260254 1.3072815 -0.58096313c0.4753723 -0.15490723 0.9507446 -0.30981445 1.426117 -0.4647522c1.1091919 -0.30981445 2.1788025 -0.5422058 3.2087708 -0.69711304c1.0299683 -0.15493774 2.1391907 -0.23239136 3.3276367 -0.23239136c0.39611816 0 0.8516846 0.11618042 1.3666992 0.34857178c0.51498413 0.23239136 0.8516846 0.503479 1.0101624 0.813324c0.6338196 0.77459717 1.0695801 1.5685425 1.3072815 2.3818665c0.2376709 0.813324 0.4753723 1.7621765 0.7130432 2.8466187c0.39614868 1.7815552 0.5744324 3.7373962 0.53482056 5.867523c-0.039642334 2.130127 0.019805908 4.2021484 0.17825317 6.216095c0.15844727 3.718048 0.29711914 7.358612 0.4159546 10.921722c0.11883545 3.5631409 0.17825317 7.203705 0.17825317 10.921753c0 1.5491638 0.49517822 2.691681 1.4855652 3.4275513c0.99035645 0.73587036 2.0599365 1.1037903 3.2087708 1.1037903c1.1488037 0 2.2184143 -0.36791992 3.2087708 -1.1037903c0.99035645 -0.73587036 1.4855347 -1.8783875 1.4855347 -3.4275513c0 -3.9504395 -0.07922363 -7.8814697 -0.2376709 -11.793152c-0.15847778 -3.9116821 -0.27731323 -7.842743 -0.35653687 -11.793152c-0.07922363 -2.7885132 -0.19805908 -5.577057 -0.35653687 -8.36557c-0.15844727 -2.7885437 -0.7130432 -5.4996033 -1.6638184 -8.133209c-1.1091919 -2.8659973 -2.7730103 -5.1510315 -4.9914246 -6.855133c-2.2184143 -1.7041016 -4.912201 -2.5948792 -8.08136 -2.6723328c-2.7730103 0 -5.7044983 0.11618042 -8.794403 0.34854126c0 -1.4717102 -0.51501465 -2.5948792 -1.5449829 -3.3694458c-1.0299683 -0.77459717 -2.1391907 -1.1618958 -3.3276062 -1.1618958z" fill-rule="evenodd"/></g></svg>