<svg version="1.1" viewBox="0.0 0.0 500.0 500.0" fill="none" stroke="none" stroke-linecap="square" stroke-miterlimit="10" xmlns:xlink="http://www.w3.org/1999/xlink" xmlns="http://www.w3.org/2000/svg"><clipPath id="p.0"><path d="m0 0l500.0 0l0 500.0l-500.0 0l0 -500.0z" clip-rule="nonzero"/></clipPath><g clip-path="url(#p.0)"><path fill="#000000" fill-opacity="0.0" d="m0 0l500.0 0l0 500.0l-500.0 0z" fill-rule="evenodd"/><path fill="#666666" d="m235.18375 310.9855l153.67993 0l0 14.955078l-153.67993 0z" fill-rule="evenodd"/><path fill="#666666" d="m305.57007 78.410904l0 243.18245l-14.956177 0l0 -243.18245z" fill-rule="evenodd"/><path fill="#666666" d="m290.5879 76.671326l117.698456 0l0 14.955078l-117.698456 0z" fill-rule="evenodd"/><path fill="#666666" d="m365.5617 137.84239l0 0c0 -19.691017 15.963898 -35.653748 35.656372 -35.653748l0 0c9.4566345 0 18.52597 3.756363 25.21283 10.442741c6.686859 6.6863785 10.443512 15.755043 10.443512 25.211006l0 0c0 19.69104 -15.963898 35.653763 -35.65634 35.653763l0 0c-19.692474 0 -35.656372 -15.962723 -35.656372 -35.653763zm14.022644 0l0 0c0 11.946548 9.68573 21.631134 21.633728 21.631134c11.947968 0 21.633698 -9.684586 21.633698 -21.631134c0 -11.946541 -9.68573 -21.631126 -21.633698 -21.631126l0 0c-11.947998 0 -21.633728 9.684586 -21.633728 21.631126z" fill-rule="evenodd"/><path fill="#666666" d="m393.78473 168.4969l14.956177 0l0 81.27757l-14.956177 0z" fill-rule="evenodd"/><path fill="#666666" d="m439.7922 187.89355l0 14.955063l-77.1651 0l0 -14.955063z" fill-rule="evenodd"/><path fill="#666666" d="m397.21985 240.22325l9.813324 11.334122l-36.391052 42.0307l-9.813324 -11.334106z" fill-rule="evenodd"/><path fill="#666666" d="m405.18906 240.25456l-9.677032 11.176697l36.391052 42.030716l9.677032 -11.176697z" fill-rule="evenodd"/><path fill="#666666" d="m408.6787 76.671326l0 28.176224l-14.956177 0l0 -28.176224z" fill-rule="evenodd"/><path fill="#dabb5f" d="m146.80411 310.9855l153.67993 0l0 14.955078l-153.67993 0z" fill-rule="evenodd"/><path fill="#dabb5f" d="m217.19043 78.410904l0 243.18245l-14.9561615 0l0 -243.18245z" fill-rule="evenodd"/><path fill="#dabb5f" d="m202.20825 76.671326l117.698456 0l0 14.955078l-117.698456 0z" fill-rule="evenodd"/><path fill="#dabb5f" d="m277.18207 137.84239l0 0c0 -19.691017 15.963898 -35.653748 35.656372 -35.653748l0 0c9.4566345 0 18.52597 3.756363 25.21283 10.442741c6.686859 6.6863785 10.443512 15.755043 10.443512 25.211006l0 0c0 19.69104 -15.963898 35.653763 -35.65634 35.653763l0 0c-19.692474 0 -35.656372 -15.962723 -35.656372 -35.653763zm14.022644 0l0 0c0 11.946548 9.68573 21.631134 21.633728 21.631134c11.947968 0 21.633698 -9.684586 21.633698 -21.631134c0 -11.946541 -9.68573 -21.631126 -21.633698 -21.631126l0 0c-11.947998 0 -21.633728 9.684586 -21.633728 21.631126z" fill-rule="evenodd"/><path fill="#dabb5f" d="m305.4051 168.4969l14.956177 0l0 81.27757l-14.956177 0z" fill-rule="evenodd"/><path fill="#dabb5f" d="m351.41257 187.89355l0 14.955063l-77.1651 0l0 -14.955063z" fill-rule="evenodd"/><path fill="#dabb5f" d="m308.8402 240.22325l9.813324 11.334122l-36.391052 42.0307l-9.813324 -11.334106z" fill-rule="evenodd"/><path fill="#dabb5f" d="m316.80942 240.25456l-9.677032 11.176697l36.391052 42.030716l9.677032 -11.176697z" fill-rule="evenodd"/><path fill="#dabb5f" d="m320.29907 76.671326l0 28.176224l-14.956177 0l0 -28.176224z" fill-rule="evenodd"/><path fill="#7eb565" d="m28.943722 352.12012l55.43307 0l0 55.433044l-55.43307 0z" fill-rule="evenodd"/><path fill="#f3f3f3" d="m51.185863 394.77725q-2.1875 -0.140625 -5.1875 -0.140625l-0.734375 0l0 -30.40625q1.421875 0.109375 2.015625 0.109375l0.921875 0q1.8125 0 2.984375 -0.1875l0 12.140625l10.71875 0l0 -12.0625q1.890625 0.109375 3.6718788 0.109375q1.796875 0 2.25 -0.1875l0 30.625q-1.09375 -0.140625 -4.328129 -0.140625l-1.59375 0l0 -12.875l-10.71875 0l0 13.015625z" fill-rule="nonzero"/><path fill="#dabb5f" d="m93.38985 352.12012l55.433075 0l0 55.433044l-55.433075 0z" fill-rule="evenodd"/><path fill="#f3f3f3" d="m113.59673 394.82413q-1.953125 -0.1875 -4.578125 -0.1875l-1.796875 0l9.90625 -27.765625q0.65625 -1.875 0.65625 -2.171875q0 -0.3125 -0.015625 -0.390625l0.015625 -0.046875q1.484375 0.078125 3.15625 0.078125q1.359375 0 3.28125 -0.046875l0.015625 0.046875q-0.046875 0.09375 -0.046875 0.25q0 0.4375 0.6875 2.296875l10.109367 27.8125q-0.453125 -0.015625 -1.0625 -0.015625q0 0 -1.1875 -0.046875q-0.578125 0 -1.03125 0l-3.53125 0l-2.1406174 -6.5625l-10.296875 0l-2.140625 6.75zm10.671875 -12.21875l-3.453125 -10.59375l-3.34375 10.59375l6.796875 0z" fill-rule="nonzero"/><path fill="#7eb565" d="m222.28105 352.12375l55.43306 0l0 55.433075l-55.43306 0z" fill-rule="evenodd"/><path fill="#f3f3f3" d="m263.35132 376.37466q-0.4375 0.765625 -0.4375 3.703125l0 7.0625q0 3.21875 -3.328125 5.59375q-3.4375 2.46875 -8.42189 2.46875q-6.9375 0 -11.046875 -4.34375q-4.0 -4.140625 -4.0 -10.578125q0 -6.828125 4.0625 -11.390625q4.53125 -5.125 12.484375 -5.125q5.3125153 0 8.406265 2.0625l-0.359375 6.71875l-0.1875 0.046875q-0.796875 -1.390625 -3.140625 -2.28125q-2.234375 -0.84375 -4.6875153 -0.84375q-2.453125 0 -4.28125 0.78125q-1.828125 0.765625 -3.109375 2.203125q-2.6875 2.9375 -2.6875 7.765625q0 4.21875 2.375 6.765625q2.359375 2.53125 6.09375 2.53125q4.1250153 0 5.5625153 -2.140625q0.453125 -0.6875 0.453125 -1.546875l0 -3.78125l-2.9375153 0q-2.359375 0 -2.578125 0.40625l-0.0625 -0.015625l-0.203125 -5.953125q0.640625 0.1875 5.1718903 0.1875l2.6875 0q2.5 0 4.09375 -0.34375l0.078125 0.046875z" fill-rule="nonzero"/><path fill="#dabb5f" d="m286.72717 352.12375l55.433075 0l0 55.433075l-55.433075 0z" fill-rule="evenodd"/><path fill="#f3f3f3" d="m310.20367 395.2028q-3.6875 0 -6.953125 -0.578125l0 -30.484375q3.015625 -0.375 6.984375 -0.375q3.984375 0 7.203125 1.09375q3.21875 1.078125 5.390625 3.078125q4.375 4.015625 4.375 11.234375q0 8.09375 -4.875 12.28125q-4.375 3.75 -12.125 3.75zm-1.015625 -5.546875q1.46875 0.265625 2.953125 0.265625q1.484375 0 3.1875 -0.578125q1.71875 -0.578125 2.96875 -1.8125q2.6875 -2.59375 2.6875 -7.5625q0 -8.15625 -5.953125 -10.015625q-1.953125 -0.625 -4.53125 -0.625l-0.609375 0q-0.34375 0 -0.703125 0.03125l0 20.296875z" fill-rule="nonzero"/><path fill="#7eb565" d="m415.61942 352.12375l55.433075 0l0 55.433075l-55.433075 0z" fill-rule="evenodd"/><path fill="#f3f3f3" d="m450.80536 389.17154q1.421875 0 1.96875 -0.265625l0.078125 0.015625l-0.21875 5.71875l-17.0625 0l0 -30.453125q0.609375 0.046875 1.359375 0.0625l1.59375 0.046875q1.59375 0.046875 3.46875 0.046875q5.21875 0 10.3125 -0.1875q-0.25 2.0 -0.25 5.359375q0 0.359375 0.046875 0.546875l-0.046875 0.0625q-1.171875 -0.34375 -3.359375 -0.34375l-7.1875 0l0 5.8125l5.40625 0q2.5 0 3.0 -0.140625l0.078125 5.625q-1.09375 -0.109375 -2.828125 -0.109375l-5.65625 0l0 8.203125l9.296875 0z" fill-rule="nonzero"/><path fill="#666666" d="m157.83597 352.12012l55.433075 0l0 55.433044l-55.433075 0z" fill-rule="evenodd"/><path fill="#f3f3f3" d="m174.19756 394.63663q0.140625 -0.78125 0.140625 -1.6875l0 -28.609375l4.546875 0l12.07814 19.0l0 -17.453125q0 -1.25 -0.234375 -1.546875l6.15625 0q-0.109375 0.90625 -0.109375 2.0l0 28.296875l-4.734375 0l-11.906265 -18.25l0 18.25l-5.9375 0z" fill-rule="nonzero"/><path fill="#666666" d="m351.17328 352.12375l55.433075 0l0 55.433075l-55.433075 0z" fill-rule="evenodd"/><path fill="#f3f3f3" d="m377.51016 394.6403q-3.34375 0 -4.4375 0.140625l0 -30.578125q0.546875 0.140625 2.265625 0.140625q1.71875 0 4.0 -0.09375l0 24.921875l4.71875 0q2.046875 0 3.265625 -0.140625q-0.15625 5.34375 -0.15625 5.546875l0 0.21875q-2.234375 -0.15625 -7.484375 -0.15625l-2.171875 0z" fill-rule="nonzero"/><path fill="#7eb565" d="m58.424473 310.9855l153.67995 0l0 14.955078l-153.67995 0z" fill-rule="evenodd"/><path fill="#7eb565" d="m128.81079 78.410904l0 243.18245l-14.9561615 0l0 -243.18245z" fill-rule="evenodd"/><path fill="#7eb565" d="m113.82861 76.671326l117.698456 0l0 14.955078l-117.698456 0z" fill-rule="evenodd"/><path fill="#7eb565" d="m188.80244 137.84239l0 0c0 -19.691017 15.963882 -35.653748 35.65634 -35.653748l0 0c9.45665 0 18.525986 3.756363 25.212845 10.442741c6.686859 6.6863785 10.443512 15.755043 10.443512 25.211006l0 0c0 19.69104 -15.963898 35.653763 -35.656357 35.653763l0 0c-19.69246 0 -35.65634 -15.962723 -35.65634 -35.653763zm14.022614 0l0 0c0 11.946548 9.6857605 21.631134 21.633728 21.631134c11.947983 0 21.633728 -9.684586 21.633728 -21.631134c0 -11.946541 -9.685745 -21.631126 -21.633728 -21.631126l0 0c-11.947968 0 -21.633728 9.684586 -21.633728 21.631126z" fill-rule="evenodd"/><path fill="#7eb565" d="m217.02545 168.4969l14.9561615 0l0 81.27757l-14.9561615 0z" fill-rule="evenodd"/><path fill="#7eb565" d="m263.03293 187.89355l0 14.955063l-77.1651 0l0 -14.955063z" fill-rule="evenodd"/><path fill="#7eb565" d="m220.46059 240.22325l9.813309 11.334122l-36.391052 42.0307l-9.813324 -11.334106z" fill-rule="evenodd"/><path fill="#7eb565" d="m228.42978 240.25456l-9.677032 11.176697l36.391068 42.030716l9.677017 -11.176697z" fill-rule="evenodd"/><path fill="#7eb565" d="m231.91943 76.671326l0 28.176224l-14.9561615 0l0 -28.176224z" fill-rule="evenodd"/></g></svg>