<svg version="1.1" viewBox="0.0 0.0 500.0 500.0" fill="none" stroke="none" stroke-linecap="square" stroke-miterlimit="10" xmlns:xlink="http://www.w3.org/1999/xlink" xmlns="http://www.w3.org/2000/svg"><clipPath id="p.0"><path d="m0 0l500.0 0l0 500.0l-500.0 0l0 -500.0z" clip-rule="nonzero"/></clipPath><g clip-path="url(#p.0)"><path fill="#000000" fill-opacity="0.0" d="m0 0l500.0 0l0 500.0l-500.0 0z" fill-rule="evenodd"/><path fill="#000000" d="m155.35391 170.37285l0 0c0 -34.788208 28.201416 -62.98963 62.989624 -62.98963l111.35028 0l0 0c16.705872 0 32.72754 6.6363907 44.540375 18.449234c11.812836 11.812843 18.44925 27.83451 18.44925 44.540398l0 111.350266c0 34.788208 -28.201416 62.989624 -62.989624 62.989624l-111.35028 0l0 0c-34.788208 0 -62.989624 -28.201416 -62.989624 -62.989624z" fill-rule="evenodd"/><path fill="#000000" d="m181.28171 136.7693l0 0c0 -27.20308 22.052444 -49.255524 49.25551 -49.255524l87.0717 0l0 0c13.063385 0 25.591705 5.1894073 34.82892 14.426605c9.237213 9.2372055 14.426605 21.765541 14.426605 34.82892l0 178.39299c0 27.203064 -22.05246 49.255524 -49.255524 49.255524l-87.0717 0l0 0c-27.203064 0 -49.25551 -22.05246 -49.25551 -49.255524z" fill-rule="evenodd"/><path fill="#000000" d="m363.23404 133.30951l0 0c27.203064 0 49.255524 22.052444 49.255524 49.255524l0 87.07172l0 0c0 13.0633545 -5.1894226 25.591705 -14.426605 34.828888c-9.237213 9.237213 -21.765533 14.426605 -34.82892 14.426605l-178.393 0c-27.203064 0 -49.25551 -22.05243 -49.25551 -49.255493l0 -87.07172l0 0c0 -27.20308 22.052444 -49.255524 49.25551 -49.255524z" fill-rule="evenodd"/><path fill="#000000" d="m124.043396 92.86525l0 0c0 -9.274551 7.518509 -16.793068 16.793076 -16.793068l29.686035 0l0 0c4.4538116 0 8.725189 1.7692642 11.874496 4.918579c3.1493225 3.1493073 4.918579 7.4206924 4.918579 11.874489l0 29.68605c0 9.274551 -7.518509 16.793076 -16.793076 16.793076l-29.686035 0l0 0c-9.274567 0 -16.793076 -7.518524 -16.793076 -16.793076z" fill-rule="evenodd"/><path fill="#000000" d="m360.50714 92.86525l0 0c0 -9.274551 7.5184937 -16.793068 16.79306 -16.793068l29.686066 0l0 0c4.4537964 0 8.725159 1.7692642 11.874481 4.918579c3.1493225 3.1493073 4.918579 7.4206924 4.918579 11.874489l0 29.68605c0 9.274551 -7.518524 16.793076 -16.79306 16.793076l-29.686066 0l0 0c-9.274567 0 -16.79306 -7.518524 -16.79306 -16.793076z" fill-rule="evenodd"/><path fill="#000000" d="m124.043396 329.31543l0 0c0 -9.274567 7.518509 -16.79306 16.793076 -16.79306l29.686035 0l0 0c4.4538116 0 8.725189 1.7692566 11.874496 4.9185486c3.1493225 3.1493225 4.918579 7.4207153 4.918579 11.874512l0 29.686035c0 9.274567 -7.518509 16.79309 -16.793076 16.79309l-29.686035 0l0 0c-9.274567 0 -16.793076 -7.518524 -16.793076 -16.79309z" fill-rule="evenodd"/><path fill="#000000" d="m360.50714 329.31543l0 0c0 -9.274567 7.5184937 -16.79306 16.79306 -16.79306l29.686066 0l0 0c4.4537964 0 8.725159 1.7692566 11.874481 4.9185486c3.1493225 3.1493225 4.918579 7.4207153 4.918579 11.874512l0 29.686035c0 9.274567 -7.518524 16.79309 -16.79306 16.79309l-29.686066 0l0 0c-9.274567 0 -16.79306 -7.518524 -16.79306 -16.79309z" fill-rule="evenodd"/><path fill="#000000" d="m242.27145 32.927193l0 0c0 -9.274555 7.518509 -16.79307 16.79306 -16.79307l29.686066 0l0 0c4.4537964 0 8.725159 1.7692642 11.874481 4.918577c3.1493225 3.149311 4.918579 7.4206944 4.918579 11.874493l0 53.44252c0 9.274559 -7.518524 16.793068 -16.79306 16.793068l-29.686066 0l0 0c-9.274551 0 -16.79306 -7.518509 -16.79306 -16.793068z" fill-rule="evenodd"/><path fill="#000000" d="m242.27756 365.6309l0 0c0 -9.274567 7.518509 -16.79309 16.79306 -16.79309l29.686066 0l0 0c4.4537964 0 8.725159 1.7692871 11.874481 4.918579c3.1493225 3.1493225 4.918579 7.4207153 4.918579 11.874512l0 53.442505c0 9.274567 -7.518524 16.79306 -16.79306 16.79306l-29.686066 0l0 0c-9.274551 0 -16.79306 -7.5184937 -16.79306 -16.79306z" fill-rule="evenodd"/><path fill="#000000" d="m467.08328 194.3392l0 0c9.274567 0 16.79306 7.518509 16.79306 16.79306l0 29.68605l0 0c0 4.4537964 -1.7692566 8.725189 -4.9185486 11.874496c-3.1493225 3.1493073 -7.4207153 4.918579 -11.874512 4.918579l-53.442505 0c-9.274567 0 -16.79309 -7.518524 -16.79309 -16.793076l0 -29.68605l0 0c0 -9.274551 7.518524 -16.79306 16.79309 -16.79306z" fill-rule="evenodd"/><path fill="#000000" d="m134.36052 194.34529l0 0c9.274551 0 16.793076 7.518524 16.793076 16.793076l0 29.68605l0 0c0 4.4537964 -1.7692719 8.725174 -4.918579 11.874496c-3.1493225 3.1493073 -7.4207 4.918579 -11.874496 4.918579l-53.44252 0c-9.274559 0 -16.793076 -7.518524 -16.793076 -16.793076l0 -29.68605l0 0c0 -9.274551 7.5185165 -16.793076 16.793076 -16.793076z" fill-rule="evenodd"/><path fill="#efefef" d="m190.19542 158.55237l0 0c0 -9.019897 7.3120728 -16.331955 16.331955 -16.331955l19.376877 0l0 0c4.331497 0 8.485596 1.7206879 11.548431 4.7835236c3.0628357 3.0628357 4.7835236 7.216934 4.7835236 11.548431l0 19.376862c0 9.019897 -7.3120728 16.33197 -16.331955 16.33197l-19.376877 0c-9.019882 0 -16.331955 -7.3120728 -16.331955 -16.33197z" fill-rule="evenodd"/><path fill="#cc0000" d="m30.040785 425.38385l0 12.217316l36.659843 0l0 -12.217316zm-12.219948 12.217316l0 12.217346l12.219948 0l0 -12.217346zm12.219948 12.217346l0 12.217316l24.439898 0l0 -12.217316zm24.439898 12.217316l0 12.217316l12.219948 0l0 -12.217316zm-36.659843 12.217316l0 12.217316l36.659843 0l0 -12.217316z" fill-rule="evenodd"/><path fill="#cc0000" d="m91.140495 425.38385l0 48.869293l12.219948 0l0 -48.869293zm24.439896 12.217316l0 36.651978l12.219948 0l0 -36.651978zm24.439888 -12.217316l0 48.869293l12.219955 0l0 -48.869293zm-36.659836 48.869293l0 12.217316l12.219948 0l0 -12.217316zm24.439896 0l0 12.217316l12.21994 0l0 -12.217316z" fill-rule="evenodd"/><path fill="#cc0000" d="m176.68008 425.38385l0 61.08661l36.659836 0l0 -12.217316l-24.439896 0l0 -12.217316l24.439896 0l0 -12.217316l-24.439896 0l0 -12.217346l24.439896 0l0 -12.217316z" fill-rule="evenodd"/><path fill="#cc0000" d="m237.77979 425.38385l0 61.08661l36.65985 0l0 -12.217316l-24.439896 0l0 -12.217316l24.439896 0l0 -12.217316l-24.439896 0l0 -12.217346l24.439896 0l0 -12.217316z" fill-rule="evenodd"/><path fill="#cc0000" d="m335.0461 437.60117l0 12.217346l-23.946655 0l0 -12.217346zm-36.166595 -12.217316l0 61.08661l12.21994 0l0 -24.434631l24.43991 0l0 -12.217316l12.21994 0l0 -12.217346l-12.21994 0l0 -12.217316z" fill-rule="evenodd"/><path fill="#cc0000" d="m372.19916 425.38385l0 61.08661l36.65985 0l0 -12.217316l-24.43988 0l0 -12.217316l24.43988 0l0 -12.217316l-24.43988 0l0 -12.217346l24.43988 0l0 -12.217316z" fill-rule="evenodd"/><path fill="#cc0000" d="m469.46545 437.60117l0 12.217346l-23.946625 0l0 -12.217346zm-36.166565 -12.217316l0 61.08661l12.21994 0l0 -24.434631l12.21994 0l0 12.217316l12.21994 0l0 -24.434631l12.219971 0l0 -12.217346l-12.219971 0l0 -12.217316zm36.65982 48.869293l0 12.217316l12.219971 0l0 -12.217316z" fill-rule="evenodd"/><path stroke="#000000" stroke-width="3.0" stroke-linejoin="round" stroke-linecap="butt" d="m30.040785 425.38385l0 12.217316l36.659843 0l0 -12.217316zm-12.219948 12.217316l0 12.217346l12.219948 0l0 -12.217346zm12.219948 12.217346l0 12.217316l24.439898 0l0 -12.217316zm24.439898 12.217316l0 12.217316l12.219948 0l0 -12.217316zm-36.659843 12.217316l0 12.217316l36.659843 0l0 -12.217316z" fill-rule="evenodd"/><path stroke="#000000" stroke-width="3.0" stroke-linejoin="round" stroke-linecap="butt" d="m91.140495 425.38385l0 48.869293l12.219948 0l0 -48.869293zm24.439896 12.217316l0 36.651978l12.219948 0l0 -36.651978zm24.439888 -12.217316l0 48.869293l12.219955 0l0 -48.869293zm-36.659836 48.869293l0 12.217316l12.219948 0l0 -12.217316zm24.439896 0l0 12.217316l12.21994 0l0 -12.217316z" fill-rule="evenodd"/><path stroke="#000000" stroke-width="3.0" stroke-linejoin="round" stroke-linecap="butt" d="m176.68008 425.38385l0 61.08661l36.659836 0l0 -12.217316l-24.439896 0l0 -12.217316l24.439896 0l0 -12.217316l-24.439896 0l0 -12.217346l24.439896 0l0 -12.217316z" fill-rule="evenodd"/><path stroke="#000000" stroke-width="3.0" stroke-linejoin="round" stroke-linecap="butt" d="m237.77979 425.38385l0 61.08661l36.65985 0l0 -12.217316l-24.439896 0l0 -12.217316l24.439896 0l0 -12.217316l-24.439896 0l0 -12.217346l24.439896 0l0 -12.217316z" fill-rule="evenodd"/><path stroke="#000000" stroke-width="3.0" stroke-linejoin="round" stroke-linecap="butt" d="m335.0461 437.60117l0 12.217346l-23.946655 0l0 -12.217346zm-36.166595 -12.217316l0 61.08661l12.21994 0l0 -24.434631l24.43991 0l0 -12.217316l12.21994 0l0 -12.217346l-12.21994 0l0 -12.217316z" fill-rule="evenodd"/><path stroke="#000000" stroke-width="3.0" stroke-linejoin="round" stroke-linecap="butt" d="m372.19916 425.38385l0 61.08661l36.65985 0l0 -12.217316l-24.43988 0l0 -12.217316l24.43988 0l0 -12.217316l-24.43988 0l0 -12.217346l24.43988 0l0 -12.217316z" fill-rule="evenodd"/><path stroke="#000000" stroke-width="3.0" stroke-linejoin="round" stroke-linecap="butt" d="m469.46545 437.60117l0 12.217346l-23.946625 0l0 -12.217346zm-36.166565 -12.217316l0 61.08661l12.21994 0l0 -24.434631l12.21994 0l0 12.217316l12.21994 0l0 -24.434631l12.219971 0l0 -12.217346l-12.219971 0l0 -12.217316zm36.65982 48.869293l0 12.217316l12.219971 0l0 -12.217316z" fill-rule="evenodd"/><path fill="#cc0000" d="m48.973545 365.5338l0 15.572693l15.575985 0l0 -15.572693zm-31.151972 -31.145416l0 77.863525l15.575987 0l0 -46.71811l15.575985 0l0 -15.572723l-15.575985 0l0 -15.572693zm62.30394 0l0 15.572693l-15.575981 0l0 15.572723l15.575981 0l0 46.71811l15.575989 0l0 -77.863525z" fill-rule="evenodd"/><path fill="#cc0000" d="m126.85341 334.3884l0 77.863525l15.575989 0l0 -77.863525z" fill-rule="evenodd"/><path fill="#cc0000" d="m204.7333 365.5338l0 15.572693l15.575989 0l0 -15.572693zm-31.151962 -31.145416l0 77.863525l15.575989 0l0 -46.71811l15.5759735 0l0 -15.572723l-15.5759735 0l0 -15.572693zm62.30394 0l0 46.71811l-15.575989 0l0 15.572693l15.575989 0l0 15.572723l15.5759735 0l0 -77.863525z" fill-rule="evenodd"/><path fill="#cc0000" d="m282.6132 334.3884l0 77.863525l46.727936 0l0 -15.572723l-31.151978 0l0 -15.572693l31.151978 0l0 -15.572693l-31.151978 0l0 -15.572723l31.151978 0l0 -15.572693z" fill-rule="evenodd"/><path stroke="#000000" stroke-width="3.0" stroke-linejoin="round" stroke-linecap="butt" d="m48.973545 365.5338l0 15.572693l15.575985 0l0 -15.572693zm-31.151972 -31.145416l0 77.863525l15.575987 0l0 -46.71811l15.575985 0l0 -15.572723l-15.575985 0l0 -15.572693zm62.30394 0l0 15.572693l-15.575981 0l0 15.572723l15.575981 0l0 46.71811l15.575989 0l0 -77.863525z" fill-rule="evenodd"/><path stroke="#000000" stroke-width="3.0" stroke-linejoin="round" stroke-linecap="butt" d="m126.85341 334.3884l0 77.863525l15.575989 0l0 -77.863525z" fill-rule="evenodd"/><path stroke="#000000" stroke-width="3.0" stroke-linejoin="round" stroke-linecap="butt" d="m204.7333 365.5338l0 15.572693l15.575989 0l0 -15.572693zm-31.151962 -31.145416l0 77.863525l15.575989 0l0 -46.71811l15.5759735 0l0 -15.572723l-15.5759735 0l0 -15.572693zm62.30394 0l0 46.71811l-15.575989 0l0 15.572693l15.575989 0l0 15.572723l15.5759735 0l0 -77.863525z" fill-rule="evenodd"/><path stroke="#000000" stroke-width="3.0" stroke-linejoin="round" stroke-linecap="butt" d="m282.6132 334.3884l0 77.863525l46.727936 0l0 -15.572723l-31.151978 0l0 -15.572693l31.151978 0l0 -15.572693l-31.151978 0l0 -15.572723l31.151978 0l0 -15.572693z" fill-rule="evenodd"/></g></svg>