<svg version="1.1" viewBox="0.0 0.0 500.0 500.0" fill="none" stroke="none" stroke-linecap="square" stroke-miterlimit="10" xmlns:xlink="http://www.w3.org/1999/xlink" xmlns="http://www.w3.org/2000/svg"><clipPath id="p.0"><path d="m0 0l500.0 0l0 500.0l-500.0 0l0 -500.0z" clip-rule="nonzero"/></clipPath><g clip-path="url(#p.0)"><path fill="#000000" fill-opacity="0.0" d="m0 0l500.0 0l0 500.0l-500.0 0z" fill-rule="evenodd"/><path fill="#cc0000" d="m249.99759 138.15244l83.25754 -129.74036l-8.209442 119.11508l94.509155 -19.416313l-37.535248 63.93068l98.31189 18.387344l-78.0679 52.298782l89.31952 62.968826l-106.54367 -7.784424l29.258667 115.26761l-92.27225 -81.37854l-17.29126 118.10849l-60.731903 -107.41608l-45.7894 149.08957l-17.224152 -133.6102l-66.05575 44.514343l20.24398 -82.31802l-123.745476 14.539886l80.23771 -62.901703l-83.25752 -70.68614l103.501495 -22.324295l-95.22496 -119.04797l155.2858 90.03534l23.263794 -90.03534z" fill-rule="evenodd"/><path fill="#e69138" d="m250.00021 164.64038l64.06824 -95.58735l-6.317322 87.75907l72.72656 -14.305145l-28.884064 47.1015l75.65283 13.547028l-60.074738 38.531586l68.73306 46.392822l-81.987366 -5.7352295l22.515106 84.92441l-71.00519 -59.95633l-13.305969 87.017456l-46.73433 -79.13974l-35.23581 109.84305l-13.254303 -98.43851l-50.83113 32.796356l15.57811 -60.64853l-95.22444 10.712372l61.744415 -46.343384l-64.06823 -52.078613l79.64634 -16.447617l-73.27738 -87.70963l119.49532 66.33433l17.901917 -66.33433z" fill-rule="evenodd"/><path fill="#ffd966" d="m249.99763 195.41495l42.193405 -55.29181l-4.1604004 50.763596l47.89554 -8.274704l-19.022156 27.245514l49.822662 7.836197l-39.563385 22.288315l45.265503 26.835602l-53.994415 -3.317505l14.827789 49.1239l-46.7619 -34.681305l-8.762909 50.334595l-30.777832 -45.7778l-23.205246 63.537933l-8.728897 -56.94104l-33.47586 18.970825l10.259277 -35.081726l-62.71196 6.1965027l40.663025 -26.806992l-42.19342 -30.124496l52.452698 -9.514008l-48.2583 -50.735l78.696045 38.370605l11.789673 -38.370605z" fill-rule="evenodd"/><path fill="#ffffff" d="m250.01508 224.5214l20.17987 -21.533081l-1.9897766 19.769592l22.907043 -3.2225342l-9.097748 10.610611l23.828735 3.0517426l-18.922028 8.680054l21.64917 10.4509735l-25.823944 -1.2919922l7.091675 19.131027l-22.364838 -13.506439l-4.19104 19.60254l-14.720154 -17.827911l-11.098404 24.744476l-4.174774 -22.175354l-16.010529 7.3880615l4.906723 -13.6623535l-29.993317 2.4131775l19.447937 -10.439819l-20.17987 -11.731812l25.086594 -3.7051697l-23.080536 -19.758453l37.63803 14.943207l5.6386566 -14.943207z" fill-rule="evenodd"/><path fill="#e69138" d="m379.5536 331.4013l50.294342 21.851593l-21.851593 50.294342l-50.294342 -21.851593z" fill-rule="evenodd"/><path stroke="#b45f06" stroke-width="8.0" stroke-linejoin="round" stroke-linecap="butt" d="m379.5536 331.4013l50.294342 21.851593l-21.851593 50.294342l-50.294342 -21.851593z" fill-rule="evenodd"/><path fill="#e69138" d="m357.70425 381.6966l50.29431 21.851593l-21.851593 50.294342l-50.294342 -21.851593z" fill-rule="evenodd"/><path stroke="#b45f06" stroke-width="8.0" stroke-linejoin="round" stroke-linecap="butt" d="m357.70425 381.6966l50.29431 21.851593l-21.851593 50.294342l-50.294342 -21.851593z" fill-rule="evenodd"/><path fill="#e69138" d="m329.26178 309.54944l50.294342 21.851593l-21.851624 50.294342l-50.294342 -21.851593z" fill-rule="evenodd"/><path stroke="#b45f06" stroke-width="8.0" stroke-linejoin="round" stroke-linecap="butt" d="m329.26178 309.54944l50.294342 21.851593l-21.851624 50.294342l-50.294342 -21.851593z" fill-rule="evenodd"/><path fill="#e69138" d="m307.41 359.84366l50.294342 21.851624l-21.851593 50.29431l-50.294342 -21.851593z" fill-rule="evenodd"/><path stroke="#b45f06" stroke-width="8.0" stroke-linejoin="round" stroke-linecap="butt" d="m307.41 359.84366l50.294342 21.851624l-21.851593 50.29431l-50.294342 -21.851593z" fill-rule="evenodd"/><path fill="#6aa84f" d="m112.62052 306.93604l45.611458 -30.43869l30.438705 45.61145l-45.61145 30.43872z" fill-rule="evenodd"/><path stroke="#38761d" stroke-width="8.0" stroke-linejoin="round" stroke-linecap="butt" d="m112.62052 306.93604l45.611458 -30.43869l30.438705 45.61145l-45.61145 30.43872z" fill-rule="evenodd"/><path fill="#6aa84f" d="m36.57236 291.76193l45.611454 -30.43872l30.438713 45.61145l-45.611458 30.43872z" fill-rule="evenodd"/><path stroke="#38761d" stroke-width="8.0" stroke-linejoin="round" stroke-linecap="butt" d="m36.57236 291.76193l45.611454 -30.43872l30.438713 45.61145l-45.611458 30.43872z" fill-rule="evenodd"/><path fill="#6aa84f" d="m67.01019 337.3725l45.611458 -30.43872l30.438713 45.61148l-45.611458 30.43869z" fill-rule="evenodd"/><path stroke="#38761d" stroke-width="8.0" stroke-linejoin="round" stroke-linecap="butt" d="m67.01019 337.3725l45.611458 -30.43872l30.438713 45.61148l-45.611458 30.43869z" fill-rule="evenodd"/><path fill="#6aa84f" d="m97.44873 382.98404l45.611465 -30.43872l30.438705 45.61148l-45.611458 30.43869z" fill-rule="evenodd"/><path stroke="#38761d" stroke-width="8.0" stroke-linejoin="round" stroke-linecap="butt" d="m97.44873 382.98404l45.611465 -30.43872l30.438705 45.61148l-45.611458 30.43869z" fill-rule="evenodd"/><path fill="#3d85c6" d="m421.44174 39.481663l51.851624 17.843193l-17.8432 51.851643l-51.851624 -17.843193z" fill-rule="evenodd"/><path stroke="#0b5394" stroke-width="8.0" stroke-linejoin="round" stroke-linecap="butt" d="m421.44174 39.481663l51.851624 17.843193l-17.8432 51.851643l-51.851624 -17.843193z" fill-rule="evenodd"/><path fill="#3d85c6" d="m403.60086 91.33407l51.851624 17.843193l-17.8432 51.85164l-51.851624 -17.8432z" fill-rule="evenodd"/><path stroke="#0b5394" stroke-width="8.0" stroke-linejoin="round" stroke-linecap="butt" d="m403.60086 91.33407l51.851624 17.843193l-17.8432 51.85164l-51.851624 -17.8432z" fill-rule="evenodd"/><path fill="#3d85c6" d="m385.7578 143.18448l51.851654 17.843185l-17.8432 51.851654l-51.851624 -17.8432z" fill-rule="evenodd"/><path stroke="#0b5394" stroke-width="8.0" stroke-linejoin="round" stroke-linecap="butt" d="m385.7578 143.18448l51.851654 17.843185l-17.8432 51.851654l-51.851624 -17.8432z" fill-rule="evenodd"/><path fill="#3d85c6" d="m367.91446 195.03603l51.851654 17.8432l-17.8432 51.85164l-51.851654 -17.8432z" fill-rule="evenodd"/><path stroke="#0b5394" stroke-width="8.0" stroke-linejoin="round" stroke-linecap="butt" d="m367.91446 195.03603l51.851654 17.8432l-17.8432 51.85164l-51.851654 -17.8432z" fill-rule="evenodd"/><path fill="#000000" d="m107.859245 412.28006c2.4850388 -0.88082886 5.0023193 -1.2339478 7.5518417 -1.0593262c2.5461655 0.16516113 4.9193497 0.776001 7.119522 1.832489c2.2062988 1.0436707 4.1753693 2.502411 5.907196 4.37619c1.7413025 1.8704529 3.0523987 4.0481873 3.9332428 6.5332336c0.8808441 2.485077 1.2289124 4.988159 1.0442047 7.509247c-0.17523193 2.5177612 -0.787735 4.8862 -1.8374939 7.105377c-1.040268 2.2157898 -2.4956207 4.1943665 -4.366028 5.935669c-1.873764 1.731842 -4.0531616 3.038208 -6.5381927 3.9190369c-2.5134888 0.8909302 -5.038582 1.2521667 -7.5752563 1.0836487c-2.5305634 -0.18136597 -4.907097 -0.80166626 -7.1296005 -1.8609619c-2.2225037 -1.0592651 -4.1993637 -2.5098877 -5.930603 -4.3518677c-1.7217484 -1.8453369 -3.0230408 -4.0105286 -3.903885 -6.4956055c-0.88085175 -2.4850464 -1.2387085 -5.0006714 -1.0735703 -7.546875c0.17462158 -2.5495605 0.79491425 -4.926117 1.8609009 -7.129669c1.0626068 -2.2130432 2.5213165 -4.182129 4.376114 -5.9072266c1.8609314 -1.7379761 4.048134 -3.0524292 6.5616074 -3.9433594zm-90.968864 16.34201l5.3102894 14.981506l18.395859 -6.5205994l17.352997 48.956604l14.938633 -5.295166l-17.352997 -48.956604l18.353172 -6.505493l-5.3102875 -14.981476zm85.688835 -31.238129c-3.0256653 1.0724792 -5.8027344 2.4999084 -8.3312 4.282318c-2.5284653 1.7824097 -4.764099 3.818695 -6.7068863 6.1088257c-1.9427872 2.2901306 -3.5662613 4.803406 -4.87043 7.5398254c-1.2946777 2.7330322 -2.2308426 5.573883 -2.8085098 8.5225525c-0.58101654 2.9391785 -0.76420593 5.961548 -0.54958344 9.067108c0.21128082 3.0960693 0.8531494 6.156952 1.9256363 9.182678c1.0724792 3.0256958 2.499916 5.8027954 4.2823105 8.331299c1.7823944 2.5285034 3.8233948 4.7624817 6.1230087 6.701935c2.3090897 1.9360962 4.831833 3.556244 7.5682144 4.8604126c2.736374 1.3041992 5.583626 2.2434387 8.54174 2.8177795c2.95475 0.56481934 5.9754105 0.74328613 9.061966 0.5353699c3.086563 -0.20788574 6.1426697 -0.8480835 9.168343 -1.9205627c3.0256653 -1.0724792 5.80748 -2.5016174 8.345428 -4.287384c2.5474396 -1.7891235 4.779709 -3.8349 6.6967926 -6.137268c1.9265747 -2.3057556 3.5436401 -4.8220825 4.851166 -7.549011c1.3041687 -2.7363892 2.2339172 -5.5802917 2.7892456 -8.531738c0.55532837 -2.951416 0.7290344 -5.970398 0.52111816 -9.057007c-0.207901 -3.086609 -0.84809875 -6.1427307 -1.920578 -9.168457c-1.0724792 -3.0256958 -2.5016022 -5.8075256 -4.287369 -8.34552c-1.7891235 -2.5474854 -3.8253784 -4.783142 -6.10878 -6.70697c-2.2867584 -1.9333496 -4.7983246 -3.5520935 -7.5347137 -4.8562927c-2.736374 -1.3041992 -5.5755234 -2.2356262 -8.517426 -2.794342c-2.9324265 -0.56207275 -5.9514008 -0.7358093 -9.056923 -0.5211792c-3.0960464 0.2112732 -6.1568985 0.8531494 -9.182571 1.9256287z" fill-rule="evenodd"/><path fill="#000000" d="m143.18585 383.8553l13.510223 38.115295c1.2674713 3.5758362 3.1310425 6.694824 5.5907135 9.356934c2.469162 2.6587524 5.2791595 4.74292 8.430008 6.252533c3.156952 1.4967651 6.5455627 2.3669128 10.165817 2.610443c3.6168823 0.2340393 7.2132263 -0.28268433 10.789017 -1.5501709c3.5757904 -1.267456 6.6947174 -3.1310425 9.356796 -5.5907288c2.6587067 -2.4691772 4.7476044 -5.280884 6.266678 -8.43512c1.5157013 -3.1636963 2.390564 -6.5540466 2.624588 -10.170959c0.24349976 -3.6202698 -0.2684784 -7.2183533 -1.5359497 -10.794159l-13.510223 -38.115326l-14.981323 5.3103027l13.510223 38.115295c0.52783203 1.4891357 0.74087524 2.9937744 0.6390991 4.513916c-0.10513306 1.5106201 -0.47608948 2.9339905 -1.1128693 4.2700806c-0.6367798 1.3360901 -1.5182495 2.5240173 -2.644394 3.5638123c-1.1261597 1.0397644 -2.4338074 1.8235779 -3.9229126 2.35141c-1.4891205 0.52783203 -2.9984894 0.7425537 -4.5280914 0.6441345c-1.529602 -0.09841919 -2.9624329 -0.46603394 -4.2985077 -1.1028137c-1.3360748 -0.6367798 -2.52063 -1.5087891 -3.5536804 -2.6159973c-1.0364075 -1.1166687 -1.8185272 -2.4195862 -2.3463593 -3.908722l-13.510223 -38.115326z" fill-rule="evenodd"/><path fill="#000000" d="m234.90524 350.38345c-3.0256653 1.0724792 -5.8027344 2.4999084 -8.331207 4.282318c-2.5284576 1.7824097 -4.760727 3.828186 -6.6967926 6.137268c-1.9394379 2.299652 -3.5612335 4.8176575 -4.865387 7.5540466c-1.3041687 2.7364197 -2.2434082 5.583679 -2.8177032 8.54184c-0.5648041 2.954773 -0.7398987 5.984955 -0.52526855 9.090515c0.2112732 3.0960693 0.8531494 6.1569824 1.9256287 9.182678c1.0724945 3.0256958 2.4999237 5.8027954 4.282318 8.331299c1.7823944 2.5285034 3.8233948 4.7624817 6.1230164 6.701935c2.309082 1.9360962 4.831833 3.556244 7.568207 4.860443c2.736374 1.3041687 5.583618 2.2434387 8.541748 2.817749c2.9547424 0.56481934 5.975403 0.74328613 9.061966 0.5354004c3.086563 -0.20791626 6.1426697 -0.848114 9.16835 -1.9205933c3.9456787 -1.3985901 7.5165405 -3.4330444 10.712524 -6.1033325c3.2054749 -2.673645 6.0405884 -6.16626 8.505371 -10.477783l-12.709137 -10.373047c-1.5241089 3.561737 -3.2528687 6.229767 -5.18631 8.00412c-1.9367981 1.7648621 -4.1477203 3.0877075 -6.6327515 3.968567c-2.5134888 0.8909302 -5.038574 1.2521362 -7.5752563 1.0836182c-2.5305634 -0.18136597 -4.907089 -0.80166626 -7.129593 -1.8609314c-2.2225037 -1.0592651 -4.1993866 -2.5099182 -5.930603 -4.3518677c-1.721756 -1.8453369 -3.0230408 -4.010559 -3.9039001 -6.4956055c-0.8808441 -2.485077 -1.2386932 -5.000702 -1.0735626 -7.5469055c0.17463684 -2.54953 0.7949219 -4.9260864 1.8609009 -7.129669c1.0626221 -2.2130127 2.5213165 -4.1820984 4.376114 -5.9072266c1.8609314 -1.7379761 4.048126 -3.0524292 6.561615 -3.9433594c2.4850311 -0.88082886 5.0371857 -1.2409668 7.656479 -1.0803833c2.615921 0.15109253 5.637375 1.1300354 9.064362 2.936798l3.3442688 -16.047333c-4.643341 -1.8346863 -9.048508 -2.771576 -13.21553 -2.810608c-4.1608887 -0.0519104 -8.214172 0.62145996 -12.159866 2.02005z" fill-rule="evenodd"/><path fill="#000000" d="m264.18878 340.96448l22.663269 63.93811l14.981323 -5.310272l-8.668945 -24.45697l21.725037 -7.7006836l8.668945 24.45697l14.981323 -5.3103027l-22.6633 -63.93811l-14.981323 5.3103027l8.684082 24.499634l-21.725037 7.7006836l-8.684082 -24.499634z" fill-rule="evenodd"/><path fill="#000000" d="m327.2298 318.6189l22.663269 63.93811l14.981323 -5.310272l-22.663269 -63.93811z" fill-rule="evenodd"/><path fill="#000000" d="m353.56445 309.2843l22.6633 63.93811l14.981323 -5.3103027l-12.980713 -36.62143l34.435425 29.016571l15.251648 -5.4060974l-22.6633 -63.93811l-14.981323 5.310272l12.99585 36.664124l-34.45056 -29.059265z" fill-rule="evenodd"/><path fill="#000000" d="m445.98462 275.75626c-3.0256958 1.0724792 -5.802765 2.4999084 -8.331207 4.282318c-2.528473 1.7824097 -4.7593384 3.8170166 -6.6926575 6.1037903c-1.9238281 2.2834167 -3.5394897 4.788574 -4.8470154 7.515503c-1.3109131 2.7174377 -2.2440186 5.5518494 -2.799347 8.503265c-0.55532837 2.9514465 -0.7307129 5.9656982 -0.52615356 9.042816c0.20117188 3.067627 0.8380127 6.1142883 1.910492 9.139984c1.0724792 3.0256958 2.503296 5.8122864 4.292389 8.359772c1.7857666 2.5379639 3.8237 4.7783813 6.1138306 6.7211914c2.2901306 1.94281 4.801697 3.5615845 7.534729 4.8562927c2.7296448 1.2852173 5.5640564 2.2183533 8.503204 2.7993774c2.9452515 0.5682068 5.961151 0.74835205 9.0477295 0.5404358c3.0865479 -0.20788574 6.1426697 -0.8480835 9.168335 -1.9205627c3.9457092 -1.3985901 7.5056763 -3.418518 10.679932 -6.0597534c3.1708984 -2.6507263 5.9060974 -5.958435 8.205536 -9.923096l-9.269043 -26.150024l-14.554504 5.1589966l6.3592224 17.940796c-0.5930786 0.6159363 -1.502533 1.3333435 -2.728363 2.1521912c-1.2257996 0.8188782 -2.5500793 1.4804688 -3.9728088 1.9847717c-2.4850159 0.88082886 -4.986389 1.2336426 -7.50412 1.0584106c-2.5210571 -0.1847229 -4.892853 -0.8067322 -7.1153564 -1.8659973c-2.2225037 -1.0592651 -4.20105 -2.5146484 -5.935669 -4.366089c-1.7284546 -1.8643188 -3.038147 -4.0532227 -3.9290771 -6.566742c-0.8808594 -2.485077 -1.2336731 -4.98645 -1.0584412 -7.5042114c0.18469238 -2.5210876 0.8100281 -4.883423 1.8760071 -7.086975c1.0626221 -2.2130432 2.516571 -4.1804504 4.361908 -5.902191c1.8419495 -1.7312622 4.005432 -3.0372925 6.4904785 -3.9181519c2.4850159 -0.88082886 5.0279846 -1.2217102 7.6289062 -1.022583c2.5975647 0.18963623 5.63739 1.1300354 9.119476 2.821167l3.2263184 -15.97348c-4.629303 -1.7649231 -9.008484 -2.673645 -13.137543 -2.7261353c-4.1324463 -0.0619812 -8.171509 0.60632324 -12.1171875 2.0049133z" fill-rule="evenodd"/><path fill="#000000" d="m227.51628 30.525352l-17.38478 82.06798l19.22937 4.0734253l9.957367 -47.005554l17.580963 52.839104l19.576355 4.1469193l17.384766 -82.06797l-19.22934 -4.073429l-9.968994 47.060345l-17.569366 -52.89389z" fill-rule="evenodd"/><path fill="#000000" d="m342.72168 73.877304c3.1896667 0.67568207 6.072571 1.9287796 8.648743 3.759285c2.5787048 1.8183365 4.687195 3.9950104 6.325409 6.530014c1.6529846 2.525406 2.7877502 5.3353806 3.4042969 8.429916c0.6286926 3.0971222 0.6052246 6.240532 -0.07046509 9.430244c-0.6756897 3.189705 -1.9249268 6.0543823 -3.7477112 8.594032c-1.8105774 2.5422363 -3.985962 4.6446533 -6.5260925 6.307251c-2.5279846 1.665184 -5.340515 2.8121414 -8.437622 3.4408646c-3.094513 0.61655426 -6.236603 0.58699036 -9.42627 -0.08869171c-3.2261963 -0.6834183 -6.122589 -1.9330063 -8.689117 -3.7487564c-2.5518188 -1.8253632 -4.657715 -4.014206 -6.3177185 -6.566536c-1.6600037 -2.5523376 -2.8082275 -5.3588104 -3.4446716 -8.419395c-0.6242676 -3.0580215 -0.59854126 -6.181877 0.07714844 -9.37159c0.6756897 -3.189705 1.922699 -6.0739365 3.7410278 -8.652687c1.8305054 -2.5761719 4.0193176 -4.6820984 6.566498 -6.3177795c2.5497437 -1.64785 5.35968 -2.782631 8.429871 -3.4043427c3.0849 -0.6313019 6.2404785 -0.6052475 9.466675 0.07817078zm4.0502625 -19.119976c-3.883606 -0.8226814 -7.734253 -1.1104622 -11.55191 -0.8633499c-3.8176575 0.24711609 -7.490387 0.9510765 -11.018219 2.1118774c-3.527832 1.1608047 -6.862976 2.7631264 -10.005432 4.8069725c-3.1302795 2.0464249 -5.952057 4.438057 -8.465332 7.1748886c-2.5107117 2.7246628 -4.6555786 5.7939606 -6.4345703 9.207893c-1.7764282 3.401764 -3.0759888 7.044464 -3.8986816 10.928116c-0.8226929 3.8836517 -1.1104736 7.7343216 -0.8633728 11.55201c0.24707031 3.8176956 0.9571228 7.491745 2.130066 11.022179c1.1851196 3.5330048 2.799591 6.870743 4.8434143 10.013214c2.0438232 3.1424713 4.440216 5.9716415 7.1891785 8.487526c2.7515564 2.503708 5.822113 4.6424866 9.21167 6.416321c3.389557 1.7738495 7.026123 3.072113 10.909729 3.8947906c3.8836365 0.8226776 7.7403564 1.1117554 11.57019 0.867218c3.84198 -0.24195862 7.5173035 -0.95809937 11.02594 -2.148407c3.520813 -1.1877289 6.851166 -2.7974243 9.991028 -4.8291016c3.142456 -2.0438385 5.959442 -4.4428406 8.450958 -7.197014c2.491516 -2.7541656 4.6242065 -5.826042 6.398041 -9.21563c1.7738647 -3.3895874 3.072113 -7.026207 3.894806 -10.909859c0.8226929 -3.883644 1.1117859 -7.740402 0.86724854 -11.570267c-0.24194336 -3.842041 -0.9458618 -7.5148087 -2.1118164 -11.018303c-1.1633301 -3.5156784 -2.7669373 -6.8447495 -4.81073 -9.987221c-2.0438232 -3.1424713 -4.4367065 -5.9581833 -7.1786804 -8.447136c-2.7297974 -2.486374 -5.8016357 -4.6190643 -9.215515 -6.3980637c-3.4017334 -1.7764244 -7.044403 -3.0759773 -10.928009 -3.898655z" fill-rule="evenodd"/><path fill="#674ea7" d="m80.776535 28.944847l50.4252 21.574802l-21.574806 50.425198l-50.425198 -21.574806z" fill-rule="evenodd"/><path stroke="#351c75" stroke-width="8.0" stroke-linejoin="round" stroke-linecap="butt" d="m80.776535 28.944847l50.4252 21.574802l-21.574806 50.425198l-50.425198 -21.574806z" fill-rule="evenodd"/><path fill="#674ea7" d="m131.21582 50.5075l50.425186 21.574806l-21.574799 50.425194l-50.4252 -21.574799z" fill-rule="evenodd"/><path stroke="#351c75" stroke-width="8.0" stroke-linejoin="round" stroke-linecap="butt" d="m131.21582 50.5075l50.425186 21.574806l-21.574799 50.425194l-50.4252 -21.574799z" fill-rule="evenodd"/><path fill="#674ea7" d="m109.65331 100.94714l50.425194 21.574799l-21.574799 50.4252l-50.425194 -21.574814z" fill-rule="evenodd"/><path stroke="#351c75" stroke-width="8.0" stroke-linejoin="round" stroke-linecap="butt" d="m109.65331 100.94714l50.425194 21.574799l-21.574799 50.4252l-50.425194 -21.574814z" fill-rule="evenodd"/><path fill="#674ea7" d="m160.09259 122.509796l50.4252 21.574799l-21.574814 50.4252l-50.425186 -21.574799z" fill-rule="evenodd"/><path stroke="#351c75" stroke-width="8.0" stroke-linejoin="round" stroke-linecap="butt" d="m160.09259 122.509796l50.4252 21.574799l-21.574814 50.4252l-50.425186 -21.574799z" fill-rule="evenodd"/></g></svg>