<svg version="1.1" viewBox="0.0 0.0 500.0 500.0" fill="none" stroke="none" stroke-linecap="square" stroke-miterlimit="10" xmlns:xlink="http://www.w3.org/1999/xlink" xmlns="http://www.w3.org/2000/svg"><clipPath id="p.0"><path d="m0 0l500.0 0l0 500.0l-500.0 0l0 -500.0z" clip-rule="nonzero"/></clipPath><g clip-path="url(#p.0)"><path fill="#000000" fill-opacity="0.0" d="m0 0l500.0 0l0 500.0l-500.0 0z" fill-rule="evenodd"/><path fill="#8e7cc3" d="m38.157482 39.91803l0 0c0 -5.7138557 4.6319923 -10.345852 10.345852 -10.345852l112.63113 0c2.7438965 0 5.3753967 1.0900078 7.315628 3.0302315c1.9402161 1.9402237 3.0302277 4.5717316 3.0302277 7.3156204l0 194.11145c0 5.713852 -4.632004 10.345856 -10.345856 10.345856l-112.63113 0c-5.7138596 0 -10.345852 -4.632004 -10.345852 -10.345856z" fill-rule="evenodd"/><path fill="#8e7cc3" d="m183.33858 39.91803l0 0c0 -5.7138557 4.632004 -10.345852 10.345856 -10.345852l112.63112 0c2.7438965 0 5.3754272 1.0900078 7.3156433 3.0302315c1.9402161 1.9402237 3.0302124 4.5717316 3.0302124 7.3156204l0 194.11145c0 5.713852 -4.6319885 10.345856 -10.345856 10.345856l-112.63112 0c-5.713852 0 -10.345856 -4.632004 -10.345856 -10.345856z" fill-rule="evenodd"/><path fill="#8e7cc3" d="m328.51968 39.91803l0 0c0 -5.7138557 4.6319885 -10.345852 10.345856 -10.345852l112.631134 0c2.7438965 0 5.3753967 1.0900078 7.315613 3.0302315c1.9402161 1.9402237 3.030243 4.5717316 3.030243 7.3156204l0 194.11145c0 5.713852 -4.632019 10.345856 -10.345856 10.345856l-112.631134 0c-5.713867 0 -10.345856 -4.632004 -10.345856 -10.345856z" fill-rule="evenodd"/><path fill="#8e7cc3" d="m38.157482 265.97052l0 0c0 -5.713867 4.6319923 -10.345856 10.345852 -10.345856l112.63113 0c2.7438965 0 5.3753967 1.0900269 7.315628 3.030243c1.9402161 1.9402161 3.0302277 4.5717163 3.0302277 7.315613l0 194.11145c0 5.713867 -4.632004 10.345856 -10.345856 10.345856l-112.63113 0c-5.7138596 0 -10.345852 -4.6319885 -10.345852 -10.345856z" fill-rule="evenodd"/><path fill="#8e7cc3" d="m183.33858 265.97052l0 0c0 -5.713867 4.632004 -10.345856 10.345856 -10.345856l112.63112 0c2.7438965 0 5.3754272 1.0900269 7.3156433 3.030243c1.9402161 1.9402161 3.0302124 4.5717163 3.0302124 7.315613l0 194.11145c0 5.713867 -4.6319885 10.345856 -10.345856 10.345856l-112.63112 0c-5.713852 0 -10.345856 -4.6319885 -10.345856 -10.345856z" fill-rule="evenodd"/><path fill="#8e7cc3" d="m328.51968 265.97052l0 0c0 -5.713867 4.6319885 -10.345856 10.345856 -10.345856l112.631134 0c2.7438965 0 5.3753967 1.0900269 7.315613 3.030243c1.9402161 1.9402161 3.030243 4.5717163 3.030243 7.315613l0 194.11145c0 5.713867 -4.632019 10.345856 -10.345856 10.345856l-112.631134 0c-5.713867 0 -10.345856 -4.6319885 -10.345856 -10.345856z" fill-rule="evenodd"/><path fill="#d9d2e9" d="m44.792652 43.41782l0 0c0 -4.128639 3.34692 -7.475563 7.475559 -7.475563l105.080376 0c1.9826355 0 3.884079 0.7876015 5.286026 2.1895409c1.4019318 1.4019394 2.1895294 3.303379 2.1895294 5.286022l0 187.12762c0 4.1286316 -3.3469238 7.4755554 -7.4755554 7.4755554l-105.080376 0l0 0c-4.128639 0 -7.475559 -3.3469238 -7.475559 -7.4755554z" fill-rule="evenodd"/><path fill="#ffffff" d="m61.023716 127.144325l33.456707 2.2125244E-4l10.338478 -31.808586l10.33847 31.808586l33.456703 -2.2125244E-4l-27.06717 19.658562l10.338898 31.808456l-27.066902 -19.658936l-27.066917 19.658936l10.338905 -31.808456z" fill-rule="evenodd"/><path fill="#d9d2e9" d="m335.16534 269.46243l0 0c0 -4.1286316 3.3469238 -7.4755554 7.475586 -7.4755554l105.08035 0c1.9826355 0 3.8840942 0.78759766 5.2860413 2.1895447c1.4019165 1.401947 2.1895142 3.3033752 2.1895142 5.2860107l0 187.12762c0 4.1286316 -3.3469238 7.4755554 -7.4755554 7.4755554l-105.08035 0l0 0c-4.128662 0 -7.475586 -3.3469238 -7.475586 -7.4755554z" fill-rule="evenodd"/><path fill="#ffffff" d="m422.0268 403.12637l0 0c-22.839386 5.0966797 -45.415497 -8.96936 -50.4252 -31.417328c-5.0097046 -22.447998 9.444092 -44.777344 32.283447 -49.874023l0 0c-10.875214 12.499847 -15.175201 29.267944 -11.606293 45.259857c3.5689087 15.991882 14.590118 29.341034 29.748047 36.031494z" fill-rule="evenodd"/><path fill="#20124d" d="m73.83009 212.59756c3.8178406 0 7.4092026 0.7333832 10.774078 2.200119c3.3648758 1.4451904 6.309143 3.4296112 8.832802 5.953293c2.5236588 2.5236664 4.5080795 5.4895325 5.953247 8.897568c1.4667435 3.3864746 2.2001114 6.9886475 2.2001114 10.806503c0 3.817871 -0.7333679 7.430832 -2.2001114 10.838867c-1.4451675 3.3864746 -3.4295883 6.3415527 -5.953247 8.865204c-2.5236588 2.5236816 -5.467926 4.5188904 -8.832802 5.9856567c-3.3648758 1.4451599 -6.956238 2.1677551 -10.774078 2.1677551l-27.857307 0l0 -55.714966zm-55.71461 -27.857483l0 139.19037l27.857304 0l0 -27.857483l27.857307 0c7.635681 0 14.829193 -1.4559631 21.580513 -4.3678894c6.772896 -2.9119568 12.682999 -6.891571 17.730316 -11.938934c5.0473175 -5.0473633 9.026932 -10.946716 11.938843 -17.69809c2.911911 -6.772934 4.3678665 -13.977264 4.3678665 -21.613007c0 -5.1120605 -0.6686554 -10.0299835 -2.0059814 -14.753784c-1.3157578 -4.7238007 -3.1923218 -9.156418 -5.6296997 -13.297836c-2.4158096 -4.141403 -5.3277206 -7.9053497 -8.735741 -11.291824c-3.3864365 -3.4080353 -7.139572 -6.319977 -11.259399 -8.735794c-4.098236 -2.4373932 -8.509254 -4.31398 -13.233025 -5.62973c-4.72377 -1.3373413 -9.64167 -2.0059967 -14.753693 -2.0059967z" fill-rule="evenodd"/><path fill="#20124d" d="m190.50075 242.78459c3.6237183 0 7.0317383 0.7980957 10.22406 2.3942566c3.2138824 1.5746155 6.0179443 3.6776733 8.412186 6.309189c2.3942413 2.6099548 4.281601 5.6189575 5.6620636 9.027008c1.4020233 3.3864746 2.1030426 6.891571 2.1030426 10.515289c0 3.6237488 -0.7010193 7.139618 -2.1030426 10.547668c-1.3804626 3.3864746 -3.2678223 6.3954773 -5.6620636 9.027008c-2.3942413 2.6099548 -5.198303 4.7130127 -8.412186 6.3091736c-3.1923218 1.5746155 -6.600342 2.361908 -10.22406 2.361908c-3.623703 0 -7.042511 -0.6147461 -10.256393 -1.8442383c-3.1923218 -1.2294617 -5.974823 -3.0413513 -8.347488 -5.435608c-2.3511047 -2.3942566 -4.2061005 -5.3493347 -5.564987 -8.865204c-1.358902 -3.5374756 -2.0383453 -7.5710144 -2.0383453 -12.100708c0 -4.529663 0.67944336 -8.552429 2.0383453 -12.068329c1.3588867 -3.5374603 3.2138824 -6.5033264 5.564987 -8.897583c2.3726654 -2.3942413 5.1551666 -4.2061157 8.347488 -5.435608c3.2138824 -1.2294769 6.6326904 -1.844223 10.256393 -1.844223zm0 -26.78978c-7.312134 0 -14.192871 1.3481293 -20.642227 4.0443573c-6.42778 2.6746674 -12.05748 6.438614 -16.8891 11.291824c-4.8100433 4.8532257 -8.606323 10.666306 -11.388809 17.43924c-2.7825012 6.7513733 -4.173752 14.171417 -4.173752 22.260101c0 8.671112 1.3912506 16.4039 4.173752 23.198395c2.782486 6.794525 6.578766 12.542877 11.388809 17.245117c4.8316193 4.680664 10.461319 8.250488 16.8891 10.709442c6.449356 2.4589844 13.330093 3.688446 20.642227 3.688446c3.3648834 0 6.6758423 -0.42059326 9.932861 -1.2618408c3.2786102 -0.84121704 6.4709167 -1.984436 9.576965 -3.429596c3.1060333 -1.4667664 6.061096 -3.181549 8.865158 -5.144409c2.8256378 -1.984436 5.5002747 -4.10907 8.023941 -6.3739014l10.288757 14.268463l6.406204 0l0 -103.761856l-6.406204 0l-10.288757 12.327179c-2.4589539 -2.329544 -5.101242 -4.4973145 -7.92688 -6.5033264c-2.804062 -2.0059967 -5.7591095 -3.7531586 -8.865158 -5.2414703c-3.1060333 -1.488327 -6.309143 -2.6530914 -9.609314 -3.4943237c-3.300171 -0.84121704 -6.6326904 -1.2618408 -9.997574 -1.2618408z" fill-rule="evenodd"/><path fill="#20124d" d="m277.1787 174.06299c-2.4589539 0 -4.77771 0.47453308 -6.956238 1.4236145c-2.1569824 0.9275055 -4.033539 2.189331 -5.6296997 3.7855072c-1.574585 1.5746002 -2.8364258 3.4511871 -3.785492 5.6297455c-0.92749023 2.1569824 -1.3912354 4.432602 -1.3912354 6.8268585c0 2.458969 0.46374512 4.7561493 1.3912354 6.891571c0.94906616 2.1354218 2.210907 4.0012207 3.785492 5.5973816c1.5961609 1.5746002 3.4727173 2.836441 5.6296997 3.7855072c2.1785278 0.92752075 4.497284 1.3912659 6.956238 1.3912659c2.4589539 0 4.7669067 -0.46374512 6.923889 -1.3912659c2.1785278 -0.94906616 4.07666 -2.210907 5.694397 -3.7855072c1.6177368 -1.5961609 2.8903503 -3.4619598 3.8178406 -5.5973816c0.94906616 -2.1354218 1.4236145 -4.432602 1.4236145 -6.891571c0 -2.3942566 -0.47454834 -4.669876 -1.4236145 -6.8268585c-0.92749023 -2.1785583 -2.2001038 -4.0551453 -3.8178406 -5.6297455c-1.6177368 -1.5961761 -3.5158691 -2.8580017 -5.694397 -3.7855072c-2.1569824 -0.9490814 -4.4649353 -1.4236145 -6.923889 -1.4236145zm-13.394806 45.91147l0 103.95599l26.692535 0l0 -103.95599z" fill-rule="evenodd"/><path fill="#20124d" d="m310.6657 219.97446l0 103.95599l26.498413 0l0 -57.268005c0 -2.7825012 0.5176697 -5.4032593 1.553009 -7.862213c1.0353699 -2.4589844 2.4589539 -4.594391 4.270813 -6.40625c1.8118591 -1.8118744 3.9472656 -3.235489 6.4062195 -4.2708435c2.4589539 -1.0353546 5.0796814 -1.5530243 7.862152 -1.5530243l23.392395 0l0 -26.40152l-23.392395 0c-5.823822 0 -11.453522 1.0569153 -16.8891 3.170761c-5.435547 2.0922852 -10.288757 5.079712 -14.55957 8.96228l-8.735718 -12.327179z" fill-rule="evenodd"/><path fill="#20124d" d="m421.31842 220.1686c-4.5943604 0 -8.897522 0.86279297 -12.909485 2.588379c-4.011963 1.7040253 -7.506256 4.0443573 -10.48288 7.020996c-2.9766235 2.9766388 -5.3277283 6.4709625 -7.053314 10.482956c-1.70401 4.0119934 -2.5559998 8.315186 -2.5559998 12.909561c0 4.5943756 0.85198975 8.897568 2.5559998 12.909561c1.7255859 4.0119934 4.0766907 7.527893 7.053314 10.547668c2.9766235 2.99823 6.4709167 5.3709106 10.48288 7.1180725c4.011963 1.7471619 8.3151245 2.6207275 12.909485 2.6207275l27.566101 0c1.8118591 0 3.3648987 0.29119873 4.659088 0.8735962c1.2941589 0.58236694 1.9412537 1.8118591 1.9412537 3.688446c0 1.8118591 -0.6470947 3.3648987 -1.9412537 4.659088c-1.2941895 1.2941895 -2.847229 1.9412842 -4.659088 1.9412842l-60.56778 0l0 26.40152l60.56778 0c4.529663 0 8.800476 -0.85202026 12.812439 -2.5560303c4.011963 -1.7255859 7.506256 -4.087494 10.48288 -7.0856934c2.9766235 -3.019806 5.338501 -6.514099 7.085663 -10.482971c1.7471313 -3.9904175 2.6207275 -8.282837 2.6207275 -12.877197c0 -4.5296936 -0.8735962 -8.703461 -2.6207275 -12.521332c-1.7471619 -3.8178406 -4.1090393 -7.0856934 -7.085663 -9.803497c-2.9766235 -2.717804 -6.4709167 -4.8316345 -10.48288 -6.341522c-4.011963 -1.5314636 -8.282776 -2.2972107 -12.812439 -2.2972107l-27.566101 0c-1.8118591 0 -3.3648682 -0.65786743 -4.6590576 -1.9736328c-1.2941895 -1.3373413 -1.9412842 -2.9442902 -1.9412842 -4.820877c0 -1.8118591 0.6470947 -3.3648987 1.9412842 -4.659088c1.2941895 -1.2941895 2.8471985 -1.9412842 4.6590576 -1.9412842l53.67627 0l0 -26.40152z" fill-rule="evenodd"/></g></svg>