<svg version="1.1" viewBox="0.0 0.0 500.0 500.0" fill="none" stroke="none" stroke-linecap="square" stroke-miterlimit="10" xmlns:xlink="http://www.w3.org/1999/xlink" xmlns="http://www.w3.org/2000/svg"><clipPath id="p.0"><path d="m0 0l500.0 0l0 500.0l-500.0 0l0 -500.0z" clip-rule="nonzero"/></clipPath><g clip-path="url(#p.0)"><path fill="#000000" fill-opacity="0.0" d="m0 0l500.0 0l0 500.0l-500.0 0z" fill-rule="evenodd"/><path fill="#b3a494" d="m67.27499 110.352066l91.37008 0l0 91.37009l-91.37008 0z" fill-rule="evenodd"/><path stroke="#8f806f" stroke-width="12.0" stroke-linejoin="round" stroke-linecap="butt" d="m67.27499 110.352066l91.37008 0l0 91.37009l-91.37008 0z" fill-rule="evenodd"/><path fill="#b3a494" d="m158.62936 110.352066l91.37009 0l0 91.37009l-91.37009 0z" fill-rule="evenodd"/><path stroke="#8f806f" stroke-width="12.0" stroke-linejoin="round" stroke-linecap="butt" d="m158.62936 110.352066l91.37009 0l0 91.37009l-91.37009 0z" fill-rule="evenodd"/><path fill="#b3a494" d="m249.98375 110.352066l91.37007 0l0 91.37009l-91.37007 0z" fill-rule="evenodd"/><path stroke="#8f806f" stroke-width="12.0" stroke-linejoin="round" stroke-linecap="butt" d="m249.98375 110.352066l91.37007 0l0 91.37009l-91.37007 0z" fill-rule="evenodd"/><path fill="#b3a494" d="m67.27499 201.71014l91.37008 0l0 91.37009l-91.37008 0z" fill-rule="evenodd"/><path stroke="#8f806f" stroke-width="12.0" stroke-linejoin="round" stroke-linecap="butt" d="m67.27499 201.71014l91.37008 0l0 91.37009l-91.37008 0z" fill-rule="evenodd"/><path fill="#b3a494" d="m158.62936 201.71014l91.37009 0l0 91.37009l-91.37009 0z" fill-rule="evenodd"/><path stroke="#8f806f" stroke-width="12.0" stroke-linejoin="round" stroke-linecap="butt" d="m158.62936 201.71014l91.37009 0l0 91.37009l-91.37009 0z" fill-rule="evenodd"/><path fill="#b3a494" d="m249.98375 201.71014l91.37007 0l0 91.37009l-91.37007 0z" fill-rule="evenodd"/><path stroke="#8f806f" stroke-width="12.0" stroke-linejoin="round" stroke-linecap="butt" d="m249.98375 201.71014l91.37007 0l0 91.37009l-91.37007 0z" fill-rule="evenodd"/><path fill="#b3a494" d="m67.27499 293.06445l91.37008 0l0 91.370056l-91.37008 0z" fill-rule="evenodd"/><path stroke="#8f806f" stroke-width="12.0" stroke-linejoin="round" stroke-linecap="butt" d="m67.27499 293.06445l91.37008 0l0 91.370056l-91.37008 0z" fill-rule="evenodd"/><path fill="#b3a494" d="m158.62936 293.06445l91.37009 0l0 91.370056l-91.37009 0z" fill-rule="evenodd"/><path stroke="#8f806f" stroke-width="12.0" stroke-linejoin="round" stroke-linecap="butt" d="m158.62936 293.06445l91.37009 0l0 91.370056l-91.37009 0z" fill-rule="evenodd"/><path fill="#b3a494" d="m249.98375 293.06445l91.37007 0l0 91.370056l-91.37007 0z" fill-rule="evenodd"/><path stroke="#8f806f" stroke-width="12.0" stroke-linejoin="round" stroke-linecap="butt" d="m249.98375 293.06445l91.37007 0l0 91.370056l-91.37007 0z" fill-rule="evenodd"/><path fill="#000000" d="m30.807524 405.87457c-1.9958458 0 -4.1764927 0.30429077 -6.5419407 0.9128418c-2.365446 0.5982666 -4.55842 1.5627136 -6.5788994 2.8933105c-2.008173 1.3306274 -3.6898575 3.0789795 -5.0450563 5.2450867c-1.3428898 2.1661072 -2.014326 4.796356 -2.014326 7.890808l0 49.619324l14.414445 0l0 -49.619324c0 -1.5781555 0.4989624 -2.7850037 1.4968853 -3.6204834c0.9979229 -0.83551025 2.4578476 -1.2532654 4.379772 -1.2532654l32.48794 0c1.8849678 0 3.5481682 0.25787354 4.9896126 0.7736206c1.4414444 0.5054321 2.667282 1.2068176 3.677536 2.1042175c1.0225525 0.8973999 1.8295212 1.9804382 2.4208832 3.2491455c0.591362 1.2687378 0.9794464 2.6612244 1.1642456 4.1775208l0 5.4771423c0 1.5472107 -0.29567719 2.9345703 -0.8870392 4.162018c-0.591362 1.2171631 -1.422966 2.2589417 -2.494812 3.1253967c-1.0718384 0.86642456 -2.359291 1.5575256 -3.8623276 2.0732727c-1.4907303 0.5054016 -3.1600952 0.8200073 -5.0080986 0.9437866l-32.598824 0l0 12.068329l32.598824 0c1.7740822 0 3.665203 -0.17019653 5.673374 -0.5105896c2.020485 -0.34039307 4.016327 -0.8819275 5.987541 -1.6245728c1.9835205 -0.7426758 3.8808136 -1.7019653 5.6918564 -2.8778381c1.8110504 -1.1758728 3.4064865 -2.5890198 4.786339 -4.23938c1.3921585 -1.660675 2.4948044 -3.5740967 3.30793 -5.7401733c0.813118 -2.1661072 1.2196808 -4.62619 1.2196808 -7.380249l0 -5.4771423c0 -1.4853516 -0.20327759 -3.0686646 -0.6098404 -4.7499695c-0.4065628 -1.6916199 -1.0656891 -3.3626404 -1.9773636 -5.0130005c-0.8993683 -1.660675 -2.0451355 -3.2491455 -3.437294 -4.765442c-1.3798523 -1.5162659 -3.061531 -2.8520203 -5.0450516 -4.0072937c-1.9712143 -1.1655579 -4.2504196 -2.0939026 -6.8376236 -2.7850037c-2.5872116 -0.7013855 -5.507057 -1.0520935 -8.759548 -1.0520935z" fill-rule="evenodd"/><path fill="#000000" d="m100.99478 401.04724l0 10.907898l14.414444 0l0 -10.907898zm0 21.212372l0 50.17633l14.414444 0l0 -50.17633z" fill-rule="evenodd"/><path fill="#000000" d="m149.11685 422.2596c-1.3305664 0 -2.7658386 0.13409424 -4.305847 0.4022827c-1.5276947 0.25787354 -3.043045 0.6653137 -4.546097 1.2223206c-1.4907227 0.5569763 -2.9198456 1.2790222 -4.287384 2.1661072c-1.3675232 0.8767395 -2.5810394 1.9443359 -3.640564 3.2027283c-1.0471954 1.2481079 -1.884964 2.6921692 -2.5132904 4.3322144c-0.6283264 1.6400452 -0.94247437 3.496704 -0.94247437 5.569977l0 48.969513l14.414444 0l0 -48.969513c0 -1.5781555 0.4989624 -2.7746582 1.4968872 -3.5895386c0.99790955 -0.8251648 2.4763184 -1.2377625 4.435211 -1.2377625l25.890549 0c1.8849792 0 3.3141022 0.4022827 4.287384 1.2068176c0.9855957 0.8045654 1.4783936 2.042328 1.4783936 3.7133179l0 16.24582c0 1.5781555 -0.48046875 2.7850037 -1.4414368 3.6204834c-0.960968 0.83551025 -2.4024048 1.2532654 -4.324341 1.2532654l-26.001434 0l0 12.068298l26.001434 0c1.3675385 0 2.8089752 -0.12893677 4.324341 -0.3868103c1.5153656 -0.26818848 3.018402 -0.6807556 4.50914 -1.2377625c1.5030365 -0.55700684 2.938324 -1.2738953 4.305847 -2.1506348c1.3675232 -0.88708496 2.5687256 -1.9546509 3.6036072 -3.2027588c1.0348816 -1.2583923 1.8664856 -2.712799 2.494812 -4.363159c0.6283264 -1.660675 0.9424896 -3.527649 0.9424896 -5.6009216l0 -16.338654c0 -1.144928 -0.16017151 -2.3517456 -0.480484 -3.6204834c-0.30801392 -1.2687073 -0.7946472 -2.5271301 -1.4599304 -3.7752075c-0.6652832 -1.2583923 -1.5276794 -2.460083 -2.587204 -3.605011c-1.0472107 -1.1449585 -2.3223267 -2.1506348 -3.8253784 -3.0170898c-1.4907227 -0.8664551 -3.2155304 -1.5626831 -5.174408 -2.088745c-1.9588928 -0.526062 -4.1764984 -0.789093 -6.652832 -0.789093z" fill-rule="evenodd"/><path fill="#000000" d="m226.23413 422.2596c-3.6220856 0 -6.7021027 0.55700684 -9.240021 1.6710205c-2.5256195 1.1139832 -4.5769043 2.5013123 -6.1538696 4.162018c-1.5646362 1.6503601 -2.6980896 3.4451294 -3.4003296 5.384308c-0.70224 1.9288635 -1.05336 3.7287903 -1.05336 5.399811l0 16.942047c0 3.0325317 0.6652832 5.6112366 1.9958496 7.736084c1.3305664 2.1145325 2.9814453 3.8319397 4.952652 5.152252c1.9835205 1.309967 4.1272125 2.2589417 6.431061 2.8468628c2.316162 0.58795166 4.472168 0.8819275 6.4680176 0.8819275l26.00145 0l0 -11.511322l-25.890564 0c-1.7740936 0 -3.2648163 -0.44866943 -4.472183 -1.3460693c-1.1950378 -0.8973999 -1.7925568 -2.1506348 -1.7925568 -3.759735l0 -16.849213c0 -1.4853516 0.5359192 -2.7282715 1.6077576 -3.7288208c1.0718536 -1.0108337 2.5872192 -1.5162659 4.546097 -1.5162659l26.00145 0c1.7001648 0 3.147766 0.44869995 4.342819 1.3460693c1.2073364 0.8973999 1.8110352 2.1351624 1.8110352 3.7133484c0 1.485321 -0.5359192 2.7333984 -1.6077576 3.7442627c-1.0718536 1.0005188 -2.5872192 1.5007935 -4.546097 1.5007935l-26.00145 0l0 11.464905l26.00145 0c3.6220856 0 6.695938 -0.55700684 9.221542 -1.67099c2.5379333 -1.1140137 4.589203 -2.4961853 6.1538696 -4.1465454c1.5769653 -1.6607056 2.7165527 -3.4554749 3.4187927 -5.3843384c0.70224 -1.9391785 1.0533752 -3.7442627 1.0533752 -5.4152527c0 -3.0325623 -0.6652832 -5.6061096 -1.9958496 -7.720642c-1.3305664 -2.1248474 -2.9876099 -3.8422546 -4.9711304 -5.1522217c-1.9712219 -1.3203125 -4.1148987 -2.274414 -6.431061 -2.8623657c-2.3038635 -0.58795166 -4.453705 -0.8819275 -6.449539 -0.8819275z" fill-rule="evenodd"/><path fill="#000000" d="m281.45255 401.04724l0 54.446655c0 3.1253662 0.6652832 5.7659607 1.9958496 7.921753c1.3305664 2.1454773 3.0122375 3.8938293 5.045044 5.2450867c2.0328064 1.3409119 4.2196045 2.305359 6.560425 2.89328c2.353119 0.58795166 4.564575 0.8819275 6.6343384 0.8819275l6.431061 0l0 -12.068298l-6.431061 0c-1.663208 0 -3.0491943 -0.438385 -4.15802 -1.315155c-1.1087952 -0.88705444 -1.663208 -2.0732727 -1.663208 -3.5585938l0 -54.446655z" fill-rule="evenodd"/><path fill="#000000" d="m317.59955 401.04724l0 10.907898l14.414429 0l0 -10.907898zm0 21.212372l0 50.17633l14.414429 0l0 -50.17633z" fill-rule="evenodd"/><path fill="#000000" d="m353.08124 422.2596c-0.9979248 0 -1.9403992 0.15472412 -2.8274536 0.46417236c-0.8870239 0.30944824 -1.6631775 0.7375183 -2.3284607 1.2841797c-0.6652832 0.53637695 -1.1827393 1.1707458 -1.5523376 1.9031067c-0.3695984 0.7220154 -0.55441284 1.5007935 -0.55441284 2.3363037l0 44.18857l14.414459 0l0 -38.108l25.22528 0c1.7371216 0 3.3510437 0.24240112 4.8417664 0.72717285c1.5030518 0.4744873 2.80896 1.1604309 3.9177856 2.0578003c1.1087952 0.8973999 1.9835205 1.9753113 2.6241455 3.2337036c0.6529846 1.2480774 0.97946167 2.6612244 0.97946167 4.23938l0 27.849945l14.414429 0l0 -27.849945c0 -2.723114 -0.40655518 -5.1677246 -1.2196655 -7.333832c-0.81314087 -2.1661072 -1.9157715 -4.074341 -3.307953 -5.724701c-1.3798218 -1.660675 -2.9691162 -3.0686646 -4.767853 -4.2239075c-1.7864075 -1.1655579 -3.6713562 -2.1248474 -5.6548767 -2.8778381c-1.9712219 -0.76327515 -3.9670715 -1.3151245 -5.987549 -1.6555176c-2.0081482 -0.34039307 -3.9177856 -0.5105896 -5.728821 -0.5105896z" fill-rule="evenodd"/><path fill="#000000" d="m443.50418 422.2596c-3.6221008 0 -6.702118 0.55700684 -9.240051 1.6710205c-2.5256042 1.1139832 -4.5769043 2.5013123 -6.153839 4.162018c-1.5646667 1.6503601 -2.6980896 3.4451294 -3.4003296 5.384308c-0.70224 1.9288635 -1.0533752 3.7287903 -1.0533752 5.399811l0 16.942047c0 3.0325317 0.6652832 5.6112366 1.9958496 7.736084c1.3305664 2.1145325 2.9814453 3.8319397 4.952667 5.152252c1.9835205 1.309967 4.1271973 2.2589417 6.431061 2.8468628c2.3161316 0.58795166 4.472168 0.8819275 6.4680176 0.8819275l26.001434 0l0 -11.511322l-25.890564 0c-1.7740784 0 -3.2648315 -0.44866943 -4.472168 -1.3460693c-1.1950684 -0.8973999 -1.792572 -2.1506348 -1.792572 -3.759735l0 -16.849213c0 -1.4853516 0.5359192 -2.7282715 1.6077576 -3.7288208c1.0718384 -1.0108337 2.5872192 -1.5162659 4.546112 -1.5162659l26.001434 0c1.7001648 0 3.147766 0.44869995 4.342804 1.3460693c1.207367 0.8973999 1.8110352 2.1351624 1.8110352 3.7133484c0 1.485321 -0.5359192 2.7333984 -1.6077576 3.7442627c-1.0718384 1.0005188 -2.5871887 1.5007935 -4.5460815 1.5007935l-26.001434 0l0 11.464905l26.001434 0c3.6220703 0 6.695923 -0.55700684 9.221558 -1.67099c2.5379028 -1.1140137 4.589203 -2.4961853 6.153839 -4.1465454c1.5769653 -1.6607056 2.7165833 -3.4554749 3.4188232 -5.3843384c0.70224 -1.9391785 1.0533447 -3.7442627 1.0533447 -5.4152527c0 -3.0325623 -0.6652832 -5.6061096 -1.9958496 -7.720642c-1.3305359 -2.1248474 -2.9876099 -3.8422546 -4.9711304 -5.1522217c-1.9711914 -1.3203125 -4.1148987 -2.274414 -6.431061 -2.8623657c-2.303833 -0.58795166 -4.4536743 -0.8819275 -6.449524 -0.8819275z" fill-rule="evenodd"/><path fill="#b3a494" d="m67.274994 18.984222l91.37007 0l0 91.37008l-91.37007 0z" fill-rule="evenodd"/><path stroke="#8f806f" stroke-width="12.0" stroke-linejoin="round" stroke-linecap="butt" d="m67.274994 18.984222l91.37007 0l0 91.37008l-91.37007 0z" fill-rule="evenodd"/><path fill="#b3a494" d="m158.62936 18.984222l91.37009 0l0 91.37008l-91.37009 0z" fill-rule="evenodd"/><path stroke="#8f806f" stroke-width="12.0" stroke-linejoin="round" stroke-linecap="butt" d="m158.62936 18.984222l91.37009 0l0 91.37008l-91.37009 0z" fill-rule="evenodd"/><path fill="#b3a494" d="m249.98375 18.984222l91.37007 0l0 91.37008l-91.37007 0z" fill-rule="evenodd"/><path stroke="#8f806f" stroke-width="12.0" stroke-linejoin="round" stroke-linecap="butt" d="m249.98375 18.984222l91.37007 0l0 91.37008l-91.37007 0z" fill-rule="evenodd"/><path fill="#b3a494" d="m341.35468 110.359604l91.37009 0l0 91.37007l-91.37009 0z" fill-rule="evenodd"/><path stroke="#8f806f" stroke-width="12.0" stroke-linejoin="round" stroke-linecap="butt" d="m341.35468 110.359604l91.37009 0l0 91.37007l-91.37009 0z" fill-rule="evenodd"/><path fill="#b3a494" d="m341.35468 201.71014l91.37009 0l0 91.37009l-91.37009 0z" fill-rule="evenodd"/><path stroke="#8f806f" stroke-width="12.0" stroke-linejoin="round" stroke-linecap="butt" d="m341.35468 201.71014l91.37009 0l0 91.37009l-91.37009 0z" fill-rule="evenodd"/><path fill="#b3a494" d="m341.35468 293.06445l91.37009 0l0 91.370056l-91.37009 0z" fill-rule="evenodd"/><path stroke="#8f806f" stroke-width="12.0" stroke-linejoin="round" stroke-linecap="butt" d="m341.35468 293.06445l91.37009 0l0 91.370056l-91.37009 0z" fill-rule="evenodd"/><path fill="#b3a494" d="m341.35468 18.991755l91.37009 0l0 91.37008l-91.37009 0z" fill-rule="evenodd"/><path stroke="#8f806f" stroke-width="12.0" stroke-linejoin="round" stroke-linecap="butt" d="m341.35468 18.991755l91.37009 0l0 91.37008l-91.37009 0z" fill-rule="evenodd"/><path fill="#cc0000" d="m175.90495 64.669266l0 0c0 -15.690109 12.719345 -28.409454 28.409454 -28.409454l0 0c7.5346527 0 14.760712 2.9931297 20.088516 8.320938c5.3278046 5.3278046 8.320938 12.55386 8.320938 20.088516l0 0c0 15.690102 -12.719345 28.409447 -28.409454 28.409447l0 0c-15.690109 0 -28.409454 -12.719345 -28.409454 -28.409447z" fill-rule="evenodd"/><path fill="#cc0000" d="m358.63028 156.04465l0 0c0 -15.690109 12.71933 -28.409454 28.409424 -28.409454l0 0c7.534668 0 14.760712 2.9931335 20.088531 8.320938c5.3277893 5.3278046 8.320923 12.553864 8.320923 20.088516l0 0c0 15.690094 -12.71933 28.40944 -28.409454 28.40944l0 0c-15.690094 0 -28.409424 -12.719345 -28.409424 -28.40944z" fill-rule="evenodd"/><path fill="#9c4ea7" d="m141.36948 64.66909l0 0c0 15.690109 -12.719345 28.409454 -28.409447 28.409454l0 0c-7.5346527 0 -14.760712 -2.9931335 -20.088516 -8.320938c-5.3278046 -5.3278046 -8.3209305 -12.553856 -8.3209305 -20.088516l0 0c0 -15.690102 12.719345 -28.409447 28.409447 -28.409447l0 0c15.690102 0 28.409447 12.719345 28.409447 28.409447z" fill-rule="evenodd"/><path fill="#9c4ea7" d="m232.72386 247.39517l0 0c0 15.6901245 -12.719345 28.409454 -28.409454 28.409454l0 0c-7.5346527 0 -14.760712 -2.9931335 -20.088516 -8.320923c-5.3278046 -5.32782 -8.320938 -12.553879 -8.320938 -20.088531l0 0c0 -15.690094 12.719345 -28.40944 28.409454 -28.40944l0 0c15.690109 0 28.409454 12.719345 28.409454 28.40944z" fill-rule="evenodd"/><path fill="#2a7bbd" d="m324.07822 156.03711l0 0c0 15.690109 -12.71933 28.409454 -28.409424 28.409454l0 0c-7.534668 0 -14.760712 -2.9931335 -20.088531 -8.320938c-5.3277893 -5.3278046 -8.320923 -12.553864 -8.320923 -20.088516l0 0c0 -15.690109 12.71933 -28.409447 28.409454 -28.409447l0 0c15.690094 0 28.409424 12.719337 28.409424 28.409447z" fill-rule="evenodd"/><path fill="#f1c232" d="m141.36948 247.39517l0 0c0 15.6901245 -12.719345 28.409454 -28.409447 28.409454l0 0c-7.5346527 0 -14.760712 -2.9931335 -20.088516 -8.320923c-5.3278046 -5.32782 -8.3209305 -12.553879 -8.3209305 -20.088531l0 0c0 -15.690094 12.719345 -28.40944 28.409447 -28.40944l0 0c15.690102 0 28.409447 12.719345 28.409447 28.40944z" fill-rule="evenodd"/><path fill="#2a7bbd" d="m415.44916 247.39517l0 0c0 15.6901245 -12.71933 28.409454 -28.409454 28.409454l0 0c-7.5346375 0 -14.760681 -2.9931335 -20.088501 -8.320923c-5.32782 -5.32782 -8.320923 -12.553879 -8.320923 -20.088531l0 0c0 -15.690094 12.71933 -28.40944 28.409424 -28.40944l0 0c15.6901245 0 28.409454 12.719345 28.409454 28.40944z" fill-rule="evenodd"/><path fill="#f1c232" d="m415.44916 338.74948l0 0c0 15.690094 -12.71933 28.409454 -28.409454 28.409454l0 0c-7.5346375 0 -14.760681 -2.9931335 -20.088501 -8.320953c-5.32782 -5.3277893 -8.320923 -12.553833 -8.320923 -20.088501l0 0c0 -15.690094 12.71933 -28.409454 28.409424 -28.409454l0 0c15.6901245 0 28.409454 12.71936 28.409454 28.409454z" fill-rule="evenodd"/><path fill="#2a7bbd" d="m283.67715 162.5748l24.0 0l0 95.653534l-24.0 0z" fill-rule="evenodd"/><path fill="#2a7bbd" d="m283.67715 238.0l112.59845 0l0 24.0l-112.59845 0z" fill-rule="evenodd"/><path fill="#cc0000" d="m375.03937 52.669292l24.0 0l0 105.41731l-24.0 0z" fill-rule="evenodd"/><path fill="#cc0000" d="m210.61154 52.669292l188.44095 0l0 23.999996l-188.44095 0z" fill-rule="evenodd"/><path fill="#9c4ea7" d="m100.96063 62.70341l24.0 0l0 105.41731l-24.0 0z" fill-rule="evenodd"/><path fill="#9c4ea7" d="m100.96063 144.03412l115.33858 0l0 24.0l-115.33858 0z" fill-rule="evenodd"/><path fill="#9c4ea7" d="m192.31496 144.59055l24.0 0l0 99.086624l-24.0 0z" fill-rule="evenodd"/><path fill="#f1c232" d="m100.96063 254.7664l24.0 0l0 95.65355l-24.0 0z" fill-rule="evenodd"/><path fill="#f1c232" d="m100.96063 326.42783l291.27557 0l0 24.0l-291.27557 0z" fill-rule="evenodd"/></g></svg>