<svg version="1.1" viewBox="0.0 0.0 500.0 500.0" fill="none" stroke="none" stroke-linecap="square" stroke-miterlimit="10" xmlns:xlink="http://www.w3.org/1999/xlink" xmlns="http://www.w3.org/2000/svg"><clipPath id="p.0"><path d="m0 0l500.0 0l0 500.0l-500.0 0l0 -500.0z" clip-rule="nonzero"/></clipPath><g clip-path="url(#p.0)"><path fill="#000000" fill-opacity="0.0" d="m0 0l500.0 0l0 500.0l-500.0 0z" fill-rule="evenodd"/><path fill="#38761d" d="m195.13434 391.02808l0 78.677155l137.29132 0l0 -78.677155z" fill-rule="evenodd"/><path fill="#000000" d="m306.3096 407.69492l-19.874023 0l0 19.874023l19.874023 0z" fill-rule="evenodd"/><path fill="#38761d" d="m27.648952 410.9151l43.59055 0l0 -191.46455l-43.59055 0z" fill-rule="evenodd"/><path fill="#38761d" d="m27.648294 452.18127l200.91338 0l0 -43.590576l-200.91338 0z" fill-rule="evenodd"/><path fill="#38761d" d="m27.648294 263.03345l424.063 0l0 -43.590546l-424.063 0z" fill-rule="evenodd"/><path fill="#38761d" d="m472.35104 263.03296l-43.590546 0l0 -191.46457l43.590546 0z" fill-rule="evenodd"/><path fill="#38761d" d="m451.71884 263.03345l-282.80316 0l0 -43.590546l282.80316 0z" fill-rule="evenodd"/><path fill="#38761d" d="m472.3517 73.88533l-324.063 0l0 -43.590546l324.063 0z" fill-rule="evenodd"/><path fill="#7eb565" d="m185.45201 10.735219l82.708664 0l0 82.70866l-82.708664 0z" fill-rule="evenodd"/><path fill="#f3f3f3" d="m239.12643 33.214546l-0.625 9.5625l-0.21875 0.0625q-2.40625 -3.609375 -8.203125 -4.6875q-1.828125 -0.359375 -3.5 -0.359375q-1.671875 0 -2.859375 0.296875q-1.1875 0.296875 -2.046875 0.84375q-1.78125 1.171875 -1.78125 3.0625q0 2.46875 1.5625 3.71875q1.953125 1.484375 6.46875 2.09375q4.53125 0.609375 7.265625 1.65625q2.734375 1.03125 4.484375 2.625q3.328125 3.0 3.328125 8.453125q0 7.171875 -5.40625 11.046875q-4.625 3.3125 -11.65625 3.3125q-5.65625 0 -11.1875 -2.140625q-1.828125 -0.71875 -3.1875 -1.671875l0.359375 -10.859375l0.125 -0.109375q4.03125 6.96875 13.25 6.96875q6.53125 0 8.65625 -3.15625q0.71875 -1.078125 0.71875 -2.390625q0 -1.3125 -0.4375 -2.171875q-0.421875 -0.875 -1.390625 -1.484375q-1.890625 -1.234375 -6.359375 -1.65625q-4.453125 -0.4375 -7.28125 -1.609375q-2.828125 -1.171875 -4.515625 -2.890625q-3.0625 -3.125 -3.0625 -8.71875q0 -5.796875 4.0625 -9.375q4.140625 -3.640623 11.140625 -3.640623q7.015625 0 12.296875 3.218748z" fill-rule="nonzero"/><path fill="#dabb5f" d="m332.42505 8.739332l82.70865 0l0 82.70866l-82.70865 0z" fill-rule="evenodd"/><path fill="#f3f3f3" d="m357.55432 72.09366q0.203125 -1.109375 0.203125 -2.40625l0 -40.875l6.5 0l17.25 27.140623l0 -24.937498q0 -1.78125 -0.328125 -2.203125l8.796875 0q-0.171875 1.296875 -0.171875 2.859375l0 40.421875l-6.765625 0l-16.984375 -26.0625l0 26.0625l-8.5 0z" fill-rule="nonzero"/><path fill="#7eb565" d="m409.20148 117.17653l82.70868 0l0 82.708664l-82.70868 0z" fill-rule="evenodd"/><path fill="#f3f3f3" d="m458.5593 137.07773q2.015625 0.171875 3.359375 0.171875l2.703125 0q1.359375 0 2.859375 -0.265625l0 26.921875q0 8.0 -4.84375 12.84375q-4.59375 4.59375 -11.53125 4.59375q-7.578125 0 -12.265625 -3.9375q-5.234375 -4.421875 -5.234375 -12.765625l0 -27.5625q2.6875 0.171875 5.078125 0.171875q2.40625 0 3.96875 -0.265625l0 28.09375q0 4.09375 2.5 6.375q2.34375 2.078125 5.859375 2.078125q5.203125 0 6.9375 -5.328125q0.609375 -1.921875 0.609375 -4.765625l0 -26.359375z" fill-rule="nonzero"/><path fill="#999999" d="m272.93805 199.88556l82.70865 0l0 82.70865l-82.70865 0z" fill-rule="evenodd"/><path fill="#f3f3f3" d="m314.47183 246.41176q-0.984375 0.0625 -2.09375 0.0625q-1.09375 0 -3.28125 -0.15625l0 16.92186l-8.625 0l0 -43.51561q4.5625 -0.578125 11.203125 -0.578125q9.046875 0 13.484375 3.34375q4.453125 3.328125 4.453125 10.28125q0 5.40625 -4.078125 9.25q-1.328125 1.234375 -3.0625 2.140625l6.640625 13.999985q1.953125 4.328125 3.0 5.140625l-0.15625 0.171875q-3.171875 -0.53125 -9.9375 0.03125l-7.546875 -17.093735zm-2.1875 -19.59375q-1.65625 0 -3.1875 0.171875l0 12.421875q1.59375 0.234375 3.734375 0.234375q2.15625 0 3.625 -0.375q1.46875 -0.375 2.546875 -1.15625q2.296875 -1.71875 2.296875 -5.171875q0 -3.453125 -2.40625 -4.859375q-2.234375 -1.265625 -6.609375 -1.265625z" fill-rule="nonzero"/><path fill="#dabb5f" d="m117.11317 199.88441l82.70867 0l0 82.708664l-82.70867 0z" fill-rule="evenodd"/><path fill="#f3f3f3" d="m152.41107 264.05124q-5.265625 0 -9.921875 -0.84375l0 -43.546875q4.296875 -0.515625 9.96875 -0.515625q5.6875 0 10.28125 1.546875q4.609375 1.53125 7.703125 4.40625q6.25 5.71875 6.25 16.046875q0 11.546875 -6.96875 17.53125q-6.25 5.375 -17.3125 5.375zm-1.46875 -7.9375q2.125 0.390625 4.234375 0.390625q2.125 0 4.5625 -0.828125q2.4375 -0.828125 4.234375 -2.59375q3.828125 -3.703125 3.828125 -10.796875q0 -11.65625 -8.484375 -14.328125q-2.796875 -0.875 -6.484375 -0.875l-0.875 0q-0.484375 0 -1.015625 0.03125l0 29.0z" fill-rule="nonzero"/><path fill="#7eb565" d="m8.089085 304.23502l82.708664 0l0 82.70865l-82.708664 0z" fill-rule="evenodd"/><path fill="#f3f3f3" d="m47.467075 367.58932q-4.78125 0 -6.34375 0.1875l0 -43.671875q0.78125 0.203125 3.234375 0.203125q2.46875 0 5.71875 -0.140625l0 35.609375l6.734375 0q2.9375 0 4.6875 -0.1875q-0.21875 7.609375 -0.21875 7.90625l0 0.328125q-3.1875 -0.234375 -10.71875 -0.234375l-3.09375 0z" fill-rule="nonzero"/><path fill="#7eb565" d="m386.00436 389.01212l82.70868 0l0 82.70865l-82.70868 0z" fill-rule="evenodd"/><path fill="#f3f3f3" d="m438.0371 444.55392q2.015625 0 2.796875 -0.390625l0.125 0.03125l-0.328125 8.171875l-24.375 0l0 -43.515625q0.890625 0.0625 1.953125 0.09375l2.28125 0.0625q2.28125 0.078125 4.953125 0.078125q7.453125 0 14.734375 -0.265625q-0.359375 2.859375 -0.359375 7.640625q0 0.53125 0.078125 0.78125l-0.078125 0.109375q-1.6875 -0.5 -4.8125 -0.5l-10.25 0l0 8.3125l7.71875 0q3.578125 0 4.296875 -0.203125l0.09375 8.046875q-1.5625 -0.171875 -4.03125 -0.171875l-8.078125 0l0 11.71875l13.28125 0z" fill-rule="nonzero"/></g></svg>