<svg version="1.1" viewBox="0.0 0.0 500.0 500.0" fill="none" stroke="none" stroke-linecap="square" stroke-miterlimit="10" xmlns:xlink="http://www.w3.org/1999/xlink" xmlns="http://www.w3.org/2000/svg"><clipPath id="p.0"><path d="m0 0l500.0 0l0 500.0l-500.0 0l0 -500.0z" clip-rule="nonzero"/></clipPath><g clip-path="url(#p.0)"><path fill="#000000" fill-opacity="0.0" d="m0 0l500.0 0l0 500.0l-500.0 0z" fill-rule="evenodd"/><path fill="#999999" d="m383.05557 67.62218l0 -43.84252l76.47244 0l0 43.84252z" fill-rule="evenodd"/><path fill="#434343" d="m428.17862 30.030819l11.086609 0l0 11.086613l-11.086609 0z" fill-rule="evenodd"/><path fill="#999999" d="m297.75104 56.543167l24.283447 0l0 106.645676l-24.283447 0z" fill-rule="evenodd"/><path fill="#999999" d="m297.75067 33.553806l103.93698 0l0 24.283463l-103.93698 0z" fill-rule="evenodd"/><path fill="#999999" d="m297.75067 138.92651l183.02362 0l0 24.283463l-183.02362 0z" fill-rule="evenodd"/><path fill="#999999" d="m480.7608 138.92526l-24.283478 0l0 106.645676l24.283478 0z" fill-rule="evenodd"/><path fill="#999999" d="m480.76117 244.30183l-216.189 0l0 24.283463l216.189 0z" fill-rule="evenodd"/><path fill="#999999" d="m116.941795 67.62218l0 -43.84252l-76.47244 0l0 43.84252z" fill-rule="evenodd"/><path fill="#434343" d="m71.818756 30.030819l-11.0866165 0l0 11.086613l11.0866165 0z" fill-rule="evenodd"/><path fill="#999999" d="m202.24635 56.543167l-24.283463 0l0 106.645676l24.283463 0z" fill-rule="evenodd"/><path fill="#999999" d="m202.24672 33.553806l-103.93701 0l0 24.283463l103.93701 0z" fill-rule="evenodd"/><path fill="#999999" d="m202.24672 138.92651l-183.02362 0l0 24.283463l183.02362 0z" fill-rule="evenodd"/><path fill="#999999" d="m19.236588 138.92526l24.283463 0l0 106.645676l-24.283463 0z" fill-rule="evenodd"/><path fill="#999999" d="m19.236221 244.30183l216.18898 0l0 24.283463l-216.18898 0z" fill-rule="evenodd"/><path fill="#434343" d="m125.30789 293.8666c1.3951645 0 2.092743 1.8752441 2.092743 5.6257324c0 3.2958984 -0.9352722 6.958557 -2.8058243 10.988037c-1.8705521 4.0294495 -4.6815414 7.6662903 -8.432976 10.910522c0.70274353 -5.1453247 1.5760117 -9.825684 2.6198044 -14.041107c1.0437851 -4.225769 2.154747 -7.526825 3.3328857 -9.903168c1.1781387 -2.3866882 2.2425919 -3.580017 3.193367 -3.580017zm82.19472 0c1.3951569 0 2.092743 1.8752441 2.092743 5.6257324c0 3.2958984 -0.9352722 6.958557 -2.805832 10.988037c-1.8705444 4.0294495 -4.681534 7.6662903 -8.432968 10.910522c0.70274353 -5.1453247 1.576004 -9.825684 2.6197968 -14.041107c1.0437927 -4.225769 2.1547546 -7.526825 3.3328857 -9.903168c1.1781311 -2.3866882 2.2425995 -3.580017 3.1933746 -3.580017zm74.10042 38.94626c1.1367798 0 2.0358887 0.36676025 2.6972961 1.1003418c0.6717529 0.7232361 1.0076294 1.68927 1.0076294 2.8981018c0 2.3453674 -1.079956 4.4065857 -3.2398682 6.1836853c-2.1495972 1.7770691 -5.1000977 3.1098938 -8.851532 3.9984436l0 -0.18597412c0 -3.8744812 0.8112488 -7.175537 2.4337769 -9.903168c1.6225281 -2.7276306 3.6067505 -4.0914307 5.9526978 -4.0914307zm-119.25218 -0.66641235l-3.5189056 17.512634c-0.56840515 2.7379456 -1.4881744 4.933502 -2.7593231 6.586609c-1.2711487 1.6427612 -2.6042938 2.4641724 -3.999466 2.4641724c-1.3951569 0 -2.4906158 -0.47528076 -3.286377 -1.4258118c-0.7957611 -0.950531 -1.193634 -2.412506 -1.193634 -4.3859253c0 -3.5541687 0.6665802 -6.9172363 1.9997253 -10.089142c1.3331604 -3.1719055 3.1262054 -5.723877 5.37912 -7.655945c2.2529297 -1.9424133 4.712555 -2.9446106 7.3788605 -3.0065918zm-34.46965 -47.423615c-3.6170883 0 -7.001648 1.7150879 -10.153679 5.145294c-3.1417007 3.4302063 -5.823509 8.033081 -8.045433 13.808655c-2.2219238 5.775543 -3.870285 12.155518 -4.945076 19.139923l-5.4256287 0c-2.8626633 0 -4.2939987 1.7770691 -4.2939987 5.3312683c0 1.5187988 0.33071136 2.629486 0.99211884 3.3320618c0.6717453 0.7025757 1.9583893 1.0538635 3.8599472 1.0538635l3.7204285 0c-0.1860199 2.851593 -0.27902985 5.6722107 -0.27902985 8.461853c0 18.225525 6.4745865 27.338318 19.423752 27.338318c4.1958237 0 7.9110794 -1.0797119 11.14579 -3.2390747c1.3622284 -0.9093628 2.6795502 -1.9259338 3.9519653 -3.0497131l0 0c0.40168762 0.7131958 0.859787 1.3836365 1.3743134 2.0113525c2.3562775 2.8516235 5.5031433 4.2774353 9.440598 4.2774353c5.0122375 0 9.166733 -2.6656494 12.46344 -7.9969482c0.8991089 2.4693604 2.2167664 4.4220886 3.9529572 5.8582153c1.7465363 1.4258118 3.6687622 2.138733 5.766678 2.138733c2.7283173 0 5.5548096 -1.1106873 8.479477 -3.3320618c2.9246674 -2.2213745 5.689163 -4.9541626 8.293457 -8.198395c0.067855835 -0.078948975 0.13378906 -0.159729 0.19778442 -0.24234009l0 0c2.9212494 7.8485107 8.630661 11.772797 17.12825 11.772797c4.195816 0 7.911087 -1.0797119 11.145798 -3.2390747c1.4960022 -0.99868774 2.937851 -2.126648 4.325531 -3.3838806l0 0c0.38931274 0.9543457 0.8675842 1.8446655 1.4347839 2.67099c1.808548 2.6346436 4.14415 3.9519653 7.0068207 3.9519653c2.4699554 0 4.784897 -1.157196 6.944809 -3.4715576c2.159912 -2.3246765 3.7772675 -5.646393 4.852066 -9.965149c0 4.256775 0.71307373 7.5629883 2.1392365 9.918671c1.4365082 2.345337 3.6790924 3.518036 6.727783 3.518036c3.999466 0 7.570038 -1.0797119 10.711731 -3.2390747c1.732605 -1.1908569 3.4023438 -2.5655518 5.009186 -4.124054l0 0c0.45855713 0.6648865 0.961792 1.2956848 1.5097351 1.8923645c3.3690796 3.6471558 8.102295 5.470764 14.199646 5.470764c3.9994812 0 7.440857 -0.7593994 10.324219 -2.2781982c2.8936462 -1.5291443 5.2292786 -3.6575012 7.0068054 -6.385132c1.0747681 -1.6531067 1.6121826 -3.6213684 1.6121826 -5.904724c0 -1.3328247 -0.23770142 -2.3815002 -0.71307373 -3.1460571c-0.47540283 -0.7645874 -1.1264648 -1.1468506 -1.9532471 -1.1468506c-0.95077515 0 -1.8033752 0.47525024 -2.5578003 1.4258118c-2.2218933 2.8619385 -4.1751404 4.897339 -5.85968 6.1061707c-1.6845093 1.1985168 -3.8289185 1.79776 -6.4332275 1.79776c-3.617096 0 -6.190399 -1.4568176 -7.7199097 -4.3704224c7.5545654 -1.8390808 12.902679 -4.329071 16.044373 -7.470001c3.1520386 -3.151245 4.728058 -6.9172363 4.728058 -11.297974c0 -3.7401428 -1.1109924 -6.705414 -3.3328857 -8.895782c-2.2219543 -2.1903687 -5.1776123 -3.285553 -8.867035 -3.285553c-4.123474 0 -7.823242 1.1106567 -11.099304 3.3320312c-3.265686 2.2213745 -5.818329 5.222809 -7.6578674 9.004303c-1.8395691 3.7711487 -2.7593384 7.847107 -2.7593384 12.227844c0 1.4316711 0.08898926 2.7954407 0.26693726 4.0913696l0 0c-1.2919922 1.4159546 -2.4119873 2.5473328 -3.3599548 3.394104c-1.746521 1.5498047 -3.255371 2.324707 -4.52652 2.324707c-0.82676697 0 -1.4933319 -0.33062744 -1.9997253 -0.9918823c-0.50639343 -0.6715698 -0.7595978 -1.6117859 -0.7595978 -2.8206177c0 -1.901062 0.8887787 -6.9172363 2.6663208 -15.048462c1.5811768 -7.108368 2.3717804 -11.452972 2.3717804 -13.033752c0 -0.96087646 -0.2842102 -1.6117859 -0.85261536 -1.9527283c-0.5683899 -0.35128784 -1.5863342 -0.5269165 -3.0538483 -0.5269165c-2.0875702 0 -3.658432 0.41326904 -4.7125397 1.2398071c-1.0437927 0.8265686 -1.8188934 2.1903687 -2.3252716 4.091461c-1.5295105 5.651581 -3.1055298 10.414581 -4.728058 14.2890625c-1.6121826 3.8641663 -3.1365356 6.751953 -4.5730286 8.66333c-1.4261627 1.9010925 -2.6146393 2.8516235 -3.5654144 2.8516235c-0.69241333 0 -1.1987915 -0.26861572 -1.5191803 -0.8058777c-0.32035828 -0.53726196 -0.48054504 -1.4723206 -0.48054504 -2.8051453c0 -2.2316895 0.63557434 -6.679596 1.906723 -13.343689c0.38237 -1.901062 0.8887634 -4.024292 1.519165 -6.369629c0.7027588 -2.9239502 1.0541229 -4.6390686 1.0541229 -5.1453247c0 -0.8885498 -0.26869202 -1.5549622 -0.8060913 -1.9992065c-0.53738403 -0.4442749 -1.5088348 -0.66641235 -2.9143372 -0.66641235c-2.4699554 0 -4.2785034 0.41326904 -5.4256287 1.2398071c-1.136795 0.8265686 -2.0255585 2.1903687 -2.6663055 4.091461c-1.4571686 4.442749 -2.506134 8.647827 -3.1468658 12.615295c-0.4542694 2.8589478 -0.74487305 5.924469 -0.87179565 9.196533l0 0c-1.8654175 1.9963074 -3.5414429 3.5801697 -5.0280457 4.751587c-2.0979156 1.6531067 -4.511032 2.4796753 -7.2393494 2.4796753c-3.369049 0 -5.833832 -1.3328247 -7.394348 -3.9984741c-1.5501862 -2.665619 -2.3252716 -7.2994995 -2.3252716 -13.901611c0 -1.7770996 0.06716919 -4.2516174 0.20152283 -7.4234924l11.61084 0c7.1825104 0 10.773758 -2.1903992 10.773758 -6.5711365c0 -1.2088318 -0.22735596 -2.0353699 -0.68208313 -2.4796448c-0.4443817 -0.4442749 -1.1729736 -0.66641235 -2.1857452 -0.66641235l-10.665237 0c8.257294 -7.3046875 12.385925 -15.8750305 12.385925 -25.71106c0 -3.5541687 -0.76474 -6.503937 -2.2942657 -8.849304c-1.519165 -2.3556824 -3.611908 -3.5335083 -6.2782288 -3.5335083c-3.6170807 0 -7.0016327 1.7150879 -10.153671 5.145294c-3.141693 3.4302063 -5.823517 8.033081 -8.045425 13.808655c-2.221939 5.775543 -3.870285 12.155518 -4.9450836 19.139923l-5.4256287 0c-2.862671 0 -4.293991 1.7770691 -4.293991 5.3312683c0 1.5187988 0.33070374 2.629486 0.9921112 3.3320618c0.6717377 0.7025757 1.9583893 1.0538635 3.8599396 1.0538635l3.7204437 0c-0.1860199 2.851593 -0.27903748 5.6722107 -0.27903748 8.461853c0 2.0470276 0.0816803 3.979126 0.2450409 5.7962646l0 0c-0.5679474 0.2041626 -1.0975189 0.59158325 -1.5887146 1.1622925c-2.9143372 3.4921875 -5.2292786 6.018341 -6.944809 7.5784607c-1.7155304 1.5498047 -3.1778717 2.324707 -4.3870087 2.324707c-0.76475525 0 -1.3848267 -0.28414917 -1.8602142 -0.8523865c-0.47538757 -0.57858276 -0.713089 -1.3431702 -0.713089 -2.2937012c0 -2.8516235 0.73376465 -7.9297485 2.2012634 -15.234436c0.95077515 -5.0109863 1.4261627 -8.182892 1.4261627 -9.515717c0 -2.2213745 -1.5553436 -3.3320618 -4.666046 -3.3320618c-1.4674988 0 -2.8678284 0.12399292 -4.200989 0.37194824c-0.31002808 -1.3948059 -0.70274353 -2.3608398 -1.1781311 -2.8981018c-0.47538757 -0.53726196 -1.4158325 -0.8058777 -2.8213196 -0.8058777c-4.381851 0 -8.526001 1.379303 -12.432449 4.1379395c-3.8961182 2.758606 -7.0223083 6.4109497 -9.378586 10.957001c-2.2192383 4.2907715 -3.3887787 8.821899 -3.5086365 13.593445l0 0c-1.3512268 1.3697815 -2.592682 2.5005188 -3.7243652 3.392273c-2.0979004 1.6531067 -4.511017 2.4796753 -7.239334 2.4796753c-3.3690567 0 -5.833847 -1.3328247 -7.3943634 -3.9984741c-1.5501785 -2.665619 -2.325264 -7.2994995 -2.325264 -13.901611c0 -1.7770996 0.06716919 -4.2516174 0.20152283 -7.4234924l11.610847 0c7.182495 0 10.773743 -2.1903992 10.773743 -6.5711365c0 -1.2088318 -0.22735596 -2.0353699 -0.6820679 -2.4796448c-0.44439697 -0.4442749 -1.1729736 -0.66641235 -2.1857605 -0.66641235l-10.665237 0c8.257294 -7.3046875 12.385941 -15.8750305 12.385941 -25.71106c0 -3.5541687 -0.76475525 -6.503937 -2.2942657 -8.849304c-1.5191803 -2.3556824 -3.6119232 -3.5335083 -6.2782288 -3.5335083zm-57.532593 2.2937012c-6.22139 0 -11.636692 0.98669434 -16.245888 2.960083c-4.5988617 1.9630737 -8.12294 4.72171 -10.572224 8.275879c-2.4389534 3.5541992 -3.6584244 7.6146545 -3.6584244 12.181366c0 4.3807373 1.0954552 8.048584 3.2863808 11.0035095c2.1909218 2.9446106 4.826229 5.274475 7.9059143 6.989563c3.079689 1.7151184 7.063652 3.5283508 11.951889 5.4397583c3.8134384 1.5187988 6.763954 2.8051453 8.851524 3.8589783c2.0979156 1.0435486 3.8444443 2.3453674 5.239609 3.905487c1.4054947 1.5498047 2.1082458 3.404358 2.1082458 5.563751c0 3.4921875 -1.5243454 6.2043457 -4.5730286 8.136414c-3.0486908 1.9320679 -7.2703476 2.8981018 -12.66497 2.8981018c-5.2086067 0 -9.259747 -0.6974182 -12.153412 -2.0922241c-2.883335 -1.3948059 -4.325001 -3.518036 -4.325001 -6.369629c0 -0.7025757 0.046504974 -1.368988 0.13951492 -1.9992371c0.09300995 -0.6405945 0.13951874 -1.0848694 0.13951874 -1.3328247c0.1860199 -0.96087646 0.27902985 -2.0715637 0.27902985 -3.3320618c0 -1.4051208 -0.53739166 -2.5519714 -1.6121864 -3.4405212c-1.0747948 -0.8885498 -2.4699554 -1.3328247 -4.185486 -1.3328247c-2.3562737 0 -4.138981 0.92471313 -5.3481216 2.7741394c-1.1987991 1.8390808 -1.7982063 4.5046997 -1.7982063 7.9969177c0 6.602112 2.5371323 11.504608 7.6113815 14.70752c5.084591 3.2028809 11.848545 4.804352 20.291855 4.804352c9.528435 0 17.129486 -2.01474 22.803146 -6.0441895c5.6839905 -4.0294495 8.525986 -9.78952 8.525986 -17.280182c0 -3.9984436 -1.0334473 -7.361511 -3.100357 -10.089142c-2.056572 -2.7379456 -4.547188 -4.897339 -7.4718704 -6.478119c-2.9143372 -1.5911255 -6.7846146 -3.368225 -11.610847 -5.3312683c-3.9994583 -1.5911255 -7.110153 -2.954956 -9.332077 -4.091461c-2.2219276 -1.1468506 -4.0821457 -2.5778198 -5.5806503 -4.2929077c-1.4881706 -1.7151184 -2.2322578 -3.7763367 -2.2322578 -6.1836853c0 -3.6161804 1.4416656 -6.4264526 4.325001 -8.430847c2.8936691 -2.0043945 7.068817 -3.0065918 12.525452 -3.0065918c3.8754501 0 7.115326 0.70254517 9.719627 2.1076965c2.6043015 1.3948059 3.906456 3.4250488 3.906456 6.0906982c0 0.5062561 -0.09300995 1.7099304 -0.27902985 3.6109924c-0.19635773 1.0228577 -0.2945404 2.133545 -0.2945404 3.3320618c0 1.4051514 0.5528946 2.6139832 1.658699 3.6264954c1.116127 1.0125427 2.5009537 1.5187988 4.15448 1.5187988c2.3459396 0 4.123474 -1.0125122 5.3326187 -3.0375977c1.209137 -2.0353699 1.8137054 -5.052307 1.8137054 -9.050751c0 -4.0604553 -1.1626282 -7.485504 -3.4878998 -10.275116c-2.3149414 -2.7999573 -5.4101257 -4.8818665 -9.285576 -6.2456665c-3.86512 -1.3638306 -8.117783 -2.0457153 -12.75798 -2.0457153z" fill-rule="evenodd"/><path fill="#38761d" d="m389.14594 357.60162c0.5683899 0 1.0592651 0.66641235 1.4726562 1.9992371c0.4133911 1.3327942 0.62008667 3.2028809 0.62008667 5.6102295c0 9.402069 -3.5550842 21.846893 -10.665253 37.334473c0.38238525 -7.552643 1.0024414 -14.790161 1.8602295 -21.712585c0.85775757 -6.922394 1.8860474 -12.522308 3.0848389 -16.799713c1.209137 -4.287781 2.4183044 -6.4316406 3.6274414 -6.4316406zm24.665802 45.129913c1.1368103 0 2.0359192 0.36679077 2.6973267 1.1003418c0.6717224 0.7232361 1.0075989 1.68927 1.0075989 2.8981018c0 2.3453674 -1.079956 4.4065857 -3.2398682 6.1836853c-2.1495972 1.7770996 -5.1000977 3.1098938 -8.851532 3.9984436l0 -0.18597412c0 -3.8744507 0.8112793 -7.1755066 2.4337769 -9.903137c1.6225281 -2.7276611 3.6067505 -4.091461 5.9526978 -4.091461zm-130.20511 -0.66641235l-3.518921 17.512634c-0.5683899 2.737976 -1.4881592 4.933502 -2.7593079 6.586609c-1.2711487 1.6427917 -2.604309 2.4641724 -3.9994507 2.4641724c-1.3951721 0 -2.490631 -0.47525024 -3.2864075 -1.4258118c-0.79574585 -0.950531 -1.193634 -2.412506 -1.193634 -4.385895c0 -3.5541992 0.66659546 -6.9172363 1.9997253 -10.089142c1.3331604 -3.1719055 3.1262207 -5.7239075 5.3791504 -7.6559753c2.2528992 -1.9424133 4.7125244 -2.9446106 7.378845 -3.0065918zm85.52649 0.66641235c-0.12402344 3.4302063 -0.18603516 5.9046936 -0.18603516 7.4234924c0 4.256775 0.32037354 8.10025 0.9611206 11.530457c-1.849884 2.665619 -3.3793945 4.4892273 -4.5885315 5.470764c-1.198822 0.98153687 -2.4028015 1.47229 -3.6119385 1.47229c-3.172699 0 -4.759033 -2.3143616 -4.759033 -6.943054c0 -4.3807373 1.1574707 -8.3637085 3.4723816 -11.948883c2.3252869 -3.59552 5.2292786 -5.930542 8.712036 -7.005066zm-137.4318 45.424377c-1.7155304 8.3172 -3.5602417 14.345886 -5.534149 18.08606c-1.9635468 3.7504883 -3.7669373 5.6257324 -5.4101257 5.6257324c-1.7775269 0 -2.6663055 -1.2398376 -2.6663055 -3.7194824c0 -2.5416565 1.0592957 -5.4811096 3.1778717 -8.818329c2.1289062 -3.3268738 5.606491 -7.051544 10.432709 -11.173981zm158.48322 -99.88403c-5.5186462 0 -9.977997 4.3652344 -13.378052 13.095734c-3.400055 8.720154 -5.6994934 19.238068 -6.898285 31.553741c-4.7022095 0.5062561 -8.94455 2.1438904 -12.72699 4.912842c-3.7720947 2.7586365 -6.738098 6.312805 -8.898041 10.662567c-0.60336304 1.2150879 -1.122467 2.4584045 -1.5572815 3.72995l0 0c-1.4012146 0.97454834 -2.6261597 1.461853 -3.6748352 1.461853c-1.5915222 0 -2.3872986 -1.1106873 -2.3872986 -3.3320618c0 -0.64056396 0.25320435 -2.2316895 0.7595825 -4.773346c0.5684204 -3.1719055 0.8526001 -5.1711426 0.8526001 -5.997711c0 -4.1224365 -2.061737 -6.183655 -6.185211 -6.183655c-2.0979004 0 -4.4024963 0.733551 -6.913788 2.200714c-2.5009766 1.4567871 -5.053589 3.900299 -7.657898 7.3305054c-2.604309 3.4198608 -4.955414 7.857422 -7.053314 13.312714c0.25836182 -2.7896423 0.57873535 -5.1349792 0.9611206 -7.036072c0.38235474 -1.9114075 0.8887634 -4.132782 1.519165 -6.664093c0.95077515 -3.5541992 1.426178 -5.8427124 1.426178 -6.86557c0 -0.8885498 -0.25320435 -1.487793 -0.75961304 -1.79776c-0.5063782 -0.32028198 -1.3951416 -0.48043823 -2.6662903 -0.48043823c-2.3459473 0 -4.169983 0.42877197 -5.4721375 1.2863159c-1.3021545 0.85754395 -2.2374268 2.2058716 -2.8058167 4.0449524c-2.1914673 6.909088 -3.363861 14.175629 -3.5171204 21.799652l0 0c-1.8747253 2.147705 -3.4341736 3.7872925 -4.6783752 4.918762c-1.7155151 1.5497742 -3.1778564 2.3246765 -4.3869934 2.3246765c-0.7647705 0 -1.3848267 -0.28411865 -1.8602295 -0.8523865c-0.4753723 -0.57858276 -0.71307373 -1.3431396 -0.71307373 -2.2936707c0 -2.8516235 0.73376465 -7.929779 2.2012634 -15.234467c0.95077515 -5.0109863 1.4261475 -8.182892 1.4261475 -9.515717c0 -2.2213745 -1.5553284 -3.3320312 -4.666046 -3.3320312c-1.4674988 0 -2.8678284 0.1239624 -4.2009583 0.37194824c-0.3100586 -1.3948364 -0.7027588 -2.3608704 -1.1781616 -2.8981323c-0.4753723 -0.53726196 -1.4158325 -0.8058777 -2.8213196 -0.8058777c-4.381836 0 -8.52597 1.379303 -12.432434 4.1379395c-3.8961182 2.7586365 -7.0223083 6.41098 -9.378601 10.957031c-1.8452148 3.5675964 -2.9647217 7.3013916 -3.3585815 11.2013855l0 0c-3.3759003 2.3296814 -7.0171814 4.9552 -10.923843 7.876526l1.0541229 -7.2375183c1.0747833 -7.170349 1.7103577 -11.773254 1.9067078 -13.808624c0.18603516 -1.704773 -0.18084717 -3.0169373 -1.1006165 -3.936493c-0.91978455 -0.9298706 -2.07724 -1.3948059 -3.472412 -1.3948059l-17.811554 0c-1.5915222 0 -2.862671 0.5114441 -3.813446 1.5343018c-0.9507904 1.0125122 -1.4261627 2.4073486 -1.4261627 4.1844177c0 1.9734192 0.4753723 3.3888855 1.4261627 4.2464294c0.95077515 0.847229 2.3149414 1.2708435 4.0924683 1.2708435l9.719635 0l-1.3331604 11.623444c-4.764221 1.9630432 -9.33725 2.94458 -13.719086 2.94458c-7.8749237 0 -13.894791 -2.0767212 -18.0596 -6.2301636c-4.15448 -4.153412 -6.23172 -10.042633 -6.23172 -17.667603c0 -7.4286804 1.2039795 -13.793152 3.6119232 -19.093414c2.418274 -5.300293 5.6116486 -9.283264 9.580109 -11.948914c3.96846 -2.665619 8.272781 -3.9984436 12.912994 -3.9984436c3.8031158 0 6.51593 0.733551 8.138443 2.2006836c1.6225281 1.4568176 2.4337769 3.518036 2.4337769 6.1836853c0 1.0125122 -0.19117737 2.4073486 -0.5735626 4.1844177c-0.25836182 1.5291443 -0.38754272 2.6088257 -0.38754272 3.2390747c0 1.4671326 0.52189636 2.6139832 1.5656891 3.4405518c1.0541229 0.81622314 2.4389496 1.2243347 4.15448 1.2243347c2.5422974 0 4.495514 -1.1261902 5.85968 -3.3785706c1.364151 -2.2523499 2.0462341 -5.248596 2.0462341 -8.98877c0 -5.713562 -1.8602142 -10.300964 -5.5806427 -13.762146c-3.7101135 -3.4612122 -9.280426 -5.191803 -16.710938 -5.191803c-7.74057 0 -14.742218 1.9837341 -21.004944 5.9512024c-6.2523804 3.9674683 -11.156113 9.557037 -14.711212 16.768738c-3.555069 7.201355 -5.332611 15.497894 -5.332611 24.889648c0 6.726074 1.4933319 12.630798 4.480011 17.714111c2.9866943 5.0729675 7.1773376 8.9939575 12.57196 11.762909c5.394638 2.7586365 11.647018 4.1379395 18.757187 4.1379395c4.8262177 0 9.750626 -1.0486755 14.773209 -3.1460876l0 0l-0.2945404 1.8132629c-6.6657715 5.1349792 -11.822693 9.701691 -15.470795 13.700165c-3.6480865 4.008789 -6.1387024 7.5319824 -7.471863 10.56958c-1.3331604 3.0479126 -1.9997253 6.0648193 -1.9997253 9.050781c0 3.2338867 1.0127869 5.8530273 3.0383453 7.857422c2.035904 2.0043945 4.671219 3.0065918 7.9059143 3.0065918c6.03537 0 11.02179 -3.7814636 14.959244 -11.344452c3.9374542 -7.5526733 7.141159 -17.900085 9.6111145 -31.042328c5.5930786 -3.850006 10.148834 -6.9637146 13.667267 -9.341156l0 0c0.5840454 1.7272949 1.4246826 3.2602234 2.521881 4.5987854c2.3562927 2.8516235 5.5031433 4.2774353 9.440613 4.2774353c5.0122375 0 9.166718 -2.6656494 12.46344 -7.9969177c0.8991089 2.4693298 2.2167664 4.422058 3.952942 5.8582153c1.7465515 1.4258118 3.6687622 2.1387024 5.766693 2.1387024c2.728302 0 5.5548096 -1.1106873 8.479462 -3.3320618c1.1443176 -0.8691101 2.2640686 -1.8165283 3.3593445 -2.8422241l0 0c0.1921997 0.8956299 0.41940308 1.6828918 0.6816406 2.361786c0.99212646 2.5416565 2.6921692 3.8125 5.1000977 3.8125c1.9739075 0 3.4207458 -0.52175903 4.340515 -1.5652771c0.9197693 -1.0538635 1.7258606 -3.073761 2.418274 -6.0596924c0.9611206 -3.8744812 2.2012634 -7.552643 3.7204285 -11.034515c1.5191956 -3.4921875 3.0538635 -6.30249 4.6040344 -8.430878c1.5605164 -2.128357 2.8213196 -3.192566 3.7824402 -3.192566c0.69241333 0 1.0386353 0.5062866 1.0386353 1.5187988c0 0.4442749 -0.06201172 1.3018188 -0.18603516 2.5726624c-0.18600464 0.950531 -0.27902222 1.9010925 -0.27902222 2.8516235c0 2.9239197 0.868103 5.2434387 2.604309 6.958557c1.746521 1.7150879 4.3043213 2.5726624 7.6733704 2.5726624c1.9548645 0 3.8319397 -0.34988403 5.6312256 -1.0496826l0 0c0.13098145 4.2903748 1.3776245 7.8018494 3.7398987 10.534393c2.5112915 2.8825989 5.7046814 4.3239136 9.580109 4.3239136c2.6663208 0 4.996765 -0.5682678 6.991333 -1.704773c2.0048828 -1.1468506 4.3404846 -3.404358 7.0068054 -6.772583c2.5422974 5.651581 6.2265625 8.477356 11.052765 8.477356c3.048706 0 6.1283875 -1.1261902 9.239075 -3.37854c1.719635 -1.2508545 3.3618774 -2.640625 4.926758 -4.169342l0 0c0.54992676 0.75231934 1.161438 1.4601746 1.8344727 2.1236267c3.6791077 3.6161804 8.85672 5.4242554 15.532806 5.4242554c4.8882446 0 9.471619 -1.2036743 13.750092 -3.611023c1.8091736 -1.0198364 3.445465 -2.0792236 4.908905 -3.1781006l0 0c0.21594238 1.1542358 0.48425293 2.1464539 0.80493164 2.9766235c0.99212646 2.5416565 2.6921387 3.8125 5.1000977 3.8125c1.973877 0 3.4207153 -0.52175903 4.3404846 -1.5652771c0.9197998 -1.0538635 1.7258911 -3.073761 2.4183044 -6.0596924c0.9610901 -3.8744812 2.2167358 -7.552643 3.7669373 -11.034515c1.5604858 -3.4921875 3.0848389 -6.30249 4.5730286 -8.430878c1.4881592 -2.128357 2.64563 -3.192566 3.4723816 -3.192566c0.7027588 0 1.0541382 0.5062866 1.0541382 1.5187988c0 1.3948059 -0.38238525 4.6338806 -1.1471558 9.717194c-0.8887634 5.837555 -1.3331299 10.027161 -1.3331299 12.568817c0 2.1593628 0.4753723 3.7814941 1.4261475 4.866333c0.95077515 1.0745239 2.4751282 1.6117859 4.5730286 1.6117859c2.2219238 0 3.8237915 -0.52175903 4.8055725 -1.5652771c0.99209595 -1.0538635 1.4881592 -2.7896423 1.4881592 -5.207306c0 -4.2464294 0.18603516 -8.10025 0.55807495 -11.561432c0.38238525 -3.4612122 0.8939514 -7.129059 1.534668 -11.00354c0.69241333 -4.5667114 1.0386353 -7.6766357 1.0386353 -9.329742c0 -2.025055 -0.5219116 -3.5593567 -1.5656738 -4.6028748c-1.0437927 -1.0538635 -2.5836487 -1.58078 -4.6195374 -1.58078c-2.097931 0 -4.402527 0.733551 -6.9138184 2.200714c-2.500946 1.4567871 -5.053589 3.900299 -7.657898 7.3305054c-2.6042786 3.4198608 -4.9553833 7.857422 -7.053314 13.312714c0.25836182 -2.7896423 0.57873535 -5.1349792 0.9611206 -7.036072c0.38238525 -1.9114075 0.8887634 -4.132782 1.519165 -6.664093c0.95080566 -3.5541992 1.426178 -5.8427124 1.426178 -6.86557c0 -0.8885498 -0.25320435 -1.487793 -0.7595825 -1.79776c-0.5064087 -0.32028198 -1.3951721 -0.48043823 -2.6663208 -0.48043823c-2.3459473 0 -4.169983 0.42877197 -5.4721375 1.2863159c-1.3021545 0.85754395 -2.2374268 2.2058716 -2.8058167 4.0449524c-2.1744385 6.855377 -3.3455505 14.062683 -3.5133667 21.621948l0 0c-2.1406555 2.1197205 -4.5431824 3.9115295 -7.20755 5.3754272c-3.6480713 1.9940491 -6.9034424 2.9910889 -9.766113 2.9910889c-4.4438477 0 -7.4615173 -1.4567871 -9.05307 -4.3704224c7.4925537 -1.8390808 12.809662 -4.329071 15.951355 -7.4699707c3.1520386 -3.151245 4.728058 -6.9172363 4.728058 -11.297974c0 -3.7401733 -1.1109619 -6.7054443 -3.3328857 -8.895813c-2.2219238 -2.1903687 -5.1776123 -3.285553 -8.867035 -3.285553c-4.123474 0 -7.823242 1.1106873 -11.099274 3.3320618c-3.2657166 2.221344 -5.8183594 5.2227783 -7.657898 9.004272c-1.8395386 3.7711487 -2.7593079 7.847107 -2.7593079 12.227844c0 1.4159851 0.093444824 2.7644653 0.280365 4.045532l0 0c-1.3608398 1.4747009 -2.5350952 2.6368713 -3.522705 3.4864502c-1.7775269 1.5187988 -3.5240784 2.2781982 -5.2395935 2.2781982c-1.3331604 0 -2.4286194 -0.79037476 -3.2864075 -2.3711853c-0.85775757 -1.591095 -1.4106445 -4.2309265 -1.6586914 -7.9194336c5.83902 -10.021973 10.505066 -19.79599 13.998138 -29.322021c3.4930725 -9.526062 5.2395935 -17.843292 5.2395935 -24.95166c0 -5.0109863 -0.9094238 -8.75116 -2.728302 -11.2204895c-1.8085327 -2.4796448 -4.0769653 -3.7194824 -6.805298 -3.7194824z" fill-rule="evenodd"/></g></svg>