<svg version="1.1" viewBox="0.0 0.0 500.0 500.0" fill="none" stroke="none" stroke-linecap="square" stroke-miterlimit="10" xmlns:xlink="http://www.w3.org/1999/xlink" xmlns="http://www.w3.org/2000/svg"><clipPath id="p.0"><path d="m0 0l500.0 0l0 500.0l-500.0 0l0 -500.0z" clip-rule="nonzero"/></clipPath><g clip-path="url(#p.0)"><path fill="#000000" fill-opacity="0.0" d="m0 0l500.0 0l0 500.0l-500.0 0z" fill-rule="evenodd"/><path fill="#cc0000" d="m461.84265 39.91803l0 0c0 -5.7138557 -4.6319885 -10.345852 -10.345856 -10.345852l-112.631134 0c-2.743866 0 -5.3753967 1.0900078 -7.315613 3.0302315c-1.9402161 1.9402237 -3.030243 4.5717316 -3.030243 7.3156204l0 194.11145c0 5.713852 4.632019 10.345856 10.345856 10.345856l112.631134 0c5.713867 0 10.345856 -4.632004 10.345856 -10.345856z" fill-rule="evenodd"/><path fill="#cc0000" d="m316.66156 39.91803l0 0c0 -5.7138557 -4.632019 -10.345852 -10.345856 -10.345852l-112.631134 0c-2.7438965 0 -5.3753967 1.0900078 -7.315628 3.0302315c-1.9402161 1.9402237 -3.0302277 4.5717316 -3.0302277 7.3156204l0 194.11145c0 5.713852 4.632004 10.345856 10.345856 10.345856l112.631134 0c5.7138367 0 10.345856 -4.632004 10.345856 -10.345856z" fill-rule="evenodd"/><path fill="#cc0000" d="m171.48045 39.91803l0 0c0 -5.7138557 -4.632004 -10.345852 -10.345856 -10.345852l-112.631134 0c-2.7438927 0 -5.3754005 1.0900078 -7.315624 3.0302315c-1.9402237 1.9402237 -3.0302277 4.5717316 -3.0302277 7.3156204l0 194.11145c0 5.713852 4.631996 10.345856 10.345852 10.345856l112.631134 0c5.713852 0 10.345856 -4.632004 10.345856 -10.345856z" fill-rule="evenodd"/><path fill="#cc0000" d="m461.84265 265.97052l0 0c0 -5.713867 -4.6319885 -10.345856 -10.345856 -10.345856l-112.631134 0c-2.743866 0 -5.3753967 1.0900269 -7.315613 3.030243c-1.9402161 1.9402161 -3.030243 4.5717163 -3.030243 7.315613l0 194.11145c0 5.713867 4.632019 10.345856 10.345856 10.345856l112.631134 0c5.713867 0 10.345856 -4.6319885 10.345856 -10.345856z" fill-rule="evenodd"/><path fill="#cc0000" d="m316.66156 265.97052l0 0c0 -5.713867 -4.632019 -10.345856 -10.345856 -10.345856l-112.631134 0c-2.7438965 0 -5.3753967 1.0900269 -7.315628 3.030243c-1.9402161 1.9402161 -3.0302277 4.5717163 -3.0302277 7.315613l0 194.11145c0 5.713867 4.632004 10.345856 10.345856 10.345856l112.631134 0c5.7138367 0 10.345856 -4.6319885 10.345856 -10.345856z" fill-rule="evenodd"/><path fill="#cc0000" d="m171.48045 265.97052l0 0c0 -5.713867 -4.632004 -10.345856 -10.345856 -10.345856l-112.631134 0c-2.7438927 0 -5.3754005 1.0900269 -7.315624 3.030243c-1.9402237 1.9402161 -3.0302277 4.5717163 -3.0302277 7.315613l0 194.11145c0 5.713867 4.631996 10.345856 10.345852 10.345856l112.631134 0c5.713852 0 10.345856 -4.6319885 10.345856 -10.345856z" fill-rule="evenodd"/><path fill="#cccccc" d="m455.2075 43.41782l0 0c0 -4.128639 -3.3469238 -7.475563 -7.4755554 -7.475563l-105.08038 0c-1.9826355 0 -3.8840942 0.7876015 -5.2860107 2.1895409c-1.401947 1.4019394 -2.1895447 3.303379 -2.1895447 5.286022l0 187.12762c0 4.1286316 3.3469238 7.4755554 7.4755554 7.4755554l105.08038 0l0 0c4.1286316 0 7.4755554 -3.3469238 7.4755554 -7.4755554z" fill-rule="evenodd"/><path fill="#cccccc" d="m164.83478 269.46243l0 0c0 -4.1286316 -3.3469238 -7.4755554 -7.4755554 -7.4755554l-105.080376 0c-1.9826431 0 -3.8840828 0.78759766 -5.286022 2.1895447c-1.4019394 1.401947 -2.1895409 3.3033752 -2.1895409 5.2860107l0 187.12762c0 4.1286316 3.3469238 7.4755554 7.475563 7.4755554l105.080376 0l0 0c4.1286316 0 7.4755554 -3.3469238 7.4755554 -7.4755554z" fill-rule="evenodd"/><path fill="#000000" d="m32.895233 96.83243l0 16.072212l24.136097 0l0 64.23284l16.016064 0l0 -64.23284l24.080093 0l0 -16.072212z" fill-rule="evenodd"/><path fill="#000000" d="m137.78365 112.90464c2.2026825 0 4.2746887 0.4231186 6.216034 1.2693481c1.94133 0.83379364 3.6400146 1.9786911 5.0960083 3.4347153c1.4560089 1.4560165 2.6009064 3.1671524 3.4346924 5.1334c0.8462219 1.953804 1.2693329 4.032051 1.2693329 6.234749c0 2.2026978 -0.42311096 4.2871704 -1.2693329 6.253418c-0.833786 1.9537964 -1.9786835 3.6587067 -3.4346924 5.114731c-1.4559937 1.4560242 -3.1546783 2.6071472 -5.0960083 3.4533691c-1.9413452 0.833786 -4.0133514 1.2506866 -6.216034 1.2506866l-16.07206 0l0 -32.144417zm-32.14412 -16.072212l0 80.30505l16.07206 0l0 -16.072205l17.976067 -0.11201477l7.0000305 16.18422l17.080063 0l-8.904022 -21.000275c2.3146667 -1.4560242 4.4053497 -3.1733704 6.2720184 -5.152069c1.8666687 -1.9786987 3.4409027 -4.144058 4.722687 -6.4960785c1.29422 -2.3520355 2.2835693 -4.834732 2.9680176 -7.448105c0.69688416 -2.6133728 1.0453339 -5.301407 1.0453339 -8.064102c0 -2.9493713 -0.38578796 -5.786743 -1.1573334 -8.5121155c-0.75912476 -2.7253647 -1.8417969 -5.2827377 -3.2480164 -7.6720963c-1.3937836 -2.3893661 -3.0737915 -4.560951 -5.040024 -6.5147552c-1.9537811 -1.9662476 -4.1191254 -3.6462708 -6.4960327 -5.0400696c-2.364441 -1.4062347 -4.9093475 -2.488922 -7.6346893 -3.2480392c-2.7253418 -0.7715683 -5.562683 -1.1573486 -8.512039 -1.1573486z" fill-rule="evenodd"/><path fill="#000000" d="m211.59195 112.90464c2.2026672 0 4.280899 0.4231186 6.23468 1.2693481c1.9662323 0.83379364 3.677353 1.9786911 5.133362 3.4347153c1.4560089 1.4560165 2.600891 3.1671524 3.4346771 5.1334c0.8462219 1.953804 1.2693329 4.032051 1.2693329 6.234749l0 16.072205l-32.14412 0l0 -16.072205c0 -2.2026978 0.41688538 -4.280945 1.2506714 -6.234749c0.8462219 -1.9662476 1.997345 -3.6773834 3.4533386 -5.1334c1.4560089 -1.4560242 3.160904 -2.6009216 5.114685 -3.4347153c1.9662323 -0.84622955 4.0506897 -1.2693481 6.253372 -1.2693481zm0 -16.072212c-4.442688 0 -8.617813 0.8400116 -12.525391 2.5200348c-3.8951263 1.6800232 -7.292465 3.9760513 -10.192032 6.888092c-2.8871307 2.912033 -5.1707 6.3218613 -6.850708 10.229462c-1.6799927 3.8951645 -2.5200043 8.06411 -2.5200043 12.506836l0 48.16063l16.016068 0l0 -16.072205l32.14412 0l0 16.072205l16.072067 0l0 -48.16063c0 -4.442726 -0.83999634 -8.611671 -2.5200043 -12.506836c-1.6800079 -3.9076004 -3.9760132 -7.3174286 -6.888031 -10.229462c-2.9120178 -2.9120407 -6.321808 -5.208069 -10.22937 -6.888092c-3.8951263 -1.6800232 -8.064041 -2.5200348 -12.506714 -2.5200348z" fill-rule="evenodd"/><path fill="#000000" d="m289.82425 112.90464c2.2026672 0 4.2746887 0.4231186 6.216034 1.2693481c1.9413452 0.83379364 3.6400146 1.9786911 5.0960083 3.4347153c1.4560242 1.4560165 2.6009216 3.1671524 3.4346924 5.1334c0.8462219 1.953804 1.2693481 4.032051 1.2693481 6.234749c0 2.2026978 -0.42312622 4.2871704 -1.2693481 6.253418c-0.83377075 1.9537964 -1.9786682 3.6587067 -3.4346924 5.114731c-1.4559937 1.4560242 -3.154663 2.6071472 -5.0960083 3.4533691c-1.9413452 0.833786 -4.0133667 1.2506866 -6.216034 1.2506866l-16.072052 0l0 -32.144417zm-32.144135 -16.072212l0 80.30505l16.072083 0l0 -16.072205l16.072052 0c4.405365 0 8.555603 -0.8400116 12.450714 -2.5200348c3.9075928 -1.6800232 7.317383 -3.976059 10.22937 -6.888092c2.9120178 -2.9120483 5.2080383 -6.3156433 6.888031 -10.2108c1.6800232 -3.907608 2.5200195 -8.064102 2.5200195 -12.469498c0 -2.9493713 -0.3857727 -5.786743 -1.1573486 -8.5121155c-0.75909424 -2.7253647 -1.8417664 -5.2827377 -3.2480164 -7.6720963c-1.3937683 -2.3893661 -3.073761 -4.560951 -5.0400085 -6.5147552c-1.9537964 -1.9662476 -4.11911 -3.6462708 -6.4960327 -5.0400696c-2.364441 -1.4062347 -4.9093323 -2.488922 -7.6347046 -3.2480392c-2.7253418 -0.7715683 -5.562683 -1.1573486 -8.512024 -1.1573486z" fill-rule="evenodd"/><path fill="#000000" d="m217.63657 321.4513c-3.808014 0 -7.479141 0.49780273 -11.013367 1.4933472c-3.5217896 0.9831238 -6.8258057 2.3831482 -9.912048 4.2000732c-3.0737915 1.8044739 -5.88002 3.9760437 -8.418701 6.51474c-2.5386658 2.5386963 -4.716461 5.3511963 -6.5333557 8.437439c-1.8044434 3.073822 -3.2044525 6.384094 -4.200012 9.930817c-0.9831238 3.546692 -1.4746704 7.2240906 -1.4746704 11.032135c0 3.8080444 0.49154663 7.4792175 1.4746704 11.013489c0.9955597 3.52182 2.3955688 6.8258667 4.200012 9.912109c1.8168945 3.073822 3.99469 5.8800964 6.5333557 8.418793c2.538681 2.5386963 5.3449097 4.7164917 8.418701 6.5334167c3.0862427 1.8044739 6.390259 3.1982727 9.912048 4.1813965c3.5342255 0.99557495 7.205353 1.4933472 11.013367 1.4933472c4.9653625 0 9.762711 -0.8586731 14.392059 -2.5760498c4.6293488 -1.7173462 8.810699 -4.181366 12.544052 -7.39209l-8.512039 -14.000183c-2.352005 2.5386963 -5.1333466 4.4924927 -8.344025 5.8614197c-3.210678 1.3564453 -6.570694 2.0346985 -10.080048 2.0346985c-3.5466766 0 -6.8693542 -0.6720276 -9.968033 -2.0160217c-3.0986786 -1.3440247 -5.805359 -3.1734009 -8.120041 -5.488098c-2.3146667 -2.3146973 -4.1440125 -5.0089417 -5.488022 -8.082764c-1.3439941 -3.0862732 -2.0160065 -6.384094 -2.0160065 -9.893463c0 -3.509369 0.6720123 -6.819641 2.0160065 -9.930786c1.3440094 -3.1235962 3.173355 -5.8302917 5.488022 -8.120117c2.314682 -2.302246 5.0213623 -4.1253967 8.120041 -5.469391c3.0986786 -1.3440247 6.421356 -2.0160522 9.968033 -2.0160522c3.5093536 0 6.8693695 0.68447876 10.080048 2.0533752c3.210678 1.3564758 5.9920197 3.3040466 8.344025 5.842743l8.512039 -14.000183c-3.7333527 -3.2480469 -7.9147034 -5.718292 -12.544052 -7.4107666c-4.6293488 -1.704895 -9.426697 -2.557373 -14.392059 -2.557373z" fill-rule="evenodd"/><path fill="#000000" d="m285.06085 338.64352c2.2026672 0 4.280884 0.42312622 6.23468 1.2693481c1.966217 0.83380127 3.6773376 1.9786987 5.133362 3.434723c1.4559937 1.4560242 2.600891 3.1671448 3.4346619 5.1333923c0.8462219 1.9537964 1.2693481 4.0320435 1.2693481 6.234741l0 16.072235l-32.144135 0l0 -16.072235c0 -2.2026978 0.41690063 -4.280945 1.2506714 -6.234741c0.8462219 -1.9662476 1.997345 -3.6773682 3.4533386 -5.1333923c1.4560242 -1.4560242 3.1609192 -2.6009216 5.114685 -3.434723c1.9662476 -0.8462219 4.0506897 -1.2693481 6.2533875 -1.2693481zm0 -16.072205c-4.442688 0 -8.617828 0.83999634 -12.525391 2.5200195c-3.8951416 1.6800232 -7.2924805 3.9760742 -10.192047 6.888092c-2.8871155 2.9120483 -5.170685 6.321869 -6.8506927 10.229492c-1.6800079 3.8951416 -2.5200043 8.064087 -2.5200043 12.506805l0 48.160645l16.016052 0l0 -16.072205l32.144135 0l0 16.072205l16.072052 0l0 -48.160645c0 -4.4427185 -0.83999634 -8.611664 -2.519989 -12.506805c-1.6800232 -3.9076233 -3.9760132 -7.317444 -6.888031 -10.229492c-2.9120178 -2.9120178 -6.321808 -5.208069 -10.22937 -6.888092c-3.8951416 -1.6800232 -8.064056 -2.5200195 -12.506714 -2.5200195z" fill-rule="evenodd"/><path fill="#000000" d="m363.29315 338.64352c2.2026672 0 4.2746887 0.42312622 6.216034 1.2693481c1.9413147 0.83380127 3.6400146 1.9786987 5.0960083 3.434723c1.4559937 1.4560242 2.600891 3.1671448 3.4346924 5.1333923c0.8462219 1.9537964 1.2693176 4.0320435 1.2693176 6.234741c0 2.2026978 -0.4230957 4.2871704 -1.2693176 6.253418c-0.83380127 1.9538269 -1.9786987 3.658722 -3.4346924 5.114746c-1.4559937 1.4560242 -3.1546936 2.6071472 -5.0960083 3.4533691c-1.9413452 0.83380127 -4.0133667 1.2507019 -6.216034 1.2507019l-16.072083 0l0 -32.14444zm-32.144135 -16.072205l0 80.30505l16.072052 0l0 -16.072205l17.976074 -0.11199951l7.0000305 16.184204l17.080078 0l-8.904022 -21.000275c2.3146667 -1.4560242 4.4053345 -3.1733704 6.272003 -5.152069c1.8666687 -1.9786987 3.440918 -4.144043 4.722687 -6.4960938c1.29422 -2.3520203 2.2835693 -4.834717 2.9680176 -7.4480896c0.6968994 -2.6133728 1.0453491 -5.3013916 1.0453491 -8.064117c0 -2.9493713 -0.38580322 -5.786743 -1.1573486 -8.5121155c-0.75912476 -2.7253418 -1.8417969 -5.282715 -3.2480164 -7.6720886c-1.3937683 -2.3893738 -3.0737915 -4.5609436 -5.0400085 -6.51474c-1.9537964 -1.9662476 -4.1191406 -3.6462708 -6.4960327 -5.0400696c-2.3644714 -1.40625 -4.909363 -2.488922 -7.6347046 -3.2480469c-2.7253418 -0.7715759 -5.562683 -1.1573486 -8.512024 -1.1573486z" fill-rule="evenodd"/><path fill="#000000" d="m430.1014 338.64352c3.3226929 0 6.4462585 0.6346741 9.370697 1.9040222c2.9369202 1.2693481 5.4942627 2.9991455 7.6720276 5.1894226c2.1902466 2.1777954 3.9075928 4.7227173 5.1520386 7.6347656c1.256897 2.9120178 1.8853455 6.0293884 1.8853455 9.352112c0 3.3226929 -0.6284485 6.4525146 -1.8853455 9.389465c-1.2444458 2.924469 -2.961792 5.481842 -5.1520386 7.6720886c-2.177765 2.1777954 -4.7351074 3.895172 -7.6720276 5.152069c-2.9244385 1.2444458 -6.048004 1.8666992 -9.370697 1.8666992l-8.008026 0l0 -48.160645zm-24.192108 -16.072205l0 80.30505l24.192108 0c3.6960144 0 7.248932 -0.4729004 10.658722 -1.4187012c3.4222412 -0.95822144 6.6266785 -2.3146973 9.613373 -4.0693665c2.9866638 -1.7546997 5.6933594 -3.8516235 8.120026 -6.290741c2.4266663 -2.4515991 4.517334 -5.1582947 6.2720337 -8.120117c1.7546692 -2.9742737 3.104889 -6.166321 4.050659 -9.576141c0.95825195 -3.4222717 1.4373474 -6.981415 1.4373474 -10.67746c0 -3.696045 -0.47909546 -7.248993 -1.4373474 -10.658813c-0.94577026 -3.4222717 -2.29599 -6.6142883 -4.050659 -9.576111c-1.7546997 -2.9742737 -3.8453674 -5.680969 -6.2720337 -8.120117c-2.4266663 -2.4515991 -5.133362 -4.554718 -8.120026 -6.3094177c-2.9866943 -1.7546997 -6.1911316 -3.1049194 -9.613373 -4.05072c-3.40979 -0.95822144 -6.9627075 -1.4373474 -10.658722 -1.4373474z" fill-rule="evenodd"/><path fill="#000000" d="m365.2933 122.96944l0 0c0 -8.763199 7.1039734 -15.86718 15.8671875 -15.86718l28.049286 0l0 0c4.208252 0 8.24411 1.6717148 11.219788 4.6473923c2.9756775 2.9756699 4.6474 7.011551 4.6474 11.219788l0 28.049286c0 8.763199 -7.1039734 15.8671875 -15.8671875 15.8671875l-28.049286 0l0 0c-8.763214 0 -15.8671875 -7.1039886 -15.8671875 -15.8671875z" fill-rule="evenodd"/><path fill="#000000" d="m371.82455 114.504654l0 0c0 -6.8524933 5.5550537 -12.407539 12.407532 -12.407539l21.933502 0l0 0c3.29068 0 6.446594 1.3072205 8.7734375 3.6340866c2.3268738 2.3268661 3.6340942 5.482765 3.6340942 8.773453l0 44.937454c0 6.8524933 -5.5550537 12.407532 -12.407532 12.407532l-21.933502 0l0 0c-6.852478 0 -12.407532 -5.5550385 -12.407532 -12.407532z" fill-rule="evenodd"/><path fill="#000000" d="m417.65863 113.633125l0 0c6.852478 0 12.407532 5.555046 12.407532 12.407539l0 21.933487l0 0c0 3.29068 -1.3072205 6.446594 -3.6340942 8.773453c-2.3268738 2.3268585 -5.4827576 3.634079 -8.7734375 3.634079l-44.93747 0c-6.852478 0 -12.407532 -5.5550385 -12.407532 -12.407532l0 -21.933487l0 0c0 -6.8524933 5.5550537 -12.407539 12.407532 -12.407539z" fill-rule="evenodd"/><path fill="#000000" d="m357.40616 103.44516l0 0c0 -2.3362732 1.8939209 -4.2302017 4.230194 -4.2302017l7.4779663 0l0 0c1.1219177 0 2.197876 0.44568634 2.9911804 1.2389984c0.79333496 0.7933197 1.2390137 1.8692856 1.2390137 2.9912033l0 7.4779587c0 2.3362732 -1.8939209 4.2302017 -4.230194 4.2302017l-7.4779663 0l0 0c-2.3362732 0 -4.230194 -1.8939285 -4.230194 -4.2302017z" fill-rule="evenodd"/><path fill="#000000" d="m416.9717 103.44516l0 0c0 -2.3362732 1.8939209 -4.2302017 4.230194 -4.2302017l7.4779663 0l0 0c1.1219177 0 2.197876 0.44568634 2.9911804 1.2389984c0.79333496 0.7933197 1.2390137 1.8692856 1.2390137 2.9912033l0 7.4779587c0 2.3362732 -1.8939209 4.2302017 -4.230194 4.2302017l-7.4779663 0l0 0c-2.3362732 0 -4.230194 -1.8939285 -4.230194 -4.2302017z" fill-rule="evenodd"/><path fill="#000000" d="m357.40616 163.0073l0 0c0 -2.3362732 1.8939209 -4.230194 4.230194 -4.230194l7.4779663 0l0 0c1.1219177 0 2.197876 0.4456787 2.9911804 1.2389984c0.79333496 0.7933197 1.2390137 1.869278 1.2390137 2.9911957l0 7.4779663c0 2.3362732 -1.8939209 4.230194 -4.230194 4.230194l-7.4779663 0l0 0c-2.3362732 0 -4.230194 -1.8939209 -4.230194 -4.230194z" fill-rule="evenodd"/><path fill="#000000" d="m416.9717 163.0073l0 0c0 -2.3362732 1.8939209 -4.230194 4.230194 -4.230194l7.4779663 0l0 0c1.1219177 0 2.197876 0.4456787 2.9911804 1.2389984c0.79333496 0.7933197 1.2390137 1.869278 1.2390137 2.9911957l0 7.4779663c0 2.3362732 -1.8939209 4.230194 -4.230194 4.230194l-7.4779663 0l0 0c-2.3362732 0 -4.230194 -1.8939209 -4.230194 -4.230194z" fill-rule="evenodd"/><path fill="#000000" d="m387.18796 88.34668l0 0c0 -2.3362808 1.8939209 -4.2302017 4.230194 -4.2302017l7.4779663 0l0 0c1.1219177 0 2.197876 0.4456787 2.991211 1.2389984c0.79330444 0.7933121 1.2389832 1.869278 1.2389832 2.9912033l0 13.462242c0 2.3362732 -1.8939209 4.2302017 -4.230194 4.2302017l-7.4779663 0l0 0c-2.3362732 0 -4.230194 -1.8939285 -4.230194 -4.2302017z" fill-rule="evenodd"/><path fill="#000000" d="m387.1895 172.15521l0 0c0 -2.3362732 1.8939209 -4.230194 4.230194 -4.230194l7.477936 0l0 0c1.1219482 0 2.1979065 0.4456787 2.991211 1.2389984c0.79333496 0.7933197 1.2390137 1.869278 1.2390137 2.9911957l0 13.46225c0 2.3362732 -1.8939209 4.230194 -4.2302246 4.230194l-7.477936 0l0 0c-2.3362732 0 -4.230194 -1.8939209 -4.230194 -4.230194z" fill-rule="evenodd"/><path fill="#000000" d="m443.8184 129.00659l0 0c2.3362732 0 4.230194 1.8939209 4.230194 4.230194l0 7.4779663l0 0c0 1.1219177 -0.4456787 2.1978912 -1.2389832 2.9911957c-0.79333496 0.7933197 -1.8692932 1.2389984 -2.991211 1.2389984l-13.46225 0c-2.3362732 0 -4.230194 -1.8939209 -4.230194 -4.230194l0 -7.4779663l0 0c0 -2.3362732 1.8939209 -4.230194 4.230194 -4.230194z" fill-rule="evenodd"/><path fill="#000000" d="m360.00504 129.00813l0 0c2.3362732 0 4.230194 1.8939209 4.230194 4.230194l0 7.4779663l0 0c0 1.1219177 -0.4456787 2.197876 -1.2389832 2.9911957c-0.79330444 0.7933197 -1.8692932 1.2389984 -2.991211 1.2389984l-13.46225 0c-2.3362732 0 -4.230194 -1.8939209 -4.230194 -4.230194l0 -7.4779663l0 0c0 -2.3362732 1.8939209 -4.230194 4.230194 -4.230194z" fill-rule="evenodd"/><path fill="#efefef" d="m374.06995 119.99184l0 0c0 -2.2721176 1.841919 -4.114044 4.114044 -4.114044l4.8810425 0l0 0c1.0911255 0 2.1375427 0.4334488 2.9090881 1.204979c0.7715149 0.77153015 1.204956 1.817955 1.204956 2.9090652l0 4.8810654c0 2.2721252 -1.841919 4.1140366 -4.114044 4.1140366l-4.8810425 0c-2.2721252 0 -4.114044 -1.8419113 -4.114044 -4.1140366z" fill-rule="evenodd"/><path fill="#cc0000" d="m124.08358 348.90564l37.526222 -7.640869l-22.636505 19.166992l19.82582 13.469727l-17.88684 4.38678l13.75145 20.694092l-22.83487 -4.8466797l4.254013 26.813416l-17.065514 -20.323883l-15.462288 25.173859l-1.486557 -30.527618l-24.030083 17.375153l8.613167 -29.419556l-34.4834 17.6651l20.813377 -26.207153l-19.368107 -4.0554504l18.167065 -10.650848l-24.020649 -19.521332l25.099072 3.3968506l-1.8296814 -27.070312l21.901093 14.567657l4.711113 -37.577362l10.857857 43.249786l20.064537 -11.449585z" fill-rule="evenodd"/><path fill="#e69138" d="m119.36646 353.49387l28.119652 -5.142395l-16.723846 14.072723l15.142883 10.476013l-13.391006 3.0123901l10.6892395 15.820587l-17.26648 -4.02713l3.641037 20.276276l-13.177551 -15.596008l-11.225655 18.717194l-1.6188965 -23.029846l-17.802094 12.699554l6.0009995 -22.029114l-25.66523 12.746521l15.2363205 -19.408081l-14.64418 -3.3739624l13.499321 -7.7283325l-18.399315 -15.105316l18.946915 2.9716797l-1.8205261 -20.430054l16.722862 11.337463l2.9304276 -28.240814l8.880745 32.770966l14.914413 -8.299103z" fill-rule="evenodd"/><path fill="#ffd966" d="m113.88424 358.8236l17.155052 -2.0599976l-9.761833 8.05011l9.768532 7.0979614l-8.146942 1.3301697l7.232834 10.231262l-10.821457 -3.1870117l3.0596848 12.709839l-8.760109 -10.191803l-6.181343 11.148254l-1.921463 -14.335083l-10.482513 7.1560364l2.823082 -13.409729l-15.335281 6.870178l8.629852 -11.41571l-9.176315 -2.677246l8.025017 -4.248047l-11.964355 -10.096893l11.816689 2.6003418l-1.9418716 -12.732208l10.778481 7.695038l0.67865753 -17.381744l6.794861 20.661957l8.875832 -4.545044z" fill-rule="evenodd"/><path fill="#ffffff" d="m108.7026 363.86658l7.3290863 -0.13562012l-3.8652115 3.0698242l4.5405045 3.5215454l-3.4649582 0.2175293l3.582756 4.772461l-4.822357 -1.8665466l1.8876648 5.665863l-4.241638 -4.822998l-2.1789246 4.5766296l-1.467453 -6.322571l-4.216629 2.6488647l0.62590027 -5.709564l-6.3284073 2.3092957l3.2261658 -4.584442l-4.088112 -1.5718079l3.2827072 -1.4925232l-5.6234436 -4.9237976l5.2268066 1.655426l-1.4051285 -5.626068l5.003868 3.8261719l-0.47799683 -7.5329285l3.856308 9.291565l3.6375504 -1.5840149z" fill-rule="evenodd"/></g></svg>