<svg version="1.1" viewBox="0.0 0.0 500.0 500.0" fill="none" stroke="none" stroke-linecap="square" stroke-miterlimit="10" xmlns:xlink="http://www.w3.org/1999/xlink" xmlns="http://www.w3.org/2000/svg"><clipPath id="p.0"><path d="m0 0l500.0 0l0 500.0l-500.0 0l0 -500.0z" clip-rule="nonzero"/></clipPath><g clip-path="url(#p.0)"><path fill="#000000" fill-opacity="0.0" d="m0 0l500.0 0l0 500.0l-500.0 0z" fill-rule="evenodd"/><path fill="#7eb565" d="m12.86089 157.15004l151.68504 0l0 151.68504l-151.68504 0z" fill-rule="evenodd"/><path fill="#f3f3f3" d="m98.112274 283.5188q-3.25 -0.40625 -16.71875 -0.40625l-2.171875 0l0 -74.875l-13.40625 0q-5.953129 0 -7.046879 0.609375q-1.078125 0.609375 -1.6875 1.078125l-0.203125 -0.0625l0 -17.34375l0.203125 -0.203125q2.234375 0.75 12.062504 0.75l42.4375 0q5.96875 0 7.046875 -0.609375q1.078125 -0.609375 1.6875 -1.078125l0.203125 0.0625l0 17.328125l-0.203125 0.203125q-2.234375 -0.734375 -12.046875 -0.734375l-10.15625 0l0 75.28125z" fill-rule="nonzero"/><path fill="#da4f13" d="m174.15631 157.15004l151.68506 0l0 151.68504l-151.68506 0z" fill-rule="evenodd"/><path fill="#dabb5f" d="m335.45175 157.15004l151.68503 0l0 151.68504l-151.68503 0z" fill-rule="evenodd"/><path fill="#f3f3f3" d="m397.283 283.37817q-2.03125 -0.265625 -6.90625 -0.265625l-7.859375 0q-2.296875 0 -3.78125 0.140625l-0.078125 -0.140625q0.28125 -0.46875 0.28125 -1.078125q0 -0.609375 -0.109375 -1.28125q-0.09375 -0.6875 -0.546875 -2.4375q-0.4375 -1.765625 -1.3125 -5.09375l-23.015625 -80.421875q4.328125 0.265625 10.484375 0.265625q6.171875 0 8.0 -0.546875l15.96875 61.28125l15.578125 -61.0q1.015625 0.0625 1.828125 0.125l1.484375 0q2.234375 0.140625 5.609375 0.140625q3.390625 0 6.984375 -0.546875l15.84375 61.28125l13.609375 -61.0q4.0625 0.265625 10.625 0.265625q6.5625 0 7.984375 -0.546875l-19.484375 71.4375q-3.734375 12.3125 -3.9375 14.625q-0.203125 2.296875 -0.203125 3.1875q0 0.875 0.28125 1.40625l-0.140625 0.203125q-2.171875 -0.265625 -6.84375 -0.265625q-4.0625 0 -7.375 0q-3.3125 0 -4.8125 0.140625l-0.0625 -0.140625q0.265625 -0.46875 0.265625 -1.078125q0 -0.609375 -0.0625 -1.21875q-0.0625 -0.609375 -0.375 -2.328125q-0.296875 -1.734375 -0.984375 -5.125l-1.828125 -9.203125l-11.09375 -42.1875l-10.5625 41.984375q-3.25 12.921875 -3.390625 14.890625q-0.265625 3.71875 0.0625 4.328125l-0.125 0.203125z" fill-rule="nonzero"/><path fill="#000000" d="m213.08957 215.67398l0 0c0 -10.826279 8.7764435 -19.602722 19.602722 -19.602722l34.652832 0l0 0c5.198944 0 10.184998 2.065277 13.861206 5.741501c3.676239 3.6762238 5.741516 8.662262 5.741516 13.861221l0 34.652832c0 10.826263 -8.776459 19.602722 -19.602722 19.602722l-34.652832 0l0 0c-10.826279 0 -19.602722 -8.776459 -19.602722 -19.602722z" fill-rule="evenodd"/><path fill="#000000" d="m221.15672 205.21176l0 0c0 -8.462509 6.860214 -15.322723 15.322723 -15.322723l27.086838 0l0 0c4.063843 0 7.961212 1.6143494 10.834808 4.487915c2.8735657 2.8735657 4.487915 6.7709656 4.487915 10.834808l0 55.496277c0 8.462524 -6.8602295 15.322723 -15.322723 15.322723l-27.086838 0l0 0c-8.462509 0 -15.322723 -6.860199 -15.322723 -15.322723z" fill-rule="evenodd"/><path fill="#000000" d="m277.77182 204.13803l0 0c8.462524 0 15.322723 6.860214 15.322723 15.322723l0 27.086838l0 0c0 4.063843 -1.6143494 7.9612427 -4.487915 10.834793c-2.8735657 2.8735657 -6.7709656 4.4879456 -10.834808 4.4879456l-55.496277 0c-8.462494 0 -15.322723 -6.8602295 -15.322723 -15.322739l0 -27.086838l0 0c0 -8.462509 6.8602295 -15.322723 15.322723 -15.322723z" fill-rule="evenodd"/><path fill="#000000" d="m203.34764 191.55367l0 0c0 -2.8854675 2.3391266 -5.224594 5.224594 -5.224594l9.23584 0l0 0c1.3856506 0 2.7145386 0.55044556 3.6943512 1.5302429c0.97979736 0.9798126 1.5302429 2.3087006 1.5302429 3.6943512l0 9.23584c0 2.8854675 -2.3391266 5.224594 -5.224594 5.224594l-9.23584 0l0 0c-2.8854675 0 -5.224594 -2.3391266 -5.224594 -5.224594z" fill-rule="evenodd"/><path fill="#000000" d="m276.92078 191.55367l0 0c0 -2.8854675 2.3391418 -5.224594 5.2246094 -5.224594l9.23584 0l0 0c1.3856506 0 2.7145386 0.55044556 3.694336 1.5302429c0.9798279 0.9798126 1.5302734 2.3087006 1.5302734 3.6943512l0 9.23584c0 2.8854675 -2.3391418 5.224594 -5.2246094 5.224594l-9.23584 0l0 0c-2.8854675 0 -5.2246094 -2.3391266 -5.2246094 -5.224594z" fill-rule="evenodd"/><path fill="#000000" d="m203.34764 265.12338l0 0c0 -2.8854675 2.3391266 -5.2246094 5.224594 -5.2246094l9.23584 0l0 0c1.3856506 0 2.7145386 0.55044556 3.6943512 1.5302429c0.97979736 0.9798279 1.5302429 2.3087158 1.5302429 3.6943665l0 9.23584c0 2.8854675 -2.3391266 5.224579 -5.224594 5.224579l-9.23584 0l0 0c-2.8854675 0 -5.224594 -2.3391113 -5.224594 -5.224579z" fill-rule="evenodd"/><path fill="#000000" d="m276.92078 265.12338l0 0c0 -2.8854675 2.3391418 -5.2246094 5.2246094 -5.2246094l9.23584 0l0 0c1.3856506 0 2.7145386 0.55044556 3.694336 1.5302429c0.9798279 0.9798279 1.5302734 2.3087158 1.5302734 3.6943665l0 9.23584c0 2.8854675 -2.3391418 5.224579 -5.2246094 5.224579l-9.23584 0l0 0c-2.8854675 0 -5.2246094 -2.3391113 -5.2246094 -5.224579z" fill-rule="evenodd"/><path fill="#000000" d="m240.13303 172.90439l0 0c0 -2.8854675 2.3391266 -5.2246094 5.2246094 -5.2246094l9.235825 0l0 0c1.3856506 0 2.7145538 0.5504608 3.6943512 1.5302582c0.97979736 0.97979736 1.5302429 2.3087006 1.5302429 3.6943512l0 16.637405c0 2.8854675 -2.3391418 5.2246094 -5.224594 5.2246094l-9.235825 0l0 0c-2.8854828 0 -5.2246094 -2.3391418 -5.2246094 -5.2246094z" fill-rule="evenodd"/><path fill="#000000" d="m240.13492 276.42267l0 0c0 -2.8854675 2.3391418 -5.2246094 5.2246094 -5.2246094l9.235825 0l0 0c1.3856506 0 2.7145538 0.55044556 3.6943512 1.5302429c0.97979736 0.97979736 1.5302429 2.3087158 1.5302429 3.6943665l0 16.63739c0 2.8854675 -2.3391113 5.2246094 -5.224594 5.2246094l-9.235825 0l0 0c-2.8854675 0 -5.2246094 -2.3391418 -5.2246094 -5.2246094z" fill-rule="evenodd"/><path fill="#000000" d="m310.08118 223.12697l0 0c2.8854675 0 5.2246094 2.3391266 5.2246094 5.2246094l0 9.235825l0 0c0 1.3856506 -0.55044556 2.7145538 -1.5302429 3.6943512c-0.97979736 0.97979736 -2.3087158 1.5302582 -3.6943665 1.5302582l-16.63739 0c-2.8854675 0 -5.2246094 -2.3391418 -5.2246094 -5.2246094l0 -9.235825l0 0c0 -2.8854828 2.3391418 -5.2246094 5.2246094 -5.2246094z" fill-rule="evenodd"/><path fill="#000000" d="m206.55807 223.12886l0 0c2.8854675 0 5.2246094 2.3391418 5.2246094 5.2246094l0 9.235825l0 0c0 1.3856506 -0.55044556 2.7145538 -1.5302582 3.6943512c-0.97979736 0.9798126 -2.3087006 1.5302582 -3.6943512 1.5302582l-16.637405 0c-2.8854675 0 -5.2246094 -2.3391418 -5.2246094 -5.2246094l0 -9.235825l0 0c0 -2.8854675 2.3391418 -5.2246094 5.2246094 -5.2246094z" fill-rule="evenodd"/><path fill="#efefef" d="m223.93013 211.99118l0 0c0 -2.8059235 2.2746582 -5.0805817 5.0805817 -5.0805817l6.0278015 0l0 0c1.3474579 0 2.6397247 0.53526306 3.592514 1.4880676c0.95280457 0.9527893 1.4880829 2.2450562 1.4880829 3.592514l0 6.0278015c0 2.8059387 -2.2746582 5.0805817 -5.080597 5.0805817l-6.0278015 0c-2.8059235 0 -5.0805817 -2.274643 -5.0805817 -5.0805817z" fill-rule="evenodd"/><path fill="#000000" fill-opacity="0.0" d="m-5.3307085 30.492302l510.6142 0l0 145.44882l-510.6142 0z" fill-rule="evenodd"/><path fill="#da4f13" d="m37.40997 139.33229l0 -61.859367l-22.09375 0l0 -12.59375l59.156246 0l0 12.59375l-22.031246 0l0 61.859367l-15.03125 0zm46.824215 0l0 -74.45312l31.625 0q11.9375 0 17.343758 2.015625q5.40625 2.0 8.65625 7.140625q3.25 5.125 3.25 11.71875q0 8.375 -4.921875 13.84375q-4.921875 5.453125 -14.718758 6.875q4.8750076 2.84375 8.046883 6.25q3.171875 3.40625 8.546875 12.078125l9.09375 14.531242l-17.96875 0l-10.875008 -16.203117q-5.78125 -8.6875 -7.921875 -10.9375q-2.125 -2.265625 -4.515625 -3.09375q-2.390625 -0.84375 -7.5625 -0.84375l-3.046875 0l0 31.078117l-15.03125 0zm15.03125 -42.968742l11.109375 0q10.828125 0 13.515625 -0.90625q2.6875 -0.921875 4.2031326 -3.15625q1.53125 -2.234375 1.53125 -5.578125q0 -3.765625 -2.0156326 -6.0625q-2.0 -2.3125 -5.65625 -2.921875q-1.828125 -0.265625 -10.96875 -0.265625l-11.71875 0l0 18.890625zm59.5586 42.968742l0 -74.45312l15.03125 0l0 74.45312l-15.03125 0zm63.98828 -27.374992l0 -12.546875l32.39061 0l0 29.656242q-4.7187347 4.578125 -13.687485 8.0625q-8.953125 3.46875 -18.140625 3.46875q-11.6875 0 -20.375 -4.890625q-8.671875 -4.90625 -13.046875 -14.015617q-4.359375 -9.125 -4.359375 -19.84375q0 -11.625 4.875 -20.65625q4.875 -9.046875 14.265625 -13.875q7.15625 -3.703125 17.828125 -3.703125q13.859375 0 21.65625 5.8125q7.7968597 5.8125 10.031235 16.078125l-14.937485 2.796875q-1.578125 -5.484375 -5.921875 -8.65625q-4.328125 -3.1875 -10.828125 -3.1875q-9.859375 0 -15.671875 6.25q-5.8125 6.25 -5.8125 18.53125q0 13.265625 5.890625 19.890625q5.890625 6.625 15.4375 6.625q4.71875 0 9.46875 -1.84375q4.75 -1.859375 8.15625 -4.5l0 -9.453125l-17.21875 0zm80.8945 0l0 -12.546875l32.390625 0l0 29.656242q-4.71875 4.578125 -13.6875 8.0625q-8.953125 3.46875 -18.140625 3.46875q-11.6875 0 -20.375 -4.890625q-8.671875 -4.90625 -13.046875 -14.015617q-4.359375 -9.125 -4.359375 -19.84375q0 -11.625 4.875 -20.65625q4.875 -9.046875 14.265625 -13.875q7.15625 -3.703125 17.828125 -3.703125q13.859375 0 21.65625 5.8125q7.796875 5.8125 10.03125 16.078125l-14.9375 2.796875q-1.578125 -5.484375 -5.921875 -8.65625q-4.328125 -3.1875 -10.828125 -3.1875q-9.859375 0 -15.671875 6.25q-5.8125 6.25 -5.8125 18.53125q0 13.265625 5.890625 19.890625q5.890625 6.625 15.4375 6.625q4.71875 0 9.46875 -1.84375q4.75 -1.859375 8.15625 -4.5l0 -9.453125l-17.21875 0zm46.253906 27.374992l0 -74.45312l55.203125 0l0 12.59375l-40.171875 0l0 16.515625l37.375 0l0 12.53125l-37.375 0l0 20.265625l41.59375 0l0 12.546867l-56.625 0zm69.42969 0l0 -74.45312l31.625 0q11.9375 0 17.34375 2.015625q5.40625 2.0 8.65625 7.140625q3.25 5.125 3.25 11.71875q0 8.375 -4.921875 13.84375q-4.921875 5.453125 -14.71875 6.875q4.875 2.84375 8.046875 6.25q3.171875 3.40625 8.546875 12.078125l9.09375 14.531242l-17.96875 0l-10.875 -16.203117q-5.78125 -8.6875 -7.921875 -10.9375q-2.125 -2.265625 -4.515625 -3.09375q-2.390625 -0.84375 -7.5625 -0.84375l-3.046875 0l0 31.078117l-15.03125 0zm15.03125 -42.968742l11.109375 0q10.828125 0 13.515625 -0.90625q2.6875 -0.921875 4.203125 -3.15625q1.53125 -2.234375 1.53125 -5.578125q0 -3.765625 -2.015625 -6.0625q-2.0 -2.3125 -5.65625 -2.921875q-1.828125 -0.265625 -10.96875 -0.265625l-11.71875 0l0 18.890625z" fill-rule="nonzero"/><path fill="#000000" fill-opacity="0.0" d="m-5.2834644 280.95706l510.6142 0l0 195.52756l-510.6142 0z" fill-rule="evenodd"/><path fill="#434343" d="m45.29617 429.47705l-24.828123 -104.03125l21.499998 0l15.6875 71.453125l19.015629 -71.453125l24.96875 0l18.234375 72.671875l15.96875 -72.671875l21.15625 0l-25.265625 104.03125l-22.28125 0l-20.71875 -77.765625l-20.65625 77.765625l-22.781254 0zm118.15199 -51.375q0 -15.890625 4.75 -26.6875q3.5625 -7.9375 9.6875 -14.25q6.140625 -6.328125 13.453125 -9.375q9.71875 -4.109375 22.421875 -4.109375q23.0 0 36.796875 14.265625q13.79686 14.25 13.79686 39.65625q0 25.1875 -13.70311 39.421875q-13.6875 14.234375 -36.609375 14.234375q-23.203125 0 -36.90625 -14.15625q-13.6875 -14.171875 -13.6875 -39.0zm21.640625 -0.703125q0 17.65625 8.15625 26.78125q8.171875 9.125 20.734375 9.125q12.5625 0 20.609375 -9.046875q8.0625 -9.0625 8.0625 -27.15625q0 -17.875 -7.84375 -26.671875q-7.84375 -8.796875 -20.828125 -8.796875q-12.984375 0 -20.9375 8.90625q-7.953125 8.90625 -7.953125 26.859375zm95.72838 52.078125l0 -104.03125l44.21875 0q16.671875 0 24.21875 2.8125q7.5625 2.796875 12.09375 9.96875q4.546875 7.15625 4.546875 16.390625q0 11.703125 -6.890625 19.328125q-6.875 7.625 -20.5625 9.625q6.8125 3.96875 11.25 8.734375q4.4375 4.75 11.953125 16.875l12.703125 20.296875l-25.125 0l-15.1875 -22.640625q-8.078125 -12.125 -11.0625 -15.28125q-2.984375 -3.171875 -6.328125 -4.328125q-3.328125 -1.171875 -10.5625 -1.171875l-4.25 0l0 43.421875l-21.015625 0zm21.015625 -60.03125l15.53125 0q15.109375 0 18.875 -1.28125q3.765625 -1.28125 5.890625 -4.390625q2.125 -3.125 2.125 -7.8125q0 -5.25 -2.796875 -8.46875q-2.796875 -3.234375 -7.90625 -4.09375q-2.5625 -0.359375 -15.328125 -0.359375l-16.390625 0l0 26.40625zm83.795044 -44.0l38.390625 0q12.984375 0 19.796875 1.984375q9.15625 2.703125 15.6875 9.59375q6.53125 6.875 9.9375 16.84375q3.40625 9.96875 3.40625 24.59375q0 12.84375 -3.203125 22.140625q-3.890625 11.34375 -11.140625 18.375q-5.453125 5.3125 -14.75 8.296875q-6.953125 2.203125 -18.59375 2.203125l-39.53125 0l0 -104.03125zm21.0 17.59375l0 68.90625l15.6875 0q8.796875 0 12.703125 -0.984375q5.109375 -1.28125 8.46875 -4.328125q3.375 -3.0625 5.5 -10.046875q2.140625 -6.984375 2.140625 -19.046875q0 -12.0625 -2.140625 -18.515625q-2.125 -6.46875 -5.953125 -10.078125q-3.828125 -3.625 -9.71875 -4.90625q-4.40625 -1.0 -17.25 -1.0l-9.4375 0z" fill-rule="nonzero"/></g></svg>