<svg version="1.1" viewBox="0.0 0.0 500.0 500.0" fill="none" stroke="none" stroke-linecap="square" stroke-miterlimit="10" xmlns:xlink="http://www.w3.org/1999/xlink" xmlns="http://www.w3.org/2000/svg"><clipPath id="p.0"><path d="m0 0l500.0 0l0 500.0l-500.0 0l0 -500.0z" clip-rule="nonzero"/></clipPath><g clip-path="url(#p.0)"><path fill="#000000" fill-opacity="0.0" d="m0 0l500.0 0l0 500.0l-500.0 0z" fill-rule="evenodd"/><path fill="#ffc0e1" d="m120.11653 210.41685l-82.79483 0l0 82.794846l82.79483 0z" fill-rule="evenodd"/><path stroke="#e59cc2" stroke-width="8.0" stroke-linejoin="round" stroke-linecap="butt" d="m120.11653 210.41685l-82.79483 0l0 82.794846l82.79483 0z" fill-rule="evenodd"/><path fill="#e59cc2" d="m85.1271 236.24864q1.609375 0.140625 2.671875 0.140625l2.171875 0q1.09375 0 2.28125 -0.21875l0 21.531265q0 6.40625 -3.875 10.296875q-3.671875 3.671875 -9.21875 3.671875q-6.0625 0 -9.8125 -3.15625q-4.1875 -3.546875 -4.1875 -10.203125l0 -22.062515q2.15625 0.140625 4.0625 0.140625q1.921875 0 3.171875 -0.21875l0 22.468765q0 3.28125 2.0 5.109375q1.875 1.671875 4.6875 1.671875q4.171875 0 5.546875 -4.28125q0.5 -1.53125 0.5 -3.796875l0 -21.093765z" fill-rule="nonzero"/><path fill="#ffc0e1" d="m120.12021 127.62207l-82.79483 0l0 82.79483l82.79483 0z" fill-rule="evenodd"/><path stroke="#e59cc2" stroke-width="8.0" stroke-linejoin="round" stroke-linecap="butt" d="m120.12021 127.62207l-82.79483 0l0 82.79483l82.79483 0z" fill-rule="evenodd"/><path fill="#e59cc2" d="m73.88599 188.87573q-4.21875 0 -7.953125 -0.6875l0 -34.828125q3.4375 -0.421875 7.984375 -0.421875q4.546875 0 8.234375 1.234375q3.6875 1.234375 6.15625 3.53125q5.0 4.578125 5.0 12.828125q0 9.25 -5.578125 14.046875q-5.0 4.296875 -13.84375 4.296875zm-1.171875 -6.359375q1.6875 0.3125 3.375 0.3125q1.703125 0 3.65625 -0.65625q1.953125 -0.671875 3.375 -2.078125q3.078125 -2.96875 3.078125 -8.640625q0 -9.328125 -6.796875 -11.453125q-2.234375 -0.703125 -5.1875 -0.703125l-0.703125 0q-0.390625 0 -0.796875 0.015625l0 23.203125z" fill-rule="nonzero"/><path fill="#ffc0e1" d="m120.11984 44.82908l-82.79483 0l0 82.79483l82.79483 0z" fill-rule="evenodd"/><path stroke="#e59cc2" stroke-width="8.0" stroke-linejoin="round" stroke-linecap="butt" d="m120.11984 44.82908l-82.79483 0l0 82.79483l82.79483 0z" fill-rule="evenodd"/><path fill="#e59cc2" d="m70.200935 105.58274q-1.25 -0.15625 -4.828125 -0.15625l-2.0781212 0l0 -34.734375q1.6718712 0.109375 3.6718712 0.109375q2.0 0 2.84375 -0.21875l8.75 14.875l8.40625 -14.875q0.828125 0.21875 3.171875 0.21875q2.34375 0 4.015625 -0.109375l0 34.734375l-2.09375 0q-3.5625 0 -4.8125 0.15625l0 -23.328125l-8.515625 15.234375l-8.53125 -14.015625l0 22.109375z" fill-rule="nonzero"/><path fill="#ffc0e1" d="m202.91043 44.829124l-82.79484 0l0 82.79483l82.79484 0z" fill-rule="evenodd"/><path stroke="#e59cc2" stroke-width="8.0" stroke-linejoin="round" stroke-linecap="butt" d="m202.91043 44.829124l-82.79484 0l0 82.79483l82.79484 0z" fill-rule="evenodd"/><path fill="#e59cc2" d="m176.76996 84.53591q-0.5 0.890625 -0.5 4.25l0 8.078125q0 3.671875 -3.796875 6.375q-3.921875 2.84375 -9.625 2.84375q-7.921875 0 -12.640625 -4.984375q-4.546875 -4.734375 -4.546875 -12.078125q0 -7.8125 4.625 -13.015625q5.1875 -5.859375 14.28125 -5.859375q6.0625 0 9.59375 2.34375l-0.40625 7.671875l-0.21875 0.0625q-0.90625 -1.59375 -3.578125 -2.609375q-2.5625 -0.953125 -5.359375 -0.953125q-2.796875 0 -4.890625 0.890625q-2.09375 0.875 -3.5625 2.515625q-3.0625 3.359375 -3.0625 8.875q0 4.8125 2.703125 7.734375q2.703125 2.890625 6.984375 2.890625q4.703125 0 6.34375 -2.453125q0.53125 -0.78125 0.53125 -1.765625l0 -4.328125l-3.359375 0q-2.71875 0 -2.953125 0.46875l-0.078125 -0.015625l-0.234375 -6.796875q0.734375 0.203125 5.921875 0.203125l3.0625 0q2.859375 0 4.6875 -0.390625l0.078125 0.046875z" fill-rule="nonzero"/><path fill="#ffd966" d="m374.70767 18.389833l82.80313 0l0 82.803154l-82.80313 0z" fill-rule="evenodd"/><path stroke="#f1c232" stroke-width="8.0" stroke-linejoin="round" stroke-linecap="butt" d="m374.70767 18.389833l82.80313 0l0 82.803154l-82.80313 0z" fill-rule="evenodd"/><path fill="#f1c232" d="m424.6574 72.7414q1.609375 0 2.234375 -0.3125l0.109375 0.03125l-0.265625 6.53125l-19.5 0l0 -34.8125q0.703125 0.046875 1.5625 0.078125l1.8125 0.046875q1.828125 0.0625 3.96875 0.0625q5.953125 0 11.796875 -0.21875q-0.296875 2.296875 -0.296875 6.125q0 0.421875 0.0625 0.625l-0.0625 0.078125q-1.34375 -0.390625 -3.84375 -0.390625l-8.203125 0l0 6.640625l6.171875 0q2.859375 0 3.4375 -0.15625l0.078125 6.421875q-1.25 -0.125 -3.234375 -0.125l-6.453125 0l0 9.375l10.625 0z" fill-rule="nonzero"/><path fill="#ffd966" d="m374.70767 101.192986l82.80313 0l0 82.803154l-82.80313 0z" fill-rule="evenodd"/><path stroke="#f1c232" stroke-width="8.0" stroke-linejoin="round" stroke-linecap="butt" d="m374.70767 101.192986l82.80313 0l0 82.803154l-82.80313 0z" fill-rule="evenodd"/><path fill="#f1c232" d="m403.1344 161.79456q0.15625 -0.890625 0.15625 -1.921875l0 -32.703125l5.203125 0l13.796875 21.703125l0 -19.9375q0 -1.4375 -0.25 -1.765625l7.015625 0q-0.125 1.03125 -0.125 2.28125l0 32.34375l-5.40625 0l-13.59375 -20.859375l0 20.859375l-6.796875 0z" fill-rule="nonzero"/><path fill="#ffd966" d="m374.70767 183.99614l82.80313 0l0 82.80315l-82.80313 0z" fill-rule="evenodd"/><path stroke="#f1c232" stroke-width="8.0" stroke-linejoin="round" stroke-linecap="butt" d="m374.70767 183.99614l82.80313 0l0 82.80315l-82.80313 0z" fill-rule="evenodd"/><path fill="#f1c232" d="m410.7208 244.70708q-0.78125 -0.109375 -2.65625 -0.109375l-3.015625 0q-0.890625 0 -1.46875 0.046875l-0.015625 -0.046875q0.09375 -0.1875 0.09375 -0.421875q0 -0.234375 -0.046875 -0.484375q-0.03125 -0.265625 -0.203125 -0.9375q-0.15625 -0.6875 -0.5 -1.953125l-8.859375 -30.9375q1.671875 0.109375 4.03125 0.109375q2.375 0 3.078125 -0.21875l6.15625 23.5625l5.984375 -23.453125q0.390625 0.03125 0.703125 0.046875l0.578125 0q0.859375 0.0625 2.15625 0.0625q1.296875 0 2.6875 -0.21875l6.078125 23.5625l5.234375 -23.453125q1.5625 0.109375 4.09375 0.109375q2.53125 0 3.078125 -0.21875l-7.5 27.46875q-1.4375 4.75 -1.515625 5.640625q-0.078125 0.875 -0.078125 1.21875q0 0.328125 0.109375 0.546875l-0.0625 0.078125q-0.828125 -0.109375 -2.625 -0.109375q-1.5625 0 -2.84375 0q-1.265625 0 -1.84375 0.046875l-0.03125 -0.046875q0.109375 -0.1875 0.109375 -0.421875q0 -0.234375 -0.03125 -0.46875q-0.015625 -0.234375 -0.140625 -0.890625q-0.109375 -0.671875 -0.375 -1.96875l-0.703125 -3.546875l-4.265625 -16.21875l-4.0625 16.140625q-1.25 4.984375 -1.296875 5.734375q-0.109375 1.4375 0.015625 1.671875l-0.046875 0.078125z" fill-rule="nonzero"/><path fill="#ffd966" d="m374.70767 266.7993l82.80313 0l0 82.80313l-82.80313 0z" fill-rule="evenodd"/><path stroke="#f1c232" stroke-width="8.0" stroke-linejoin="round" stroke-linecap="butt" d="m374.70767 266.7993l82.80313 0l0 82.80313l-82.80313 0z" fill-rule="evenodd"/><path fill="#f1c232" d="m406.73553 292.58835q3.625 -0.46875 7.421875 -0.46875q7.078125 0 10.765625 3.328125q3.6875 3.3125 3.6875 9.921875q0 5.90625 -4.03125 9.34375q-3.78125 3.234375 -9.71875 3.234375q-0.671875 0 -1.484375 -0.078125l0 9.53125l-6.640625 0l0 -34.8125zm8.203125 5.8125q-0.78125 0 -1.5625 0.046875l0 13.6875q0.828125 0.109375 2.03125 0.109375q1.203125 0 2.5 -0.5q1.296875 -0.515625 2.1875 -1.421875q1.84375 -1.90625 1.84375 -5.0q0 -6.921875 -7.0 -6.921875z" fill-rule="nonzero"/><path fill="#674ea7" d="m404.1142 398.81448l82.79483 0l0 82.79483l-82.79483 0z" fill-rule="evenodd"/><path stroke="#351c75" stroke-width="8.0" stroke-linejoin="round" stroke-linecap="butt" d="m404.1142 398.81448l82.79483 0l0 82.79483l-82.79483 0z" fill-rule="evenodd"/><path fill="#351c75" d="m433.7501 427.13065q0 -0.859375 -0.078125 -2.34375l24.6875 0l-15.15625 28.375l9.453125 0q3.703125 0 4.359375 -0.21875q0.671875 -0.21875 1.0625 -0.40625l0 7.265625q-1.125 -0.109375 -1.859375 -0.1875q-0.71875 -0.078125 -1.53125 -0.125q-1.21875 -0.078125 -4.734375 -0.078125l-17.53125 0l15.6875 -28.375l-8.203125 0q-5.078125 0 -6.46875 0.546875q0.3125 -1.3125 0.3125 -3.671875l0 -0.78125z" fill-rule="nonzero"/><path fill="#6aa84f" d="m404.1105 316.01968l82.79483 0l0 82.79486l-82.79483 0z" fill-rule="evenodd"/><path stroke="#351c75" stroke-width="8.0" stroke-linejoin="round" stroke-linecap="butt" d="m404.1105 316.01968l82.79483 0l0 82.79486l-82.79483 0z" fill-rule="evenodd"/><path fill="#f3f3f3" d="m440.6711 377.27335q-4.21875 0 -7.953125 -0.6875l0 -34.828125q3.4375 -0.421875 7.984375 -0.421875q4.546875 0 8.234375 1.234375q3.6875 1.234375 6.15625 3.53125q5.0 4.578125 5.0 12.828125q0 9.25 -5.578125 14.046875q-5.0 4.296875 -13.84375 4.296875zm-1.171875 -6.359375q1.6875 0.3125 3.375 0.3125q1.703125 0 3.65625 -0.65625q1.953125 -0.671875 3.375 -2.078125q3.078125 -2.96875 3.078125 -8.640625q0 -9.328125 -6.796875 -11.453125q-2.234375 -0.703125 -5.1875 -0.703125l-0.703125 0q-0.390625 0 -0.796875 0.015625l0 23.203125z" fill-rule="nonzero"/><path fill="#6aa84f" d="m321.3161 316.02148l82.79483 0l0 82.79483l-82.79483 0z" fill-rule="evenodd"/><path stroke="#351c75" stroke-width="8.0" stroke-linejoin="round" stroke-linecap="butt" d="m321.3161 316.02148l82.79483 0l0 82.79483l-82.79483 0z" fill-rule="evenodd"/><path fill="#f3f3f3" d="m354.1291 376.82202q-2.234375 -0.203125 -5.234375 -0.203125l-2.046875 0l11.328125 -31.734375q0.75 -2.140625 0.75 -2.484375q0 -0.359375 -0.03125 -0.4375l0.03125 -0.046875q1.6875 0.078125 3.59375 0.078125q1.5625 0 3.75 -0.0625l0.03125 0.0625q-0.0625 0.09375 -0.0625 0.28125q0 0.5 0.78125 2.625l11.5625 31.796875q-0.515625 -0.03125 -1.21875 -0.03125q0 0 -1.359375 -0.046875q-0.65625 0 -1.171875 0l-4.03125 0l-2.453125 -7.5l-11.765625 0l-2.453125 7.703125zm12.1875 -13.953125l-3.921875 -12.109375l-3.828125 12.109375l7.75 0z" fill-rule="nonzero"/><path fill="#674ea7" d="m321.3163 233.22675l82.79486 0l0 82.79483l-82.79486 0z" fill-rule="evenodd"/><path stroke="#351c75" stroke-width="8.0" stroke-linejoin="round" stroke-linecap="butt" d="m321.3163 233.22675l82.79486 0l0 82.79483l-82.79486 0z" fill-rule="evenodd"/><path fill="#351c75" d="m362.85327 280.3554q-0.78125 0.0625 -1.671875 0.0625q-0.875 0 -2.625 -0.140625l0 13.546875l-6.890625 0l0 -34.8125q3.640625 -0.46875 8.953125 -0.46875q7.234375 0 10.78125 2.671875q3.5625 2.671875 3.5625 8.234375q0 4.328125 -3.25 7.390625q-1.0625 1.0 -2.453125 1.71875l5.3125 11.203125q1.5625 3.46875 2.390625 4.109375l-0.125 0.140625q-2.53125 -0.421875 -7.9375 0.015625l-6.046875 -13.671875zm-1.734375 -15.671875q-1.328125 0 -2.5625 0.140625l0 9.9375q1.28125 0.1875 3.0 0.1875q1.71875 0 2.890625 -0.296875q1.171875 -0.3125 2.03125 -0.9375q1.84375 -1.375 1.84375 -4.125q0 -2.765625 -1.921875 -3.890625q-1.796875 -1.015625 -5.28125 -1.015625z" fill-rule="nonzero"/><path fill="#6aa84f" d="m95.883156 192.34343l82.79484 0l0 82.794815l-82.79484 0z" fill-rule="evenodd"/><path stroke="#b45f06" stroke-width="8.0" stroke-linejoin="round" stroke-linecap="butt" d="m95.883156 192.34343l82.79484 0l0 82.794815l-82.79484 0z" fill-rule="evenodd"/><path fill="#efefef" d="m124.60804 248.83147q-2.359375 -2.265625 -3.734375 -5.4375q-1.359375 -3.1875 -1.359375 -6.96875q0 -3.796875 1.265625 -7.171875q1.28125 -3.390625 3.640625 -5.96875q2.375 -2.578125 5.7343826 -4.09375q3.359375 -1.53125 7.53125 -1.53125q7.1875 0 12.109375 4.53125q5.25 4.84375 5.25 13.0625q0 7.96875 -5.40625 13.265625q-3.34375 3.25 -7.9375 4.46875q-2.265625 0.609375 -5.3125 0.609375q-3.03125 0 -6.21875 -1.25q-3.1875076 -1.25 -5.5625076 -3.515625zm2.140625 -12.765625q0 2.421875 0.796875 4.453125q0.8125076 2.03125 2.2500076 3.484375q3.046875 3.078125 7.84375 3.078125q4.546875 0 7.3125 -2.9375q2.8125 -3.046875 2.8125 -8.3125q0 -4.953125 -2.6875 -8.25q-2.890625 -3.546875 -7.90625 -3.546875q-4.875 0 -7.734375 3.59375q-2.6875076 3.359375 -2.6875076 8.4375z" fill-rule="nonzero"/><path fill="#e69138" d="m95.88683 275.1382l82.79484 0l0 82.79483l-82.79484 0z" fill-rule="evenodd"/><path stroke="#b45f06" stroke-width="8.0" stroke-linejoin="round" stroke-linecap="butt" d="m95.88683 275.1382l82.79484 0l0 82.79483l-82.79484 0z" fill-rule="evenodd"/><path fill="#b45f06" d="m133.5019 335.73563q0.328125 -1.015625 0.328125 -4.734375l0 -7.25q-4.5 -9.921875 -5.75 -12.375q-1.25 -2.453125 -2.109375 -3.890625q-2.703125 -4.578125 -3.265625 -5.25q-0.5625 -0.6875 -1.140625 -1.125l8.984375 0q0.296875 0.515625 0.78125 1.53125l6.3125 13.296875q0.4375 -1.09375 1.03125 -2.4375q5.6875 -12.21875 5.765625 -12.390625l8.578125 0q-1.328125 1.0625 -3.25 4.46875q-0.59375 1.015625 -1.203125 2.328125l-5.875 12.25q-0.984375 2.21875 -1.6875 3.984375l0 7.484375q0 2.59375 0.3125 4.109375l-7.8125 0z" fill-rule="nonzero"/><path fill="#6aa84f" d="m13.091638 192.34154l82.79483 0l0 82.794846l-82.79483 0z" fill-rule="evenodd"/><path stroke="#b45f06" stroke-width="8.0" stroke-linejoin="round" stroke-linecap="butt" d="m13.091638 192.34154l82.79483 0l0 82.794846l-82.79483 0z" fill-rule="evenodd"/><path fill="#efefef" d="m49.1006 253.04832q-0.78125 -0.109375 -2.65625 -0.109375l-3.015625 0q-0.890625 0 -1.46875 0.046875l-0.015625 -0.046875q0.09375 -0.1875 0.09375 -0.421875q0 -0.234375 -0.046875 -0.484375q-0.03125 -0.265625 -0.203125 -0.9375q-0.15625 -0.6875 -0.5 -1.953125l-8.859375 -30.9375q1.671875 0.109375 4.03125 0.109375q2.375 0 3.078125 -0.21875l6.15625 23.5625l5.984375 -23.453125q0.390625 0.03125 0.703125 0.046875l0.578125 0q0.859375 0.0625 2.15625 0.0625q1.296875 0 2.6875 -0.21875l6.078125 23.5625l5.234375 -23.453125q1.5625 0.109375 4.09375 0.109375q2.53125 0 3.078125 -0.21875l-7.5 27.46875q-1.4375 4.75 -1.515625 5.640625q-0.078125 0.875 -0.078125 1.21875q0 0.328125 0.109375 0.546875l-0.0625 0.078125q-0.828125 -0.109375 -2.625 -0.109375q-1.5625 0 -2.84375 0q-1.265625 0 -1.84375 0.046875l-0.03125 -0.046875q0.109375 -0.1875 0.109375 -0.421875q0 -0.234375 -0.03125 -0.46875q-0.015625 -0.234375 -0.140625 -0.890625q-0.109375 -0.671875 -0.375 -1.96875l-0.703125 -3.546875l-4.265625 -16.21875l-4.0625 16.140625q-1.25 4.984375 -1.296875 5.734375q-0.109375 1.4375 0.015625 1.671875l-0.046875 0.078125z" fill-rule="nonzero"/><path fill="#e69138" d="m13.091354 275.13632l82.79483 0l0 82.79483l-82.79483 0z" fill-rule="evenodd"/><path stroke="#b45f06" stroke-width="8.0" stroke-linejoin="round" stroke-linecap="butt" d="m13.091354 275.13632l82.79483 0l0 82.79483l-82.79483 0z" fill-rule="evenodd"/><path fill="#b45f06" d="m58.115074 335.88998q-1.25 -0.15625 -6.4375 -0.15625l-0.828125 0l0 -28.796875l-5.15625 0q-2.296875 0 -2.71875 0.234375q-0.40625 0.234375 -0.640625 0.421875l-0.078125 -0.03125l0 -6.671875l0.078125 -0.078125q0.859375 0.296875 4.625 0.296875l16.328125 0q2.296875 0 2.703125 -0.234375q0.421875 -0.234375 0.65625 -0.421875l0.078125 0.03125l0 6.65625l-0.078125 0.078125q-0.859375 -0.28125 -4.625 -0.28125l-3.90625 0l0 28.953125z" fill-rule="nonzero"/><path fill="#e06666" d="m195.92012 25.626978l82.794846 0l0 82.79483l-82.794846 0z" fill-rule="evenodd"/><path stroke="#c03e3e" stroke-width="8.0" stroke-linejoin="round" stroke-linecap="butt" d="m195.92012 25.626978l82.794846 0l0 82.79483l-82.794846 0z" fill-rule="evenodd"/><path fill="#c03e3e" d="m241.23875 86.38064q-2.1875 0.5 -5.0625 0.5q-2.859375 0 -6.046875 -1.25q-3.1875 -1.25 -5.5625 -3.515625q-5.09375 -4.875 -5.09375 -12.484375q0 -7.703125 4.9375 -13.0625q5.21875 -5.625 13.28125 -5.625q7.34375 0 12.1875 4.640625q5.125 4.9375 5.125 12.953125q0 6.4375 -3.640625 11.25q-1.140625 1.515625 -2.546875 2.71875q0.9375 0.25 2.265625 0.859375q2.828125 1.328125 5.3593903 1.375l0.515625 0q1.359375 0 1.796875 -0.359375l0.109375 0.078125l-1.984375 4.96875q-0.359375 1.125 -1.3750153 1.125q-1.484375 0 -3.03125 -0.625q-1.53125 -0.625 -2.75 -1.171875q-1.203125 -0.546875 -2.296875 -0.96875q-1.09375 -0.421875 -2.078125 -0.703125q-1.6875 -0.46875 -4.109375 -0.703125zm-14.796875 -17.03125q0 2.421875 0.84375 4.5q0.859375 2.0625 2.34375 3.578125q3.171875 3.203125 7.96875 3.203125q4.578125 0 7.46875 -3.109375q2.984375 -3.171875 2.984375 -8.40625q0 -4.953125 -2.8125 -8.25q-3.03125 -3.546875 -8.0625 -3.546875q-4.890625 0 -7.921875 3.59375q-2.8125 3.390625 -2.8125 8.4375z" fill-rule="nonzero"/><path fill="#e06666" d="m195.9238 108.42176l82.79483 0l0 82.79484l-82.79483 0z" fill-rule="evenodd"/><path stroke="#c03e3e" stroke-width="8.0" stroke-linejoin="round" stroke-linecap="butt" d="m195.9238 108.42176l82.79483 0l0 82.79484l-82.79483 0z" fill-rule="evenodd"/><path fill="#c03e3e" d="m231.07816 169.17543q-2.5 -0.15625 -5.9375 -0.15625l-0.84375 0l0 -34.765625q1.625 0.140625 2.296875 0.140625l1.0625 0q2.0625 0 3.421875 -0.21875l0 13.875l12.234375 0l0 -13.796875q2.15625 0.140625 4.203125 0.140625q2.046875 0 2.5625 -0.21875l0 35.0q-1.25 -0.15625 -4.9375 -0.15625l-1.828125 0l0 -14.71875l-12.234375 0l0 14.875z" fill-rule="nonzero"/><path fill="#6aa84f" d="m195.92343 191.21475l82.79483 0l0 82.79483l-82.79483 0z" fill-rule="evenodd"/><path stroke="#c03e3e" stroke-width="8.0" stroke-linejoin="round" stroke-linecap="butt" d="m195.92343 191.21475l82.79483 0l0 82.79483l-82.79483 0z" fill-rule="evenodd"/><path fill="#f3f3f3" d="m237.46039 238.34341q-0.78125 0.0625 -1.671875 0.0625q-0.875 0 -2.625 -0.140625l0 13.546875l-6.890625 0l0 -34.8125q3.640625 -0.46875 8.953125 -0.46875q7.234375 0 10.78125 2.671875q3.5625 2.671875 3.5625 8.234375q0 4.328125 -3.25 7.390625q-1.0625 1.0 -2.453125 1.71875l5.3125 11.203125q1.5625 3.46875 2.390625 4.109375l-0.125 0.140625q-2.53125 -0.421875 -7.9375 0.015625l-6.046875 -13.671875zm-1.734375 -15.671875q-1.328125 0 -2.5625 0.140625l0 9.9375q1.28125 0.1875 3.0 0.1875q1.71875 0 2.890625 -0.296875q1.171875 -0.3125 2.03125 -0.9375q1.84375 -1.375 1.84375 -4.125q0 -2.765625 -1.921875 -3.890625q-1.796875 -1.015625 -5.28125 -1.015625z" fill-rule="nonzero"/><path fill="#6aa84f" d="m278.71402 191.2147l82.79483 0l0 82.794846l-82.79483 0z" fill-rule="evenodd"/><path stroke="#c03e3e" stroke-width="8.0" stroke-linejoin="round" stroke-linecap="butt" d="m278.71402 191.2147l82.79483 0l0 82.794846l-82.79483 0z" fill-rule="evenodd"/><path fill="#f3f3f3" d="m315.27463 252.46837q-4.21875 0 -7.953125 -0.6875l0 -34.828125q3.4375 -0.421875 7.984375 -0.421875q4.546875 0 8.234375 1.234375q3.6875 1.234375 6.15625 3.53125q5.0 4.578125 5.0 12.828125q0 9.25 -5.578125 14.046875q-5.0 4.296875 -13.84375 4.296875zm-1.171875 -6.359375q1.6875 0.3125 3.375 0.3125q1.703125 0 3.65625 -0.65625q1.953125 -0.671875 3.375 -2.078125q3.078125 -2.96875 3.078125 -8.640625q0 -9.328125 -6.796875 -11.453125q-2.234375 -0.703125 -5.1875 -0.703125l-0.703125 0q-0.390625 0 -0.796875 0.015625l0 23.203125z" fill-rule="nonzero"/><path fill="#3d85c6" d="m139.72603 398.80716l82.79483 0l0 82.79483l-82.79483 0z" fill-rule="evenodd"/><path stroke="#0b5394" stroke-width="8.0" stroke-linejoin="round" stroke-linecap="butt" d="m139.72603 398.80716l82.79483 0l0 82.79483l-82.79483 0z" fill-rule="evenodd"/><path fill="#0b5394" d="m168.1486 459.40457q0.15625 -0.890625 0.15625 -1.921875l0 -32.703125l5.203125 0l13.796875 21.703125l0 -19.9375q0 -1.4375 -0.25 -1.765625l7.015625 0q-0.125 1.03125 -0.125 2.28125l0 32.34375l-5.40625 0l-13.59375 -20.859375l0 20.859375l-6.796875 0z" fill-rule="nonzero"/><path fill="#6aa84f" d="m222.5209 316.016l82.79483 0l0 82.79483l-82.79483 0z" fill-rule="evenodd"/><path stroke="#0b5394" stroke-width="8.0" stroke-linejoin="round" stroke-linecap="butt" d="m222.5209 316.016l82.79483 0l0 82.79483l-82.79483 0z" fill-rule="evenodd"/><path fill="#f3f3f3" d="m262.3491 376.6134q-3.828125 0 -5.078125 0.15625l0 -34.9375q0.625 0.15625 2.578125 0.15625q1.96875 0 4.578125 -0.109375l0 28.484375l5.390625 0q2.34375 0 3.75 -0.15625q-0.1875 6.09375 -0.1875 6.328125l0 0.265625q-2.546875 -0.1875 -8.5625 -0.1875l-2.46875 0z" fill-rule="nonzero"/><path fill="#6aa84f" d="m139.72792 316.01562l82.79483 0l0 82.79483l-82.79483 0z" fill-rule="evenodd"/><path stroke="#0b5394" stroke-width="8.0" stroke-linejoin="round" stroke-linecap="butt" d="m139.72792 316.01562l82.79483 0l0 82.79483l-82.79483 0z" fill-rule="evenodd"/><path fill="#f3f3f3" d="m172.54091 376.81616q-2.234375 -0.203125 -5.234375 -0.203125l-2.046875 0l11.328125 -31.734375q0.75 -2.140625 0.75 -2.484375q0 -0.359375 -0.03125 -0.4375l0.03125 -0.046875q1.6875 0.078125 3.59375 0.078125q1.5625 0 3.75 -0.0625l0.03125 0.0625q-0.0625 0.09375 -0.0625 0.28125q0 0.5 0.78125 2.625l11.5625 31.796875q-0.515625 -0.03125 -1.21875 -0.03125q0 0 -1.359375 -0.046875q-0.65625 0 -1.171875 0l-4.03125 0l-2.453125 -7.5l-11.765625 0l-2.453125 7.703125zm12.1875 -13.953125l-3.921875 -12.109375l-3.828125 12.109375l7.75 0z" fill-rule="nonzero"/><path fill="#6aa84f" d="m56.933132 316.01535l82.79483 0l0 82.79483l-82.79483 0z" fill-rule="evenodd"/><path stroke="#0b5394" stroke-width="8.0" stroke-linejoin="round" stroke-linecap="butt" d="m56.933132 316.01535l82.79483 0l0 82.79483l-82.79483 0z" fill-rule="evenodd"/><path fill="#f3f3f3" d="m108.188835 343.90964l-0.5 7.65625l-0.171875 0.046875q-1.9375 -2.890625 -6.5625 -3.75q-1.46875 -0.28125 -2.8125 -0.28125q-1.328125 0 -2.28125 0.234375q-0.953125 0.234375 -1.625 0.671875q-1.4375 0.9375 -1.4375 2.453125q0 1.96875 1.25 2.96875q1.5625 1.1875 5.171875 1.671875q3.625 0.484375 5.8125 1.328125q2.1875 0.828125 3.59375 2.09375q2.65625 2.40625 2.65625 6.78125q0 5.71875 -4.3125 8.828125q-3.703125 2.65625 -9.328125 2.65625q-4.53125 0 -8.953125 -1.71875q-1.46875 -0.578125 -2.5625 -1.328125l0.296875 -8.703125l0.09375 -0.078125q3.234375 5.578125 10.609375 5.578125q5.234375 0 6.921875 -2.53125q0.578125 -0.859375 0.578125 -1.90625q0 -1.0625 -0.34375 -1.75q-0.34375 -0.6875 -1.125 -1.1875q-1.5 -0.984375 -5.078125 -1.328125q-3.5625 -0.34375 -5.828125 -1.28125q-2.265625 -0.9375 -3.625 -2.3125q-2.4375 -2.5 -2.4375 -6.984375q0 -4.625 3.25 -7.484375q3.3125 -2.921875 8.921875 -2.921875q5.609375 0 9.828125 2.578125z" fill-rule="nonzero"/></g></svg>