<svg version="1.1" viewBox="0.0 0.0 500.0 500.0" fill="none" stroke="none" stroke-linecap="square" stroke-miterlimit="10" xmlns:xlink="http://www.w3.org/1999/xlink" xmlns="http://www.w3.org/2000/svg"><clipPath id="p.0"><path d="m0 0l500.0 0l0 500.0l-500.0 0l0 -500.0z" clip-rule="nonzero"/></clipPath><g clip-path="url(#p.0)"><path fill="#000000" fill-opacity="0.0" d="m0 0l500.0 0l0 500.0l-500.0 0z" fill-rule="evenodd"/><path fill="#7eb565" d="m31.124853 143.02441l102.04725 0l0 102.04724l-102.04725 0z" fill-rule="evenodd"/><path fill="#f3f3f3" d="m72.98876 224.7599q-1.328125 -0.171875 -4.515625 -0.171875l-5.140629 0q-1.5 0 -2.46875 0.09375l-0.046875 -0.09375q0.171875 -0.3125 0.171875 -0.703125q0 -0.40625 -0.0625 -0.84375q-0.0625 -0.4375 -0.359375 -1.59375q-0.28125 -1.15625 -0.859375 -3.328125l-15.046875 -52.578125q2.828125 0.171875 6.859375 0.171875q4.03125 0 5.21875 -0.359375l10.453129 40.0625l10.171875 -39.875q0.671875 0.046875 1.203125 0.078125l0.96875 0q1.46875 0.09375 3.671875 0.09375q2.21875 0 4.5625 -0.359375l10.359375 40.0625l8.890625 -39.875q2.65625 0.171875 6.953125 0.171875q4.296875 0 5.21875 -0.359375l-12.734375 46.703125q-2.4375 8.0625 -2.578125 9.578125q-0.125 1.5 -0.125 2.078125q0 0.5625 0.171875 0.921875l-0.09375 0.125q-1.40625 -0.171875 -4.46875 -0.171875q-2.65625 0 -4.828125 0q-2.15625 0 -3.140625 0.09375l-0.046875 -0.09375q0.1875 -0.3125 0.1875 -0.703125q0 -0.40625 -0.046875 -0.796875q-0.046875 -0.40625 -0.25 -1.53125q-0.1875 -1.125 -0.640625 -3.34375l-1.1875 -6.015625l-7.265625 -27.578125l-6.90625 27.4375q-2.125 8.453125 -2.203125 9.75q-0.1875 2.421875 0.03125 2.828125l-0.078125 0.125z" fill-rule="nonzero"/><path fill="#dabb5f" d="m143.02533 143.02301l102.04726 0l0 102.04724l-102.04726 0z" fill-rule="evenodd"/><path fill="#f3f3f3" d="m172.5125 217.60225q-4.03125 -3.859375 -6.359375 -9.25q-2.3125 -5.40625 -2.3125 -11.84375q0 -6.453125 2.15625 -12.203125q2.171875 -5.75 6.203125 -10.125q4.03125 -4.390625 9.734375 -6.984375q5.71875 -2.59375 12.796875 -2.59375q12.21875 0 20.59375 7.703125q8.9375 8.234375 8.9375 22.21875q0 13.546875 -9.203125 22.53125q-5.671875 5.546875 -13.5 7.625q-3.859375 1.015625 -9.015625 1.015625q-5.15625 0 -10.578125 -2.125q-5.421875 -2.125 -9.453125 -5.96875zm3.625 -21.703125q0 4.125 1.375 7.578125q1.375 3.453125 3.8125 5.921875q5.171875 5.234375 13.328125 5.234375q7.734375 0 12.4375 -5.015625q4.78125 -5.171875 4.78125 -14.109375q0 -8.421875 -4.5625 -14.03125q-4.921875 -6.03125 -13.453125 -6.03125q-8.28125 0 -13.15625 6.109375q-4.5625 5.71875 -4.5625 14.34375z" fill-rule="nonzero"/><path fill="#7eb565" d="m254.92917 254.92783l102.04724 0l0 102.04724l-102.04724 0z" fill-rule="evenodd"/><path fill="#f3f3f3" d="m299.79828 277.44458q4.421875 0.171875 5.359375 0.171875l3.1875 0q2.34375 0 3.765625 -0.359375l-0.046875 59.234375l-12.265625 0l0 -59.046875z" fill-rule="nonzero"/><path fill="#999999" d="m254.92815 143.02531l102.04726 0l0 102.04724l-102.04726 0z" fill-rule="evenodd"/><path fill="#f3f3f3" d="m306.18787 201.6983q-1.328125 0.09375 -2.828125 0.09375q-1.5 0 -4.46875 -0.21875l0 23.015625l-11.734375 0l0 -59.1875q6.203125 -0.796875 15.234375 -0.796875q12.296875 0 18.34375 4.546875q6.046875 4.53125 6.046875 14.0q0 7.359375 -5.53125 12.578125q-1.8125 1.6875 -4.171875 2.921875l9.03125 19.03125q2.65625 5.890625 4.078125 7.0l-0.21875 0.21875q-4.296875 -0.703125 -13.5 0.046875l-10.28125 -23.25zm-2.953125 -26.640625q-2.265625 0 -4.34375 0.21875l0 16.90625q2.171875 0.3125 5.09375 0.3125q2.921875 0 4.90625 -0.5q2.0 -0.515625 3.453125 -1.578125q3.140625 -2.34375 3.140625 -7.03125q0 -4.703125 -3.265625 -6.609375q-3.0625 -1.71875 -8.984375 -1.71875z" fill-rule="nonzero"/><path fill="#dabb5f" d="m366.82864 143.02391l102.04724 0l0 102.04724l-102.04724 0z" fill-rule="evenodd"/><path fill="#f3f3f3" d="m409.61615 225.6969q-7.171875 0 -13.5 -1.15625l0 -59.21875q5.84375 -0.71875 13.5625 -0.71875q7.734375 0 14.0 2.109375q6.265625 2.09375 10.46875 6.0q8.5 7.78125 8.5 21.8125q0 15.71875 -9.484375 23.859375q-8.5 7.3125 -23.546875 7.3125zm-1.984375 -10.796875q2.875 0.53125 5.75 0.53125q2.875 0 6.1875 -1.125q3.328125 -1.140625 5.765625 -3.53125q5.21875 -5.046875 5.21875 -14.6875q0 -15.859375 -11.546875 -19.484375q-3.8125 -1.1875 -8.8125 -1.1875l-1.1875 0q-0.671875 0 -1.375 0.03125l0 39.453125z" fill-rule="nonzero"/><path fill="#999999" d="m366.83023 254.92574l102.04724 0l0 102.04726l-102.04724 0z" fill-rule="evenodd"/><path fill="#f3f3f3" d="m424.00488 336.75497q-2.125 -0.265625 -10.9375 -0.265625l-1.40625 0l0 -48.953125l-8.765625 0q-3.90625 0 -4.609375 0.40625q-0.703125 0.390625 -1.109375 0.703125l-0.125 -0.046875l0 -11.34375l0.125 -0.125q1.46875 0.484375 7.890625 0.484375l27.75 0q3.890625 0 4.59375 -0.390625q0.71875 -0.40625 1.109375 -0.71875l0.140625 0.046875l0 11.328125l-0.140625 0.140625q-1.453125 -0.484375 -7.875 -0.484375l-6.640625 0l0 49.21875z" fill-rule="nonzero"/><path fill="#434343" d="m31.128233 254.92651l102.04724 0l0 102.04724l-102.04724 0z" fill-rule="evenodd"/><path fill="#434343" d="m143.0296 254.92651l102.04724 0l0 102.04724l-102.04724 0z" fill-rule="evenodd"/><path fill="#434343" d="m254.92613 366.8282l102.04726 0l0 102.04724l-102.04726 0z" fill-rule="evenodd"/><path fill="#434343" d="m366.8275 366.8282l102.04724 0l0 102.04724l-102.04724 0z" fill-rule="evenodd"/><path fill="#434343" d="m31.123394 366.8282l102.04724 0l0 102.04724l-102.04724 0z" fill-rule="evenodd"/><path fill="#434343" d="m143.02477 366.8282l102.04724 0l0 102.04724l-102.04724 0z" fill-rule="evenodd"/><path fill="#434343" d="m254.92613 31.123201l102.04726 0l0 102.04724l-102.04726 0z" fill-rule="evenodd"/><path fill="#434343" d="m366.8275 31.123201l102.04724 0l0 102.04724l-102.04724 0z" fill-rule="evenodd"/><path fill="#434343" d="m31.123394 31.123201l102.04724 0l0 102.04724l-102.04724 0z" fill-rule="evenodd"/><path fill="#434343" d="m143.02477 31.123201l102.04724 0l0 102.04724l-102.04724 0z" fill-rule="evenodd"/></g></svg>