<svg version="1.1" viewBox="0.0 0.0 500.0 500.0" fill="none" stroke="none" stroke-linecap="square" stroke-miterlimit="10" xmlns:xlink="http://www.w3.org/1999/xlink" xmlns="http://www.w3.org/2000/svg"><clipPath id="p.0"><path d="m0 0l500.0 0l0 500.0l-500.0 0l0 -500.0z" clip-rule="nonzero"/></clipPath><g clip-path="url(#p.0)"><path fill="#000000" fill-opacity="0.0" d="m0 0l500.0 0l0 500.0l-500.0 0z" fill-rule="evenodd"/><path fill="#783f04" d="m354.4992 182.83536l0 0c0 -4.2884216 -3.4764404 -7.7648926 -7.7648926 -7.7648926l-84.5332 0c-2.0593872 0 -4.034424 0.8180847 -5.4906006 2.274292c-1.4562073 1.456192 -2.274292 3.4312286 -2.274292 5.4906006l0 134.32849c0 4.2884216 3.476471 7.7648926 7.7648926 7.7648926l84.5332 0c4.288452 0 7.7648926 -3.476471 7.7648926 -7.7648926z" fill-rule="evenodd"/><path fill="#783f04" d="m245.56482 182.83536l0 0c0 -4.2884216 -3.476471 -7.7648926 -7.7648926 -7.7648926l-84.53322 0c-2.059372 0 -4.0344086 0.8180847 -5.4906006 2.274292c-1.4562073 1.456192 -2.274292 3.4312286 -2.274292 5.4906006l0 134.32849c0 4.2884216 3.476471 7.7648926 7.7648926 7.7648926l84.53322 0c4.2884216 0 7.7648926 -3.476471 7.7648926 -7.7648926z" fill-rule="evenodd"/><path fill="#783f04" d="m136.63042 182.83536l0 0c0 -4.2884216 -3.4764557 -7.7648926 -7.7648926 -7.7648926l-84.53321 0c-2.0593758 0 -4.0344048 0.8180847 -5.4906044 2.274292c-1.4561996 1.456192 -2.2742844 3.4312286 -2.2742844 5.4906006l0 134.32849c0 4.2884216 3.4764595 7.7648926 7.764889 7.7648926l84.53321 0c4.288437 0 7.7648926 -3.476471 7.7648926 -7.7648926z" fill-rule="evenodd"/><path fill="#783f04" d="m354.4992 340.52222l0 0c0 -4.2884216 -3.4764404 -7.764862 -7.7648926 -7.764862l-84.5332 0c-2.0593872 0 -4.034424 0.8180847 -5.4906006 2.2742615c-1.4562073 1.4562073 -2.274292 3.431244 -2.274292 5.4906006l0 134.32849c0 4.288452 3.476471 7.7648926 7.7648926 7.7648926l84.5332 0c4.288452 0 7.7648926 -3.4764404 7.7648926 -7.7648926z" fill-rule="evenodd"/><path fill="#783f04" d="m245.56482 340.52222l0 0c0 -4.2884216 -3.476471 -7.764862 -7.7648926 -7.764862l-84.53322 0c-2.059372 0 -4.0344086 0.8180847 -5.4906006 2.2742615c-1.4562073 1.4562073 -2.274292 3.431244 -2.274292 5.4906006l0 134.32849c0 4.288452 3.476471 7.7648926 7.7648926 7.7648926l84.53322 0c4.2884216 0 7.7648926 -3.4764404 7.7648926 -7.7648926z" fill-rule="evenodd"/><path fill="#783f04" d="m136.63042 340.52222l0 0c0 -4.2884216 -3.4764557 -7.764862 -7.7648926 -7.764862l-84.53321 0c-2.0593758 0 -4.0344048 0.8180847 -5.4906044 2.2742615c-1.4561996 1.4562073 -2.2742844 3.431244 -2.2742844 5.4906006l0 134.32849c0 4.288452 3.4764595 7.7648926 7.764889 7.7648926l84.53321 0c4.288437 0 7.7648926 -3.4764404 7.7648926 -7.7648926z" fill-rule="evenodd"/><path fill="#a38267" d="m349.50735 342.80603l0 0c0 -3.0983887 -2.5117188 -5.6101074 -5.6101074 -5.6101074l-78.85852 0c-1.487915 0 -2.914856 0.59106445 -3.9669495 1.643158c-1.0520935 1.0520935 -1.643158 2.4790344 -1.643158 3.9669495l0 129.75616c0 3.0983582 2.5117188 5.6101074 5.6101074 5.6101074l78.85852 0l0 0c3.0983887 0 5.6101074 -2.5117493 5.6101074 -5.6101074z" fill-rule="evenodd"/><path fill="#a38267" d="m131.64394 342.8055l0 0c0 -3.0983887 -2.5117188 -5.6101074 -5.6101 -5.6101074l-78.858536 0c-1.4878922 0 -2.9148445 0.59106445 -3.9669418 1.643158c-1.0520973 1.0520935 -1.6431618 2.479065 -1.6431618 3.9669495l0 129.75616c0 3.0983887 2.5117302 5.6101074 5.6101036 5.6101074l78.858536 0l0 0c3.098381 0 5.6101 -2.5117188 5.6101 -5.6101074z" fill-rule="evenodd"/><path fill="#783f04" d="m463.43304 182.83536l0 0c0 -4.2884216 -3.4764404 -7.7648926 -7.7648926 -7.7648926l-84.5332 0c-2.0593872 0 -4.0343933 0.8180847 -5.4906006 2.274292c-1.4562073 1.456192 -2.274292 3.4312286 -2.274292 5.4906006l0 134.32849c0 4.2884216 3.476471 7.7648926 7.7648926 7.7648926l84.5332 0c4.288452 0 7.7648926 -3.476471 7.7648926 -7.7648926z" fill-rule="evenodd"/><path fill="#783f04" d="m463.43304 340.52222l0 0c0 -4.2884216 -3.4764404 -7.764862 -7.7648926 -7.764862l-84.5332 0c-2.0593872 0 -4.0343933 0.8180847 -5.4906006 2.2742615c-1.4562073 1.4562073 -2.274292 3.431244 -2.274292 5.4906006l0 134.32849c0 4.288452 3.476471 7.7648926 7.7648926 7.7648926l84.5332 0c4.288452 0 7.7648926 -3.4764404 7.7648926 -7.7648926z" fill-rule="evenodd"/><path fill="#a38267" d="m131.63994 185.1202l0 0c0 -3.0983734 -2.511734 -5.610092 -5.610115 -5.610092l-78.85853 0c-1.4878922 0 -2.9148445 0.5910492 -3.9669418 1.643158c-1.0521011 1.0520935 -1.6431618 2.4790497 -1.6431618 3.9669342l0 129.75618c0 3.0983582 2.5117302 5.6101074 5.6101036 5.6101074l78.85853 0l0 0c3.098381 0 5.610115 -2.5117493 5.610115 -5.6101074z" fill-rule="evenodd"/><path fill="#783f04" d="m354.4992 25.149403l0 0c0 -4.2884293 -3.4764404 -7.764889 -7.7648926 -7.764889l-84.5332 0c-2.0593872 0 -4.034424 0.8180847 -5.4906006 2.2742844c-1.4562073 1.4561977 -2.274292 3.4312286 -2.274292 5.4906044l0 134.32849c0 4.288437 3.476471 7.7648926 7.7648926 7.7648926l84.5332 0c4.288452 0 7.7648926 -3.4764557 7.7648926 -7.7648926z" fill-rule="evenodd"/><path fill="#783f04" d="m245.56482 25.149403l0 0c0 -4.2884293 -3.476471 -7.764889 -7.7648926 -7.764889l-84.53322 0c-2.059372 0 -4.0344086 0.8180847 -5.4906006 2.2742844c-1.4562073 1.4561977 -2.274292 3.4312286 -2.274292 5.4906044l0 134.32849c0 4.288437 3.476471 7.7648926 7.7648926 7.7648926l84.53322 0c4.2884216 0 7.7648926 -3.4764557 7.7648926 -7.7648926z" fill-rule="evenodd"/><path fill="#783f04" d="m136.63042 25.149403l0 0c0 -4.2884293 -3.4764557 -7.764889 -7.7648926 -7.764889l-84.53321 0c-2.0593758 0 -4.0344048 0.8180847 -5.4906044 2.2742844c-1.4561996 1.4561977 -2.2742844 3.4312286 -2.2742844 5.4906044l0 134.32849c0 4.288437 3.4764595 7.7648926 7.764889 7.7648926l84.53321 0c4.288437 0 7.7648926 -3.4764557 7.7648926 -7.7648926z" fill-rule="evenodd"/><path fill="#a38267" d="m240.574 27.435553l0 0c0 -3.0983734 -2.511734 -5.6101036 -5.6101074 -5.6101036l-78.858536 0c-1.4878845 0 -2.9148407 0.59106255 -3.9669342 1.6431618c-1.0521088 1.0520992 -1.6431732 2.4790497 -1.6431732 3.9669418l0 129.75618c0 3.0983734 2.511734 5.6101074 5.6101074 5.6101074l78.858536 0l0 0c3.0983734 0 5.6101074 -2.511734 5.6101074 -5.6101074z" fill-rule="evenodd"/><path fill="#783f04" d="m463.43304 25.149403l0 0c0 -4.2884293 -3.4764404 -7.764889 -7.7648926 -7.764889l-84.5332 0c-2.0593872 0 -4.0343933 0.8180847 -5.4906006 2.2742844c-1.4562073 1.4561977 -2.274292 3.4312286 -2.274292 5.4906044l0 134.32849c0 4.288437 3.476471 7.7648926 7.7648926 7.7648926l84.5332 0c4.288452 0 7.7648926 -3.4764557 7.7648926 -7.7648926z" fill-rule="evenodd"/><path fill="#a38267" d="m458.45447 27.438177l0 0c0 -3.0983734 -2.5117493 -5.6101036 -5.6101074 -5.6101036l-78.85855 0c-1.4878845 0 -2.9148254 0.59106255 -3.966919 1.6431618c-1.052124 1.0520992 -1.6431885 2.4790497 -1.6431885 3.9669418l0 129.75618c0 3.0983734 2.5117493 5.6101074 5.6101074 5.6101074l78.85855 0l0 0c3.0983582 0 5.6101074 -2.511734 5.6101074 -5.6101074z" fill-rule="evenodd"/><path fill="#a38267" d="m458.4407 342.8072l0 0c0 -3.0983582 -2.5117188 -5.6101074 -5.6101074 -5.6101074l-78.85852 0c-1.487915 0 -2.914856 0.59106445 -3.9669495 1.643158c-1.0520935 1.052124 -1.643158 2.479065 -1.643158 3.9669495l0 129.75616c0 3.0983887 2.5117188 5.6101074 5.6101074 5.6101074l78.85852 0l0 0c3.0983887 0 5.6101074 -2.5117188 5.6101074 -5.6101074z" fill-rule="evenodd"/><path fill="#ffa1bd" d="m368.34384 443.54462l0 -61.007874l81.00787 0l0 61.007874z" fill-rule="evenodd"/><path fill="#000000" d="m405.89688 391.21777l15.401581 0l0 15.401581l-15.401581 0z" fill-rule="evenodd"/><path fill="#ffa1bd" d="m259.42783 396.12204l86.078735 0l0 33.795288l-86.078735 0z" fill-rule="evenodd"/><path fill="#ffa1bd" d="m343.08636 443.54462l0 -61.007874l6.519684 0l0 61.007874z" fill-rule="evenodd"/><path fill="#ffa1bd" d="m67.54855 337.1982l33.79528 0l0 92.72443l-33.79528 0z" fill-rule="evenodd"/><path fill="#ffa1bd" d="m67.54856 396.12204l64.09449 0l0 33.795288l-64.09449 0z" fill-rule="evenodd"/><path fill="#ffa1bd" d="m67.54855 179.5l33.79528 0l0 140.97638l-33.79528 0z" fill-rule="evenodd"/><path fill="#ffa1bd" d="m150.50919 70.080055l90.078735 0l0 33.795273l-90.078735 0z" fill-rule="evenodd"/><path fill="#ffa1bd" d="m368.34647 70.080055l61.95276 0l0 33.795273l-61.95276 0z" fill-rule="evenodd"/><path fill="#ffa1bd" d="m186.20198 271.29095l0 0l0 0c0 0 0 0 0 0zm41.66008 -72.461395c-0.6223602 0 -1.28302 0.11784363 -1.9819641 0.35353088c-0.6893921 0.22181702 -1.3500519 0.6030731 -1.9819794 1.1437683c-0.6223602 0.52682495 -1.1681213 1.2338867 -1.6372833 2.12117c-0.45959473 0.8872986 -0.68937683 1.9894714 -0.68937683 3.306549c0 0.97047424 0.14840698 1.9062958 0.44522095 2.8074493c0.29681396 0.90115356 0.5984192 1.9270782 0.9048157 3.0777893c0.31596375 1.1506958 0.5936279 2.585617 0.8330078 4.3047333c0.23936462 1.7052612 0.3590393 3.8610992 0.3590393 6.467514c0 2.2736816 -0.13404846 4.8038483 -0.40213013 7.5905c-0.26809692 2.7727814 -0.63671875 5.6980743 -1.1058807 8.775848c-0.45959473 3.0777893 -1.0053558 6.2248993 -1.6372833 9.44133c-0.6223602 3.2164307 -1.2782288 6.3981934 -1.9676208 9.545303c-0.6798096 3.1332397 -1.3787689 6.1902466 -2.0968628 9.17099c-0.49671936 2.0895996 -0.75579834 3.4774475 -0.77723694 4.1634827l0 0l-11.028442 -53.387314c-0.2872467 -1.3170776 -0.6798096 -2.4331207 -1.1776886 -3.3481293c-0.48831177 -0.9150238 -1.0963135 -1.6082153 -1.8239899 -2.0795898c-0.71810913 -0.48524475 -1.5032349 -0.81103516 -2.3553925 -0.97740173c-0.8425751 -0.16636658 -1.7665405 -0.2495575 -2.7718964 -0.2495575c-1.1968536 0 -2.3553925 0.1871643 -3.4756317 0.5614929c-1.1202545 0.3743286 -2.1303864 0.991272 -3.0304108 1.8508301c-0.89045715 0.8595581 -1.5702667 2.0033417 -2.0394287 3.4313202c-0.45957947 1.4141083 -0.49310303 3.050064 -0.10054016 4.9078217l4.0788574 19.319366c-0.43086243 2.6202698 -0.95269775 5.4693146 -1.5654755 8.547104c-0.6127777 3.063919 -1.2495117 6.100113 -1.9101715 9.108597c-0.6510773 2.9945984 -1.3213043 5.8990784 -2.0106964 8.71347c-0.4460144 1.8373718 -0.6838989 3.1018372 -0.7136383 3.7934265l0 0l-9.411667 -46.404175c-0.5266113 -2.4677734 -1.1394043 -4.99794 -1.8383484 -7.5905c-0.68937683 -2.5925446 -1.6564331 -4.98407 -2.9011536 -7.174576c-1.2447205 -2.1904907 -2.8820038 -3.9858704 -4.91185 -5.3861237c-2.020279 -1.4002533 -4.571945 -2.1003876 -7.655014 -2.1003876c-2.690506 0 -5.3187714 0.5614929 -7.8848114 1.6844788c-2.5564575 1.1229706 -4.8591766 2.8490295 -6.908188 5.1781616c-2.0394135 2.3291473 -3.681488 5.2474976 -4.9262085 8.755066c-1.2447205 3.4936981 -1.8670807 7.5627594 -1.8670807 12.207169c0 2.0518646 0.22021484 3.992813 0.6606598 5.8228455c0.4500122 1.8300323 1.1010895 3.452118 1.9532471 4.8662415c0.86172485 1.4141083 1.919754 2.537094 3.1740417 3.368927c1.2542877 0.81796265 2.6713562 1.2269592 4.25119 1.2269592c1.0244904 0 2.0633392 -0.22875977 3.1165771 -0.68626404c1.0532227 -0.45751953 2.001114 -1.1715088 2.8437042 -2.141983c0.85214233 -0.9843292 1.5511017 -2.2112885 2.0968628 -3.6808624c0.5457611 -1.4834442 0.8186493 -3.2233582 0.8186493 -5.2197723c0 -1.4279785 -0.14840698 -2.6618652 -0.44522095 -3.7016602c-0.29682922 -1.0536499 -0.6750183 -1.9270782 -1.134613 -2.620285c-0.45959473 -0.6931915 -0.97184753 -1.2061462 -1.5367432 -1.5388947c-0.5553436 -0.33273315 -1.0963287 -0.49909973 -1.6229248 -0.49909973c-0.7372589 0 -1.3308868 0.24263 -1.7809143 0.7278595c-0.44999695 0.48524475 -0.8473511 0.90808105 -1.1920471 1.2685547c-0.34469604 0.36045837 -0.68460083 0.6723938 -1.0197144 0.9358063c-0.32554626 0.2495575 -0.73246765 0.3743286 -1.2207794 0.3743286c-0.04786682 0 -0.1579895 -0.02772522 -0.33033752 -0.08317566c-0.1627655 -0.0554657 -0.32073975 -0.17330933 -0.473938 -0.35353088c-0.14363098 -0.1940918 -0.29682922 -0.5476227 -0.45959473 -1.0605927c-0.1627655 -0.52682495 -0.24415588 -1.3170776 -0.24415588 -2.3707275c0 -1.8023071 0.27766418 -3.3897247 0.8330078 -4.762253c0.5553436 -1.3863983 1.2494965 -2.5578918 2.0825043 -3.514511c0.8330078 -0.956604 1.7090912 -1.677536 2.6282654 -2.1627655c0.91918945 -0.48524475 1.6995239 -0.7278595 2.341034 -0.7278595c0.84259033 0 1.5176086 0.11091614 2.025055 0.33273315c0.51704407 0.22183228 0.938324 0.5545654 1.2638702 0.99819946c0.33511353 0.42977905 0.63671875 1.0536652 0.9048157 1.8716278c0.27766418 0.80410767 0.55055237 1.8577728 0.8186493 3.1609802l15.353119 74.30365c0.14361572 0.5822754 0.3542633 1.2477417 0.6319275 1.9963989c0.27766418 0.7486572 0.6989441 1.455719 1.2638702 2.1211853c0.57447815 0.6515808 1.3021698 1.1784363 2.1830444 1.5804749c0.88087463 0.4020691 1.9676056 0.6030884 3.2602081 0.6030884c0.6510773 0 1.3069458 -0.04852295 1.9676056 -0.14556885c0.67022705 -0.0970459 1.3260956 -0.34661865 1.9676208 -0.7486572c0.6510773 -0.4020691 1.2494965 -0.9843445 1.7952576 -1.7468567c0.5457611 -0.7625122 1.0005646 -1.7676392 1.3644104 -3.0154114c0.3734131 -1.3170776 0.90960693 -3.368927 1.608551 -6.1555786c0.69895935 -2.7866516 1.4840851 -6.0377197 2.3553925 -9.753265c0.88087463 -3.7155151 1.8096313 -7.7707214 2.786255 -12.165558c0.9861908 -4.394867 1.5128021 -6.7655945 1.579834 -7.112213l7.2672424 34.54196c0.14361572 0.5684204 0.34469604 1.2269592 0.60321045 1.9755859c0.2585144 0.7486572 0.6750183 1.455719 1.2494965 2.1211853c0.5744934 0.6654663 1.3021698 1.1992188 2.1830444 1.6012878c0.8808899 0.4020691 1.9676208 0.6030884 3.2602081 0.6030884c0.6798096 0 1.3596191 -0.04852295 2.0394287 -0.14556885c0.6798096 -0.0970459 1.3452606 -0.34661865 1.9963379 -0.7486572c0.6606598 -0.4020691 1.2494965 -0.99819946 1.7665405 -1.7884521c0.5266113 -0.7902527 0.938324 -1.8161621 1.2351379 -3.0777893c0.33511353 -1.3309326 0.82821655 -3.3619995 1.4793091 -6.0932007c0.6510773 -2.7311707 1.3979034 -5.8990784 2.2404785 -9.503693c0.8521576 -3.6046143 1.752182 -7.5281067 2.7000885 -11.770477c0.95747375 -4.256195 1.900589 -8.602539 2.8293457 -13.039001c0.938324 -4.4503174 1.8383484 -8.865967 2.7000732 -13.2469635c0.8713074 -4.3809967 1.6468506 -8.484726 2.3266754 -12.311157c0.6798096 -3.8403015 1.2159882 -7.3201447 1.608551 -10.439529c0.4021454 -3.1193848 0.60321045 -5.6148834 0.60321045 -7.486511c0 -0.33273315 0 -0.7971802 0 -1.3933258c0 -0.59614563 -0.02394104 -1.2408142 -0.07180786 -1.934021c-0.04788208 -0.7070465 -0.11968994 -1.4418488 -0.21543884 -2.204361c-0.0957489 -0.7625122 -0.22979736 -1.5111542 -0.40213013 -2.2459412c-0.45959473 -1.7607269 -1.2255707 -2.973816 -2.297943 -3.6392822c-1.0628052 -0.6654663 -2.2644348 -0.99819946 -3.6049042 -0.99819946z" fill-rule="evenodd"/><path fill="#ffa1bd" d="m260.07208 212.81851c-0.6753845 1.4799805 -1.2197571 3.0904083 -1.6330261 4.831299c-0.6223755 2.6618805 -0.93356323 5.434662 -0.93356323 8.318359c0 2.329132 0.18673706 4.5473633 0.56015015 6.6546783c0.3734131 2.1072998 0.89523315 3.9789276 1.5654602 5.6148834c0.6798096 1.6359406 1.5128174 2.9738007 2.4990234 4.0135956c0.98617554 1.0397949 2.0872803 1.5596924 3.3032837 1.5596924c1.28302 0 2.4511414 -0.5684204 3.504364 -1.7052612c1.0532227 -1.1506958 1.579834 -2.8282318 1.579834 -5.032608c0 -1.3725128 -0.22979736 -2.4816284 -0.6893921 -3.3273315c-0.45959473 -0.8457031 -0.967041 -1.5388947 -1.5223694 -2.0795898c-0.5553589 -0.5406952 -1.0915222 -1.005127 -1.6085815 -1.3933258c-0.5074463 -0.3881836 -0.94311523 -0.8318329 -1.3069458 -1.3309326c-0.36383057 -0.49909973 -0.6654358 -1.0883179 -0.9048157 -1.7676392c-0.22979736 -0.6932068 -0.34469604 -1.6151428 -0.34469604 -2.765854c0 -1.4002533 0.1244812 -2.765854 0.3734131 -4.0967865c0.2489624 -1.3309326 0.5984192 -2.4816437 1.0484314 -3.452118c0.4500122 -0.97047424 0.97662354 -1.7191315 1.579834 -2.2459564c0.61279297 -0.5406952 1.3069763 -0.81103516 2.0825195 -0.81103516c0.4978943 0 1.0580139 0.16636658 1.6803589 0.49909973c0.6223755 0.31887817 1.2686768 0.9496765 1.9389038 1.8924255c0.67022705 0.9288788 1.3404541 2.2667542 2.0107117 4.0135956c0.67977905 1.7329865 1.2877808 4.013611 1.8239746 6.8418427c0.53619385 2.828247 0.9718323 6.2803497 1.3069458 10.356354c0.33511353 4.0621185 0.50268555 8.859039 0.50268555 14.390732c0 6.308075 -0.2250061 11.673431 -0.6750183 16.096008c-0.4500122 4.422577 -1.0245056 8.082642 -1.7234497 10.980225c-0.6893921 2.8975525 -1.4649353 5.1643066 -2.3266602 6.800232c-0.85217285 1.6359558 -1.6899719 2.8490295 -2.5133972 3.6392822c-0.8138428 0.7763977 -1.608551 1.2824097 -2.3840942 1.5180969c-0.77557373 0.22183228 -1.4601746 0.33273315 -2.0538025 0.33273315c-0.5936279 0 -1.2877808 -0.11090088 -2.082489 -0.33273315c-0.78515625 -0.23568726 -1.598999 -0.7486572 -2.4415894 -1.5388794c-0.8329773 -0.7902527 -1.6851501 -2.003357 -2.5564575 -3.6392822c-0.8713074 -1.6359558 -1.6659851 -3.9026794 -2.3840942 -6.8002625c-0.71810913 -2.8975525 -1.3117371 -6.5506897 -1.7809143 -10.959412c-0.45959473 -4.422577 -0.68937683 -9.787933 -0.68937683 -16.096008c0 -4.9078217 0.08616638 -9.22644 0.2585144 -12.955826c0.17234802 -3.7293854 0.41171265 -7.0012665 0.71810913 -9.815643c0.30638123 -2.8143768 0.6845856 -5.24057 1.1345978 -7.2785645c0.4500122 -2.0379944 0.95269775 -3.8195038 1.5080261 -5.344528c0.4831848 -1.3162231 1.0083618 -2.5107422 1.575592 -3.5835571zm0.5500183 -10.516052c-3.6767273 1.7745819 -6.884262 4.0829315 -9.622635 6.9250336c-2.7288055 2.842102 -5.1224976 6.3496704 -7.181076 10.522705c-2.048996 4.1591797 -3.6766968 8.9214325 -4.8831177 14.286758c-1.2064209 5.351471 -1.8096313 11.271362 -1.8096313 17.759674c0 8.346069 0.79948425 15.610779 2.3984833 21.794067c1.5989838 6.1694336 3.7676544 11.27829 6.5060425 15.326569c2.7383728 4.0482483 5.902832 7.056732 9.493362 9.025391c3.5905457 1.968689 7.353424 2.9530334 11.288635 2.9530334c3.9830933 0 7.755554 -1.1229858 11.317383 -3.368927c3.5713806 -2.2598267 6.702301 -5.517853 9.392822 -9.774078c2.7000732 -4.2562256 4.8352356 -9.413574 6.4055176 -15.472107c1.5702515 -6.0585327 2.3553772 -12.886536 2.3553772 -20.483948c0 -5.8505707 -0.3734131 -11.098053 -1.1202393 -15.742477c-0.73727417 -4.644409 -1.747406 -8.748123 -3.030426 -12.311142c-1.2734375 -3.576889 -2.7383728 -6.613098 -4.394806 -9.108597c-1.6468506 -2.509369 -3.365509 -4.5612183 -5.156006 -6.1555786c-1.7808838 -1.5943451 -3.5809631 -2.7589111 -5.4001465 -3.4936981c-1.8192139 -0.734787 -3.5091553 -1.1021881 -5.0698547 -1.1021881c-2.3266602 0 -4.4043884 0.6030884 -6.2331543 1.8092346c-1.1727905 0.7646179 -2.2274475 1.7088318 -3.1639404 2.8326416l0 0c0.22906494 -0.34179688 0.46984863 -0.6967926 0.7223816 -1.0649872l-2.814972 -5.157379z" fill-rule="evenodd"/><path fill="#ffa1bd" d="m341.7825 211.74379c0.8904724 0 1.7091064 0.36738586 2.4559326 1.1021881c0.7468262 0.734787 1.412262 1.8231049 1.9963379 3.2649384c0.5936279 1.4279938 1.0628052 3.14711 1.4074707 5.157379c0.34469604 2.0102692 0.5170593 4.1799774 0.5170593 6.5091095c0 3.368927 -0.18191528 6.467514 -0.54577637 9.295746c-0.36383057 2.828247 -0.89523315 5.1365814 -1.5941772 6.9250336c-0.6989746 1.7745819 -1.5367737 3.0223236 -2.5133972 3.7432556c-0.44033813 0.32196045 -1.0196533 0.48294067 -1.7379761 0.48294067c-0.85913086 0 -1.9170837 -0.2303009 -3.1738586 -0.6909027l0 -31.796875c0 -0.4436493 0.04309082 -0.8942261 0.12924194 -1.3517303c0.08618164 -0.4713745 0.23458862 -0.8942261 0.44525146 -1.2685547c0.22021484 -0.3743286 0.5314026 -0.6931915 0.9335327 -0.956604c0.40213013 -0.2772827 0.96224976 -0.41592407 1.6803589 -0.41592407zm118.789215 -31.56813c-1.9724121 0 -3.8634033 0.5753479 -5.6730347 1.726059c-1.8096313 1.1368408 -3.6001282 2.8975525 -5.37146 5.2821503c-1.7713013 2.3845978 -3.5761719 5.4069214 -5.4145203 9.067001c-1.8287659 3.6462097 -3.7868042 8.027206 -5.874115 13.14299c-2.0872803 5.1157837 -4.346924 11.021805 -6.7789307 17.718079c-2.4319763 6.696274 -4.7155457 13.080597 -6.8507385 19.153l-10.154022 -29.842072c-0.5936279 -1.7745819 -1.2686462 -3.5006409 -2.025055 -5.178177c-0.7468262 -1.677536 -1.7186584 -3.1540375 -2.9154968 -4.4295197c-1.1872864 -1.2893524 -2.6426392 -2.3083496 -4.366089 -3.0569916c-1.7234802 -0.7486572 -3.8299255 -1.1229858 -6.3193665 -1.1229858c-3.0447693 0 -6.051239 0.5545654 -9.019409 1.663681c-2.9585876 1.1091156 -5.634735 2.8213043 -8.028442 5.1365814c-2.3840942 2.3014069 -4.3277893 5.205887 -5.831024 8.713455c-1.4936523 3.5075836 -2.2404785 7.6112976 -2.2404785 12.311157c0 2.0657196 0.22979736 4.027466 0.6893921 5.8852386c0.4595642 1.8577576 1.144165 3.4936981 2.053772 4.9078217c0.90960693 1.4002533 2.0011292 2.5024414 3.2745667 3.306549c1.28302 0.7902374 2.7096558 1.1853638 4.279907 1.1853638c1.0245056 0 2.063385 -0.22875977 3.1165771 -0.68626404c1.0532532 -0.45751953 2.0011292 -1.1715088 2.8437195 -2.141983c0.85214233 -0.9843292 1.551117 -2.2112885 2.0968628 -3.6808624c0.54577637 -1.4834442 0.81863403 -3.2233582 0.81863403 -5.2197723c0 -1.4279785 -0.14840698 -2.6618652 -0.44522095 -3.7016602c-0.29681396 -1.0536499 -0.6750183 -1.9270782 -1.134613 -2.620285c-0.4595642 -0.6931915 -0.9718323 -1.2061462 -1.5367432 -1.5388947c-0.55532837 -0.33273315 -1.096283 -0.49909973 -1.6229248 -0.49909973c-0.73724365 0 -1.3308716 0.24263 -1.7808838 0.7278595c-0.4500122 0.48524475 -0.8473816 0.90808105 -1.1920776 1.2685547c-0.34469604 0.36045837 -0.6845703 0.6723938 -1.0197144 0.9358063c-0.325531 0.2495575 -0.7324524 0.3743286 -1.2207642 0.3743286c-0.04788208 0 -0.1579895 -0.02772522 -0.33032227 -0.08317566c-0.17236328 -0.0554657 -0.3399048 -0.18023682 -0.50268555 -0.3743286c-0.16278076 -0.1940918 -0.325531 -0.5476227 -0.48831177 -1.0605927c-0.15319824 -0.51297 -0.22979736 -1.2962799 -0.22979736 -2.3499298c0 -1.2338867 0.18191528 -2.3984528 0.54577637 -3.4937134c0.3734131 -1.1091156 0.8665161 -2.1488953 1.4792786 -3.1193848c0.6223755 -0.970459 1.3452759 -1.8438873 2.1687012 -2.6202698c0.8330078 -0.77638245 1.6659851 -1.4349213 2.498993 -1.9756165c0.84259033 -0.54067993 1.6372986 -0.9496765 2.3841248 -1.226944c0.7564087 -0.2772827 1.3644104 -0.41592407 1.8239746 -0.41592407c0.5840759 0 1.0388794 0.05545044 1.3644104 0.16636658c0.33511353 0.11091614 0.6319275 0.32580566 0.8904724 0.6446686c0.2585144 0.30500793 0.5505371 0.8457031 0.8760681 1.6220856c0.32556152 0.7625122 0.67022705 1.6983185 1.0340881 2.807434c-0.019165039 1.1229858 -0.05267334 2.6826782 -0.10055542 4.679077c-0.038269043 1.9963989 -0.09573364 4.235428 -0.17233276 6.7170715c-0.0670166 2.4816284 -0.1579895 5.1642914 -0.27288818 8.047989c-0.11489868 2.8836975 -0.24414062 5.9198914 -0.38775635 9.108597c-0.11489868 2.204361 -0.2250061 4.2908783 -0.33035278 6.259552c-0.09573364 1.9686737 -0.2010498 3.9096222 -0.3159485 5.8228607c-0.11489868 1.913208 -0.22979736 3.8403015 -0.34469604 5.78125c-0.11489868 1.927063 -0.22979736 3.923462 -0.34469604 5.989197c-0.24893188 3.6323547 -0.6175842 6.848755 -1.105896 9.649292c-0.48831177 2.7866516 -1.1633301 5.1019287 -2.025055 6.945801c-0.86172485 1.8300476 -1.9484558 3.2233582 -3.2601929 4.1799927c-1.3021545 0.956604 -2.9490356 1.434906 -4.9405823 1.434906c-0.938324 0 -1.7043152 -0.18023682 -2.297943 -0.54067993c-0.5840454 -0.36047363 -1.086731 -0.8110657 -1.5080261 -1.3517456c-0.42129517 -0.5545654 -0.7803345 -1.1784363 -1.0771484 -1.8716431c-0.28723145 -0.69317627 -0.5649109 -1.400238 -0.8330078 -2.1211548c-0.26809692 -0.72091675 -0.6080017 -1.455719 -1.0197144 -2.2043762c-0.40213013 -0.7625122 -0.98620605 -1.1437683 -1.7521667 -1.1437683c-0.79470825 0 -1.4984741 0.2911377 -2.1112366 0.8734131c-0.61279297 0.5823059 -1.105896 1.3032227 -1.4793091 2.1627808c-0.3829956 0.8457031 -0.66064453 1.7468567 -0.8330078 2.7034607c-0.13726807 0.7113037 -0.22271729 1.4186401 -0.2564392 2.1220398l0 0c-1.031311 -2.7669067 -2.0565186 -5.609314 -3.0755615 -8.527161c-1.2734375 -3.6600647 -2.546875 -7.285492 -3.820343 -10.876251c-1.2734375 -3.6046143 -2.5420837 -6.9042053 -3.8059692 -9.898834c-1.263855 -3.0084534 -2.5516663 -5.6079407 -3.8634033 -7.7984467c-0.61865234 -1.0330658 -1.1371765 -1.7485352 -1.5556335 -2.1463776l0 0c0.6810303 -0.1184845 1.5155334 -0.5814667 2.50354 -1.388916c1.560669 -1.2754822 2.920288 -2.9114227 4.078827 -4.9078217c1.1585693 -1.9963989 2.0585938 -4.408722 2.7001038 -7.236969c0.64151 -2.8282318 0.96224976 -6.176361 0.96224976 -10.044403c0 -8.193573 -2.221344 -14.453125 -6.664032 -18.778671c-4.442688 -4.325531 -10.709351 -6.488312 -18.800018 -6.488312c-3.4181824 0 -6.7214966 0.15943909 -9.909882 0.47831726c-3.188385 0.31886292 -6.1948547 0.8595581 -9.019409 1.6220703c-2.8245544 0.7625122 -5.428894 1.8092346 -7.813019 3.1401825c-2.3745422 1.3309326 -4.442688 3.0361938 -6.2044373 5.1157837c-1.7521667 2.0657196 -3.1213684 4.554291 -4.1075745 7.4657135c-0.97662354 2.9114227 -1.4649353 6.245697 -1.4649353 10.002808c0 2.0657196 0.22979736 4.027466 0.6893921 5.8852386c0.45959473 1.8577576 1.1441956 3.4936981 2.053772 4.9078217c0.90960693 1.4002533 2.0011292 2.5024414 3.2745667 3.306549c1.28302 0.7902374 2.7096558 1.1853638 4.2799377 1.1853638c1.0244751 0 2.0633545 -0.22875977 3.1165771 -0.68626404c1.0532227 -0.45751953 2.0011292 -1.1715088 2.843689 -2.141983c0.85217285 -0.9843292 1.551117 -2.2112885 2.0968933 -3.6808624c0.54574585 -1.4834442 0.81863403 -3.2233582 0.81863403 -5.2197723c0 -1.4279785 -0.14840698 -2.6618652 -0.44522095 -3.7016602c-0.29681396 -1.0536499 -0.6750183 -1.9270782 -1.134613 -2.620285c-0.45959473 -0.6931915 -0.9718323 -1.2061462 -1.5367432 -1.5388947c-0.5553589 -0.33273315 -1.0963135 -0.49909973 -1.6229248 -0.49909973c-0.73727417 0 -1.3309021 0.24263 -1.7809143 0.7278595c-0.4500122 0.48524475 -0.8473511 0.90808105 -1.1920471 1.2685547c-0.34469604 0.36045837 -0.68460083 0.6723938 -1.0197144 0.9358063c-0.32556152 0.2495575 -0.7324829 0.3743286 -1.2207947 0.3743286c-0.047851562 0 -0.1579895 -0.02772522 -0.33032227 -0.08317566c-0.16278076 -0.0554657 -0.32073975 -0.17330933 -0.473938 -0.35353088c-0.14364624 -0.1940918 -0.29681396 -0.5476227 -0.45959473 -1.0605927c-0.16278076 -0.52682495 -0.24417114 -1.3170776 -0.24417114 -2.3707275c0 -1.4834442 0.34469604 -2.9044952 1.0340881 -4.263153c0.6989441 -1.3586731 1.6372681 -2.571762 2.814972 -3.6392822c1.1777039 -1.0813904 2.5133667 -1.934021 4.0070496 -2.5578918c1.5032349 -0.6377411 2.9777222 -0.956604 4.423523 -0.956604c1.263855 0 1.895813 0.478302 1.895813 1.434906l0 74.615585c0 3.812561 0.71810913 6.626953 2.1542969 8.443115c1.4362183 1.8161926 3.5331116 2.7242737 6.290619 2.7242737c2.7288208 0 4.816101 -0.90808105 6.261902 -2.7242737c1.4553528 -1.8161621 2.1830444 -4.630554 2.1830444 -8.443115l0 -35.049637l0 0c1.4785767 3.6564178 2.8860474 7.354019 4.222473 11.092789c1.560669 4.3394165 3.1213684 8.796661 4.6820374 13.371735c1.570282 4.5751038 3.1453247 9.157135 4.7251587 13.746094c1.5894165 4.588928 3.2123108 8.983795 4.868744 13.18457c1.7138977 4.297821 3.791626 7.65979 6.233185 10.085999c2.4415588 2.426178 5.1990967 3.6392822 8.272583 3.6392822c1.7713318 0 3.384674 -0.1871643 4.840027 -0.5614929c1.4649353 -0.36047363 2.786255 -0.80410767 3.9639587 -1.3309326c1.1872559 -0.52682495 2.2165527 -1.0883179 3.08786 -1.6844788c0.8713074 -0.5822754 2.0107117 -1.434906 3.4181824 -2.5578918l-2.3122864 -6.176361c-1.0723877 1.1368408 -1.8240051 1.8300171 -2.2548523 2.0795898c-0.42129517 0.24954224 -0.8282471 0.3743286 -1.2207947 0.3743286c-0.98620605 0 -2.0633545 -0.70706177 -3.2314758 -2.1211853c-1.1585388 -1.4002686 -2.3649597 -3.403595 -3.6192627 -6.01001c-0.7359009 -1.5292358 -1.4784241 -3.196869 -2.2275085 -5.002899l0 0c0.5534973 0.5458069 1.1619568 1.0211487 1.8253784 1.4259949c1.1585388 0.6932068 2.455902 1.2269592 3.8921204 1.6012878c1.4362183 0.3743286 2.9298706 0.5614929 4.4809875 0.5614929c3.523529 0 6.491699 -0.7416992 8.904541 -2.2251587c2.4128113 -1.4972839 4.380432 -3.5699463 5.902832 -6.2179565c1.5223694 -2.6618652 2.666565 -5.7466125 3.4325562 -9.25415c0.7755432 -3.5075684 1.3404541 -7.250824 1.6947327 -11.229797c0.35424805 -3.9789429 0.5936279 -8.131165 0.7180786 -12.456726c0.13406372 -4.325531 0.28726196 -8.67186 0.45959473 -13.039001l0.27288818 -7.5281067l13.572205 39.117035l5.9746704 0c1.3596191 -4.5335083 2.5037842 -8.318359 3.4325256 -11.354553c0.938324 -3.0361938 1.8000488 -5.8158875 2.585205 -8.339142c0.78512573 -2.5232239 1.5319519 -4.8592834 2.2404785 -7.008194c0.71810913 -2.1627808 1.4170837 -4.221573 2.0968628 -6.1763763c0.6893921 -1.9548187 1.3931274 -3.8610992 2.1112366 -5.718872c0.061553955 -0.1583252 0.11935425 -0.3113556 0.17337036 -0.45906067l0 0c0.010009766 0.5259247 0.033599854 1.1225891 0.07080078 1.7900085c0.17233276 3.0777893 0.36383057 6.356598 0.5744934 9.836441c0.22021484 3.4798431 0.4595642 7.042877 0.71810913 10.689087c0.26809692 3.6462097 0.53619385 7.1953735 0.80426025 10.647461c0.27767944 3.438263 0.5601196 6.6685486 0.8473816 9.690887c0.28723145 3.0084534 0.5601196 5.587158 0.81863403 7.7360535c0.1244812 0.99819946 0.31118774 2.1766357 0.5601196 3.5353088c0.24893188 1.3586731 0.7468262 2.6896057 1.4936523 3.9927979c0.7564087 1.2893372 1.8000793 2.3568726 3.130951 3.2025757c1.3404541 0.8457031 3.0974426 1.2685547 5.2709045 1.2685547c1.5128174 0 2.9250793 -0.22183228 4.2368164 -0.6654663c1.3117371 -0.44366455 2.508606 -0.99819946 3.5905457 -1.6636963c1.0915222 -0.6654663 2.0538025 -1.3586426 2.8867798 -2.0795593c0.8330078 -0.73480225 1.8240051 -1.6983337 2.9729614 -2.890625l-1.7234497 -5.7604675c-1.3787537 1.0536499 -2.3601685 1.7468567 -2.9442444 2.0795898c-0.5840454 0.33273315 -1.1776733 0.49908447 -1.7808838 0.49908447c-0.21066284 0 -0.37823486 -0.14556885 -0.50268555 -0.43670654c-0.11489868 -0.30499268 -0.24414062 -0.9635315 -0.38778687 -1.9756165c-0.10531616 -0.7347717 -0.2585144 -2.1558228 -0.4595642 -4.263153c-0.20108032 -2.1211548 -0.4165039 -4.720642 -0.64630127 -7.7984314c-0.22979736 -3.0916443 -0.47872925 -6.5506897 -0.7468262 -10.377136c-0.26809692 -3.8264465 -0.54577637 -7.812317 -0.8330078 -11.957626c-0.28726196 -4.1591797 -0.56970215 -8.380737 -0.8473816 -12.664688c-0.26809692 -4.283951 -0.5266113 -8.42926 -0.7755432 -12.435928c-0.23937988 -4.0066833 -0.45959473 -7.763794 -0.66067505 -11.271362c-0.2010498 -3.5075684 -0.3590393 -6.5715027 -0.473938 -9.191772c-0.10531616 -2.09346 -0.028717041 -4.006668 0.22979736 -5.73967c0.2585144 -1.7468414 0.6175842 -3.2926788 1.0771484 -4.6374664c0.46917725 -1.3448029 1.0101624 -2.5163116 1.6229248 -3.514511c0.622345 -1.0120697 1.2399292 -1.8439026 1.8527222 -2.4954987c0.622345 -0.6516113 1.1920471 -1.1229858 1.7091064 -1.4141235c0.5266113 -0.30500793 0.9335327 -0.45750427 1.2207642 -0.45750427c0.3829956 0 0.68460083 0.17329407 0.9048157 0.51989746c0.22979736 0.33273315 0.46917725 0.8318329 0.71810913 1.4972992c0.2585144 0.65159607 0.6080017 1.434906 1.0484314 2.3499298c0.4404602 0.9150238 1.1729126 1.3725281 2.1974182 1.3725281c1.2255554 0 2.1112366 -0.7902374 2.6569824 -2.3707275c0.5553589 -1.5943451 0.8330078 -3.3827972 0.8330078 -5.365341c0 -2.5786743 -0.6319275 -4.4918976 -1.895813 -5.7396545c-1.263855 -1.247757 -2.8005981 -1.8716278 -4.6102295 -1.8716278z" fill-rule="evenodd"/></g></svg>