<svg version="1.1" viewBox="0.0 0.0 320.0 500.0" fill="none" stroke="none" stroke-linecap="square" stroke-miterlimit="10" xmlns:xlink="http://www.w3.org/1999/xlink" xmlns="http://www.w3.org/2000/svg"><clipPath id="p.0"><path d="m0 0l320.0 0l0 500.0l-320.0 0l0 -500.0z" clip-rule="nonzero"/></clipPath><g clip-path="url(#p.0)"><path fill="#000000" fill-opacity="0.0" d="m0 0l320.0 0l0 500.0l-320.0 0z" fill-rule="evenodd"/><path fill="#9f9f9f" d="m23.431759 24.976377l273.13385 0l0 450.04724l-273.13385 0z" fill-rule="evenodd"/><path fill="#6f6f6f" d="m30.75872 31.997456l258.4252 0l0 435.93698l-258.4252 0z" fill-rule="evenodd"/><path fill="#d7d7d7" d="m37.73556 38.825634l244.47244 0l0 422.29922l-244.47244 0z" fill-rule="evenodd"/><path fill="#9f9f9f" d="m23.433071 24.976377l273.13385 0l0 450.04724l-273.13385 0z" fill-rule="evenodd"/><path fill="#c4c4c4" d="m30.760174 31.997581l258.4252 0l0 435.937l-258.4252 0z" fill-rule="evenodd"/><path fill="#a7a7a7" d="m30.761139 249.96556l129.2126 -217.9685l129.2126 217.9685l-129.2126 217.96849z" fill-rule="evenodd"/><path fill="#d3d3d3" d="m37.024963 249.96577l122.96063 -207.40158l122.96063 207.40158l-122.96063 207.40157z" fill-rule="evenodd"/></g></svg>