<svg version="1.1" viewBox="0.0 0.0 320.0 500.0" fill="none" stroke="none" stroke-linecap="square" stroke-miterlimit="10" xmlns:xlink="http://www.w3.org/1999/xlink" xmlns="http://www.w3.org/2000/svg"><clipPath id="p.0"><path d="m0 0l320.0 0l0 500.0l-320.0 0l0 -500.0z" clip-rule="nonzero"/></clipPath><g clip-path="url(#p.0)"><path fill="#000000" fill-opacity="0.0" d="m0 0l320.0 0l0 500.0l-320.0 0z" fill-rule="evenodd"/><path fill="#666666" d="m265.8609 250.0l-42.730927 15.196136l0 -30.392258zm-31.02179 -74.87779l-19.464508 40.9646l-21.49028 -21.49028zm-74.86798 -31.011978l15.196121 42.730927l-30.392242 0zm-74.87779 31.011978l40.964592 19.47432l-21.49028 21.49028zm-31.011974 74.87779l42.730923 -15.196121l0 30.392258zm31.011974 74.86798l19.474312 -40.954773l21.49028 21.490265zm74.87779 31.02179l-15.196121 -42.730927l30.392242 0zm74.86798 -31.02179l-40.95479 -19.464508l21.49028 -21.490265zm-127.81287 -74.86798l0 0c0 -29.240646 23.704239 -52.944885 52.944885 -52.944885c29.240646 0 52.944885 23.704239 52.944885 52.944885c0 29.240662 -23.704239 52.944885 -52.944885 52.944885c-29.240646 0 -52.944885 -23.704224 -52.944885 -52.944885z" fill-rule="evenodd"/></g></svg>