<svg version="1.1" viewBox="0.0 0.0 500.0 500.0" fill="none" stroke="none" stroke-linecap="square" stroke-miterlimit="10" xmlns:xlink="http://www.w3.org/1999/xlink" xmlns="http://www.w3.org/2000/svg"><clipPath id="p.0"><path d="m0 0l500.0 0l0 500.0l-500.0 0l0 -500.0z" clip-rule="nonzero"/></clipPath><g clip-path="url(#p.0)"><path fill="#000000" fill-opacity="0.0" d="m0 0l500.0 0l0 500.0l-500.0 0z" fill-rule="evenodd"/><path fill="#434343" d="m395.1319 139.04199l-23.109528 328.97638l-244.17464 0l-23.109535 -328.97638z" fill-rule="evenodd"/><path fill="#434343" d="m90.07874 110.60056l319.84253 0l0 34.488182l-319.84253 0z" fill-rule="evenodd"/><path fill="#434343" d="m180.35294 113.63517l0 0c0 -13.741737 13.907822 -26.38646 36.262558 -32.969215c22.354721 -6.5827484 49.587173 -6.052513 71.0045 1.3825073c21.417328 7.4350204 33.600006 20.587746 31.764496 34.293747l-17.905823 -0.6981888l0 0c1.9469299 -7.2551346 -6.758301 -14.3284 -22.639496 -18.39537c-15.881226 -4.066963 -36.350998 -4.465004 -53.235474 -1.0351791c-16.884491 3.4298248 -27.432755 10.128708 -27.432755 17.4217z" fill-rule="evenodd"/><path fill="#efefef" d="m140.45015 259.09357l0 9.957214l13.536514 0l0 41.52295l11.178543 0l0 -41.52295l13.53653 0l0 -9.957214z" fill-rule="evenodd"/><path fill="#efefef" d="m200.59305 268.56674c1.3390961 0 2.5132294 0.042266846 3.5224 0.12677002c1.0091705 0.07684326 1.8922119 0.2996521 2.6490784 0.6684265c1.0868073 0.53015137 1.8533936 1.2561951 2.299759 2.1781616c0.44636536 0.92193604 0.66955566 2.0283203 0.66955566 3.3190613c0 1.4520874 -0.18113708 2.6122131 -0.54341125 3.4804077c-0.35578918 0.86050415 -0.9218445 1.6480103 -1.6981201 2.3625488c-0.81510925 0.7375488 -1.8242798 1.2100525 -3.0275269 1.417511c-1.2032471 0.20742798 -2.6976013 0.31115723 -4.4830627 0.31115723l-3.4350739 0l0 -13.864044zm48.93524 3.6994019l5.3272705 18.46231l-10.654556 0l5.327286 -18.46231zm-64.10196 -13.172577l0 51.480164l11.120316 0l0 -18.877197l5.152603 0l11.818985 18.877197l13.652969 0l-14.468063 -22.057983c2.7558136 -1.5903931 4.8744354 -3.584137 6.35585 -5.9812317c1.4878845 -2.3971252 2.2318268 -5.497223 2.2318268 -9.3003235c0 -2.7658997 -0.48194885 -5.0631104 -1.4458313 -6.8916626c-0.957428 -1.8362732 -2.251236 -3.330597 -3.8814392 -4.4830627c-1.6107941 -1.1524658 -3.3380432 -1.9015503 -5.181717 -2.247284c-1.843689 -0.34573364 -4.046402 -0.5186157 -6.6081543 -0.5186157zm57.814026 0l-16.01094 51.480164l11.265884 0l2.998413 -10.406677l16.069153 0l2.998413 10.406677l11.556976 0l-16.010925 -51.480164z" fill-rule="evenodd"/><path fill="#efefef" d="m295.63977 258.1601c-5.68631 0 -10.34079 1.517395 -13.96347 4.552185c-3.616211 3.0271301 -5.4243164 6.9377747 -5.4243164 11.731995c0 3.5726013 0.7989502 6.565155 2.3967896 8.977631c1.6043396 2.4047852 4.230774 4.3101807 7.8793335 5.716156c1.5913696 0.622345 3.2927551 1.137085 5.1040955 1.5443115c1.81781 0.39950562 3.541809 0.82974243 5.171997 1.290741c1.5525818 0.43792725 2.72995 1.0679321 3.5321045 1.8900146c0.8086548 0.8144226 1.2129517 1.7863159 1.2129517 2.9157104c0 1.2216187 -0.27816772 2.1435852 -0.8345032 2.7658997c-0.5498657 0.62231445 -1.25177 1.1409302 -2.1056824 1.5558167c-0.6986389 0.32269287 -1.6010742 0.55319214 -2.707306 0.6914673c-1.1062012 0.13830566 -1.9989319 0.2074585 -2.6781921 0.2074585c-2.6393738 0 -5.391968 -0.58776855 -8.257751 -1.7632751c-2.859314 -1.1755066 -5.4437256 -2.8580933 -7.753174 -5.04776l-1.2226562 0l0 12.342804c2.3288574 1.1524658 4.8259277 2.1051636 7.4911804 2.8580933c2.6717224 0.74523926 5.802765 1.1178894 9.393097 1.1178894c6.2102966 0 11.123535 -1.5827026 14.739746 -4.7481384c3.6226807 -3.1730957 5.434021 -7.2950134 5.434021 -12.365814c0 -3.5495605 -0.79244995 -6.43454 -2.3773804 -8.654938c-1.5784607 -2.2280884 -4.027008 -3.9875183 -7.345642 -5.2782593c-1.6884155 -0.6453552 -3.2668762 -1.1524353 -4.7353516 -1.5212402c-1.4620056 -0.3687744 -2.9887085 -0.7490845 -4.580078 -1.1409302c-2.4259033 -0.5992737 -4.075531 -1.2600098 -4.9488525 -1.9822083c-0.87332153 -0.7298889 -1.309967 -1.7747803 -1.309967 -3.134674c0 -0.8989258 0.271698 -1.6979675 0.815094 -2.3971252c0.543396 -0.7068176 1.1935425 -1.2331238 1.9504089 -1.5788574c0.8539429 -0.41488647 1.7402039 -0.6953125 2.6588135 -0.8412781c0.9250488 -0.15368652 1.853363 -0.23049927 2.784912 -0.23049927c2.6393738 0 5.2237854 0.56085205 7.753174 1.6825867c2.5358887 1.1140442 4.677124 2.500824 6.4237976 4.1603394l1.1935425 0l0 -11.858734c-2.0377808 -0.9911194 -4.450714 -1.8132019 -7.2388916 -2.466278c-2.7817078 -0.6607361 -5.5989685 -0.99108887 -8.451843 -0.99108887z" fill-rule="evenodd"/><path fill="#efefef" d="m320.70416 259.09357l0 51.480164l11.178558 0l0 -22.680298l16.505798 0l0 22.680298l11.178558 0l0 -51.480164l-11.178558 0l0 18.842651l-16.505798 0l0 -18.842651z" fill-rule="evenodd"/></g></svg>