<svg version="1.1" viewBox="0.0 0.0 500.0 500.0" fill="none" stroke="none" stroke-linecap="square" stroke-miterlimit="10" xmlns:xlink="http://www.w3.org/1999/xlink" xmlns="http://www.w3.org/2000/svg"><clipPath id="p.0"><path d="m0 0l500.0 0l0 500.0l-500.0 0l0 -500.0z" clip-rule="nonzero"/></clipPath><g clip-path="url(#p.0)"><path fill="#000000" fill-opacity="0.0" d="m0 0l500.0 0l0 500.0l-500.0 0z" fill-rule="evenodd"/><path fill="#000000" d="m58.435696 454.9777l226.07874 0l0 14.393707l-226.07874 0z" fill-rule="evenodd"/><path fill="#000000" d="m148.62993 48.019684l14.393692 0l0 413.92126l-14.393692 0z" fill-rule="evenodd"/><path fill="#000000" d="m148.62993 48.019684l181.98424 0l0 14.393703l-181.98424 0z" fill-rule="evenodd"/><path fill="#000000" d="m316.22046 48.02148l14.393707 0l0 74.92914l-14.393707 0z" fill-rule="evenodd"/><path fill="#000000" d="m148.62965 123.98805l75.90552 -75.968506l10.173218 10.173229l-75.9055 75.968506z" fill-rule="evenodd"/><path fill="#000000" d="m294.24942 148.47208l0 0c9.4279785 -27.805588 39.611725 -42.703575 67.41733 -33.275597l0 0c13.352692 4.5274734 24.359985 14.173866 30.600372 26.817055c6.240387 12.643204 7.202667 27.247559 2.6752014 40.600266l0 0c-9.4279785 27.805588 -39.611725 42.703568 -67.41733 33.27559l0 0c-27.805573 -9.4279785 -42.703552 -39.61174 -33.275574 -67.41731zm14.220856 4.821823l0 0c-6.7649536 19.95163 3.9249573 41.60968 23.876556 48.374634c19.95163 6.7649536 41.60968 -3.9249573 48.374634 -23.876572l0 0c6.7649536 -19.951614 -3.9249573 -41.609665 -23.876556 -48.37462l0 0c-19.95163 -6.7649536 -41.60968 3.924942 -48.374634 23.876556z" fill-rule="evenodd"/><path fill="#000000" d="m316.22046 202.16798l14.393707 0l0 125.133865l-14.393707 0z" fill-rule="evenodd"/><path fill="#000000" d="m394.6733 183.43004l0 0c9.4279785 -27.805588 -5.470001 -57.98935 -33.275574 -67.41733l0 0c-13.352722 -4.5274734 -27.957062 -3.565178 -40.60028 2.675209c-12.643188 6.240387 -22.289581 17.247673 -26.817047 30.60038l0 0c-9.4279785 27.805588 5.470001 57.98935 33.275574 67.41733l0 0c27.805603 9.4279785 57.98935 -5.4700165 67.41733 -33.27559zm-14.220856 -4.8218384l0 0c-6.7649536 19.951614 -28.423004 30.64151 -48.374634 23.876556c-19.9516 -6.7649536 -30.64151 -28.423004 -23.876556 -48.37462l0 0c6.7649536 -19.951614 28.423004 -30.641518 48.374634 -23.876572l0 0c19.9516 6.7649536 30.64151 28.42302 23.876556 48.374634z" fill-rule="evenodd"/><path fill="#000000" d="m317.5198 143.93452l6.993805 -3.4514923l5.7375793 11.626144l11.62616 -5.7375793l3.451477 6.993805l-11.62616 5.7375793l5.7375793 11.626129l-6.993805 3.4514923l-5.737549 -11.626144l-11.62616 5.7375793l-3.451477 -6.993805l11.626129 -5.7375793z" fill-rule="evenodd"/><path fill="#000000" d="m351.43784 155.4317l6.993805 -3.4514923l5.7375793 11.626144l11.626129 -5.7375793l3.4515076 6.993805l-11.62616 5.7375793l5.7375793 11.626129l-6.993805 3.4514923l-5.7375793 -11.626144l-11.626129 5.7375793l-3.451477 -6.993805l11.626129 -5.7375793z" fill-rule="evenodd"/><path fill="#000000" d="m313.72684 207.43309l13.858246 3.9055023l-29.606293 104.8504l-13.858276 -3.9055176z" fill-rule="evenodd"/><path fill="#000000" d="m333.10825 207.43309l-13.858276 3.9055023l29.606293 104.8504l13.858276 -3.9055176z" fill-rule="evenodd"/><path fill="#000000" d="m316.59808 323.85388l14.015747 3.3385925l-27.40158 114.77167l-14.015747 -3.3385925z" fill-rule="evenodd"/><path fill="#000000" d="m330.237 323.85388l-14.015778 3.3385925l27.40158 114.77167l14.015747 -3.3385925z" fill-rule="evenodd"/></g></svg>