<svg version="1.1" viewBox="0.0 0.0 500.0 500.0" fill="none" stroke="none" stroke-linecap="square" stroke-miterlimit="10" xmlns:xlink="http://www.w3.org/1999/xlink" xmlns="http://www.w3.org/2000/svg"><clipPath id="p.0"><path d="m0 0l500.0 0l0 500.0l-500.0 0l0 -500.0z" clip-rule="nonzero"/></clipPath><g clip-path="url(#p.0)"><path fill="#000000" fill-opacity="0.0" d="m0 0l500.0 0l0 500.0l-500.0 0z" fill-rule="evenodd"/><path fill="#000000" d="m58.435696 454.9777l226.07874 0l0 14.393707l-226.07874 0z" fill-rule="evenodd"/><path fill="#000000" d="m148.62993 48.019684l14.393692 0l0 413.92126l-14.393692 0z" fill-rule="evenodd"/><path fill="#000000" d="m148.62993 48.019684l181.98424 0l0 14.393703l-181.98424 0z" fill-rule="evenodd"/><path fill="#000000" d="m316.22046 48.019684l14.393707 0l0 54.771652l-14.393707 0z" fill-rule="evenodd"/><path fill="#000000" d="m148.62965 123.98805l75.90552 -75.968506l10.173218 10.173229l-75.9055 75.968506z" fill-rule="evenodd"/><path fill="#000000" d="m270.25198 155.08844l0 0c0 -29.362411 23.802917 -53.16535 53.165344 -53.16535l0 0c14.100311 0 27.623138 5.6013336 37.593567 15.57177c9.970459 9.970436 15.571777 23.493256 15.571777 37.593582l0 0c0 29.362411 -23.802948 53.16536 -53.165344 53.16536l0 0c-29.362427 0 -53.165344 -23.802948 -53.165344 -53.16536zm15.017059 0l0 0c0 21.06871 17.07956 38.14827 38.148285 38.14827c21.068695 0 38.148254 -17.07956 38.148254 -38.14827l0 0c0 -21.06871 -17.07956 -38.14827 -38.148254 -38.14827l0 0c-21.068726 0 -38.148285 17.07956 -38.148285 38.14827z" fill-rule="evenodd"/><path fill="#000000" d="m316.22046 202.16798l14.393707 0l0 125.133865l-14.393707 0z" fill-rule="evenodd"/><path fill="#000000" d="m317.71936 207.82866l9.417328 10.897629l-76.88188 66.48819l-9.417328 -10.897644z" fill-rule="evenodd"/><path fill="#000000" d="m376.5829 155.9572l0 0c0 -29.362404 -23.802948 -53.165344 -53.165344 -53.165344l0 0c-14.100342 0 -27.623169 5.6013336 -37.593597 15.57177c-9.970428 9.970436 -15.571777 23.493248 -15.571777 37.593575l0 0c0 29.362427 23.802948 53.16536 53.165375 53.16536l0 0c29.362396 0 53.165344 -23.802933 53.165344 -53.16536zm-15.01709 0l0 0c0 21.06871 -17.07956 38.14827 -38.148254 38.14827c-21.068726 0 -38.148285 -17.07956 -38.148285 -38.14827l0 0c0 -21.068695 17.07956 -38.148262 38.148285 -38.148262l0 0c21.068695 0 38.148254 17.079567 38.148254 38.148262z" fill-rule="evenodd"/><path fill="#000000" d="m329.11548 208.69742l-9.417328 10.897644l76.8819 66.48819l9.417328 -10.897644z" fill-rule="evenodd"/><path fill="#000000" d="m318.14264 319.77032l12.472443 7.2125854l-59.08661 102.14172l-12.472443 -7.2125854z" fill-rule="evenodd"/></g></svg>