<svg version="1.1" viewBox="0.0 0.0 100.0 100.0" fill="none" stroke="none" stroke-linecap="square" stroke-miterlimit="10" xmlns:xlink="http://www.w3.org/1999/xlink" xmlns="http://www.w3.org/2000/svg"><clipPath id="p.0"><path d="m0 0l100.0 0l0 100.0l-100.0 0l0 -100.0z" clip-rule="nonzero"/></clipPath><g clip-path="url(#p.0)"><path fill="#000000" fill-opacity="0.0" d="m0 0l100.0 0l0 100.0l-100.0 0z" fill-rule="evenodd"/><path fill="#6a6124" d="m54.197033 19.09714l0 0c0 -2.068304 1.676693 -3.744997 3.744999 -3.744997l15.880081 0l0 0c0.9932327 0 1.9457932 0.3945608 2.648117 1.0968838c0.7023239 0.7023239 1.096878 1.6548786 1.096878 2.6481133l0 6.620241c0 2.068306 -1.6766891 3.744997 -3.744995 3.744997l-15.880081 0c-2.068306 0 -3.744999 -1.676691 -3.744999 -3.744997z" fill-rule="evenodd"/><path fill="#5b4216" d="m44.879993 13.039155l0 0c0 -1.4958277 1.2126083 -2.708436 2.708435 -2.708436l4.7878532 0l0 0c0.71832275 0 1.4072227 0.2853527 1.9151535 0.7932825c0.50793076 0.50793076 0.79328156 1.1968317 0.79328156 1.9151535l0 14.835097c0 1.4958267 -1.2126083 2.708435 -2.708435 2.708435l-4.7878532 0l0 0c-1.4958267 0 -2.708435 -1.2126083 -2.708435 -2.708435z" fill-rule="evenodd"/><path fill="#833011" d="m22.435696 42.88948l0 0c0 -7.4144745 6.01062 -13.425095 13.425095 -13.425095l28.267918 0l0 0c3.5605621 0 6.9752884 1.4144249 9.492981 3.9321175c2.5176926 2.5176964 3.9321136 5.932419 3.9321136 9.492977l0 19.165558c0 7.4144745 -6.0106125 13.425095 -13.425095 13.425095l-28.267918 0c-7.4144745 0 -13.425095 -6.01062 -13.425095 -13.425095z" fill-rule="evenodd"/><path fill="#833011" d="m28.459318 38.535538l0 0c0 -6.3157196 5.1199017 -11.435619 11.435617 -11.435619l20.215378 0l0 0c3.0329132 0 5.9416122 1.2048206 8.086205 3.3494148c2.1445923 2.144596 3.349411 5.0532913 3.349411 8.086205l0 23.144512c0 6.315716 -5.119896 11.435619 -11.435616 11.435619l-20.215378 0l0 0c-6.315716 0 -11.435617 -5.1199036 -11.435617 -11.435619z" fill-rule="evenodd"/><path fill="#833011" d="m70.73236 35.486286l0 0c6.3157196 0 11.435616 5.1199036 11.435616 11.435619l0 20.215378l0 0c0 3.0329132 -1.2048187 5.9416122 -3.349411 8.086205c-2.1445923 2.1445923 -5.0532913 3.349411 -8.086205 3.349411l-41.443726 0c-6.3157177 0 -11.435619 -5.119896 -11.435619 -11.435616l0 -20.215378l0 0c0 -6.315716 5.1199017 -11.435619 11.435619 -11.435619z" fill-rule="evenodd"/><path fill="#320303" d="m27.881882 49.161125l0 0c0 -3.209896 2.6021366 -5.8120346 5.8120346 -5.8120346l6.8956184 0l0 0c1.5414467 0 3.0197601 0.612339 4.109726 1.7023048c1.0899696 1.0899696 1.7023048 2.568283 1.7023048 4.10973l0 6.8956184c0 3.209896 -2.6021347 5.8120346 -5.812031 5.8120346l-6.8956184 0c-3.209898 0 -5.8120346 -2.6021385 -5.8120346 -5.8120346z" fill-rule="evenodd"/><path fill="#320303" d="m53.619415 49.161125l0 0c0 -3.209896 2.6021347 -5.8120346 5.812031 -5.8120346l6.8956184 0l0 0c1.5414505 0 3.0197601 0.612339 4.1097336 1.7023048c1.0899658 1.0899696 1.702301 2.568283 1.702301 4.10973l0 6.8956184c0 3.209896 -2.6021347 5.8120346 -5.8120346 5.8120346l-6.8956184 0c-3.209896 0 -5.812031 -2.6021385 -5.812031 -5.8120346z" fill-rule="evenodd"/><path fill="#833011" d="m28.557665 66.67704c-0.9273834 1.9711227 -0.46237946 7.102356 -0.34645653 9.740158c0.11592293 2.6377945 0.25940514 4.1736603 1.041996 6.086609c0.78258896 1.9129486 2.465004 4.4055176 3.6535416 5.391075c1.1885414 0.9855652 2.6951027 0.9278259 3.4776917 0.522316c0.78258896 -0.40551758 0.95713043 -1.6220474 1.2178459 -2.9553833c0.2607193 -1.3333359 0.11461258 -3.9431305 0.34645844 -5.0446167c0.23184586 -1.1014938 0.6675415 -1.3324585 1.0446205 -1.5643082c0.3770752 -0.23184204 0.7541542 0.028434753 1.2178459 0.1732254c0.4636917 0.14479828 1.2165375 0.11592865 1.5643044 0.6955414c0.3477707 0.57961273 0.3775177 1.3328934 0.52231216 2.7821503c0.14479446 1.4492569 -0.34908295 4.7830276 0.34645462 5.913391c0.69553757 1.1303558 3.0730553 1.3035812 3.8267708 0.8687668c0.75371933 -0.43482208 0.5218735 -2.0866165 0.69553757 -3.4776917c0.17366791 -1.3910751 0.14348221 -3.738411 0.34645844 -4.868767c0.20297623 -1.1303635 0.4365692 -1.5363083 0.8713913 -1.9133911c0.43482208 -0.3770752 1.1290474 -0.3202057 1.7375336 -0.34907532c0.6084862 -0.028877258 1.4492569 -0.14304352 1.9133835 0.17584991c0.4641304 0.31890106 0.7843399 1.0131226 0.8713913 1.7375336c0.08705139 0.724411 -0.37795258 1.5363083 -0.34907913 2.6089249c0.028869629 1.0726166 0.34820557 2.8989487 0.52230835 3.826767c0.17410278 0.9278259 -0.115486145 1.3053436 0.52230835 1.7401581c0.6377983 0.43482208 2.5511818 1.0139999 3.3044624 0.8687668c0.75328064 -0.14523315 0.9545059 -0.9286957 1.2152252 -1.7401581c0.26071548 -0.8114548 0.29090118 -2.3171463 0.34907913 -3.1286087c0.058181763 -0.8114548 0.028873444 -1.0153046 0 -1.7401581c-0.028869629 -0.7248459 -0.37620163 -1.8840714 -0.1732254 -2.6089172c0.20297241 -0.7248535 0.86964035 -1.4501343 1.3910751 -1.7401581c0.5214348 -0.29003143 1.2449684 -0.23228455 1.7375336 0c0.49256134 0.23228455 1.0148735 1.0747986 1.2178459 1.3936996c0.20297623 0.31889343 0 -0.08880615 0 0.51968384c0 0.60849 -0.14479446 1.913826 0 3.1312332c0.14479446 1.2174072 0.3468933 3.3035889 0.8687668 4.1732254c0.5218735 0.86964417 1.3635178 1.3342133 2.2624664 1.0446243c0.89894867 -0.28958893 2.2038498 -1.1876678 3.1312332 -2.7821503c0.9273834 -1.59449 1.9693832 -4.6395493 2.433075 -6.7847824c0.4636917 -2.1452332 0.29090118 -4.0577393 0.34907532 -6.086609c0.058181763 -2.0288773 0.17410278 -4.6955414 0 -6.0866165c-0.17410278 -1.3910751 0.31802368 -1.7961502 -1.0446167 -2.259842c-1.3626404 -0.4636917 -4.5516205 -0.49343872 -7.131233 -0.52230835c-2.5796165 -0.028877258 -5.1872253 0.17497253 -8.346458 0.34907532c-3.1592293 0.17410278 -7.043743 0.7248535 -10.608921 0.6955414c-3.5651817 -0.029312134 -8.115486 -1.0739288 -10.782154 -0.8713913c-2.666666 0.20253754 -4.2904625 0.115486145 -5.217848 2.0866165z" fill-rule="evenodd"/></g></svg>