<svg version="1.1" viewBox="0.0 0.0 100.0 100.0" fill="none" stroke="none" stroke-linecap="square" stroke-miterlimit="10" xmlns:xlink="http://www.w3.org/1999/xlink" xmlns="http://www.w3.org/2000/svg"><clipPath id="p.0"><path d="m0 0l100.0 0l0 100.0l-100.0 0l0 -100.0z" clip-rule="nonzero"/></clipPath><g clip-path="url(#p.0)"><path fill="#000000" fill-opacity="0.0" d="m0 0l100.0 0l0 100.0l-100.0 0z" fill-rule="evenodd"/><path fill="#38761d" d="m54.197033 19.09714l0 0c0 -2.068304 1.676693 -3.744997 3.744999 -3.744997l15.880081 0l0 0c0.9932327 0 1.9457932 0.3945608 2.648117 1.0968838c0.7023239 0.7023239 1.096878 1.6548786 1.096878 2.6481133l0 6.620241c0 2.068306 -1.6766891 3.744997 -3.744995 3.744997l-15.880081 0c-2.068306 0 -3.744999 -1.676691 -3.744999 -3.744997z" fill-rule="evenodd"/><path fill="#783f04" d="m44.879993 13.039155l0 0c0 -1.4958277 1.2126083 -2.708436 2.708435 -2.708436l4.7878532 0l0 0c0.71832275 0 1.4072227 0.2853527 1.9151535 0.7932825c0.50793076 0.50793076 0.79328156 1.1968317 0.79328156 1.9151535l0 14.835097c0 1.4958267 -1.2126083 2.708435 -2.708435 2.708435l-4.7878532 0l0 0c-1.4958267 0 -2.708435 -1.2126083 -2.708435 -2.708435z" fill-rule="evenodd"/><path fill="#cc0000" d="m22.436771 44.092377l0 0c0 -8.079315 6.5495815 -14.628897 14.628899 -14.628897l25.860313 0l0 0c3.8798256 0 7.6007423 1.541254 10.344196 4.284704c2.7434464 2.7434502 4.2846985 6.464367 4.2846985 10.3441925l0 25.860313c0 8.079315 -6.549576 14.628899 -14.628895 14.628899l-25.860313 0l0 0c-8.079317 0 -14.628899 -6.5495834 -14.628899 -14.628899z" fill-rule="evenodd"/><path fill="#cc0000" d="m28.458992 38.53604l0 0c0 -6.3157196 5.1198997 -11.435619 11.435619 -11.435619l20.215378 0l0 0c3.0329132 0 5.9416084 1.2048206 8.086201 3.3494148c2.1446 2.144596 3.3494186 5.0532875 3.3494186 8.086205l0 39.71144c0 6.3157196 -5.1199036 11.435616 -11.435619 11.435616l-20.215378 0l0 0c-6.3157196 0 -11.435619 -5.119896 -11.435619 -11.435616z" fill-rule="evenodd"/><path fill="#cc0000" d="m70.73236 35.486286l0 0c6.3157196 0 11.435616 5.1199036 11.435616 11.435619l0 20.215378l0 0c0 3.0329132 -1.2048187 5.9416122 -3.349411 8.086205c-2.1445923 2.1445923 -5.0532913 3.349411 -8.086205 3.349411l-41.443726 0c-6.3157177 0 -11.435619 -5.119896 -11.435619 -11.435616l0 -20.215378l0 0c0 -6.315716 5.1199017 -11.435619 11.435619 -11.435619z" fill-rule="evenodd"/><path fill="#efefef" d="m26.767176 43.608246l0 0c0 -2.09626 1.6993542 -3.7956123 3.7956142 -3.7956123l4.5032616 0l0 0c1.0066605 0 1.9720879 0.3998947 2.6839027 1.1117096c0.7118149 0.7118149 1.1117096 1.6772423 1.1117096 2.6839027l0 4.5032616c0 2.09626 -1.6993523 3.7956123 -3.7956123 3.7956123l-4.5032616 0c-2.09626 0 -3.7956142 -1.6993523 -3.7956142 -3.7956123z" fill-rule="evenodd"/><path fill="#efefef" d="m32.7755 37.412235l0 0c0 -2.09626 1.6993561 -3.7956123 3.7956123 -3.7956123l4.5032616 0l0 0c1.0066605 0 1.9720917 0.3998947 2.6839066 1.1117096c0.7118149 0.7118149 1.1117096 1.6772423 1.1117096 2.6839027l0 4.5032616c0 2.09626 -1.6993561 3.7956123 -3.7956161 3.7956123l-4.5032616 0c-2.0962563 0 -3.7956123 -1.6993523 -3.7956123 -3.7956123z" fill-rule="evenodd"/></g></svg>