<svg version="1.1" viewBox="0.0 0.0 100.0 100.0" fill="none" stroke="none" stroke-linecap="square" stroke-miterlimit="10" xmlns:xlink="http://www.w3.org/1999/xlink" xmlns="http://www.w3.org/2000/svg"><clipPath id="p.0"><path d="m0 0l100.0 0l0 100.0l-100.0 0l0 -100.0z" clip-rule="nonzero"/></clipPath><g clip-path="url(#p.0)"><path fill="#000000" fill-opacity="0.0" d="m0 0l100.0 0l0 100.0l-100.0 0z" fill-rule="evenodd"/><path fill="#563b0d" d="m54.197033 19.09714l0 0c0 -2.068304 1.676693 -3.744997 3.744999 -3.744997l15.880081 0l0 0c0.9932327 0 1.9457932 0.3945608 2.648117 1.0968838c0.7023239 0.7023239 1.096878 1.6548786 1.096878 2.6481133l0 6.620241c0 2.068306 -1.6766891 3.744997 -3.744995 3.744997l-15.880081 0c-2.068306 0 -3.744999 -1.676691 -3.744999 -3.744997z" fill-rule="evenodd"/><path fill="#48241e" d="m44.879993 13.039155l0 0c0 -1.4958277 1.2126083 -2.708436 2.708435 -2.708436l4.7878532 0l0 0c0.71832275 0 1.4072227 0.2853527 1.9151535 0.7932825c0.50793076 0.50793076 0.79328156 1.1968317 0.79328156 1.9151535l0 14.835097c0 1.4958267 -1.2126083 2.708435 -2.708435 2.708435l-4.7878532 0l0 0c-1.4958267 0 -2.708435 -1.2126083 -2.708435 -2.708435z" fill-rule="evenodd"/><path fill="#833011" d="m70.73236 35.486286l0 0c6.3157196 0 11.435616 5.1199036 11.435616 11.435619l0 20.215378l0 0c0 3.0329132 -1.2048187 5.9416122 -3.349411 8.086205c-2.1445923 2.1445923 -5.0532913 3.349411 -8.086205 3.349411l-41.443726 0c-6.3157177 0 -11.435619 -5.119896 -11.435619 -11.435616l0 -20.215378l0 0c0 -6.315716 5.1199017 -11.435619 11.435619 -11.435619z" fill-rule="evenodd"/><path fill="#833011" d="m22.435696 44.09352l0 0c0 -8.079319 6.5495796 -14.628899 14.628899 -14.628899l25.860313 0l0 0c3.8798256 0 7.6007423 1.541254 10.344196 4.284706c2.7434464 2.7434502 4.2846985 6.464367 4.2846985 10.3441925l0 28.66346c0 8.079323 -6.549576 14.628899 -14.628895 14.628899l-25.860313 0l0 0c-8.079319 0 -14.628899 -6.549576 -14.628899 -14.628899z" fill-rule="evenodd"/><path fill="#833011" d="m28.459318 38.5353l0 0c0 -6.3157196 5.1199017 -11.435619 11.435617 -11.435619l20.215378 0l0 0c3.0329132 0 5.9416122 1.2048206 8.086205 3.3494148c2.1445923 2.1445923 3.349411 5.0532875 3.349411 8.086205l0 44.876793c0 6.3157196 -5.119896 11.435616 -11.435616 11.435616l-20.215378 0l0 0c-6.315716 0 -11.435617 -5.119896 -11.435617 -11.435616z" fill-rule="evenodd"/><path fill="#320303" d="m27.881882 49.161125l0 0c0 -3.209896 2.6021366 -5.8120346 5.8120346 -5.8120346l6.8956184 0l0 0c1.5414467 0 3.0197601 0.612339 4.109726 1.7023048c1.0899696 1.0899696 1.7023048 2.568283 1.7023048 4.10973l0 6.8956184c0 3.209896 -2.6021347 5.8120346 -5.812031 5.8120346l-6.8956184 0c-3.209898 0 -5.8120346 -2.6021385 -5.8120346 -5.8120346z" fill-rule="evenodd"/><path fill="#320303" d="m53.619415 49.161125l0 0c0 -3.209896 2.6021347 -5.8120346 5.812031 -5.8120346l6.8956184 0l0 0c1.5414505 0 3.0197601 0.612339 4.1097336 1.7023048c1.0899658 1.0899696 1.702301 2.568283 1.702301 4.10973l0 6.8956184c0 3.209896 -2.6021347 5.8120346 -5.8120346 5.8120346l-6.8956184 0c-3.209896 0 -5.812031 -2.6021385 -5.812031 -5.8120346z" fill-rule="evenodd"/><path fill="#320303" d="m47.13386 74.56898l0 0c0 -0.9935379 0.80542374 -1.7989655 1.7989655 -1.7989655l2.1343575 0l0 0c0.47711563 0 0.93468857 0.18953705 1.2720566 0.5269089c0.33737183 0.3373642 0.52690506 0.79493713 0.52690506 1.2720566l0 13.850891c0 0.9935379 -0.80542374 1.7989655 -1.7989616 1.7989655l-2.1343575 0c-0.9935417 0 -1.7989655 -0.80542755 -1.7989655 -1.7989655z" fill-rule="evenodd"/><path fill="#320303" d="m57.603764 74.56898l0 0c0 -0.9935379 0.80542374 -1.7989655 1.7989655 -1.7989655l2.1343575 0l0 0c0.47711563 0 0.93468857 0.18953705 1.2720566 0.5269089c0.33737183 0.3373642 0.52690506 0.79493713 0.52690506 1.2720566l0 13.850891c0 0.9935379 -0.80542374 1.7989655 -1.7989616 1.7989655l-2.1343575 0c-0.9935417 0 -1.7989655 -0.80542755 -1.7989655 -1.7989655z" fill-rule="evenodd"/><path fill="#320303" d="m36.66394 74.56898l0 0c0 -0.9935379 0.80542374 -1.7989655 1.7989655 -1.7989655l2.1343575 0l0 0c0.47711182 0 0.93468857 0.18953705 1.2720566 0.5269089c0.33737183 0.3373642 0.52690506 0.79493713 0.52690506 1.2720566l0 13.850891c0 0.9935379 -0.80542374 1.7989655 -1.7989616 1.7989655l-2.1343575 0c-0.9935417 0 -1.7989655 -0.80542755 -1.7989655 -1.7989655z" fill-rule="evenodd"/></g></svg>