<svg version="1.1" viewBox="0.0 0.0 100.0 100.0" fill="none" stroke="none" stroke-linecap="square" stroke-miterlimit="10" xmlns:xlink="http://www.w3.org/1999/xlink" xmlns="http://www.w3.org/2000/svg"><clipPath id="p.0"><path d="m0 0l100.0 0l0 100.0l-100.0 0l0 -100.0z" clip-rule="nonzero"/></clipPath><g clip-path="url(#p.0)"><path fill="#000000" fill-opacity="0.0" d="m0 0l100.0 0l0 100.0l-100.0 0z" fill-rule="evenodd"/><path fill="#cc0000" d="m49.99866 27.56559l16.699177 -26.022362l-1.6465836 23.89122l18.95594 -3.8943825l-7.528534 12.822742l19.718666 3.6879997l-15.658287 10.489704l17.915054 12.629818l-21.369743 -1.5613403l5.868492 23.119518l-18.507286 -16.322296l-3.468151 23.689316l-12.181156 -21.544716l-9.184101 29.903282l-3.4546928 -26.798546l-13.248972 8.92836l4.0603867 -16.510742l-24.81995 2.9163055l16.093485 -12.616364l-16.699177 -14.1777l20.759563 -4.477642l-19.099518 -23.877758l31.146076 18.05862l4.6660805 -18.05862z" fill-rule="evenodd"/><path fill="#e69138" d="m49.99866 32.878006l12.850182 -19.17197l-1.267067 17.601852l14.586788 -2.8691845l-5.793289 9.447153l15.173714 2.7171288l-12.049202 7.7282867l13.785805 9.305016l-16.44423 -1.1503181l4.5158615 17.033302l-14.241535 -12.025452l-2.6687775 17.453102l-9.37352 -15.873066l-7.067253 22.031239l-2.6584206 -19.743828l-10.195211 6.5779724l3.124506 -12.164284l-19.099194 2.1485825l12.384094 -9.295101l-12.850182 -10.4454155l15.974688 -3.2989006l-14.697265 -17.591934l23.967209 13.304684l3.5905914 -13.304684z" fill-rule="evenodd"/><path fill="#ffd966" d="m49.99866 39.050655l8.46291 -11.090025l-0.83446884 10.181791l9.606609 -1.6596794l-3.8153572 5.4647064l9.993145 1.5717239l-7.935402 4.4704285l9.079102 5.3824844l-10.829891 -0.66540146l2.9740715 9.852917l-9.379234 -6.9561234l-1.7576103 10.095749l-6.1732407 -9.181778l-4.654373 12.743965l-1.7507896 -11.420811l-6.7143936 3.805027l2.057747 -7.0364304l-12.578402 1.2428474l8.155951 -5.376751l-8.462908 -6.0421524l10.520655 -1.9082489l-9.679367 -10.176056l15.784397 7.6960945l2.3647041 -7.6960945z" fill-rule="evenodd"/><path fill="#ffffff" d="m50.001205 44.888348l4.04731 -4.3187943l-0.39907837 3.9650993l4.5942726 -0.6463318l-1.8246574 2.1281242l4.779129 0.6120758l-3.7950325 1.740921l4.3419952 2.0961037l-5.1792946 -0.25912857l1.4223213 3.8370247l-4.485531 -2.7089233l-0.8405609 3.9315872l-2.9522972 -3.5756607l-2.2259102 4.962887l-0.83729935 -4.447609l-3.2110977 1.4817924l0.98410034 -2.7402l-6.0155067 0.48400116l3.9005089 -2.0938683l-4.047306 -2.3529968l5.0314064 -0.74312973l-4.6290703 -3.9628677l7.548744 2.9970932l1.1308975 -2.9970932z" fill-rule="evenodd"/></g></svg>