<svg version="1.1" viewBox="0.0 0.0 100.0 100.0" fill="none" stroke="none" stroke-linecap="square" stroke-miterlimit="10" xmlns:xlink="http://www.w3.org/1999/xlink" xmlns="http://www.w3.org/2000/svg"><clipPath id="p.0"><path d="m0 0l100.0 0l0 100.0l-100.0 0l0 -100.0z" clip-rule="nonzero"/></clipPath><g clip-path="url(#p.0)"><path fill="#000000" fill-opacity="0.0" d="m0 0l100.0 0l0 100.0l-100.0 0z" fill-rule="evenodd"/><path fill="#cc0000" d="m35.78853 6.4300094l48.377953 21.732283l-48.377953 21.732285z" fill-rule="evenodd"/><path fill="#000000" d="m26.627296 7.915587l0 0c0 -1.5189114 1.2313213 -2.7502327 2.7502327 -2.7502327l4.86174 0l0 0c0.72940826 0 1.4289398 0.28975582 1.944706 0.8055248c0.51576996 0.5157685 0.80552673 1.215301 0.80552673 1.9447079l0 84.16882c0 1.5189133 -1.2313232 2.7502365 -2.7502327 2.7502365l-4.86174 0l0 0c-1.5189114 0 -2.7502327 -1.2313232 -2.7502327 -2.7502365z" fill-rule="evenodd"/></g></svg>