<svg version="1.1" viewBox="0.0 0.0 100.0 100.0" fill="none" stroke="none" stroke-linecap="square" stroke-miterlimit="10" xmlns:xlink="http://www.w3.org/1999/xlink" xmlns="http://www.w3.org/2000/svg"><clipPath id="p.0"><path d="m0 0l100.0 0l0 100.0l-100.0 0l0 -100.0z" clip-rule="nonzero"/></clipPath><g clip-path="url(#p.0)"><path fill="#000000" fill-opacity="0.0" d="m0 0l100.0 0l0 100.0l-100.0 0z" fill-rule="evenodd"/><path fill="#000000" d="m50.013123 41.916l0 0l0 0c5.8639984 0 11.4878235 2.329464 15.6343 6.475937c4.146469 4.1464767 6.475937 9.770302 6.475937 15.6343l0 37.637794c0 2.0599365E-4 -1.6784668E-4 3.6621094E-4 -3.6621094E-4 3.6621094E-4l-44.220108 -3.6621094E-4l0 0c-2.040863E-4 0 -3.681183E-4 -1.6784668E-4 -3.681183E-4 -3.6621094E-4l3.681183E-4 -37.63743l0 0c0 -12.211147 9.899088 -22.110237 22.110235 -22.110237z" fill-rule="evenodd"/></g></svg>