<svg version="1.1" viewBox="0.0 0.0 100.0 100.0" fill="none" stroke="none" stroke-linecap="square" stroke-miterlimit="10" xmlns:xlink="http://www.w3.org/1999/xlink" xmlns="http://www.w3.org/2000/svg"><clipPath id="p.0"><path d="m0 0l100.0 0l0 100.0l-100.0 0l0 -100.0z" clip-rule="nonzero"/></clipPath><g clip-path="url(#p.0)"><path fill="#000000" fill-opacity="0.0" d="m0 0l100.0 0l0 100.0l-100.0 0z" fill-rule="evenodd"/><path fill="#000000" d="m24.474403 38.02544l0 0c0 -7.483757 6.066782 -13.550539 13.550537 -13.550539l23.95404 0l0 0c3.5938263 0 7.0404587 1.4276409 9.58168 3.9688606c2.5412216 2.5412197 3.9688568 5.987852 3.9688568 9.581678l0 23.95404c0 7.483753 -6.06678 13.550541 -13.550537 13.550541l-23.95404 0l0 0c-7.483755 0 -13.550537 -6.0667877 -13.550537 -13.550541z" fill-rule="evenodd"/><path fill="#000000" d="m30.053106 30.790806l0 0c0 -5.8494244 4.7418957 -10.591322 10.591322 -10.591322l18.72287 0l0 0c2.8089905 0 5.5029335 1.1158695 7.489193 3.102127c1.9862595 1.9862576 3.102127 4.6802025 3.102127 7.489195l0 38.40791c0 5.8494263 -4.7418976 10.591324 -10.59132 10.591324l-18.72287 0l0 0c-5.8494263 0 -10.591322 -4.7418976 -10.591322 -10.591324z" fill-rule="evenodd"/><path fill="#000000" d="m69.20919 30.053604l0 0c5.8494263 0 10.591324 4.7418976 10.591324 10.59132l0 18.72287l0 0c0 2.8089943 -1.1158676 5.5029335 -3.102127 7.489193c-1.9862595 1.9862595 -4.6801987 3.102127 -7.489197 3.102127l-38.407906 0c-5.8494263 0 -10.591322 -4.7418976 -10.591322 -10.59132l0 -18.72287l0 0c0 -5.8494225 4.7418957 -10.59132 10.591322 -10.59132z" fill-rule="evenodd"/><path fill="#000000" d="m17.737534 21.35714l0 0c0 -1.999054 1.6205521 -3.619606 3.619606 -3.619606l6.3985806 0l0 0c0.95998 0 1.8806419 0.38134956 2.5594501 1.0601578c0.6788082 0.6788082 1.0601578 1.5994682 1.0601578 2.5594482l0 6.3985806c0 1.999054 -1.620554 3.619608 -3.619608 3.619608l-6.3985806 0l0 0c-1.999054 0 -3.619606 -1.620554 -3.619606 -3.619608z" fill-rule="evenodd"/><path fill="#000000" d="m68.615814 21.35714l0 0c0 -1.999054 1.6205521 -3.619606 3.619606 -3.619606l6.3985825 0l0 0c0.9599762 0 1.8806381 0.38134956 2.5594482 1.0601578c0.6788101 0.6788082 1.0601578 1.5994682 1.0601578 2.5594482l0 6.3985806c0 1.999054 -1.6205521 3.619608 -3.619606 3.619608l-6.3985825 0l0 0c-1.999054 0 -3.619606 -1.620554 -3.619606 -3.619608z" fill-rule="evenodd"/><path fill="#000000" d="m17.737534 72.23542l0 0c0 -1.999054 1.6205521 -3.619606 3.619606 -3.619606l6.3985806 0l0 0c0.95998 0 1.8806419 0.38134766 2.5594501 1.0601578c0.6788082 0.6788101 1.0601578 1.599472 1.0601578 2.5594482l0 6.3985825c0 1.999054 -1.620554 3.619606 -3.619608 3.619606l-6.3985806 0l0 0c-1.999054 0 -3.619606 -1.6205521 -3.619606 -3.619606z" fill-rule="evenodd"/><path fill="#000000" d="m68.615814 72.23542l0 0c0 -1.999054 1.6205521 -3.619606 3.619606 -3.619606l6.3985825 0l0 0c0.9599762 0 1.8806381 0.38134766 2.5594482 1.0601578c0.6788101 0.6788101 1.0601578 1.599472 1.0601578 2.5594482l0 6.3985825c0 1.999054 -1.6205521 3.619606 -3.619606 3.619606l-6.3985825 0l0 0c-1.999054 0 -3.619606 -1.6205521 -3.619606 -3.619606z" fill-rule="evenodd"/><path fill="#000000" d="m43.175854 8.459939l0 0c0 -1.999054 1.6205521 -3.6196074 3.619606 -3.6196074l6.3985825 0l0 0c0.95998 0 1.8806381 0.38135052 2.5594482 1.0601587c0.6788063 0.67880774 1.0601578 1.5994692 1.0601578 2.5594487l0 11.500943c0 1.999054 -1.6205521 3.619608 -3.619606 3.619608l-6.3985825 0l0 0c-1.999054 0 -3.619606 -1.620554 -3.619606 -3.619608z" fill-rule="evenodd"/><path fill="#000000" d="m43.177166 80.049614l0 0c0 -1.999054 1.6205521 -3.619606 3.619606 -3.619606l6.3985825 0l0 0c0.95998 0 1.8806381 0.3813553 2.5594482 1.0601578c0.6788063 0.6788101 1.0601578 1.599472 1.0601578 2.5594482l0 11.500946c0 1.999054 -1.6205521 3.619606 -3.619606 3.619606l-6.3985825 0l0 0c-1.999054 0 -3.619606 -1.6205521 -3.619606 -3.619606z" fill-rule="evenodd"/><path fill="#000000" d="m91.54072 43.185696l0 0c1.999054 0 3.619606 1.6205521 3.619606 3.619606l0 6.3985825l0 0c0 0.95998 -0.38134766 1.8806419 -1.0601578 2.5594482c-0.6788101 0.6788063 -1.599472 1.0601578 -2.5594482 1.0601578l-11.500946 0c-1.999054 0 -3.619606 -1.6205521 -3.619606 -3.619606l0 -6.3985825l0 0c0 -1.999054 1.6205521 -3.619606 3.619606 -3.619606z" fill-rule="evenodd"/><path fill="#000000" d="m19.95104 43.187008l0 0c1.999054 0 3.619606 1.6205521 3.619606 3.619606l0 6.3985825l0 0c0 0.95998 -0.38134956 1.8806419 -1.0601578 2.5594482c-0.6788082 0.6788063 -1.5994701 1.0601578 -2.5594482 1.0601578l-11.500944 0c-1.9990535 0 -3.619607 -1.6205521 -3.619607 -3.619606l0 -6.3985825l0 0c0 -1.999054 1.6205535 -3.619606 3.619607 -3.619606z" fill-rule="evenodd"/><path fill="#efefef" d="m31.97101 35.48986l0 0c0 -1.943409 1.5754414 -3.5188503 3.5188503 -3.5188503l4.1749 0l0 0c0.93325424 0 1.828289 0.37073326 2.4882011 1.0306454c0.6599121 0.6599159 1.0306473 1.5549469 1.0306473 2.488205l0 4.1749c0 1.9434052 -1.5754433 3.5188484 -3.5188484 3.5188484l-4.1749 0c-1.943409 0 -3.5188503 -1.5754433 -3.5188503 -3.5188484z" fill-rule="evenodd"/></g></svg>