<svg version="1.1" viewBox="0.0 0.0 100.0 100.0" fill="none" stroke="none" stroke-linecap="square" stroke-miterlimit="10" xmlns:xlink="http://www.w3.org/1999/xlink" xmlns="http://www.w3.org/2000/svg"><clipPath id="p.0"><path d="m0 0l100.0 0l0 100.0l-100.0 0l0 -100.0z" clip-rule="nonzero"/></clipPath><g clip-path="url(#p.0)"><path fill="#000000" fill-opacity="0.0" d="m0 0l100.0 0l0 100.0l-100.0 0z" fill-rule="evenodd"/><path fill="#999999" d="m66.10205 9.865531l0 0c-21.576534 -8.656561 -46.13617 1.2952328 -55.60052 22.52985c-9.464351 21.234615 -0.44612598 46.152187 20.416344 56.410854c20.86247 10.258667 46.10251 2.1868515 57.140884 -18.273773c11.0383835 -20.46062 3.9244614 -45.987198 -16.105186 -57.789574l-6.2791595 10.656278l0 0c14.300766 8.426661 19.37996 26.652124 11.498779 41.260597c-7.88118 14.608475 -25.902065 20.371597 -40.79745 13.0471115c-14.895386 -7.324486 -21.334217 -25.115131 -14.57686 -40.276226c6.7573566 -15.161091 24.292444 -22.266472 39.697662 -16.085861z" fill-rule="evenodd"/><path fill="#999999" d="m33.89795 9.865531l0 0c21.576534 -8.656561 46.13617 1.2952328 55.600517 22.52985c9.464355 21.234615 0.44612885 46.152187 -20.416344 56.410854c-20.862469 10.258667 -46.10251 2.1868515 -57.14089 -18.273773c-11.038379 -20.46062 -3.9244595 -45.987198 16.10519 -57.789574l6.2791634 10.656278l0 0c-14.30077 8.426661 -19.379967 26.652124 -11.498785 41.260597c7.8811817 14.608475 25.902067 20.371597 40.797455 13.0471115c14.89539 -7.324486 21.334217 -25.115131 14.576862 -40.276226c-6.7573547 -15.161091 -24.292446 -22.266472 -39.697662 -16.085861z" fill-rule="evenodd"/></g></svg>