<svg version="1.1" viewBox="0.0 0.0 100.0 100.0" fill="none" stroke="none" stroke-linecap="square" stroke-miterlimit="10" xmlns:xlink="http://www.w3.org/1999/xlink" xmlns="http://www.w3.org/2000/svg"><clipPath id="p.0"><path d="m0 0l100.0 0l0 100.0l-100.0 0l0 -100.0z" clip-rule="nonzero"/></clipPath><g clip-path="url(#p.0)"><path fill="#000000" fill-opacity="0.0" d="m0 0l100.0 0l0 100.0l-100.0 0z" fill-rule="evenodd"/><path fill="#666666" d="m17.944828 90.77768l2.2677155 0l0 0c0.38007545 0 0.7445812 0.15098572 1.0133343 0.41973877c0.26875305 0.26875305 0.41973686 0.633255 0.41973686 1.0133286l0 1.433075c0 2.2888184E-5 -1.9073486E-5 4.5776367E-5 -4.196167E-5 4.5776367E-5l-5.133816 -4.5776367E-5l0 0c-2.2888184E-5 0 -4.196167E-5 -2.2888184E-5 -4.196167E-5 -4.5776367E-5l4.196167E-5 -1.4330292l0 0c0 -0.79145813 0.6416073 -1.4330673 1.4330711 -1.4330673z" fill-rule="evenodd"/><path fill="#666666" d="m82.05517 90.77768l-2.2677155 0l0 0c-0.38007355 0 -0.7445755 0.15098572 -1.0133286 0.41973877c-0.26875305 0.26875305 -0.41973877 0.633255 -0.41973877 1.0133286l0 1.433075c0 2.2888184E-5 1.5258789E-5 4.5776367E-5 3.8146973E-5 4.5776367E-5l5.1338196 -4.5776367E-5l0 0c2.2888184E-5 0 4.5776367E-5 -2.2888184E-5 4.5776367E-5 -4.5776367E-5l-4.5776367E-5 -1.4330292l0 0c0 -0.79145813 -0.6416092 -1.4330673 -1.433075 -1.4330673z" fill-rule="evenodd"/><path fill="#666666" d="m17.944828 9.222321l2.2677155 0l0 0c0.38007545 0 0.7445812 -0.15098381 1.0133343 -0.41973686c0.26875305 -0.26875305 0.41973686 -0.6332598 0.41973686 -1.0133338l0 -1.4330707c0 -2.3841858E-5 -1.9073486E-5 -4.2915344E-5 -4.196167E-5 -4.2915344E-5l-5.133816 4.2915344E-5l0 0c-2.2888184E-5 0 -4.196167E-5 1.9073486E-5 -4.196167E-5 4.2438507E-5l4.196167E-5 1.4330282l0 0c0 0.7914634 0.6416073 1.4330707 1.4330711 1.4330707z" fill-rule="evenodd"/><path fill="#666666" d="m82.05517 9.222321l-2.2677155 0l0 0c-0.38007355 0 -0.7445755 -0.15098381 -1.0133286 -0.41973686c-0.26875305 -0.26875305 -0.41973877 -0.6332598 -0.41973877 -1.0133338l0 -1.4330707c0 -2.3841858E-5 1.5258789E-5 -4.2915344E-5 3.8146973E-5 -4.2915344E-5l5.1338196 4.2915344E-5l0 0c2.2888184E-5 0 4.5776367E-5 1.9073486E-5 4.5776367E-5 4.2438507E-5l-4.5776367E-5 1.4330282l0 0c0 0.7914634 -0.6416092 1.4330707 -1.433075 1.4330707z" fill-rule="evenodd"/><path fill="#999999" d="m22.580063 0l11.779526 0l0 100.0l-11.779526 0z" fill-rule="evenodd"/><path fill="#999999" d="m65.637955 0l11.779526 0l0 100.0l-11.779526 0z" fill-rule="evenodd"/><path fill="#999999" d="m65.637794 -1.2125984l19.90551 0l0 7.968504l-19.90551 0z" fill-rule="evenodd"/><path fill="#999999" d="m14.456693 -1.2125984l19.905514 0l0 7.968504l-19.905514 0z" fill-rule="evenodd"/><path fill="#999999" d="m65.637794 93.244095l19.90551 0l0 7.968506l-19.90551 0z" fill-rule="evenodd"/><path fill="#999999" d="m14.456693 93.244095l19.905514 0l0 7.968506l-19.905514 0z" fill-rule="evenodd"/></g></svg>