<svg version="1.1" viewBox="0.0 0.0 100.0 100.0" fill="none" stroke="none" stroke-linecap="square" stroke-miterlimit="10" xmlns:xlink="http://www.w3.org/1999/xlink" xmlns="http://www.w3.org/2000/svg"><clipPath id="p.0"><path d="m0 0l100.0 0l0 100.0l-100.0 0l0 -100.0z" clip-rule="nonzero"/></clipPath><g clip-path="url(#p.0)"><path fill="#000000" fill-opacity="0.0" d="m0 0l100.0 0l0 100.0l-100.0 0z" fill-rule="evenodd"/><path fill="#999999" d="m22.582678 61.385857l11.779528 0l0 40.031494l-11.779528 0z" fill-rule="evenodd"/><path fill="#999999" d="m65.64042 61.385857l11.779526 0l0 40.031494l-11.779526 0z" fill-rule="evenodd"/><path fill="#666666" d="m82.04992 90.75531l-2.2677155 0l0 0c-0.38007355 0 -0.7445755 0.15098572 -1.0133286 0.41973877c-0.26875305 0.26875305 -0.41973877 0.633255 -0.41973877 1.0133286l0 1.433075c0 2.2888184E-5 1.5258789E-5 3.8146973E-5 3.8146973E-5 3.8146973E-5l5.1338196 -3.8146973E-5l0 0c2.2888184E-5 0 3.8146973E-5 -2.2888184E-5 3.8146973E-5 -4.5776367E-5l-3.8146973E-5 -1.4330292l0 0c0 -0.79145813 -0.6416092 -1.4330673 -1.433075 -1.4330673z" fill-rule="evenodd"/><path fill="#666666" d="m17.939579 90.75531l2.2677155 0l0 0c0.38007545 0 0.7445812 0.15098572 1.0133343 0.41973877c0.26875305 0.26875305 0.41973686 0.633255 0.41973686 1.0133286l0 1.433075c0 2.2888184E-5 -1.9073486E-5 3.8146973E-5 -4.196167E-5 3.8146973E-5l-5.133816 -3.8146973E-5l0 0c-2.4795532E-5 0 -4.386902E-5 -2.2888184E-5 -4.386902E-5 -4.5776367E-5l4.386902E-5 -1.4330292l0 0c0 -0.79145813 0.6416073 -1.4330673 1.4330711 -1.4330673z" fill-rule="evenodd"/><path fill="#999999" d="m65.64304 93.438l19.90551 0l0 7.968506l-19.90551 0z" fill-rule="evenodd"/><path fill="#999999" d="m26.057743 61.610046l0 0c0 -12.381588 10.696655 -22.42368 23.903671 -22.440926c13.207012 -0.017242432 23.933468 9.996876 23.97025 22.378418l-8.307159 0.021690369c-0.024902344 -7.7978554 -7.02903 -14.104183 -15.652321 -14.092926c-8.623291 0.011260986 -15.60725 6.3358536 -15.60725 14.133743z" fill-rule="evenodd"/><path fill="#999999" d="m14.451444 93.438l19.905514 0l0 7.968506l-19.905514 0z" fill-rule="evenodd"/><path fill="#999999" d="m22.572178 61.61807l0 0c0 -14.188873 12.251907 -25.696758 27.379158 -25.71651c15.1272545 -0.019752502 27.413265 11.456097 27.45538 25.644917l-9.519714 0.024856567l0 0c-0.02848816 -8.936077 -8.048855 -16.162926 -17.92332 -16.150036c-9.874466 0.012893677 -17.871754 7.2606583 -17.871754 16.196774z" fill-rule="evenodd"/></g></svg>