<svg version="1.1" viewBox="0.0 0.0 100.0 100.0" fill="none" stroke="none" stroke-linecap="square" stroke-miterlimit="10" xmlns:xlink="http://www.w3.org/1999/xlink" xmlns="http://www.w3.org/2000/svg"><clipPath id="p.0"><path d="m0 0l100.0 0l0 100.0l-100.0 0l0 -100.0z" clip-rule="nonzero"/></clipPath><g clip-path="url(#p.0)"><path fill="#000000" fill-opacity="0.0" d="m0 0l100.0 0l0 100.0l-100.0 0z" fill-rule="evenodd"/><path fill="#666666" d="m82.05517 9.222321l-2.2677155 0l0 0c-0.38007355 0 -0.7445755 -0.15098381 -1.0133286 -0.41973686c-0.26875305 -0.26875305 -0.41973877 -0.6332598 -0.41973877 -1.0133338l0 -1.4330707c0 -2.3841858E-5 1.5258789E-5 -4.2915344E-5 3.8146973E-5 -4.2915344E-5l5.1338196 4.2915344E-5l0 0c2.2888184E-5 0 4.5776367E-5 1.9073486E-5 4.5776367E-5 4.2438507E-5l-4.5776367E-5 1.4330282l0 0c0 0.7914634 -0.6416092 1.4330707 -1.433075 1.4330707z" fill-rule="evenodd"/><path fill="#999999" d="m65.637794 -1.2125984l19.90551 0l0 7.968504l-19.90551 0z" fill-rule="evenodd"/><path fill="#999999" d="m65.637794 0l11.779526 0l0 23.401575l-11.779526 0z" fill-rule="evenodd"/><path fill="#999999" d="m28.622084 87.59038l0 0c20.64778 11.742538 46.90177 4.632866 58.802765 -15.923988c11.900993 -20.556862 4.9934464 -46.86476 -15.471275 -58.9235l-6.2791595 10.656278l0 0c14.611397 8.609701 19.543251 27.393015 11.046181 42.070198c-8.49707 14.677185 -27.241901 19.75335 -41.984 11.369408z" fill-rule="evenodd"/><path fill="#666666" d="m17.944828 9.222321l2.2677174 0l0 0c0.38007355 0 0.7445812 -0.15098381 1.0133343 -0.41973686c0.26875305 -0.26875305 0.41973686 -0.6332598 0.41973686 -1.0133338l0 -1.4330707c0 -2.3841858E-5 -1.9073486E-5 -4.2915344E-5 -4.386902E-5 -4.2915344E-5l-5.133816 4.2915344E-5l0 0c-2.2888184E-5 0 -4.196167E-5 1.9073486E-5 -4.196167E-5 4.2438507E-5l4.196167E-5 1.4330282l0 0c0 0.7914634 0.6416092 1.4330707 1.4330711 1.4330707z" fill-rule="evenodd"/><path fill="#999999" d="m34.362206 -1.2125984l-19.905514 0l0 7.968504l19.905514 0z" fill-rule="evenodd"/><path fill="#999999" d="m34.362206 0l-11.779528 0l0 23.401575l11.779528 0z" fill-rule="evenodd"/><path fill="#999999" d="m71.377914 87.59038l0 0c-20.647778 11.742538 -46.90177 4.632866 -58.802765 -15.923988c-11.900991 -20.556862 -4.993446 -46.86476 15.471275 -58.9235l6.2791634 10.656278l0 0c-14.6114025 8.609701 -19.543253 27.393015 -11.046183 42.070198c8.49707 14.677185 27.2419 19.75335 41.984 11.369408z" fill-rule="evenodd"/></g></svg>