<svg version="1.1" viewBox="0.0 0.0 100.0 100.0" fill="none" stroke="none" stroke-linecap="square" stroke-miterlimit="10" xmlns:xlink="http://www.w3.org/1999/xlink" xmlns="http://www.w3.org/2000/svg"><clipPath id="p.0"><path d="m0 0l100.0 0l0 100.0l-100.0 0l0 -100.0z" clip-rule="nonzero"/></clipPath><g clip-path="url(#p.0)"><path fill="#000000" fill-opacity="0.0" d="m0 0l100.0 0l0 100.0l-100.0 0z" fill-rule="evenodd"/><path fill="#666666" d="m17.944828 90.77768l2.2677155 0l0 0c0.38007545 0 0.7445812 0.15098572 1.0133343 0.41973877c0.26875305 0.26875305 0.41973686 0.633255 0.41973686 1.0133286l0 1.433075c0 2.2888184E-5 -1.9073486E-5 4.5776367E-5 -4.196167E-5 4.5776367E-5l-5.133816 -4.5776367E-5l0 0c-2.2888184E-5 0 -4.196167E-5 -2.2888184E-5 -4.196167E-5 -4.5776367E-5l4.196167E-5 -1.4330292l0 0c0 -0.79145813 0.6416073 -1.4330673 1.4330711 -1.4330673z" fill-rule="evenodd"/><path fill="#666666" d="m82.05517 90.77768l-2.2677155 0l0 0c-0.38007355 0 -0.7445755 0.15098572 -1.0133286 0.41973877c-0.26875305 0.26875305 -0.41973877 0.633255 -0.41973877 1.0133286l0 1.433075c0 2.2888184E-5 1.5258789E-5 4.5776367E-5 3.8146973E-5 4.5776367E-5l5.1338196 -4.5776367E-5l0 0c2.2888184E-5 0 4.5776367E-5 -2.2888184E-5 4.5776367E-5 -4.5776367E-5l-4.5776367E-5 -1.4330292l0 0c0 -0.79145813 -0.6416092 -1.4330673 -1.433075 -1.4330673z" fill-rule="evenodd"/><path fill="#999999" d="m22.580053 74.05249l11.779528 0l0 25.952759l-11.779528 0z" fill-rule="evenodd"/><path fill="#999999" d="m65.637794 93.244095l19.90551 0l0 7.968506l-19.90551 0z" fill-rule="evenodd"/><path fill="#999999" d="m14.456693 93.244095l19.905514 0l0 7.968506l-19.905514 0z" fill-rule="evenodd"/><path fill="#666666" d="m90.77768 17.944828l0 2.2677155l0 0c0 0.38007545 0.15098572 0.7445812 0.41973877 1.0133343c0.26875305 0.26875305 0.633255 0.41973686 1.0133286 0.41973686l1.433075 0c2.2888184E-5 0 4.5776367E-5 -1.9073486E-5 4.5776367E-5 -4.196167E-5l-4.5776367E-5 -5.133816l0 0c0 -2.2888184E-5 -2.2888184E-5 -4.196167E-5 -4.5776367E-5 -4.196167E-5l-1.4330292 4.196167E-5l0 0c-0.79145813 0 -1.4330673 0.6416073 -1.4330673 1.4330711z" fill-rule="evenodd"/><path fill="#666666" d="m90.77768 82.05517l0 -2.2677155l0 0c0 -0.38007355 0.15098572 -0.7445755 0.41973877 -1.0133286c0.26875305 -0.26875305 0.633255 -0.41973877 1.0133286 -0.41973877l1.433075 0c2.2888184E-5 0 4.5776367E-5 1.5258789E-5 4.5776367E-5 3.8146973E-5l-4.5776367E-5 5.1338196l0 0c0 2.2888184E-5 -2.2888184E-5 4.5776367E-5 -4.5776367E-5 4.5776367E-5l-1.4330292 -4.5776367E-5l0 0c-0.79145813 0 -1.4330673 -0.6416092 -1.4330673 -1.433075z" fill-rule="evenodd"/><path fill="#999999" d="m101.2126 65.637794l0 19.90551l-7.968506 0l0 -19.90551z" fill-rule="evenodd"/><path fill="#999999" d="m101.2126 14.456693l0 19.905514l-7.968506 0l0 -19.905514z" fill-rule="evenodd"/><path fill="#999999" d="m75.84252 34.35958l0 -11.779528l24.157478 0l0 11.779528z" fill-rule="evenodd"/><path fill="#999999" d="m65.637794 88.0l11.779526 0l0 13.228348l-11.779526 0z" fill-rule="evenodd"/><path fill="#999999" d="m88.94751 77.41732l0 -11.779526l12.251968 0l0 11.779526z" fill-rule="evenodd"/><path fill="#999999" d="m22.580053 77.05249l0 0c0 -30.015018 24.280127 -54.37437 54.294983 -54.47215l0.038345337 11.769253l0 0c-23.529854 0.07665253 -42.564014 19.172924 -42.564014 42.702896z" fill-rule="evenodd"/><path fill="#999999" d="m65.637794 89.76378l0 0c0 -13.307945 10.775887 -24.102684 24.083809 -24.125946l0.02067566 11.826538l0 0c-6.784378 0.0118637085 -12.277924 5.5150223 -12.277924 12.299408z" fill-rule="evenodd"/></g></svg>