<svg version="1.1" viewBox="0.0 0.0 100.0 100.0" fill="none" stroke="none" stroke-linecap="square" stroke-miterlimit="10" xmlns:xlink="http://www.w3.org/1999/xlink" xmlns="http://www.w3.org/2000/svg"><clipPath id="p.0"><path d="m0 0l100.0 0l0 100.0l-100.0 0l0 -100.0z" clip-rule="nonzero"/></clipPath><g clip-path="url(#p.0)"><path fill="#999999" d="m0 0l100.0 0l0 100.0l-100.0 0z" fill-rule="evenodd"/><path fill="#b7b7b7" d="m11.87664 11.87664l76.25197 0l0 76.25197l-76.25197 0z" fill-rule="evenodd"/><path fill="#c5c5c5" d="m-0.832021 -0.832021l101.6693 0l-12.708664 12.708661l-76.25197 0z" fill-rule="evenodd"/><path fill="#929292" d="m-0.832021 100.83727l12.708661 -12.708664l76.25197 0l12.708664 12.708664z" fill-rule="evenodd"/><path fill="#d3d3d3" d="m-0.832021 -0.832021l12.708661 12.708661l0 76.25197l-12.708661 12.708664z" fill-rule="evenodd"/><path fill="#6d6d6d" d="m100.83727 -0.832021l0 101.6693l-12.708664 -12.708664l0 -76.25197z" fill-rule="evenodd"/><path fill="#000000" fill-opacity="0.0" d="m-0.832021 -0.832021l101.6693 0l0 101.6693l-101.6693 0zm12.708661 12.708661l76.25197 0l0 76.25197l-76.25197 0zm-12.708661 -12.708661l12.708661 12.708661m-12.708661 88.96063l12.708661 -12.708664m88.96063 -88.96063l-12.708664 12.708661m12.708664 88.96063l-12.708664 -12.708664" fill-rule="evenodd"/></g></svg>